<svg width="1618" height="1618" viewBox="0 0 1618 1618" fill="none" xmlns="http://www.w3.org/2000/svg">
<path d="M809 0L961.708 288.926L1246.38 128.426L1218.64 454.046L1544.89 472.929L1345.51 731.861L1609.77 924.133L1302.05 1034.17L1420.4 1338.78L1102.04 1264.98L1036.92 1585.23L809 1351.03L581.078 1585.23L515.956 1264.98L197.599 1338.78L315.952 1034.17L8.23444 924.133L272.487 731.861L73.1077 472.929L399.361 454.046L371.622 128.426L656.292 288.926L809 0Z" fill="#B12824"/>
<path d="M693.222 550.727L833.986 414.747L866.785 447.546L801.528 543.21L898.388 479.149L929.992 510.753L794.012 651.516L772.316 629.821L861.831 535.181L753.696 611.2L734.392 591.897L810.07 482.053L715.259 572.764L693.222 550.727ZM851.599 713.203C841.235 702.839 834.857 692.817 832.466 683.137C830.074 673.457 830.985 663.89 835.199 654.438C839.413 644.985 846.246 635.532 855.698 626.08L907.118 574.66C916.685 565.094 926.137 558.261 935.476 554.161C944.814 550.061 954.267 549.264 963.833 551.769C973.514 554.161 983.536 560.538 993.899 570.902C1004.38 581.38 1010.81 591.459 1013.2 601.139C1015.82 610.819 1015.08 620.329 1010.98 629.667C1006.88 639.006 1000.05 648.459 990.483 658.025L939.063 709.445C929.611 718.897 920.158 725.73 910.706 729.944C901.253 734.158 891.63 735.012 881.835 732.507C872.155 730.115 862.076 723.68 851.599 713.203ZM873.294 691.508C876.483 694.696 879.615 696.234 882.69 696.12C885.764 696.006 888.782 694.924 891.743 692.874C894.704 690.824 897.495 688.49 900.114 685.87L966.738 619.247C969.471 616.513 971.805 613.723 973.742 610.876C975.791 607.915 976.873 604.897 976.987 601.822C977.101 598.747 975.564 595.615 972.375 592.427C969.414 589.466 966.396 588.042 963.321 588.156C960.246 588.27 957.228 589.352 954.267 591.402C951.42 593.338 948.63 595.672 945.896 598.406L879.273 665.029C876.654 667.648 874.262 670.382 872.098 673.229C870.048 676.19 868.909 679.151 868.681 682.112C868.568 685.187 870.105 688.319 873.294 691.508ZM948.79 810.394C940.134 801.739 934.44 792.97 931.707 784.086C928.974 775.203 929.315 766.092 932.732 756.754C936.262 747.301 942.982 737.279 952.89 726.688L982.956 748.896C977.147 754.932 972.877 760.227 970.143 764.783C967.524 769.452 966.271 773.438 966.385 776.741C966.613 780.157 967.98 783.118 970.485 785.624C973.674 788.813 976.806 789.781 979.881 788.528C983.07 787.389 985.86 785.624 988.251 783.232C993.946 777.538 997.362 771.388 998.501 764.783C999.754 758.063 1000.04 750.376 999.355 741.721L997.818 719.342C997.021 709.662 997.59 700.209 999.526 690.984C1001.69 681.76 1006.93 672.99 1015.24 664.677C1026.97 652.946 1039.39 647.48 1052.48 648.277C1065.69 648.96 1078.28 655.281 1090.24 667.239C1097.64 674.642 1102.31 681.817 1104.24 688.764C1106.29 695.825 1106.41 702.544 1104.59 708.921C1102.99 715.299 1100.32 721.164 1096.56 726.517C1093.03 731.87 1089.27 736.653 1085.28 740.867L1055.73 717.805C1059.71 713.591 1062.96 709.776 1065.47 706.359C1068.2 702.942 1069.74 699.811 1070.08 696.963C1070.53 694.002 1069.45 691.212 1066.83 688.593C1063.99 685.746 1060.68 684.835 1056.92 685.86C1053.28 686.998 1050.26 688.764 1047.87 691.155C1042.75 696.28 1039.73 701.69 1038.82 707.384C1038.13 713.078 1038.02 719.684 1038.48 727.2L1039.84 748.725C1040.75 759.886 1040.01 770.762 1037.62 781.353C1035.34 792.058 1029.42 802.194 1019.85 811.761C1013.36 818.252 1005.96 822.694 997.647 825.085C989.447 827.363 981.077 827.306 972.535 824.915C964.107 822.637 956.192 817.797 948.79 810.394ZM1014.33 871.837L1129.98 756.185L1109.14 735.344L1131.86 712.624L1204.12 784.884L1181.4 807.605L1160.73 786.934L1045.08 902.586L1014.33 871.837Z" fill="white"/>
<path d="M359.867 624.668L498.239 486.296L544.704 532.762C553.018 541.076 558.257 549.503 560.421 558.045C562.698 566.472 562.129 575.014 558.712 583.669C555.41 592.211 549.487 600.752 540.946 609.294C530.241 619.999 520.276 626.433 511.051 628.597C501.94 630.647 493.285 629.736 485.085 625.864C476.885 621.992 469.027 616.298 461.51 608.781L449.211 596.481L390.445 655.247L359.867 624.668ZM470.564 575.128L480.814 585.377C484.572 589.136 488.103 591.3 491.405 591.869C494.708 592.438 498.011 591.641 501.314 589.477C504.73 587.427 508.545 584.296 512.759 580.082C516.29 576.551 519.08 573.192 521.13 570.003C523.408 566.814 524.376 563.454 524.034 559.924C523.692 556.393 521.471 552.578 517.372 548.478L507.293 538.399L470.564 575.128ZM495.042 763.943C484.679 753.58 478.301 743.558 475.909 733.878C473.518 724.197 474.429 714.631 478.643 705.178C482.856 695.726 489.69 686.273 499.142 676.821L550.562 625.401C560.128 615.834 569.581 609.001 578.919 604.901C588.258 600.801 597.711 600.004 607.277 602.51C616.957 604.901 626.979 611.279 637.343 621.643C647.821 632.12 654.255 642.199 656.647 651.879C659.266 661.56 658.526 671.069 654.426 680.408C650.326 689.747 643.493 699.199 633.927 708.766L582.507 760.185C573.054 769.638 563.602 776.471 554.149 780.685C544.697 784.899 535.073 785.753 525.279 783.247C515.599 780.856 505.52 774.421 495.042 763.943ZM516.738 742.248C519.926 745.437 523.058 746.974 526.133 746.861C529.208 746.747 532.226 745.665 535.187 743.615C538.148 741.565 540.938 739.23 543.558 736.611L610.181 669.987C612.915 667.254 615.249 664.464 617.185 661.617C619.235 658.656 620.317 655.638 620.431 652.563C620.545 649.488 619.007 646.356 615.819 643.167C612.858 640.206 609.84 638.783 606.765 638.896C603.69 639.01 600.672 640.092 597.711 642.142C594.864 644.078 592.073 646.413 589.34 649.146L522.717 715.77C520.097 718.389 517.706 721.122 515.542 723.969C513.492 726.93 512.353 729.892 512.125 732.853C512.011 735.927 513.549 739.059 516.738 742.248ZM557.555 822.356L695.927 683.985L742.392 730.45C750.706 738.764 755.945 747.192 758.109 755.733C760.387 764.161 759.817 772.702 756.4 781.357C753.098 789.899 747.176 798.44 738.634 806.982C727.929 817.687 717.964 824.122 708.739 826.286C699.628 828.335 690.973 827.424 682.773 823.552C674.573 819.68 666.715 813.986 659.199 806.469L646.899 794.17L588.134 852.935L557.555 822.356ZM668.253 772.816L678.502 783.066C682.261 786.824 685.791 788.988 689.094 789.557C692.396 790.127 695.699 789.329 699.002 787.166C702.418 785.116 706.234 781.984 710.447 777.77C713.978 774.24 716.768 770.88 718.818 767.691C721.096 764.502 722.064 761.143 721.722 757.612C721.38 754.082 719.16 750.266 715.06 746.167L704.981 736.088L668.253 772.816ZM693.072 961.973C682.481 951.382 675.875 941.36 673.256 931.907C670.864 922.455 671.775 913.23 675.989 904.233C680.317 895.122 687.321 885.727 697.001 876.046L792.495 780.553L822.732 810.789L722.626 910.895C719.778 913.743 717.159 916.818 714.768 920.12C712.376 923.423 711.009 926.726 710.668 930.028C710.44 933.445 711.92 936.748 715.109 939.936C718.412 943.239 721.715 944.72 725.017 944.378C728.32 944.036 731.566 942.613 734.755 940.107C738.057 937.716 741.132 935.096 743.979 932.249L844.085 832.143L874.493 862.551L778.999 958.044C769.319 967.725 759.866 974.672 750.642 978.885C741.645 983.099 732.42 984.01 722.967 981.619C713.629 979.113 703.664 972.565 693.072 961.973ZM755.577 1020.38L893.949 882.007L924.527 912.585L806.826 1030.29L838.6 1062.06L817.93 1082.73L755.577 1020.38ZM824.653 1089.45L989.162 977.22L1024.01 1012.07L911.435 1176.24L883.248 1148.05L907.847 1114.23L887.519 1093.9L853.524 1118.32L824.653 1089.45ZM908.531 1078.35L923.222 1093.04L969.858 1031.71L908.531 1078.35ZM925.405 1190.21L1063.78 1051.83L1101.87 1089.93C1111.21 1099.27 1118.27 1108.38 1123.05 1117.26C1127.84 1126.15 1129.43 1135.14 1127.84 1144.25C1126.47 1153.36 1120.95 1162.76 1111.27 1172.44C1105.57 1178.13 1100.05 1182.75 1094.7 1186.28C1089.34 1189.81 1083.76 1191.97 1077.96 1192.77C1072.38 1193.57 1066.23 1192.77 1059.51 1190.38L1011.5 1276.3L979.9 1244.7L1026.71 1167.49L1017.99 1158.77L955.984 1220.79L925.405 1190.21ZM1035.59 1141.18L1044.13 1149.72C1048.46 1154.05 1052.56 1156.67 1056.43 1157.58C1060.42 1158.38 1064.29 1157.81 1068.05 1155.87C1072.03 1153.93 1076.08 1150.92 1080.18 1146.82C1086.1 1140.89 1089.63 1135.2 1090.77 1129.73C1091.91 1124.27 1089.57 1118.63 1083.76 1112.82L1073.86 1102.91L1035.59 1141.18Z" fill="white"/>
</svg>
