<svg width="16" height="16" viewBox="0 0 16 16" fill="none" xmlns="http://www.w3.org/2000/svg">
<path d="M10.0703 2.64681L10.1655 2.48165V2.42822H10.1833V1.33037L10.0703 1.07291L9.12406 0.820312C9.12406 0.820312 9.11364 0.828401 9.10323 0.842974L9.13299 0.904506L9.20143 0.889939C9.18804 0.932039 9.20143 0.896411 9.20143 0.925557C9.20143 0.953084 9.21482 0.919085 9.20143 0.961186L9.16721 0.957944L9.15531 0.951471L9.2044 1.05509V1.28503C9.22077 1.28503 9.22969 1.28017 9.23564 1.28017C9.31003 1.27208 9.35318 1.44857 9.25498 1.54411C9.23862 1.5603 9.22226 1.57163 9.2044 1.58135V2.21286L9.08984 2.38774L10.0718 2.65005L10.0703 2.64681ZM9.23267 1.31094L9.2416 1.32065C9.2416 1.32065 9.22821 1.31418 9.23267 1.31094ZM9.32937 2.1497C9.5079 2.08493 9.26243 2.17238 9.42608 2.04446C9.42608 2.0477 9.42608 2.05417 9.42608 2.05579C9.41715 2.24848 9.51832 1.97968 9.45732 2.28896L9.32937 2.25496V2.1497ZM9.16869 2.39421L9.36062 2.28896C9.19845 2.45574 9.34127 2.43469 9.16869 2.39421ZM10.0078 1.34332L9.97209 1.20407C10.0881 1.23808 10.0584 1.20731 10.0688 1.34332H10.0078ZM10.0048 1.65908V1.55382C10.0733 1.60888 10.0465 1.55707 10.0688 1.65908H10.0048ZM9.50344 1.54735V1.47934C9.50344 1.47934 9.49005 1.48905 9.49005 1.51982C9.49005 1.58135 9.49749 1.56678 9.50344 1.54735ZM9.50344 1.63641V1.58783C9.48707 1.58135 9.46773 1.57973 9.45881 1.59106C9.435 1.61697 9.46773 1.64774 9.50344 1.63641ZM9.84563 1.24293L9.88134 1.32389V2.29867L9.85009 2.36182L9.46773 2.25981L9.50344 2.20152V1.8129C9.496 1.78537 9.49154 1.74004 9.49005 1.65908C9.41418 1.71413 9.45732 1.70118 9.36062 1.72871L9.50344 1.42591V1.21702L9.47071 1.14254L9.84711 1.24293H9.84563Z" fill="#BC2A26"/>
<path d="M5.57518 1.80024L5.58411 1.80996C5.58411 1.80996 5.57072 1.80348 5.57518 1.80024ZM5.22258 1.76462C5.24043 1.68689 5.25532 1.68366 5.25532 1.58974H5.28804V1.76462H5.22407H5.22258ZM5.6704 1.34524L5.80281 1.10235L6.06019 0.8125L5.65106 0.922607L5.60791 1.00034V1.27399C5.63321 1.30476 5.60791 1.25618 5.65849 1.32419L5.6704 1.34362V1.34524ZM5.5975 2.26172L5.61535 2.28602L5.59155 2.4366L6.145 2.28925H6.12269V2.26982L5.86678 2.06418L5.61237 1.71928C5.60493 1.80024 5.63469 1.75491 5.60791 1.87149L5.58708 2.00103C5.57221 2.17591 5.56031 2.14514 5.6094 2.25363L5.59899 2.2601L5.5975 2.26172ZM5.40558 2.4868L5.29102 2.29896V2.18238C5.1601 2.16619 5.1482 2.13056 5.25532 2.04636C5.28507 2.13542 5.27168 2.08361 5.28804 2.116L5.29251 2.12247V1.81805L5.54543 2.18562C5.54543 1.8051 5.57369 1.82129 5.57667 1.67232L5.56774 1.66098C5.40409 1.64641 5.5365 1.70633 5.47997 1.55736C5.51865 1.54278 5.48592 1.55736 5.5127 1.55736C5.53799 1.55736 5.50675 1.57193 5.54543 1.55736C5.57221 1.42944 5.59303 1.21083 5.60345 1.01491L5.29251 1.57517V1.2416L5.41004 0.992243L4.87891 1.13473L4.99347 1.32419V2.38317L4.87891 2.63253L5.40855 2.49165L5.40558 2.4868Z" fill="#BC2A26"/>
<path fill-rule="evenodd" clip-rule="evenodd" d="M4.01817 1.80631L4.11339 2.04919L4.19223 2.02005C4.20116 2.02329 4.21009 2.02167 4.21306 2.01196L4.3425 1.965L4.19819 2.1755L4.37969 2.35037L4.13868 2.31962L4.08958 2.57869L3.99437 2.3358L3.76376 2.41839L3.90807 2.20789L3.72656 2.03301L3.96759 2.06377L4.01668 1.80469L4.01817 1.80631Z" fill="#BC2A26"/>
<path fill-rule="evenodd" clip-rule="evenodd" d="M10.9826 1.80469L10.8874 2.04757L10.6761 1.97147V1.9909L10.7118 2.04434V2.0411L10.8383 2.07996V2.14959C10.8145 2.14797 10.7967 2.14635 10.7818 2.14635L10.8026 2.1755L10.6211 2.35037L10.8621 2.31961L10.9112 2.57869L10.9707 2.42971H10.9038C10.9067 2.33256 10.9276 2.34552 11.0005 2.32447V2.35361L11.0079 2.3358L11.237 2.41839L11.0927 2.20788L11.2742 2.03301L11.0332 2.06377L10.9841 1.80469H10.9826Z" fill="#BC2A26"/>
<path d="M3.76899 0.771029L3.81957 0.749978V0.75321C3.79874 0.832553 3.89991 0.753209 3.8047 0.762925C3.76899 0.766163 3.76899 0.813128 3.76899 0.769408M7.49584 16C7.36046 15.9142 7.22358 15.8284 7.0882 15.7409C7.14027 15.7263 7.08373 15.7555 7.10307 15.6713C7.1239 15.5839 7.12539 15.5887 7.14324 15.5094C7.02422 15.4624 7.25185 15.5045 7.112 15.5126L7.0153 15.4737C7.01827 15.6276 7.03612 15.5871 7.08373 15.6146L7.05695 15.7183L6.94984 15.6502C6.93942 15.6373 6.91859 15.6146 6.89925 15.6C6.80254 15.5256 6.99001 15.6341 6.85016 15.5839L6.85313 15.5871L6.66716 15.464C6.68055 15.4608 6.69691 15.4575 6.72667 15.4381C6.67609 15.3636 6.72369 15.3928 6.62996 15.3685V15.4397C5.61084 14.758 4.63338 13.9889 3.89694 12.9947C3.91925 12.9769 3.89099 12.9542 3.86421 12.9493L3.82999 12.9008C3.81511 12.8295 3.83595 12.8651 3.77197 12.8166C3.51012 12.436 3.28249 12.0248 3.0995 11.573L3.09652 11.5568H3.09355C3.05636 11.4645 3.02065 11.369 2.98792 11.2734C2.45381 9.72867 2.43149 7.8795 2.47612 5.11707L2.48356 4.60863C2.48505 4.6232 2.5029 4.63454 2.51778 4.66693C2.65316 4.65235 2.51778 4.68149 2.59663 4.61187L2.61449 4.52605C2.45827 4.6054 2.75731 4.47909 2.56688 4.53577C2.52968 4.5471 2.57729 4.47909 2.51332 4.5552C2.49547 4.57625 2.48654 4.58919 2.48505 4.59891L2.53564 1.44625H2.552C2.53861 1.42682 2.53861 1.42358 2.53712 1.42034V1.36205C2.70226 1.27137 2.86741 1.18393 3.03255 1.10297C3.0385 1.11916 3.07123 1.14183 3.16198 1.16936C3.15603 1.11106 3.14711 1.07383 3.13818 1.05278C3.33903 0.955621 3.54137 0.864945 3.7437 0.780744C3.76751 0.803413 3.80172 0.814748 3.87016 0.821225C3.87016 0.803413 3.87016 0.761306 3.86867 0.75321L3.86272 0.732159C4.10523 0.635004 4.34774 0.547574 4.59024 0.468231C4.60661 0.486043 4.63189 0.490898 4.62892 0.455275C4.86993 0.37917 5.11244 0.311164 5.35346 0.25449C5.56472 0.204294 5.77599 0.162187 5.98874 0.126564C5.99617 0.192953 5.98874 0.264206 5.98874 0.366218C6.15685 0.382411 6.04676 0.332213 6.08544 0.435845C6.15091 0.384029 6.13156 0.396977 6.14049 0.338684C6.1509 0.269057 6.14942 0.230194 6.14942 0.155709L6.23273 0.126564C6.23273 0.126564 6.24166 0.123329 6.24464 0.12009C6.22827 0.0828477 6.23124 0.113611 6.23422 0.0877035C6.80403 0.00836062 7.37534 -0.0175425 7.94515 0.0116039C7.94366 0.0180808 7.94515 0.0310332 7.94664 0.0504641C7.95259 0.0909451 8.01656 0.126565 7.98978 0.0569375C7.98532 0.0439836 7.97342 0.0229386 7.96151 0.0116039C8.09839 0.0180808 8.23675 0.0294159 8.37363 0.0423699C8.38702 0.0618008 8.4123 0.0698918 8.41528 0.0472224C8.82442 0.0893227 9.23355 0.157336 9.6412 0.25449C10.2765 0.40508 10.9118 0.622053 11.5441 0.90704C11.5426 1.07706 11.5292 1.06411 11.6705 1.09973C11.6824 1.04468 11.6913 1.00581 11.6988 0.978287C11.9517 1.09649 12.2046 1.22441 12.4561 1.36367L12.4977 3.96093C12.4977 3.96093 12.4843 3.96417 12.4739 3.96741C12.4843 3.9836 12.4918 3.99494 12.4992 4.00465L12.5096 4.67178C12.4858 4.67502 12.4799 4.67987 12.4427 4.70092C12.5022 4.78836 12.4501 4.77056 12.5126 4.76894L12.5185 5.11545C12.523 5.43606 12.5275 5.74372 12.5304 6.04166C12.4546 6.06109 12.4769 6.053 12.5081 6.13558L12.5304 6.09833C12.5334 6.41894 12.5334 6.72822 12.5304 7.02292C12.4605 7.01806 12.4947 7.03264 12.4754 7.04397L12.4799 7.14761C12.4769 7.1978 12.4754 7.23666 12.4754 7.28848L12.529 7.23828C12.526 7.5087 12.52 7.76939 12.5096 8.02199C12.5007 8.02199 12.4888 8.02361 12.4739 8.02361C12.2314 8.02361 12.0886 7.85845 12.0886 8.19849C12.2269 8.23088 12.1258 8.21307 12.282 8.19849L12.3147 8.05923C12.3281 8.22763 12.3281 8.11915 12.3787 8.22764L12.4114 8.33937C12.4427 8.25355 12.3593 8.26974 12.5007 8.26974C12.4828 8.64217 12.4561 8.99516 12.4189 9.33034C12.404 9.32548 12.3817 9.32224 12.346 9.31738C12.346 9.26719 12.346 9.27043 12.337 9.22185C12.337 9.21538 12.3281 9.21052 12.3266 9.19756C12.3266 9.18461 12.3177 9.18461 12.3132 9.17651C12.2879 9.28014 12.2998 9.23318 12.2493 9.31576C12.1481 9.26233 12.1585 9.26233 12.0573 9.31576C12.1526 9.45826 12.0796 9.35139 12.2493 9.35139C12.4114 9.35139 12.16 9.3854 12.3965 9.5036C12.3787 9.64771 12.3579 9.78859 12.3355 9.92784C12.3222 9.91975 12.3043 9.91326 12.2805 9.91164C12.2478 10.046 12.1406 10.072 12.2805 10.1562L12.2984 10.1416C12.224 10.5399 12.1273 10.914 12.0038 11.2718C11.9294 11.4856 11.8461 11.6896 11.7538 11.8871L11.7494 11.8774C11.7494 11.8774 11.7449 11.8645 11.7434 11.8612C11.7434 11.8596 11.7389 11.8531 11.7375 11.8466C11.7375 11.8402 11.7345 11.8369 11.7375 11.8385L11.6363 11.9729C11.6616 12.0134 11.6675 12.0312 11.675 12.0426C11.4146 12.5591 11.0933 13.0206 10.7288 13.44L10.7139 13.4286L10.6707 13.406C10.7094 13.4545 10.6053 13.4578 10.702 13.4691C10.4208 13.7897 10.1143 14.0861 9.78997 14.3629C9.78402 14.3484 9.76617 14.337 9.73791 14.3144L9.75576 14.3921C9.17999 14.8827 8.55067 15.3151 7.91688 15.7215L7.90647 15.7134V15.7296L7.84695 15.7685C7.83208 15.7442 7.80083 15.7247 7.81125 15.7846V15.7911L7.65801 15.8899C7.66248 15.8721 7.66991 15.8494 7.6833 15.8203C7.57172 15.864 7.67289 15.7992 7.58808 15.8915C7.55089 15.932 7.54791 15.9239 7.53155 15.9709L7.49138 15.9968L7.49584 16ZM3.25422 11.139C3.27208 11.139 3.32564 11.0888 3.35242 11.0678L3.28696 10.9285C3.08611 11.0435 3.15901 11.1374 3.25422 11.1374V11.139ZM11.3194 1.27785L11.3283 1.28757C11.3283 1.28757 11.3149 1.28109 11.3194 1.27785ZM4.53965 13.5517C4.68694 13.4934 4.61256 13.5938 4.70034 13.5517C4.73604 13.44 4.68545 13.5857 4.6676 13.4125C4.59916 13.4481 4.63785 13.4384 4.53965 13.4465V13.5517ZM7.49584 15.8251C7.49584 15.6405 7.57023 15.5288 7.39913 15.6324L7.46312 15.6502C7.41848 15.83 7.33665 15.7798 7.49584 15.8251ZM2.90162 7.18809C2.87038 7.05855 2.86889 7.14275 2.83765 7.01321H2.77368C2.77814 7.16865 2.76326 7.17513 2.90162 7.18809ZM2.97155 4.17305L2.8689 4.0759C2.85997 4.152 2.74987 4.13743 2.82723 4.22163C2.86443 4.26211 2.91799 4.20867 2.97303 4.17305H2.97155ZM2.84658 4.16982C2.84658 4.16982 2.84063 4.18439 2.83765 4.17953L2.84658 4.16982ZM8.77532 0.257722L8.78871 0.312781C8.76193 0.426128 8.79317 0.311161 8.74854 0.403458C8.88541 0.367834 8.85268 0.380789 8.90922 0.262584C8.73961 0.262584 8.86161 0.262579 8.81251 0.226956L8.77532 0.256111V0.257722ZM11.6735 11.0694C11.7851 11.1342 11.7642 11.0694 11.7375 11.2087H11.8014C11.8014 11.1941 11.7851 11.0921 11.7851 11.0921C11.7851 11.0305 11.849 11.0613 11.7702 10.9998L11.7196 11.0419C11.7196 11.0419 11.7107 11.0305 11.7018 11.0289L11.675 11.0694H11.6735ZM11.9621 6.3477C12.0127 6.45133 11.9309 6.39466 12.0588 6.48695C12.0915 6.41247 12.0826 6.45619 12.0916 6.3477H11.9621ZM3.86569 3.44601C3.99959 3.43306 3.92521 3.49621 3.9624 3.30676C3.88057 3.344 3.94901 3.34562 3.86569 3.30676V3.44601ZM4.08738 3.36343C4.01448 3.3699 4.06357 3.25333 3.99365 3.34077C4.08738 3.38772 3.94008 3.39257 4.11861 3.44439L4.15432 3.30514C4.15432 3.30514 4.14242 3.32295 4.13796 3.32619L4.08738 3.36182V3.36343ZM3.96091 12.8182C3.97579 12.849 3.99811 13.0044 4.06803 12.9283C4.13945 12.8506 4.01596 12.8311 3.96091 12.8182ZM2.74094 9.21537C2.89121 9.19756 2.79451 9.25586 2.86741 9.15061L2.74094 9.11174V9.21699V9.21537ZM4.34625 3.23551C4.45337 3.2938 4.44741 3.25495 4.47419 3.13027C4.36558 3.1918 4.41468 3.1335 4.34625 3.23551ZM10.9013 12.9931C10.9073 12.9801 10.9519 13.0368 10.9653 12.8522L10.9058 12.9008C10.9058 12.9008 10.8478 12.8894 10.8374 12.8878L10.9013 12.9931ZM8.42718 14.9864C8.49562 15.0965 8.51347 15.1596 8.55513 14.9864H8.42718ZM4.76431 13.4125C4.95028 13.4125 4.80002 13.4108 4.84167 13.44C4.88036 13.4675 4.74199 13.427 4.89225 13.4821V13.3768H4.76431V13.4125ZM11.8401 10.3488C11.9324 10.3359 11.8267 10.3618 11.8699 10.2954L11.9621 10.3699C11.9219 10.2484 11.858 10.2274 11.8223 10.31C11.7836 10.399 11.8386 10.3505 11.8401 10.3505V10.3488ZM3.35093 3.69052C3.33605 3.62413 3.34349 3.63223 3.3182 3.58527C3.24083 3.63547 3.27505 3.59498 3.25422 3.69052H3.35093ZM11.4473 1.20822V1.03335H11.4146C11.4146 1.21146 11.3313 1.16612 11.4473 1.20822ZM3.60831 3.62089C3.54434 3.64194 3.56368 3.62414 3.51161 3.65652C3.5622 3.73101 3.51458 3.70186 3.60831 3.72615V3.62089ZM3.0623 4.45966C3.01172 4.38517 3.05933 4.41432 2.9656 4.39003V4.49529C2.99833 4.48071 3.00726 4.49528 3.0623 4.45966ZM7.4646 15.4414C7.41401 15.3669 7.46163 15.396 7.3679 15.3717V15.477C7.40063 15.4624 7.40955 15.477 7.4646 15.443V15.4414ZM2.90162 9.42587C2.85104 9.35139 2.89865 9.38053 2.80492 9.35624V9.4615C2.83765 9.44693 2.84509 9.46149 2.90162 9.42587ZM2.77219 5.47493V5.54455H2.8689V5.47493H2.77219ZM4.41171 13.0983H4.34774V13.2036H4.41171V13.0983ZM7.58808 15.3717L7.62379 15.511C7.71454 15.4397 7.71008 15.4576 7.58808 15.3717ZM9.26331 0.192958C9.20826 0.209151 9.13834 0.214005 9.1919 0.270679C9.24546 0.328971 9.24992 0.251251 9.26331 0.192958ZM12.1555 4.98429H12.2195V4.87905C12.1421 4.92924 12.1764 4.88876 12.1555 4.98429ZM2.83616 4.63454C2.83616 4.63454 2.86889 4.66854 2.90013 4.52928H2.83616V4.63454ZM4.15432 3.55127C4.25697 3.53993 4.19449 3.5626 4.25103 3.44601C4.1454 3.48649 4.22722 3.40068 4.15432 3.55127ZM11.2569 11.9163C11.3149 11.8645 11.2703 11.9098 11.2554 11.8742C11.1959 11.8094 11.2004 11.9082 11.1915 11.9438C11.2748 11.9033 11.1781 11.9859 11.2569 11.9163ZM7.20722 15.3005C7.23102 15.3232 7.2206 15.3215 7.26077 15.3458C7.33516 15.3895 7.27416 15.3539 7.33516 15.3701C7.26226 15.2632 7.35599 15.3134 7.20722 15.3005ZM2.61151 4.32041C2.68441 4.47099 2.60258 4.38356 2.70822 4.42566C2.63532 4.27507 2.71714 4.36251 2.61151 4.32041ZM2.61003 7.70948C2.613 7.69976 2.61151 7.6609 2.61151 7.64147C2.5267 7.74349 2.54307 7.59289 2.57878 7.78073C2.59812 7.74672 2.59217 7.77101 2.60854 7.70786L2.61003 7.70948ZM7.99276 0.303065C8.04334 0.380789 8.06863 0.299823 8.07459 0.228577L7.99276 0.303065ZM11.3834 12.0134C11.3655 12.0183 11.2763 12.0361 11.2822 12.0539L11.3194 12.0831C11.3759 12.049 11.3611 12.0863 11.3834 12.0134ZM7.7205 15.2665C7.73835 15.2211 7.86183 15.273 7.7205 15.1612V15.2665ZM2.74094 4.56491V4.45966C2.68143 4.52929 2.60853 4.45966 2.74094 4.56491ZM12.1228 3.16588V3.06063C12.0633 3.13026 11.9904 3.06063 12.1228 3.16588ZM10.1947 13.8675C10.1708 13.8934 10.2065 13.9274 10.2452 13.9128C10.3047 13.8885 10.2199 13.8416 10.1947 13.8675ZM4.09035 12.9931C4.06654 13.019 4.10225 13.053 4.14093 13.0368C4.20044 13.0125 4.11415 12.9655 4.09035 12.9931ZM9.99975 13.6003C9.94322 13.5906 9.9566 13.6634 10.0027 13.657C10.0191 13.6553 10.0727 13.6132 9.99975 13.6003ZM2.93138 5.1025C2.87485 5.09279 2.88824 5.16565 2.93436 5.15917C2.95072 5.15755 3.00428 5.11546 2.93138 5.1025ZM3.18727 3.73909C3.13074 3.72938 3.14413 3.80225 3.19025 3.79577C3.20662 3.79415 3.26017 3.75205 3.18727 3.73909ZM2.7707 4.36898C2.71416 4.35927 2.72756 4.43214 2.77368 4.42566C2.79004 4.42404 2.8436 4.38193 2.7707 4.36898ZM11.9279 3.66947C11.8714 3.65975 11.8847 3.73262 11.9309 3.72615C11.9472 3.72453 12.0008 3.68242 11.9279 3.66947ZM6.24017 14.3354C6.18363 14.3257 6.19703 14.3986 6.24315 14.3921C6.25951 14.3905 6.31456 14.3484 6.24017 14.3354ZM6.04676 14.3354C5.99023 14.3257 6.00362 14.3986 6.04974 14.3921C6.0661 14.3905 6.11966 14.3484 6.04676 14.3354ZM11.4459 3.70347C11.3893 3.69376 11.4027 3.76662 11.4488 3.76014C11.4652 3.75852 11.5188 3.71643 11.4459 3.70347ZM8.7173 14.9167C8.7173 14.9167 8.78425 14.954 8.75003 14.7775L8.7173 14.9167ZM7.23846 15.022C7.23846 15.022 7.22656 15.0252 7.22507 15.0268L7.17449 15.0916C7.30839 15.056 7.2831 15.0592 7.23846 15.022ZM7.07778 15.4057C7.24441 15.3863 7.13581 15.4462 7.17449 15.3361C7.15664 15.3474 7.13283 15.3604 7.112 15.3734L7.07778 15.4057ZM7.67289 15.3183C7.67289 15.3183 7.6833 15.3312 7.68776 15.3361C7.67288 15.1564 7.71901 15.2697 7.62379 15.2309L7.67289 15.3183ZM2.80492 1.59199C2.76624 1.48188 2.87485 1.54178 2.70822 1.52235C2.71417 1.52721 2.72309 1.52883 2.72458 1.53855L2.80492 1.59199ZM11.8654 1.48673C11.8728 1.52721 11.9353 1.56283 11.9086 1.4932C11.8967 1.46406 11.8505 1.39605 11.8654 1.48673ZM9.77659 0.54271C9.78403 0.583191 9.848 0.618821 9.81973 0.549193C9.80783 0.520047 9.76171 0.452033 9.77659 0.54271ZM10.644 0.683583C10.6514 0.724065 10.7154 0.759694 10.6871 0.690067C10.6752 0.66092 10.6291 0.592906 10.644 0.683583ZM8.20253 15.1256C8.29477 15.0803 8.22783 15.1661 8.29924 15.056C8.20849 15.0819 8.25163 15.0495 8.20253 15.1256ZM10.8374 13.1323C10.8463 13.1858 10.8136 13.1631 10.8775 13.1453C10.9013 13.1388 10.821 13.04 10.8374 13.1323ZM12.3162 8.69074C12.3251 8.74417 12.2924 8.72151 12.3564 8.7037C12.3802 8.69722 12.2998 8.59844 12.3162 8.69074ZM6.5645 0.192958C6.54813 0.286874 6.62848 0.186478 6.60616 0.180002C6.54219 0.16219 6.57491 0.139523 6.5645 0.192958ZM10.6127 12.8182C10.6127 12.8894 10.6068 12.8328 10.6469 12.8279C10.7436 12.8182 10.6425 12.8975 10.6618 12.8182C10.6812 12.7388 10.6127 12.7761 10.6127 12.8182ZM3.15752 10.0201C3.15752 10.0914 3.15157 10.0347 3.19323 10.0299C3.28993 10.0201 3.18876 10.0979 3.2081 10.0201C3.22744 9.9408 3.159 9.97966 3.159 10.0201H3.15752ZM3.0623 10.0201C3.0623 10.0914 3.05635 10.0347 3.09801 10.0299C3.19471 10.0201 3.09354 10.0979 3.11288 10.0201C3.13222 9.9408 3.0623 9.97966 3.0623 10.0201ZM9.39125 14.2512C9.39125 14.3225 9.38531 14.2658 9.42548 14.2609C9.52218 14.2512 9.42101 14.3289 9.44035 14.2512C9.45969 14.1719 9.39125 14.2107 9.39125 14.2512ZM9.00593 14.4617C9.00593 14.533 8.99998 14.4763 9.04163 14.4714C9.13834 14.4617 9.03717 14.5394 9.05651 14.4617C9.07585 14.3824 9.00742 14.4212 9.00742 14.4617H9.00593ZM3.09355 9.251C3.09355 9.32225 3.0876 9.26557 3.12926 9.26072L3.14413 9.251C3.16347 9.17166 3.09503 9.21052 3.09503 9.251H3.09355ZM2.58027 7.25771C2.58027 7.32896 2.57432 7.27229 2.61449 7.26743C2.71119 7.25771 2.61002 7.33544 2.62936 7.25771C2.6487 7.17837 2.57878 7.21723 2.57878 7.25771H2.58027ZM7.9139 15.4057C7.9139 15.477 7.90795 15.4203 7.94812 15.4155L7.963 15.4057C7.98234 15.3264 7.9139 15.3653 7.9139 15.4057ZM2.70822 7.22208C2.72012 7.29495 2.67995 7.2318 2.73946 7.23504C2.78409 7.23828 2.69185 7.12331 2.70822 7.22208ZM2.77219 7.60747C2.78409 7.68033 2.74392 7.61718 2.80343 7.62042C2.84807 7.62366 2.75582 7.51031 2.77219 7.60747ZM9.77659 0.403458C9.77659 0.414792 9.8123 0.41155 9.81527 0.409931C9.82271 0.406693 9.8718 0.490894 9.82866 0.400216C9.82866 0.398597 9.76915 0.33545 9.77659 0.403458ZM2.65019 9.48902C2.65019 9.48902 2.61299 9.48417 2.61151 9.49551C2.60407 9.55704 2.61151 9.51817 2.65912 9.5036L2.66358 9.49712C2.70524 9.40644 2.65763 9.49064 2.65019 9.4874V9.48902ZM10.7094 12.9234C10.6425 12.8878 10.6811 12.8975 10.5815 12.8878L10.7094 12.9234ZM8.1698 0.0537057C8.12963 0.0974253 8.20699 0.100664 8.18468 0.0537057C8.18468 0.0537057 8.18022 0.0537057 8.17873 0.0537057C8.17873 0.0537057 8.17129 0.0520865 8.1698 0.0537057ZM8.49563 14.5006L8.50603 14.4941C8.51198 14.5135 8.50306 14.5071 8.49563 14.5006ZM6.75791 2.47123H6.7713L6.7594 2.47446V2.47123H6.75791ZM5.48736 0.584812C5.22998 0.647963 4.98003 0.722448 4.74199 0.808268C4.74199 0.80503 4.7405 0.803406 4.73455 0.803406C4.73455 0.803406 4.73455 0.800171 4.73306 0.796932C4.73306 0.793694 4.73306 0.790456 4.73306 0.787217C4.73455 0.785598 4.74199 0.787217 4.74199 0.787217C4.74199 0.787217 4.74646 0.787219 4.74794 0.788838L4.74497 0.800174L4.73753 0.809889C4.5471 0.877897 4.3641 0.953996 4.18705 1.03658V0.997717H4.09035C4.10076 1.04144 4.10225 1.06249 4.1082 1.07383C3.72882 1.25842 3.38812 1.47701 3.10396 1.72476L3.0995 2.0227C3.09057 2.02108 3.07867 2.01784 3.06082 2.01298C3.09057 2.05994 3.08759 2.06641 3.09801 2.06803C3.09206 2.54409 3.09057 3.0574 3.0861 3.50107C3.21554 3.44763 3.342 3.39581 3.46697 3.34562L3.46995 3.34886C3.5131 3.39582 3.50863 3.37638 3.52351 3.32457C4.61404 2.89385 5.60192 2.6121 6.72369 2.47609V2.48742L6.46631 2.58296V2.57325C6.39044 2.59753 6.40977 2.57324 6.38894 2.61211C6.05271 2.74003 5.7373 2.86632 5.44124 2.991C5.43975 2.98291 5.42934 2.97481 5.40404 2.96995C5.36239 2.96348 5.35793 3.00073 5.37727 3.01854C5.04996 3.15779 4.74645 3.29704 4.4608 3.43467C4.43551 3.41524 4.4251 3.43145 4.41915 3.45411C3.91777 3.697 3.4759 3.93664 3.07123 4.17305L3.06082 4.73655C3.00279 4.73007 2.99387 4.72036 2.93138 4.70416L2.95816 4.81427L2.99535 4.84342C2.99535 4.84342 3.01023 4.83047 3.01321 4.82723L3.06082 4.77379L3.04891 5.44901C3.03403 5.45225 3.02957 5.45225 2.99684 5.47331C3.03552 5.52998 3.01618 5.52674 3.04742 5.53322C3.00725 7.91512 3.03552 9.97966 3.83297 11.6459C4.02935 12.0539 4.27484 12.4377 4.58132 12.8085L4.5709 12.8522C4.58429 12.8457 4.59619 12.8409 4.60661 12.8376C4.64677 12.8862 4.68843 12.9348 4.73157 12.9817C4.71669 12.9866 4.70034 13.006 4.70034 13.0271C4.70034 13.0983 4.69438 13.0416 4.73604 13.0368L4.75091 13.0271C4.75091 13.0271 4.75389 13.0125 4.75389 13.0076C4.82977 13.0918 4.90862 13.176 4.99045 13.2586V13.3428C4.99938 13.3218 5.03061 13.3218 5.04698 13.3153C5.57811 13.8432 6.2476 14.3565 7.08373 14.8924L7.07927 14.9167L7.10456 14.9054C7.23102 14.9864 7.36195 15.0689 7.49733 15.1515C7.63867 15.0641 7.77555 14.9799 7.90796 14.8941C7.91093 14.9151 7.91242 14.9345 7.9139 14.9507H7.97788C7.96895 14.907 7.963 14.8795 7.95705 14.8617C8.1445 14.7402 8.32304 14.6204 8.49414 14.5022L8.51794 14.533C8.56554 14.5961 8.52389 14.5475 8.55662 14.5313C8.56703 14.499 8.63398 14.5411 8.52537 14.4795C8.9479 14.1832 9.32133 13.8901 9.64864 13.5954C9.7022 13.6116 9.67988 13.6084 9.74534 13.6553C9.72451 13.5566 9.71856 13.563 9.72749 13.5226L9.7751 13.4788C9.78403 13.4918 9.80634 13.4983 9.82866 13.4902C9.86734 13.4756 9.84353 13.4481 9.81675 13.44C10.2809 12.9995 10.6469 12.5494 10.9326 12.0685L10.9356 12.0814C11.004 12.0264 11.0382 12.0053 10.9787 11.9891C11.0427 11.8758 11.1037 11.7608 11.1587 11.6442C11.3581 11.2281 11.5098 10.786 11.6244 10.3197L11.675 10.3667C11.6571 10.2922 11.6646 10.2841 11.6348 10.2792C11.9502 8.96763 11.974 7.47145 11.9502 5.81496C11.9785 5.81172 11.9532 5.80201 11.9963 5.71457C11.9755 5.72105 11.9606 5.72429 11.9487 5.72753C11.9413 5.22232 11.9294 4.70255 11.9205 4.1682C11.6571 4.01437 11.3774 3.85892 11.0769 3.70185C11.129 3.70023 11.1959 3.68567 11.2257 3.68567V3.65004C11.1394 3.65004 11.1364 3.66623 11.065 3.68567C11.0992 3.60956 11.0739 3.67271 11.0977 3.58041C11.0457 3.62089 11.0204 3.65003 11.0144 3.66785C10.2527 3.27437 9.35109 2.8728 8.22485 2.46313C8.7902 2.52952 9.31984 2.63154 9.84502 2.77241V2.80965C9.84502 2.80965 9.86436 2.82746 9.88519 2.78213C10.0444 2.82423 10.2036 2.87118 10.3613 2.92138C10.3806 2.97157 10.391 3.05092 10.391 3.12378H10.4223V2.93919C10.7049 3.02825 10.9891 3.12865 11.2792 3.24037L11.2896 3.26304L11.2971 3.24685C11.4979 3.32295 11.7003 3.40554 11.9086 3.49297C11.9026 2.93919 11.9011 2.27854 11.8907 1.71504C11.73 1.57579 11.553 1.44625 11.3596 1.32643C11.434 1.28109 11.4027 1.33776 11.547 1.30538C11.5217 1.28595 11.5366 1.28271 11.486 1.2649C11.431 1.24385 11.4607 1.25518 11.4191 1.25032C11.2896 1.23413 11.4533 1.27623 11.3596 1.25032C11.248 1.21955 11.3283 1.23737 11.2896 1.20174L11.2524 1.23089C11.2524 1.24222 11.2703 1.24547 11.2703 1.2568L11.2733 1.27623C11.2123 1.24061 11.1513 1.20498 11.0888 1.17098C11.1052 1.16774 11.1111 1.13698 11.129 1.06249C11.0561 1.06897 11.0144 1.05925 11.001 1.12564C10.6291 0.932954 10.2155 0.774267 9.77659 0.649586C9.78105 0.625297 9.80783 0.652821 9.75427 0.605863C9.69773 0.557286 9.75873 0.586434 9.71559 0.607484C9.70815 0.628534 9.67839 0.617195 9.68732 0.623672C9.63971 0.610718 9.5936 0.599387 9.54599 0.586433L9.55491 0.571855L9.4582 0.396984C9.40465 0.464992 9.3734 0.510325 9.35555 0.54271C8.79169 0.416409 8.21146 0.348401 7.62826 0.340305C7.62826 0.327351 7.62677 0.312781 7.62677 0.29335H7.59404V0.340305C6.88289 0.332209 6.17173 0.411557 5.48885 0.578339L5.48736 0.584812Z" fill="#BC2A26"/>
<path d="M8.41027 4.31946C8.40283 4.29517 8.41027 4.27898 8.42813 4.2725C8.46383 4.25955 8.53822 4.2806 8.56798 4.36156C8.53971 4.32918 8.4683 4.29193 8.44152 4.33403C8.4802 4.34374 8.46681 4.29355 8.49508 4.38746C8.33886 4.37289 8.44152 4.35508 8.30316 4.38746C8.30911 4.38099 8.3344 4.35184 8.34184 4.33889L8.36713 4.28222C8.38498 4.29841 8.39837 4.30974 8.41027 4.31784M7.5429 4.25306C7.6158 4.20287 7.6902 4.1964 7.71847 4.20126C7.77947 4.21097 7.80476 4.26926 7.88361 4.25955C7.87171 4.30327 7.78392 4.45709 7.66639 4.32917C7.63515 4.29517 7.58902 4.25955 7.5429 4.25955L7.54588 4.3065C7.54588 4.3065 7.54588 4.3227 7.54588 4.32917L7.6292 4.49272C7.54439 4.53806 7.59498 4.5251 7.46852 4.52834C7.42686 4.33727 7.49976 4.28545 7.50125 4.28383C7.27065 4.2304 7.53845 4.28708 7.30784 4.35347C7.24238 4.04419 7.35843 4.36804 7.30784 4.10896C7.44769 4.17211 7.29742 4.11867 7.41496 4.09438C7.47893 4.08143 7.48191 4.10572 7.59647 4.10896C7.55035 4.18344 7.54142 4.19477 7.5429 4.25306ZM7.49976 3.4305L7.68871 3.675V4.04581C7.62325 4.0539 7.56671 4.06524 7.49976 4.06524V3.4305ZM8.66617 4.93477C8.55162 4.87162 8.60517 4.70646 8.39391 4.75504C8.29423 4.7777 8.18711 4.83762 8.15884 4.88944C8.29869 4.83438 8.43259 4.83114 8.50698 4.99306C8.58732 5.16632 8.74651 5.12908 8.82982 5.04002C8.7227 4.95744 8.79263 5.01574 8.84768 4.94935V5.01735C8.88041 4.97201 8.8938 4.91695 8.87 4.87162C8.87 4.87162 8.75246 4.98497 8.66468 4.93639L8.66617 4.93477ZM7.49976 4.24983L7.50869 4.25955C7.50869 4.25955 7.4953 4.25307 7.49976 4.24983ZM7.35396 4.29841C7.35396 4.29841 7.34503 4.31298 7.33908 4.31946C7.37925 4.15753 7.38966 4.2887 7.40305 4.10896C7.47298 4.1462 7.41496 4.12029 7.49976 4.14458C7.45215 4.33727 7.50274 4.18182 7.41496 4.23688C7.38818 4.25469 7.35694 4.3065 7.35247 4.29841H7.35396ZM7.49976 4.45871L7.55035 4.45386C7.59201 4.54616 7.54439 4.46196 7.53696 4.46519C7.53398 4.46519 7.49976 4.47005 7.49827 4.45871H7.49976ZM10.511 6.25283L10.5199 6.2415C10.5199 6.2415 10.511 6.25122 10.511 6.25283ZM10.5422 6.46333L10.5527 6.45362C10.5527 6.45362 10.5437 6.46333 10.5422 6.46333ZM10.0066 6.76128C10.0423 6.75966 9.95606 6.86976 9.97392 6.76775C9.98582 6.69489 9.94118 6.76614 10.0066 6.76128ZM9.36394 5.22785C9.34459 4.97849 9.30294 5.05621 9.42791 4.98334C9.37286 5.26347 9.51717 4.91211 9.44427 5.12261L9.41154 5.16794C9.36988 5.23109 9.47849 5.13717 9.36394 5.22785ZM9.53651 5.05297C9.50527 5.04811 9.55585 4.96391 9.55585 5.05297C9.55585 5.15012 9.53651 5.05297 9.53651 5.05297ZM10.4232 8.20078C10.4917 8.17001 10.4961 8.19592 10.6166 8.16516C10.5958 8.21859 10.5794 8.36108 10.6166 8.44528C10.5155 8.40318 10.5705 8.5214 10.5527 8.34004L10.3503 8.49872C10.1911 8.5473 10.1777 8.39671 10.1673 8.37404C10.2521 8.33032 10.2015 8.34166 10.328 8.34004C10.2328 8.14411 10.2194 8.0761 10.392 8.0599C10.3711 8.00485 10.3697 7.97247 10.3711 7.8996C10.3741 7.76035 10.4113 7.76196 10.4247 7.74577C10.3831 7.96275 10.4708 7.8235 10.4277 8.034C10.4054 8.14735 10.4827 8.04858 10.4247 8.19917L10.4232 8.20078ZM9.59751 11.8959C9.62131 11.9024 9.54098 12.0011 9.55734 11.9088C9.56627 11.8554 9.53353 11.8781 9.59751 11.8959ZM7.62771 0.716645L7.63663 0.72636C7.63663 0.72636 7.62324 0.719884 7.62771 0.716645ZM7.59647 0.8219L7.6054 0.831615C7.6054 0.831615 7.59201 0.825138 7.59647 0.8219ZM6.98499 0.857518L6.99541 0.867234C6.99541 0.867234 6.98202 0.860757 6.98499 0.857518ZM8.75246 6.80176C8.75246 6.73051 8.74651 6.78719 8.78668 6.79204C8.88339 6.80176 8.78222 6.72242 8.80156 6.80176C8.8209 6.8811 8.75246 6.84224 8.75246 6.80176ZM6.32889 3.19895C6.30509 3.15199 6.38245 3.15685 6.34377 3.19895H6.32889ZM7.35247 7.82026C7.40752 7.90284 7.31082 7.82673 7.30635 7.8154C7.27809 7.7312 7.34206 7.80569 7.35247 7.82026ZM7.21114 10.1244C7.21114 10.1244 7.22006 10.1342 7.22155 10.1342L7.21114 10.1244ZM9.97392 5.2991C9.88911 5.21814 9.96945 5.33148 9.97392 5.12422C9.82068 5.1647 9.92333 5.14851 9.87721 5.12422C9.93523 5.09345 9.91738 5.0967 10.0066 5.09022C9.99623 4.94611 9.93226 4.98821 10.0379 4.95097C10.0498 5.11289 10.0037 5.0125 10.1019 5.09022C10.0944 4.9963 10.087 4.99468 10.0706 4.91534L10.1197 5.00116C10.1658 5.08536 10.1153 5.05298 10.1986 5.09022C10.1926 5.0967 10.1807 5.09507 10.1792 5.10641C10.1763 5.11774 10.1644 5.11937 10.1614 5.12261C10.0587 5.23919 10.1882 5.03192 10.1405 5.13393C10.1376 5.13879 10.1346 5.14528 10.1316 5.15337C10.0989 5.22138 10.1078 5.15499 10.1361 5.23109L10.0453 5.30719C10.0349 5.30719 10.02 5.25538 9.9754 5.30072L9.97392 5.2991ZM10.0647 5.14204C10.0037 5.16633 10.0394 5.12098 10.0736 5.1145C10.084 5.11288 10.0944 5.11451 10.1019 5.12261C10.1554 5.1809 10.0662 5.14204 10.0647 5.14204ZM9.36394 6.418C9.29104 6.418 9.32673 6.40666 9.23598 6.38237C9.27615 6.30141 9.29103 6.2917 9.29995 6.17187C9.38922 6.17997 9.5023 6.26741 9.55734 6.34675C9.35798 6.35161 9.42791 6.41638 9.36394 6.41638V6.418ZM7.92973 7.41059C7.92973 7.41059 7.93567 7.30696 8.10974 7.39764L8.0785 7.57251C7.99221 7.59518 8.01751 7.60814 7.94907 7.60814C7.88063 7.60814 7.8851 7.48345 7.92973 7.41221V7.41059ZM7.23346 5.02869L7.24387 5.01897C7.24387 5.01897 7.23494 5.02869 7.23346 5.02869ZM5.30978 11.1948C5.30978 11.1948 5.29936 11.2012 5.29638 11.2029L5.15355 11.3486C5.12529 11.2045 5.14612 11.3356 5.1491 11.2563C5.15207 11.1721 5.17438 11.2854 5.12826 11.2029C5.11934 11.1867 5.02561 11.2498 5.12826 11.1527C5.14909 11.1332 5.21753 11.1041 5.25026 11.1041C5.37375 11.1041 5.26217 11.0927 5.34697 11.1397L5.30978 11.1964V11.1948ZM5.21902 11.2077C5.16546 11.266 5.20265 11.1688 5.20116 11.1672C5.1729 11.0814 5.25175 11.1721 5.21902 11.2077ZM6.66364 5.43674C6.74695 5.30234 6.69191 5.32662 6.79307 5.29748C6.94185 5.5857 6.63686 5.47236 6.63239 5.47236C6.63983 5.46426 6.65918 5.4416 6.66364 5.43674ZM7.0817 8.37566C7.13972 8.40804 7.12187 8.40319 7.20965 8.41129C7.11443 8.56511 7.15311 8.42748 7.18287 8.58293C7.20221 8.68332 7.22006 8.67846 7.0817 8.69141C7.1055 8.57807 7.11443 8.4631 7.0817 8.37728V8.37566ZM8.72122 3.23456C8.65873 3.22647 8.7108 3.35601 8.59327 3.16494L8.72122 3.23456ZM8.78519 9.53018C8.65725 9.51884 8.68105 9.5156 8.62451 9.42492C8.80304 9.31805 8.78816 9.49779 8.88189 9.38931C8.81345 9.67105 8.79263 9.28567 8.78519 9.52856V9.53018ZM8.77478 9.43464C8.77478 9.43464 8.78817 9.42816 8.7837 9.42492L8.77478 9.43464ZM9.87721 6.48763C9.80133 6.43257 9.77902 6.43257 9.80431 6.34189C9.83258 6.23502 9.85787 6.23178 9.94267 6.20749C9.91291 6.27388 9.88614 6.39371 9.8787 6.48763H9.87721ZM8.56054 13.0617C8.49656 12.7654 8.63344 12.8853 8.72122 13.0261C8.64832 13.0456 8.64683 13.0536 8.56054 13.0617ZM6.96417 5.32177C6.96566 5.3331 6.97309 5.33958 6.97607 5.34444C7.02219 5.42378 6.99541 5.41406 7.0817 5.43835L6.98648 5.5096C6.98648 5.5096 6.96119 5.53551 6.95375 5.54361C6.93144 5.45293 6.96566 5.50474 6.88978 5.47398V5.36872C6.9731 5.34444 6.92549 5.38168 6.95375 5.2991C6.95822 5.30558 6.96268 5.31044 6.96566 5.32177H6.96417ZM8.58434 11.6579C8.58434 11.6579 8.55013 11.6822 8.52781 11.6983C8.52037 11.6044 8.51293 11.6028 8.49508 11.5235C8.62154 11.5202 8.57096 11.5332 8.65576 11.4878C8.61856 11.6611 8.56798 11.6093 8.71973 11.6271C8.64237 11.7437 8.69592 11.6692 8.63195 11.6595C8.59178 11.653 8.62898 11.6401 8.58286 11.6562L8.58434 11.6579ZM8.57244 11.5931C8.5412 11.5834 8.59179 11.5057 8.59179 11.5931C8.59179 11.6919 8.57244 11.5931 8.57244 11.5931ZM7.43579 9.56419C7.35099 9.5399 7.40901 9.56742 7.33908 9.52856C7.33908 9.29863 7.32718 9.45245 7.37182 9.35368C7.52208 9.3974 7.45067 9.37797 7.43877 9.45893V9.55285C7.43877 9.55285 7.43876 9.56095 7.43579 9.56419ZM8.2243 7.33935C8.15438 7.32316 8.19752 7.22923 8.20645 7.1175C8.22728 7.14341 8.23472 7.12075 8.24811 7.17418C8.26448 7.2341 8.2615 7.19524 8.2377 7.25677C8.34928 7.23086 8.33291 7.19038 8.36564 7.32639C8.35969 7.31992 8.35226 7.29887 8.35077 7.30696C8.33887 7.34582 8.36266 7.25514 8.29571 7.29076C8.20496 7.3361 8.36564 7.37012 8.22281 7.33935H8.2243ZM4.99288 11.5235C5.04347 11.4959 4.93337 11.4878 5.08958 11.5235L4.99288 11.4538C5.03454 11.3615 5.02263 11.4166 5.02561 11.279L5.08958 11.4538C5.23092 11.3858 5.08661 11.6401 4.99288 11.5235ZM5.47492 10.1941H5.6356C5.62816 10.2896 5.63559 10.3204 5.56418 10.3252C5.48681 10.3301 5.48979 10.2297 5.47492 10.1941ZM10.2625 8.86467C10.1643 8.78695 10.2105 8.88734 10.1986 8.72542C10.2432 8.69951 10.2596 8.73998 10.2625 8.58454C10.3414 8.64769 10.328 8.67036 10.2923 8.76104C10.273 8.808 10.2789 8.69951 10.2625 8.86467ZM10.1867 9.37635L10.1346 9.28567C10.1346 9.28567 10.1465 9.27596 10.148 9.28082L10.264 9.14642L10.2313 9.42655C10.1063 9.38121 10.209 9.43464 10.1867 9.37797V9.37635ZM6.47172 5.68286H6.63239C6.62793 5.91117 6.64429 5.76059 6.54759 5.79945L6.50296 5.82373C6.49403 5.71524 6.50296 5.75734 6.47172 5.68286ZM7.59647 3.40945H7.5325C7.50572 3.28638 7.50274 3.32363 7.5325 3.19895L7.63515 3.2961C7.60391 3.35115 7.61135 3.34306 7.59647 3.40782V3.40945ZM6.43898 7.7814C6.57437 7.82026 6.49552 7.80407 6.53569 7.9919C6.43304 7.96761 6.48511 7.95628 6.40775 7.9919C6.42411 7.94008 6.48659 7.89798 6.44047 7.7814H6.43898ZM9.52461 7.22114L9.49188 7.39602C9.44874 7.37011 9.45617 7.37658 9.39517 7.36039V7.25515C9.49485 7.24543 9.45617 7.25514 9.52312 7.21952L9.52461 7.22114ZM9.26723 6.907C9.29847 6.91996 9.29104 6.95559 9.36394 6.87139C9.32674 7.06731 9.37435 6.92968 9.37137 6.99283C9.37137 7.01226 9.43237 7.04464 9.29103 7.05921C9.24937 7.06407 9.27764 7.08188 9.25532 7.04626C9.1735 6.91672 9.32227 7.1596 9.26723 6.90538V6.907ZM10.392 7.71177C10.4976 7.53851 10.4143 7.72473 10.392 7.50127C10.4842 7.60652 10.3935 7.49155 10.5839 7.53689C10.5244 7.57575 10.4857 7.5547 10.4842 7.58709L10.4768 7.64215C10.4232 7.77492 10.4842 7.66481 10.392 7.71015V7.71177ZM8.88636 11.3081L8.75395 11.3534C8.75395 11.3421 8.77031 11.2757 8.77031 11.2676C8.76733 11.2012 8.77477 11.2498 8.75246 11.2077L8.77924 11.1672L8.88636 11.3081ZM6.37501 5.57761C6.20689 5.57761 6.21731 5.61647 6.1816 5.47236L6.40626 5.57761C6.31104 5.72173 6.3765 5.6019 6.37352 5.57761H6.37501ZM6.63239 13.5864C6.63834 13.5119 6.63239 13.486 6.6443 13.4747C6.65471 13.4649 6.67703 13.4617 6.7291 13.4471C6.71422 13.6333 6.75141 13.5281 6.63239 13.588V13.5864ZM9.87721 7.18714C9.93077 7.22762 9.94119 7.19199 9.94119 7.29239C9.94119 7.39278 9.92779 7.35716 9.87721 7.39764C9.88613 7.28105 9.91143 7.2762 9.87721 7.18714ZM7.94907 8.06153L8.07702 8.10039C7.95948 8.27202 7.98775 8.14087 7.94907 8.06153ZM9.19879 4.31784L9.17052 4.24821C9.23152 4.2725 9.23301 4.27088 9.25532 4.30974C9.26425 4.32594 9.27764 4.35022 9.29995 4.38746C9.13184 4.37127 9.2464 4.42309 9.19879 4.31622V4.31784ZM7.14716 8.13115C7.23048 8.17325 7.20965 8.15544 7.30784 8.13115C7.24536 8.22345 7.18584 8.28498 7.14716 8.13115ZM8.75246 10.2297H8.88041V10.2993C8.73164 10.2864 8.82387 10.3366 8.75246 10.2297ZM4.80095 9.46055V9.56581H4.73698V9.46055H4.80095ZM5.14761 7.0657C5.24729 7.09161 5.19076 7.08999 5.21754 7.11589C5.0762 7.14828 5.16099 7.18875 5.08958 7.08026C5.14016 7.0576 5.1 7.05274 5.14761 7.06408V7.0657ZM10.2625 5.01897L10.2253 4.98983L10.3235 4.90887L10.328 5.05297C10.2625 4.97525 10.2863 5.00926 10.264 5.01735L10.2625 5.01897ZM9.43832 5.88203C9.43832 5.88203 9.36542 5.87879 9.3312 5.78811C9.38774 5.81726 9.43535 5.82859 9.49188 5.85774L9.4651 5.89822C9.45469 5.89822 9.4413 5.87394 9.43832 5.88203ZM9.03216 11.8263C9.05447 11.7793 9.0515 11.7939 9.07382 11.768V11.9072H9.00985C9.02472 11.8408 8.9905 11.9072 9.03216 11.8263ZM7.46852 4.59958L7.43281 4.73884C7.39859 4.70969 7.36288 4.72751 7.3852 4.66436C7.40454 4.61092 7.40454 4.67245 7.46852 4.59958ZM7.5325 4.84409C7.55779 4.73884 7.53249 4.76798 7.6292 4.73884C7.57266 4.85542 7.63515 4.83276 7.5325 4.84409ZM8.52781 7.01226C8.57096 6.94749 8.53673 6.9653 8.60517 6.95882L8.68848 6.97825C8.60368 7.02197 8.65427 7.01064 8.52781 7.01226ZM10.392 5.64886C10.3131 5.61324 10.328 5.71848 10.328 5.5096H10.3607C10.3607 5.59866 10.3682 5.59381 10.3935 5.64886H10.392ZM6.57289 5.18737L6.44345 5.30396C6.46131 5.2311 6.44493 5.26834 6.4732 5.23109C6.48213 5.21814 6.50594 5.20033 6.5342 5.15823L6.5714 5.18737H6.57289ZM8.14991 7.00417L8.04577 7.01226V6.907L8.14991 7.00417ZM9.81323 4.91372L9.97392 4.80847V4.8781C9.88763 4.8862 9.88613 4.89429 9.81323 4.91372ZM8.56054 9.66943C8.51739 9.62247 8.50549 9.63705 8.62451 9.59981C8.61559 9.63543 8.62005 9.73582 8.56054 9.66943ZM9.41154 11.4004C9.42641 11.3842 9.45766 11.3502 9.45915 11.3486V11.4538H9.36245C9.36245 11.4538 9.4041 11.4085 9.41006 11.402L9.41154 11.4004ZM7.85385 5.0886C7.87468 4.99306 7.84046 5.03354 7.91782 4.98334V5.0886H7.85385ZM9.13928 7.08189C9.16011 6.98635 9.12589 7.02683 9.20325 6.97663V7.08189H9.13928ZM10.6166 7.71177V7.60652H10.6806C10.6494 7.74577 10.6181 7.70692 10.6166 7.71177ZM6.05366 6.94263V6.83738H6.11763C6.08639 6.97825 6.05515 6.93939 6.05366 6.94263ZM9.61983 7.53689C9.66744 7.46403 9.66595 7.49803 9.71654 7.46727C9.73736 7.47698 9.81621 7.51908 9.61983 7.53689ZM6.34377 5.36872H6.44047V5.43835C6.34674 5.41406 6.39435 5.44321 6.34377 5.36872ZM5.95695 7.15151H5.89298V7.04626C5.96439 7.09969 5.93315 7.05274 5.95695 7.15151ZM5.57162 11.9429H5.47492C5.5255 11.8635 5.48086 11.9024 5.57162 11.8732V11.9429ZM9.42791 6.52162C9.44576 6.52162 9.47998 6.52163 9.49039 6.52325C9.54841 6.54106 9.52461 6.53296 9.55734 6.55563C9.41601 6.58802 9.50081 6.62849 9.4294 6.52L9.42791 6.52162ZM8.0785 7.71177C8.09636 7.71177 8.13057 7.71177 8.14099 7.71339C8.19901 7.73121 8.17521 7.7231 8.20645 7.74577C8.06511 7.77816 8.14992 7.81864 8.0785 7.71015V7.71177ZM7.8851 8.24126L7.82112 8.20078C7.89998 8.16515 7.84641 8.17649 7.94907 8.20078L7.92377 8.23641C7.87021 8.26069 7.92824 8.25259 7.8851 8.24126ZM9.26723 5.99861H9.3312V6.10387C9.20772 6.00995 9.31781 6.10386 9.26723 5.99861ZM8.52781 7.39764C8.45342 7.50775 8.55012 7.44945 8.39986 7.46727C8.42366 7.4446 8.40879 7.44459 8.45342 7.42192C8.51889 7.38954 8.4683 7.41221 8.52781 7.39764ZM9.68529 11.4538C9.76265 11.5267 9.65553 11.5526 9.58858 11.4538C9.74331 11.4943 9.63917 11.4781 9.68529 11.4538ZM4.87534 5.28776C4.9051 5.35901 4.88427 5.30395 4.89766 5.36872C4.79203 5.28452 4.85303 5.39463 4.83369 5.22947C4.85452 5.25538 4.85451 5.23919 4.87534 5.28776ZM9.25086 7.48345L9.21813 7.44784C9.21813 7.44784 9.20623 7.4365 9.20177 7.43003L9.30293 7.42354L9.27021 7.50451C9.25979 7.50451 9.25086 7.47536 9.24937 7.48183L9.25086 7.48345ZM8.30018 7.77816C8.2853 7.79273 8.24811 7.80244 8.2377 7.8154C8.27638 7.70043 8.19603 7.7895 8.3344 7.71015C8.3091 7.78464 8.34333 7.73444 8.30018 7.77654V7.77816ZM7.31677 7.62595C7.37777 7.62271 7.33313 7.63081 7.37033 7.60652L7.30635 7.71177C7.30338 7.70206 7.3257 7.67938 7.24238 7.60652C7.24833 7.60652 7.30933 7.62595 7.31677 7.62595ZM10.3593 7.36201H10.4559C10.3845 7.4705 10.4322 7.4705 10.3593 7.36201ZM4.96164 5.22785V5.12261C4.98693 5.14204 5.00329 5.15661 5.0137 5.16794C5.0628 5.21976 4.97651 5.19061 4.96164 5.22785ZM5.31423 5.0886V4.98334C5.33953 5.00439 5.35738 5.01897 5.36779 5.03031C5.41391 5.07889 5.32911 5.05136 5.31423 5.0886ZM6.66364 5.19385V5.0886C6.80498 5.20033 6.68149 5.14851 6.66364 5.19385ZM6.53569 12.712C6.55057 12.529 6.50445 12.6488 6.59967 12.6067C6.57437 12.6618 6.57884 12.6909 6.53569 12.712ZM4.74889 5.03193C4.73401 5.05298 4.71467 5.07726 4.70425 5.0886L4.66706 5.05945L4.76525 4.97849C4.71913 5.1307 4.81881 4.92668 4.75038 5.03193H4.74889ZM10.2313 11.1737C10.2566 11.1462 10.3414 11.1948 10.2819 11.2174C10.2432 11.2336 10.206 11.1996 10.2313 11.1737ZM9.94119 7.71177C9.9516 7.70044 9.97242 7.70206 9.98879 7.71015C10.0111 7.71987 10.0275 7.74253 9.99177 7.75711C9.95309 7.77168 9.91738 7.7393 9.94119 7.71339V7.71177ZM5.34697 10.0192C5.35441 10.0111 5.36779 10.0095 5.3797 10.0127C5.40945 10.0192 5.43921 10.0467 5.39755 10.0645C5.35887 10.0791 5.32317 10.0467 5.34697 10.0208V10.0192ZM8.75246 11.3826C8.77775 11.3551 8.86256 11.4036 8.80305 11.4263C8.76436 11.4409 8.72865 11.4085 8.75246 11.3826ZM5.12232 9.73906C5.13124 9.72934 5.1476 9.72935 5.16248 9.7342C5.18926 9.7423 5.21158 9.76821 5.1729 9.78278C5.13421 9.79897 5.09851 9.76497 5.12232 9.73906ZM5.60435 5.85774C5.62964 5.83021 5.71444 5.87879 5.65493 5.90146C5.64005 5.90794 5.62518 5.90632 5.61477 5.90146C5.59691 5.89337 5.58947 5.87393 5.60435 5.85774ZM7.91782 4.2142C7.94312 4.18668 8.02792 4.23526 7.96841 4.25793C7.92973 4.2725 7.89402 4.24011 7.91782 4.2142ZM7.40305 1.87117C7.41347 1.8064 7.44323 1.81611 7.49976 1.80154C7.44918 1.87602 7.49678 1.84688 7.40305 1.87117ZM10.0676 7.30534C10.1405 7.3183 10.087 7.36039 10.0706 7.36201C10.0245 7.36849 10.0111 7.29563 10.0676 7.30534ZM10.2283 7.09484C10.3012 7.1078 10.2477 7.14989 10.2313 7.15151C10.1852 7.15799 10.1718 7.08513 10.2283 7.09484ZM6.21136 9.50751C6.28426 9.52046 6.2307 9.56095 6.21433 9.56419C6.16821 9.57066 6.15483 9.49779 6.21136 9.50751ZM5.63411 9.08813C5.70701 9.10108 5.65344 9.14318 5.63708 9.1448C5.62071 9.14642 5.60881 9.13833 5.60137 9.12861C5.59096 9.10918 5.5984 9.08165 5.63411 9.08813ZM9.39368 4.22716C9.46658 4.24011 9.41303 4.28221 9.39666 4.28383C9.37435 4.28707 9.35946 4.27088 9.35649 4.25469C9.35351 4.23849 9.36393 4.22068 9.39368 4.22554V4.22716ZM7.20816 9.47351C7.28106 9.48646 7.2275 9.52856 7.21114 9.53018C7.16501 9.53666 7.15162 9.46379 7.20816 9.47351ZM5.60435 10.9292L5.64749 10.9519C5.70254 10.9924 5.67279 10.9713 5.70106 10.9988C5.5017 10.981 5.65047 10.9843 5.60435 10.9292ZM8.78519 12.3622L8.82833 12.3865C8.88338 12.427 8.85362 12.406 8.88189 12.4335C8.68253 12.4157 8.83131 12.4189 8.78519 12.3639V12.3622ZM6.40775 9.87993C6.43006 9.77792 6.40328 9.82974 6.47172 9.77469C6.44048 9.91394 6.40924 9.87507 6.40775 9.87993ZM9.68529 11.9785C9.69124 11.9477 9.69422 11.9315 9.6957 11.9218C9.70017 11.8991 9.70165 11.9121 9.74926 11.8748C9.71802 12.0141 9.68678 11.9769 9.68529 11.9801V11.9785ZM5.50764 10.7187C5.52996 10.6167 5.50318 10.6685 5.57162 10.6135C5.54037 10.7527 5.50913 10.7155 5.50764 10.7187ZM8.81643 9.3553C8.83875 9.25329 8.81197 9.30511 8.88041 9.25005C8.84917 9.38931 8.81792 9.35206 8.81643 9.3553ZM7.9818 8.30603C8.00411 8.20402 7.97733 8.25583 8.04577 8.20078C8.01453 8.34003 7.98328 8.30117 7.9818 8.30603ZM7.78839 8.20078C7.72441 8.18135 7.775 8.24612 7.72293 8.17325C7.6292 8.04371 7.79285 8.27203 7.72442 8.13115C7.75715 8.1182 7.70656 8.034 7.78839 8.20078ZM7.85385 8.06153C7.85385 8.06153 7.89551 8.01619 7.90146 8.00971C7.91485 7.99513 7.94758 7.95951 7.94907 7.95789C7.92378 8.06314 7.94907 8.034 7.85236 8.06315L7.85385 8.06153ZM7.72442 3.20056C7.78393 3.21675 7.7869 3.20866 7.79434 3.22323C7.7988 3.22971 7.80327 3.24429 7.82112 3.27019C7.72739 3.2459 7.775 3.27504 7.72442 3.20056ZM8.65576 9.28567C8.748 9.30996 8.70485 9.28081 8.75246 9.3553C8.65873 9.33101 8.70634 9.36016 8.65576 9.28567ZM7.27511 8.48091C7.30635 8.48901 7.32123 8.49063 7.33015 8.49225C7.34801 8.49549 7.33909 8.50034 7.37182 8.55054C7.27809 8.52625 7.32569 8.5554 7.27511 8.48091ZM10.5363 7.3442C10.5363 7.3442 10.5244 7.33125 10.5199 7.32639L10.4872 7.29076L10.5735 7.32153C10.5735 7.32153 10.5824 7.3863 10.5839 7.39602C10.5839 7.39602 10.5422 7.35068 10.5348 7.3442H10.5363ZM8.56054 4.17859C8.56054 4.17859 8.54715 4.18506 8.54418 4.19477L8.46532 4.24821C8.49805 4.1543 8.42515 4.18183 8.50251 4.18183C8.5159 4.18183 8.53525 4.18182 8.56203 4.17859H8.56054ZM7.78839 7.85103L7.69168 7.7814C7.85682 7.79597 7.75268 7.74739 7.78839 7.85103ZM4.8322 9.25005C4.90361 9.30349 4.87237 9.25652 4.89617 9.3553C4.77269 9.26138 4.88278 9.3553 4.8322 9.25005ZM5.28299 5.36872L5.34697 5.26348C5.34548 5.29101 5.34399 5.31205 5.34399 5.32662C5.34399 5.41406 5.36333 5.3331 5.28299 5.36872ZM8.33588 4.24983L8.43259 4.18021C8.42367 4.20773 8.42218 4.22554 8.42516 4.23526C8.43111 4.26602 8.46086 4.23526 8.33737 4.25145L8.33588 4.24983ZM8.65576 12.2926L8.75246 12.223C8.71378 12.3347 8.82239 12.2732 8.65576 12.2926ZM5.34697 10.5438L5.25026 10.6135C5.28894 10.5033 5.18034 10.5633 5.34697 10.5438ZM7.37182 3.55032C7.37628 3.49041 7.35842 3.51955 7.38669 3.47583C7.38818 3.47421 7.39413 3.46612 7.39711 3.46288L7.43728 3.44506L7.37331 3.55032H7.37182ZM9.81323 11.0328C9.79836 10.9389 9.87721 11.0393 9.85341 11.0458C9.78943 11.0652 9.82216 11.0863 9.81323 11.0328ZM7.91782 7.22114C7.90741 7.16446 7.93419 7.17904 7.95056 7.20009C7.96097 7.21466 7.96841 7.23086 7.95949 7.23409C7.89551 7.25191 7.92824 7.27457 7.91931 7.22114H7.91782ZM8.88189 11.2077C8.88189 11.1672 8.95033 11.1284 8.93099 11.2077L8.91612 11.2174C8.87595 11.2223 8.88189 11.279 8.88189 11.2077ZM6.82432 4.84409C6.82432 4.80361 6.89424 4.76475 6.87341 4.84409C6.85407 4.92343 6.95524 4.84409 6.85854 4.85381C6.81837 4.85705 6.82432 4.91534 6.82432 4.84409ZM8.91314 9.84431C8.91314 9.80383 8.98158 9.76497 8.96373 9.84431C8.94439 9.92366 9.04555 9.84431 8.94884 9.85403C8.90867 9.85727 8.91463 9.91556 8.91463 9.84431H8.91314ZM8.10974 7.50127C8.10974 7.46079 8.17818 7.42193 8.16033 7.50127L8.14546 7.51099C8.10529 7.51423 8.11123 7.5709 8.11123 7.50127H8.10974ZM7.5325 1.34653C7.5325 1.27529 7.52654 1.33196 7.56671 1.33682L7.58159 1.34653C7.60093 1.42588 7.5325 1.38701 7.5325 1.34653ZM7.43579 1.31253C7.43579 1.24128 7.42984 1.29795 7.47149 1.30119L7.48638 1.31253C7.50572 1.39025 7.43579 1.35301 7.43579 1.31253ZM7.78839 8.09553C7.77202 8.00162 7.85237 8.10201 7.82856 8.10849C7.82856 8.10849 7.82112 8.10849 7.81963 8.10849C7.76012 8.10363 7.80029 8.16678 7.78839 8.09391V8.09553ZM5.3797 9.70506C5.36333 9.60791 5.45706 9.72125 5.41094 9.71801C5.35143 9.71477 5.3916 9.77631 5.3797 9.70506ZM4.73698 11.5575C4.72805 11.5024 4.75335 11.517 4.76972 11.5364C4.78162 11.5526 4.78757 11.572 4.76972 11.5704C4.71021 11.5656 4.75037 11.6287 4.73847 11.5575H4.73698ZM7.82112 4.38909C7.80773 4.3146 7.86724 4.36479 7.86427 4.39556L7.86129 4.40204C7.86129 4.40204 7.85385 4.40204 7.85236 4.40204L7.82112 4.38746V4.38909ZM10.2045 10.1876C10.212 10.1908 10.2596 10.1066 10.2179 10.1973C10.2179 10.1989 10.1584 10.2621 10.1658 10.1941C10.1658 10.1827 10.2015 10.186 10.2045 10.1876ZM9.75522 7.03978C9.76266 7.04302 9.81026 6.95882 9.7686 7.0495C9.7686 7.05112 9.7091 7.11427 9.71654 7.04626C9.71654 7.03492 9.75224 7.03816 9.75522 7.03978ZM9.43386 11.1672C9.44129 11.1705 9.48891 11.0863 9.44725 11.1769C9.44725 11.1786 9.38773 11.2417 9.39517 11.1737C9.39517 11.1624 9.43088 11.1656 9.43386 11.1672ZM8.66319 12.006C8.67063 12.0092 8.71973 11.925 8.67659 12.0157C8.67659 12.0173 8.61707 12.0805 8.62451 12.0125C8.62451 12.0011 8.66022 12.0044 8.66319 12.006ZM7.28106 8.68332C7.2885 8.68656 7.33611 8.60236 7.29445 8.69303C7.29445 8.69465 7.23494 8.7578 7.24238 8.68979C7.24238 8.67846 7.27809 8.6817 7.28106 8.68332ZM7.89104 8.50844C7.89848 8.51168 7.94758 8.42748 7.90592 8.51815L7.88956 8.52625C7.86426 8.52625 7.84641 8.58778 7.85385 8.51491C7.85385 8.50358 7.88956 8.50682 7.89253 8.50844H7.89104ZM9.01579 9.1027C9.02323 9.10594 9.07233 9.02173 9.02919 9.11241L9.01282 9.12052C8.98752 9.12052 8.96967 9.18205 8.97711 9.10918C8.97711 9.09785 9.01282 9.10108 9.01579 9.1027ZM9.07382 10.9988L8.97116 11.0749L9.00836 11.0345C9.05001 11.0053 8.98009 11.0377 9.07233 11.0005L9.07382 10.9988ZM7.02516 0.752264L6.72017 0.795986V0.915809L6.72761 0.927145C6.72761 0.927145 6.72166 0.93524 6.72017 0.93686V1.27852L6.96119 1.16194V1.09069C6.91358 1.07288 6.89871 1.03078 6.95227 0.927145C6.9478 0.923906 6.94036 0.923911 6.93887 0.922292C6.93738 0.922292 6.92697 0.917428 6.92549 0.915809L6.88829 0.857518C7.02963 0.821895 6.98797 0.844561 7.02368 0.752264H7.02516ZM7.69317 0.711783H7.68424L7.69317 0.716645V0.711783ZM7.7259 0.996771L8.03684 1.02106V1.16032L8.27786 1.27691V0.794366L7.88212 0.737696C7.88658 0.761985 7.90295 0.763601 7.8851 0.855898C7.81666 0.800843 7.84344 0.852665 7.82112 0.750653H7.75714C7.75268 0.805707 7.7631 0.768459 7.74971 0.805702L7.70656 0.851045C7.70656 0.851045 7.69763 0.852659 7.69317 0.855898C7.7497 1.08907 7.73335 0.909332 7.72739 0.996771H7.7259ZM8.38647 6.97987C8.40284 6.90053 8.40879 6.81471 8.40581 6.73374L8.31654 6.85358C8.2615 6.91835 8.30762 6.85357 8.27042 6.90863C8.3701 6.91996 8.37011 6.89891 8.38498 6.97987H8.38647ZM9.34459 5.34282C9.34459 5.36873 9.34161 5.39463 9.34013 5.42054C9.355 5.41406 9.37434 5.40921 9.39517 5.40273C9.37286 5.36873 9.3565 5.35092 9.34459 5.34282ZM10.6464 6.58964C10.6211 6.52001 10.5973 6.45038 10.5765 6.38237L10.5735 6.37266L10.5527 6.30788C10.5452 6.29979 10.5348 6.29007 10.5199 6.27712C10.5036 6.4941 10.4887 6.3257 10.5512 6.46658C10.5541 6.47305 10.5616 6.4941 10.5646 6.50057L10.6464 6.58964ZM10.6389 6.64955L10.6806 6.68355L10.6628 6.63659C10.6508 6.64307 10.6434 6.64631 10.6389 6.64955ZM10.389 6.4018L10.447 6.46495C10.5036 6.43581 10.4559 6.39371 10.389 6.4018ZM10.4768 11.245L10.4738 11.1737C10.4589 11.1575 10.447 11.1543 10.4559 11.2093C10.4589 11.2239 10.4679 11.2369 10.4768 11.245ZM9.84894 11.9477L9.87573 11.9267L9.84597 11.9429L9.84894 11.9477ZM8.33291 13.6981L8.36117 13.6528C8.3463 13.6528 8.32845 13.6528 8.30316 13.6576C8.31506 13.6754 8.32547 13.6884 8.33291 13.6997V13.6981ZM8.25704 13.6835L8.24959 13.839L8.2972 13.7596H8.27191C8.26745 13.7111 8.26299 13.69 8.25704 13.6835ZM9.70612 8.24126C9.68529 8.28984 9.66446 8.3368 9.64215 8.38052L9.68529 8.37566C9.68678 8.34489 9.69719 8.29469 9.70612 8.24126ZM7.33908 10.3803L7.49976 10.492L7.91188 10.2022L7.95651 9.07031L8.23026 8.31089L9.39964 7.86398C9.39666 7.77492 9.42642 7.70205 9.42791 7.67452C9.56032 7.66319 9.58114 7.64862 9.61685 7.58385C9.61685 7.58223 9.61983 7.57414 9.62132 7.56928C9.66744 7.6891 9.58412 7.63566 9.65107 7.67614C9.69719 7.70529 9.63173 7.73767 9.71654 7.60328C9.71207 7.66319 9.71058 7.70692 9.71207 7.74254L9.74331 7.7312L9.80729 7.77331L9.84746 7.54013C9.88019 7.38631 9.79092 7.47213 9.90994 7.42841C9.9025 7.53366 9.86977 7.63404 9.85341 7.71663C9.84746 7.74739 9.84299 7.77169 9.84001 7.79274L10.2075 8.034L9.81323 7.99837C9.80877 8.01942 9.80282 8.04371 9.79389 8.07124C9.68826 8.44852 9.4651 9.64353 9.37881 10.1115C9.36393 10.1925 9.37881 10.1115 9.35649 10.2086L9.11696 11.6206C9.0753 11.8052 9.14225 11.6822 9.03959 11.7275C9.1363 11.2773 9.09911 11.4425 9.10804 11.1559C9.10952 11.096 9.15416 11.0749 9.19433 10.8499C9.21962 10.7122 9.25383 10.5875 9.26425 10.4677L9.19582 10.424C9.19582 10.424 9.19582 10.4127 9.19433 10.411L9.19731 10.3819C9.21516 10.2961 9.22408 10.3268 9.24194 10.309C9.24194 10.309 9.30889 10.3382 9.31633 10.1325L9.32674 10.0338C9.32674 10.0338 9.33269 10.0257 9.33269 10.0224C9.39071 9.88641 9.55883 8.83229 9.58561 8.75619C9.61537 8.66551 9.59453 8.7238 9.61685 8.68494C9.57817 8.57483 9.68678 8.63473 9.52015 8.6153L9.52312 8.57159C9.22557 9.0104 8.81792 9.14642 8.47425 9.25815L8.35969 11.5461C8.3716 11.5478 8.3835 11.5494 8.3954 11.5526C8.34779 11.6789 8.42962 11.5947 8.35077 11.7307L8.26001 13.5394C8.29571 13.601 8.29126 13.6333 8.3954 13.5815L8.39242 13.5929L8.42813 13.5362C8.38349 13.5184 8.43556 13.5977 8.35374 13.4844L8.35672 13.4002C8.3835 13.3824 8.35969 13.5184 8.46532 13.4196C8.50103 13.3856 8.54566 13.3046 8.58434 13.3014C8.63046 13.235 8.67807 13.1702 8.72568 13.1071L8.71675 13.0925L8.74353 13.086C9.06191 12.665 9.39071 12.3298 9.74628 12.0287V11.9752C9.85935 11.9428 9.81919 11.9623 9.87424 11.87C9.84448 11.8538 9.88614 11.7906 9.81026 11.9056L9.77307 11.8765C9.79092 11.8263 9.76562 11.8246 9.74628 11.7664C9.65553 11.8004 9.71058 11.768 9.6838 11.8182C9.63768 11.904 9.65256 11.8279 9.64958 11.9752C9.34459 11.9833 9.70909 12.0254 9.46956 12.0319C9.30144 12.0368 9.39815 11.9914 9.32822 11.836C9.39517 11.8117 9.36096 11.8279 9.3922 11.7664C9.46064 11.8133 9.31186 11.7825 9.48741 11.8036C9.52461 11.8084 9.60793 11.802 9.64958 11.802C9.68529 11.6579 9.67339 11.6789 9.77753 11.7323C9.77753 11.551 9.74926 11.5963 9.8415 11.5218C9.80728 11.6821 9.84448 11.6401 9.80878 11.802C9.97987 11.7518 9.84448 11.7453 9.90548 11.6271L9.93672 11.7955C9.92333 11.8457 9.92185 11.8716 9.92185 11.8846C10.1048 11.7372 10.2953 11.5963 10.4931 11.4555C10.4872 11.402 10.4812 11.3502 10.4783 11.2968C10.4292 11.4376 10.5363 11.2935 10.3816 11.4425C10.3176 11.5057 10.273 11.5542 10.2283 11.6271L10.2923 11.347C10.325 11.3939 10.325 11.2741 10.325 11.4522H10.3578C10.3578 11.3421 10.3875 11.2207 10.4708 11.1494C10.4455 10.3965 10.6494 9.67915 10.7089 9.05574C10.5779 9.30996 10.4083 9.65324 10.2849 9.90584C10.3027 9.89613 10.3206 9.90261 10.3102 9.94795L10.2953 9.95766C10.2566 9.9609 10.2596 10.0127 10.2611 9.95766C10.1777 10.1293 10.1212 10.2475 10.1212 10.2475C10.2908 9.16747 10.688 8.2607 11.0659 7.36687C10.8219 7.17742 10.6241 6.98959 10.4559 6.78233C10.4366 6.77909 10.4128 6.78232 10.3786 6.7969C10.2283 6.86329 10.4217 6.80824 10.2611 6.87139C10.2774 6.82281 10.2819 6.82605 10.2938 6.80176C10.2968 6.79528 10.3012 6.78557 10.3057 6.77909C10.3101 6.77099 10.325 6.74508 10.331 6.73699C10.3816 6.67222 10.3548 6.66574 10.3667 6.66574C10.328 6.61392 10.2923 6.56049 10.2566 6.50544C10.2254 6.59126 10.2358 6.70784 10.1331 6.58964C10.142 6.71756 10.1584 6.68517 10.1197 6.78071L10.0751 6.88757C9.99772 7.0495 9.9873 7.00254 9.90696 7.00902L10.0052 6.52487C10.0052 6.52487 10.0096 6.51191 10.0096 6.51029L10.0305 6.47791C10.0379 6.46496 10.0572 6.53458 10.0498 6.43904C10.0438 6.36618 10.0379 6.39047 10.0022 6.34513L10.0796 6.34836C10.1331 6.38561 10.0825 6.3176 10.1301 6.38237C10.1777 6.44552 10.1138 6.40342 10.1644 6.52C10.1882 6.50057 10.209 6.48115 10.2253 6.45848C10.0825 6.22855 9.96052 5.96947 9.84299 5.65858C9.93672 5.81078 10.0498 5.9808 10.1733 6.14273C10.1777 6.13787 10.1852 6.13463 10.1926 6.12977C10.2625 6.09253 10.2313 6.14111 10.3235 6.10063C10.3206 6.10872 10.3131 6.11034 10.3116 6.12168L10.2938 6.16054C10.2774 6.27712 10.3444 6.16863 10.3875 6.34351L10.4946 6.11196C10.4158 5.8124 10.3667 5.51931 10.3444 5.22461L10.2908 5.26024C10.325 5.16146 10.2432 5.19871 10.3414 5.19385L10.3369 5.12422C10.1882 5.16146 10.2863 5.17766 10.2253 5.04974C10.2432 5.05945 10.2819 5.07403 10.2938 5.0805C10.3265 5.09832 10.3325 5.10155 10.3354 5.10479C10.331 5.01573 10.3295 4.92505 10.3295 4.83438L9.99624 4.61416C9.98731 4.66922 10.0528 4.65788 9.93672 4.66598C9.84746 4.67246 9.87423 4.64493 9.84001 4.59473C9.87126 4.58178 9.89655 4.57206 9.91589 4.56072L9.68529 4.40852C9.67487 4.41337 9.66148 4.41661 9.64809 4.42147C9.64066 4.40204 9.63471 4.38747 9.63173 4.3729L9.47998 4.2725L9.47552 4.28383C9.47552 4.28383 9.416 4.34861 9.42344 4.2806C9.42344 4.26926 9.45915 4.2725 9.46212 4.27412C9.46361 4.27412 9.46807 4.27088 9.47105 4.26602L9.0024 3.95675C9.09911 4.1462 9.17201 4.33241 9.22705 4.51215C9.31781 4.5834 9.23896 4.52024 9.24343 4.56882L9.25086 4.59473L9.25681 4.60768C9.34013 4.79227 9.26127 4.48138 9.32822 4.69998C9.30144 4.69188 9.28508 4.68702 9.27317 4.68055C9.29103 4.75665 9.30591 4.83276 9.31633 4.90562C9.38179 4.90562 9.32822 4.9202 9.34905 4.86838C9.35054 4.86515 9.35054 4.85381 9.35203 4.84895L9.35947 4.73398C9.35947 4.73398 9.37137 4.74532 9.37286 4.75666L9.416 4.88133C9.41749 4.904 9.3684 4.94448 9.45618 4.94448C9.57817 4.94448 9.4532 4.98011 9.57222 4.85867C9.67934 4.74856 9.63173 4.76799 9.71356 4.80523C9.73587 4.87648 9.69124 4.94611 9.64958 4.98011L9.65256 4.95582C9.65703 4.89429 9.70463 5.01249 9.65553 4.91372C9.61983 4.84409 9.599 4.88782 9.55288 4.91049C9.67636 5.16471 9.72099 5.04164 9.8415 5.15498C9.66743 5.19546 9.71951 5.14851 9.58412 5.04974L9.51568 5.15013C9.60941 5.17604 9.68975 5.20194 9.77753 5.22461C9.77604 5.22785 9.71504 5.33311 9.71356 5.33473C9.69868 5.35416 9.75075 5.38169 9.64809 5.36549L9.42344 5.32824C9.46361 5.43349 9.46361 5.34768 9.4041 5.44321L9.32227 5.53874C9.31632 5.58732 9.3074 5.63429 9.29698 5.67963C9.35501 5.71201 9.30293 5.68286 9.29401 5.712L9.28806 5.71524C9.21069 6.03424 9.05299 6.2917 8.84024 6.46495C8.85512 6.47305 8.87743 6.47628 8.92058 6.46981C8.96967 6.46009 8.9429 6.46658 8.97265 6.44715V6.59287C8.84024 6.72727 8.97563 6.48115 8.85214 6.63497C8.7361 6.77909 8.83875 6.65765 8.85214 6.74185C8.87 6.85681 8.86702 6.82928 8.78073 6.86652C8.81941 6.89891 8.74502 6.8892 8.87743 6.90215C8.88487 6.99607 8.89231 6.99768 8.91016 7.07702L8.85958 7.02683C8.82239 7.00902 8.8566 7.00901 8.78221 7.00578C8.76882 6.82604 8.75841 6.95882 8.71824 6.7969L8.66765 6.907C8.63343 6.79852 8.61559 6.82767 8.6751 6.75156C8.73015 6.68356 8.73312 6.70137 8.78221 6.62041L8.71824 6.60259C8.72419 6.5783 8.73312 6.56049 8.73609 6.56697L8.76585 6.52162C8.69295 6.5702 8.6141 6.61069 8.53078 6.63984C8.51442 6.84062 8.4564 7.02522 8.31208 7.17743C8.33738 7.13209 8.3582 7.07541 8.37457 7.01064L8.36713 7.00092C8.35523 6.98149 8.34183 6.94749 8.33291 6.93292L8.23621 7.00254C8.2734 6.81147 8.21091 6.71432 8.30018 6.51353C8.34779 6.55077 8.36862 6.58478 8.39391 6.6285C8.38945 6.60421 8.38499 6.58154 8.37904 6.55887C8.36267 6.5022 8.33737 6.44714 8.30762 6.39533C8.3091 6.40342 8.30464 6.41152 8.28828 6.418C8.24959 6.43419 8.21389 6.40019 8.2377 6.37428C8.25257 6.35809 8.28679 6.3678 8.30167 6.38399C8.1767 6.17349 7.96097 6.00185 7.78244 5.89498V5.72334C7.73037 5.72334 7.76756 5.78001 7.75566 5.71038C7.74674 5.66019 7.76608 5.66505 7.78244 5.68286V5.15175L7.76012 5.14689C7.73929 5.15175 7.714 5.16146 7.68871 5.17441V5.59056L7.69913 5.60514C7.73483 5.65371 7.70805 5.60838 7.72442 5.67638L7.68871 5.65533V5.97271L7.69317 5.99052L7.68871 5.98728V7.8996C7.70656 7.91579 7.70061 7.91417 7.68871 7.91903V10.1261L7.50125 10.2491V10.2556C7.42537 10.2556 7.37181 10.3058 7.34057 10.3722L7.33908 10.3803ZM4.66557 4.83762C4.66557 4.93639 4.6626 5.03517 4.65813 5.13232C4.66706 5.13394 4.68194 5.13231 4.70574 5.12422C4.68343 5.17441 4.68342 5.20195 4.65367 5.223C4.61796 5.70391 4.51382 6.17511 4.32041 6.68355C4.62986 6.44066 4.9408 6.0067 5.15504 5.66019C4.96163 6.17025 4.75632 6.5443 4.4677 6.87301C4.48852 6.88434 4.49894 6.90377 4.4677 6.91672C4.45282 6.92158 4.43943 6.92158 4.42901 6.91672L4.37248 6.97663C4.39331 6.98797 4.40372 7.0074 4.37248 7.02035C4.3576 7.02683 4.34273 7.02521 4.33082 7.02035C4.21329 7.13856 4.08237 7.25353 3.93359 7.36849C4.05857 7.6632 4.18503 7.95951 4.30553 8.26231L4.32041 8.23641L4.35314 8.37566L4.34868 8.37242C4.5287 8.83876 4.69235 9.32292 4.80393 9.84593C4.80988 9.85403 4.88428 9.94795 4.83518 9.84593C4.86791 9.82974 4.82624 9.78116 4.87385 9.84431C4.90956 9.89289 4.88279 9.84755 4.89915 9.91556C4.83518 9.89613 4.88576 9.9609 4.83369 9.88641L4.80393 9.84593C4.8322 9.97871 4.85749 10.1115 4.87981 10.2491C4.87981 10.2491 4.52572 9.51237 4.29065 9.05736C4.3338 9.50427 4.45133 10.0014 4.50489 10.5228C4.53613 10.5309 4.52721 10.5357 4.54655 10.6135H4.51382C4.53762 10.8887 4.54209 11.1705 4.50638 11.4555C5.37077 12.0708 6.07299 12.6812 6.75439 13.8374L6.7291 13.3484H6.72612C6.72612 13.3484 6.72464 13.337 6.7291 13.3338L6.52379 9.26139C6.34079 9.2031 6.13995 9.1367 5.94802 9.02011L5.95546 9.11565L5.99266 9.10756C5.97778 9.13832 5.96737 9.15775 5.95993 9.17719L5.99861 9.66781L5.91529 10.3155L6.00605 11.3875L5.74718 10.3511L5.76205 10.016L5.6713 9.63543L5.70701 9.22091V9.2128H5.70552L5.64749 8.89058L5.64006 8.89867V8.85172L5.62369 8.76104C5.50913 8.6396 5.40499 8.48577 5.3187 8.28822V8.34004H5.25473C5.25771 8.19269 5.23687 8.21859 5.28002 8.19268C5.25621 8.13277 5.23539 8.068 5.21456 7.99999L4.7965 8.03724L5.26068 7.73282L5.61328 7.86721L5.62667 7.60814L5.65345 7.35878L5.62071 6.92806L5.73973 6.44877C5.73973 6.44877 5.74867 6.96854 5.75462 7.06083C5.76206 7.15313 5.86769 7.53365 5.86769 7.53365C5.86769 7.53365 5.82156 7.68424 5.82752 7.74739L5.84686 7.95789L6.64579 8.26393C6.66513 8.25907 6.69488 8.27041 6.70232 8.28498L6.77075 8.31089L6.802 8.39833C6.80051 8.3708 6.79754 8.34003 6.79307 8.30441C6.88234 8.41614 6.84069 8.43719 6.88978 8.54892C6.87639 8.54892 6.86597 8.54892 6.85556 8.54892L6.8749 8.60236L6.95375 8.51653C6.96714 8.51977 7.02814 8.5554 6.9359 8.60074C6.88978 8.6234 6.9121 8.61693 6.88086 8.61854L6.97012 8.86467C7.11741 8.86467 7.00433 8.86467 7.05045 8.83067L7.06534 8.87439C7.08021 8.9003 7.04154 8.87763 7.11444 8.9343C7.04897 9.03469 7.12336 8.94401 7.00285 8.9602L7.04302 9.07193L7.08765 10.2038L7.22006 10.2977L7.21708 10.2928C7.17989 10.2184 7.16501 10.1973 7.20965 10.0904C7.31528 10.1665 7.26618 10.1601 7.40305 10.1244C7.37032 10.2119 7.36884 10.2297 7.49976 10.2297V8.67684C7.46852 8.69141 7.42091 8.66712 7.37182 8.65578C7.43281 8.5311 7.36586 8.55539 7.49976 8.51653V8.39671L7.46257 8.34813C7.47893 8.34813 7.49084 8.34813 7.49976 8.34813V7.85427L7.3852 7.91094C7.32271 7.92065 7.37032 7.86883 7.33908 7.95951C7.20072 7.94656 7.28106 7.96437 7.17841 7.88989C7.15609 7.98218 7.18138 7.91904 7.14716 7.99514L7.10997 7.966C7.10997 7.93037 7.13675 7.98704 7.14716 7.85588C7.27957 7.88988 7.24386 7.93361 7.33908 7.89151C7.23642 7.7393 7.28106 7.90284 7.17841 7.75225C7.33314 7.79112 7.33611 7.75873 7.49976 7.71663V7.67291L7.46852 7.68263V7.61299L7.49976 7.60976V7.33287C7.45364 7.33934 7.44025 7.26648 7.49678 7.2762H7.49976V5.29586C7.39711 5.35415 7.29296 5.40435 7.21708 5.37844V5.49017L7.32719 5.67638L7.21708 5.58084C6.9716 5.37196 6.96119 5.16309 7.05641 5.05945H7.05045C7.09955 4.85705 7.07872 5.08698 7.19923 4.90887C7.20221 4.90401 7.20667 4.89267 7.21114 4.88457C7.23196 4.94772 7.22899 4.92991 7.2394 4.9542L7.27065 5.0044C7.33909 5.04973 7.32272 4.89267 7.33908 5.09507C7.22303 5.06755 7.29892 5.05783 7.24238 5.12908C7.12931 5.04002 7.19923 5.03516 7.14567 5.0465C7.12633 5.0886 7.11889 5.12746 7.12484 5.1647C7.13972 5.16146 7.15907 5.15175 7.17841 5.1307V5.23595L7.13675 5.20357C7.18436 5.32339 7.28701 5.31206 7.39859 5.26186C7.38074 5.24729 7.37182 5.21328 7.37182 5.16632C7.42984 5.1987 7.41199 5.19385 7.50125 5.20195L7.49232 5.21328C7.59349 5.15499 7.69466 5.08698 7.76161 5.07402C8.14248 5.15498 8.02941 5.50637 8.02941 5.50637C8.19306 5.4335 8.45937 5.28452 8.35969 5.10317C8.24067 5.10155 8.17521 5.0303 8.11719 4.95258C8.11719 4.95582 8.11272 4.96715 8.10082 4.99306L8.08445 5.00116C8.05916 5.00116 8.04131 5.06269 8.04875 4.98983C8.04875 4.97849 8.08446 4.98172 8.08743 4.98334C8.09189 4.98496 8.11272 4.95259 8.11719 4.95097C8.03387 4.8441 7.95949 4.72589 7.75566 4.76475C7.78393 4.73237 7.81219 4.7016 7.84195 4.67569C7.83599 4.65788 7.83004 4.63359 7.82409 4.60445C7.85831 4.61902 7.8717 4.63035 7.87914 4.64331C7.9937 4.55263 8.11569 4.51701 8.25108 4.58664C8.25852 4.57368 8.26745 4.56235 8.27638 4.55425L8.2615 4.54616C8.20645 4.50568 8.23621 4.52672 8.20794 4.49919C8.35374 4.51215 8.28976 4.47652 8.2972 4.53805C8.3463 4.51053 8.4073 4.52186 8.44896 4.56235C8.54566 4.5251 8.48764 4.61739 8.53971 4.52672C8.57541 4.46195 8.47574 4.50405 8.626 4.39556C8.6141 4.54615 8.62897 4.45223 8.58732 4.53805C8.64534 4.49271 8.64683 4.45224 8.66171 4.33889L8.58434 4.096C8.4073 4.19801 8.19901 4.1381 8.03833 4.16725C7.98924 4.12191 7.90593 4.05876 7.78393 4.05228V3.91789C7.78393 3.91789 7.78095 3.9017 7.78393 3.89522V3.6329L7.66044 3.46936L7.7869 3.44831C7.78244 3.43373 7.77351 3.41269 7.75714 3.3803C7.84938 3.41592 7.79731 3.35439 7.83302 3.44021L8.50847 3.32524C8.52335 3.38515 8.57393 3.42888 8.63344 3.42888C8.70485 3.42888 8.76287 3.36573 8.76287 3.288C8.76287 3.24914 8.74948 3.21514 8.72717 3.18923C8.74205 3.22 8.75246 3.26048 8.75395 3.31067C8.57244 3.29448 8.63493 3.2038 8.56054 3.27505L8.52334 3.2459C8.5293 3.21999 8.53673 3.20056 8.54714 3.18275C8.52929 3.20056 8.51591 3.22323 8.50847 3.24914L8.20645 3.16656V3.1698C8.12165 3.21514 8.17372 3.20218 8.04726 3.20542C8.07999 3.17465 8.10677 3.15522 8.1276 3.14551L7.78393 3.05159L7.67978 2.88481V1.79345C7.66937 1.80802 7.653 1.82259 7.6292 1.8404C7.55332 1.64123 7.63812 1.99747 7.6292 1.56027H7.67978V1.16032L7.64854 1.15384C7.64407 1.14413 7.63515 1.14412 7.6292 1.13926L7.67978 1.11821V1.06479C7.53101 1.05183 7.74227 1.07773 7.59647 0.964384L7.56373 1.17489L7.47893 1.02431C7.47744 1.01135 7.4715 1.00811 7.46704 1.00001C7.58606 0.966008 7.50869 0.96439 7.62771 0.930386C7.52505 0.778178 7.6054 0.922291 7.46704 0.86076C7.49382 0.805706 7.51464 0.739315 7.56225 0.697215L7.49827 0.6875L7.30933 0.715024C7.32123 0.719882 7.33611 0.721498 7.37033 0.721498V0.757126C7.28404 0.757126 7.26916 0.758742 7.25874 0.723119L7.17841 0.734454C7.16353 0.755505 7.16353 0.753887 7.14716 0.826752C7.15014 0.826752 7.15609 0.826752 7.15758 0.826752H7.19923C7.40752 0.878568 7.34801 0.812178 7.43728 0.896379C7.32272 0.896379 7.23048 0.919053 7.14865 0.86076C6.98649 0.940103 7.22751 0.846182 7.02071 0.825132C7.05641 0.899617 7.09211 0.933626 7.10848 1.01297L7.32421 0.996771V1.49064H7.40752V1.56027C7.32718 1.53437 7.35396 1.56027 7.32421 1.51331V2.88481L7.22006 3.05159L6.49552 3.24914C6.48064 3.19085 6.43304 3.14875 6.3765 3.14551L6.41072 3.23943C6.34823 3.26372 6.38394 3.24752 6.34972 3.27829C6.33782 3.288 6.32145 3.31391 6.28277 3.34467C6.25599 3.2038 6.2783 3.22971 6.29765 3.1698C6.26343 3.19571 6.24111 3.2378 6.24111 3.28638C6.24111 3.36411 6.29914 3.42725 6.37055 3.42725C6.43006 3.42725 6.48064 3.38353 6.49552 3.32362L7.34355 3.46936L7.22155 3.6329V3.84016L7.31081 3.83369V3.93894L7.22155 3.85474V4.09762C7.22899 4.11382 7.23643 4.14134 7.24684 4.18506C7.2394 4.18182 7.18882 4.15268 7.18733 4.15106L7.18138 4.14135C7.14418 4.1462 7.10848 4.14944 7.07575 4.15106C7.08765 4.17373 7.13823 4.11058 7.18287 4.29031C7.1784 4.28384 7.17097 4.26279 7.16799 4.26926C7.16055 4.29031 7.17543 4.23849 7.10402 4.20449C6.96268 4.1381 7.13378 4.27412 7.01178 4.1883C6.97161 4.16077 6.95673 4.13486 6.95227 4.11543C6.79307 4.06362 6.63983 3.99075 6.49403 3.89036V3.91789C6.56544 3.96809 6.52825 3.89846 6.54015 4.04581H6.51337C6.55949 4.22068 6.68149 4.36804 6.8139 4.41985C6.66959 4.42309 6.54164 4.48462 6.40477 4.5834C6.47023 4.59473 6.53866 4.6174 6.59669 4.64655C6.33782 4.78904 6.23368 4.82142 6.09829 5.1566C6.12209 5.14365 6.14888 5.13393 6.17417 5.12422C6.17119 5.10964 6.16524 5.0886 6.15334 5.06107C6.17119 5.07079 6.20987 5.08536 6.22178 5.09184C6.28129 5.12423 6.25153 5.10803 6.28277 5.1307C6.26194 5.13556 6.24557 5.14041 6.23218 5.14365C6.20838 5.23594 6.18458 5.31529 6.16524 5.3914C6.21731 5.40597 6.1697 5.44321 6.15483 5.44483H6.15334C6.14143 5.50151 6.13101 5.5598 6.12953 5.62295L6.15631 5.61971C6.15631 5.61971 6.14292 5.62619 6.13994 5.6359L6.12953 5.64238C6.12953 5.70715 6.13399 5.77678 6.14887 5.85774C6.17416 5.80916 6.20689 5.76059 6.24111 5.71849C6.23218 5.95328 6.26343 6.14596 6.35567 6.37104L6.42708 6.22207C6.52825 6.47467 6.72464 6.63173 6.802 6.83738C6.83027 6.91186 6.83771 6.98959 6.83474 7.08998C6.76927 6.90701 6.6934 6.78718 6.56545 6.68193C5.7442 6.47143 5.31275 5.32015 5.99712 3.96484L4.67003 4.84247L4.66557 4.83762Z" fill="#BC2A26"/>
</svg>
