<svg width="180" height="180" viewBox="0 0 180 180" fill="none" xmlns="http://www.w3.org/2000/svg">
<path d="M118.671 29.763L119.732 27.9049V27.3038H119.931V14.953L118.671 12.0566L108.124 9.21484C108.124 9.21484 108.007 9.30584 107.891 9.46979L108.223 10.162L108.986 9.99814C108.837 10.4718 108.986 10.071 108.986 10.3988C108.986 10.7085 109.135 10.326 108.986 10.7997L108.605 10.7632L108.472 10.6904L109.019 11.8561V14.443C109.202 14.443 109.301 14.3883 109.367 14.3883C110.197 14.2972 110.677 16.2828 109.583 17.3576C109.401 17.5397 109.218 17.6672 109.019 17.7765V24.881L107.742 26.8484L118.687 29.7994L118.671 29.763ZM109.334 14.7344L109.434 14.8437C109.434 14.8437 109.285 14.7708 109.334 14.7344ZM110.412 24.1705C112.402 23.4418 109.666 24.4256 111.49 22.9865C111.49 23.0229 111.49 23.0957 111.49 23.1139C111.391 25.2817 112.518 22.2577 111.838 25.7371L110.412 25.3546V24.1705ZM108.621 26.9212L110.76 25.7371C108.953 27.6134 110.545 27.3766 108.621 26.9212ZM117.974 15.0987L117.576 13.5321C118.87 13.9147 118.538 13.5685 118.654 15.0987H117.974ZM117.941 18.651V17.4668C118.704 18.0862 118.406 17.5033 118.654 18.651H117.941ZM112.352 17.394V16.6289C112.352 16.6289 112.203 16.7381 112.203 17.0843C112.203 17.7765 112.286 17.6126 112.352 17.394ZM112.352 18.3959V17.8494C112.17 17.7766 111.954 17.7583 111.855 17.8858C111.59 18.1773 111.954 18.5234 112.352 18.3959ZM116.167 13.9693L116.565 14.8801V25.8464L116.216 26.5569L111.954 25.4092L112.352 24.7534V20.3814C112.27 20.0718 112.22 19.5618 112.203 18.651C111.357 19.2703 111.838 19.1246 110.76 19.4343L112.352 16.0278V13.6778L111.988 12.8399L116.183 13.9693H116.167Z" fill="#BC2A26"/>
<path d="M68.5268 20.241L68.6263 20.3503C68.6263 20.3503 68.4771 20.2775 68.5268 20.241ZM64.5965 19.8402C64.7955 18.9658 64.9614 18.9295 64.9614 17.8729H65.3262V19.8402H64.6131H64.5965ZM69.5882 15.1222L71.0642 12.3897L73.9332 9.12891L69.3726 10.3676L68.8917 11.2421V14.3207C69.1737 14.6668 68.8917 14.1203 69.4555 14.8854L69.5882 15.104V15.1222ZM68.7756 25.4327L68.9746 25.706L68.7093 27.4001L74.8785 25.7423H74.6298V25.5237L71.7773 23.2103L68.9414 19.3302C68.8585 20.241 69.1902 19.731 68.8917 21.0426L68.6595 22.4998C68.4937 24.4672 68.3611 24.1211 68.9083 25.3416L68.7922 25.4144L68.7756 25.4327ZM66.6364 27.9648L65.3594 25.8516V24.5401C63.9 24.3579 63.7673 23.9571 64.9614 23.0099C65.2931 24.0118 65.1437 23.4289 65.3262 23.7933L65.376 23.8661V20.4414L68.1952 24.5766C68.1952 20.2957 68.5103 20.4778 68.5434 18.8019L68.4439 18.6743C66.6197 18.5104 68.0957 19.1845 67.4655 17.5086C67.8967 17.3446 67.5318 17.5086 67.8303 17.5086C68.1123 17.5086 67.7641 17.6725 68.1952 17.5086C68.4937 16.0694 68.7258 13.6102 68.8419 11.406L65.376 17.7089V13.9563L66.6861 11.151L60.7656 12.754L62.0426 14.8854V26.7989L60.7656 29.6042L66.6695 28.0194L66.6364 27.9648Z" fill="#BC2A26"/>
<path fill-rule="evenodd" clip-rule="evenodd" d="M51.1411 20.3268L52.2025 23.0593L53.0814 22.7314C53.1809 22.7678 53.2804 22.7497 53.3136 22.6404L54.7563 22.1121L53.1478 24.4802L55.1709 26.4475L52.4844 26.1015L51.9371 29.0161L50.8758 26.2837L48.3052 27.2127L49.9139 24.8446L47.8906 22.8772L50.5773 23.2233L51.1245 20.3086L51.1411 20.3268Z" fill="#BC2A26"/>
<path fill-rule="evenodd" clip-rule="evenodd" d="M128.85 20.3086L127.789 23.0411L125.434 22.1849V22.4035L125.832 23.0047V22.9682L127.242 23.4054V24.1887C126.976 24.1705 126.777 24.1522 126.611 24.1522L126.844 24.4802L124.82 26.4475L127.507 26.1014L128.054 29.0161L128.717 27.3401H127.971C128.004 26.2471 128.237 26.3929 129.049 26.1561V26.484L129.132 26.2837L131.686 27.2127L130.077 24.8445L132.101 22.8772L129.414 23.2233L128.867 20.3086H128.85Z" fill="#BC2A26"/>
<path d="M48.4439 8.67408L49.0077 8.43725V8.47361C48.7755 9.36622 49.9033 8.4736 48.8419 8.5829C48.4439 8.61934 48.4439 9.14769 48.4439 8.65584M89.9863 180C88.4772 179.035 86.9515 178.069 85.4424 177.085C86.0228 176.921 85.3926 177.249 85.6082 176.302C85.8403 175.318 85.8569 175.373 86.0559 174.48C84.7292 173.952 87.2665 174.426 85.7077 174.517L84.6298 174.08C84.6629 175.81 84.8619 175.355 85.3926 175.664L85.0941 176.83L83.9001 176.065C83.784 175.919 83.5518 175.664 83.3362 175.5C82.2582 174.663 84.3479 175.883 82.789 175.318L82.8221 175.355L80.7491 173.97C80.8984 173.934 81.0808 173.897 81.4125 173.679C80.8487 172.841 81.3793 173.169 80.3345 172.896V173.697C68.9746 166.028 58.0791 157.375 49.8701 146.19C50.1188 145.99 49.8038 145.735 49.5053 145.68L49.1238 145.134C48.9579 144.332 49.1902 144.733 48.4771 144.186C45.5583 139.905 43.021 135.279 40.9812 130.196L40.948 130.014H40.9149C40.5003 128.976 40.1022 127.901 39.7374 126.826C33.7838 109.448 33.5351 88.6443 34.0326 57.567L34.1155 51.847C34.1321 52.011 34.331 52.1386 34.4969 52.5029C36.006 52.339 34.4969 52.6668 35.3759 51.8835L35.5748 50.9181C33.8336 51.8107 37.1669 50.3898 35.0442 51.0274C34.6296 51.1549 35.1603 50.3898 34.4472 51.246C34.2482 51.4828 34.1487 51.6284 34.1321 51.7377L34.696 16.2703H34.8784C34.7291 16.0517 34.729 16.0152 34.7125 15.9788V15.323C36.5533 14.3029 38.3941 13.3193 40.2349 12.4084C40.3012 12.5906 40.6661 12.8456 41.6777 13.1553C41.6113 12.4995 41.5119 12.0805 41.4124 11.8437C43.6512 10.7507 45.9066 9.73063 48.162 8.78337C48.4273 9.0384 48.8087 9.16592 49.5716 9.23878C49.5716 9.0384 49.5716 8.56469 49.555 8.47361L49.4887 8.23679C52.1918 7.1438 54.895 6.16021 57.5982 5.2676C57.7806 5.46798 58.0624 5.5226 58.0293 5.12184C60.7159 4.26567 63.419 3.50059 66.1056 2.86301C68.4605 2.2983 70.8154 1.8246 73.1869 1.42384C73.2698 2.17072 73.1869 2.97232 73.1869 4.11996C75.0609 4.30212 73.8337 3.7374 74.2649 4.90325C74.9946 4.32032 74.779 4.46599 74.8785 3.8102C74.9946 3.02689 74.978 2.58968 74.978 1.75173L75.9067 1.42384C75.9067 1.42384 76.0062 1.38745 76.0394 1.35102C75.8569 0.932037 75.8901 1.27813 75.9233 0.986664C82.2749 0.094057 88.643 -0.197353 94.9946 0.130543C94.9781 0.203409 94.9947 0.349123 95.0112 0.567721C95.0776 1.02313 95.7906 1.42386 95.4921 0.640547C95.4424 0.494815 95.3097 0.258059 95.177 0.130543C96.7028 0.203409 98.2451 0.330929 99.7708 0.476661C99.92 0.695259 100.202 0.786283 100.235 0.531252C104.796 1.00488 109.356 1.77003 113.9 2.86301C120.981 4.55715 128.063 6.9981 135.111 10.2042C135.094 12.1169 134.945 11.9712 136.52 12.372C136.653 11.7526 136.753 11.3154 136.836 11.0057C139.655 12.3355 142.474 13.7746 145.277 15.3413L145.741 44.5604C145.741 44.5604 145.592 44.5969 145.476 44.6334C145.592 44.8155 145.675 44.943 145.758 45.0523L145.874 52.5575C145.608 52.5939 145.542 52.6486 145.127 52.8854C145.791 53.8691 145.21 53.6688 145.907 53.6506L145.973 57.5488C146.023 61.1557 146.073 64.6168 146.106 67.9687C145.26 68.1873 145.509 68.0962 145.857 69.0253L146.106 68.6062C146.139 72.2131 146.139 75.6925 146.106 79.0079C145.326 78.9532 145.708 79.1172 145.492 79.2447L145.542 80.4106C145.509 80.9753 145.492 81.4125 145.492 81.9954L146.089 81.4307C146.056 84.4728 145.99 87.4056 145.874 90.2474C145.774 90.2474 145.642 90.2656 145.476 90.2656C142.773 90.2656 141.18 88.4076 141.18 92.233C142.723 92.5974 141.595 92.397 143.336 92.233L143.701 90.6663C143.851 92.5609 143.851 91.3404 144.414 92.5609L144.779 93.8179C145.127 92.8524 144.199 93.0346 145.774 93.0346C145.575 97.2244 145.277 101.196 144.862 104.966C144.696 104.912 144.447 104.875 144.049 104.821C144.049 104.256 144.049 104.292 143.95 103.746C143.95 103.673 143.851 103.618 143.834 103.473C143.834 103.327 143.734 103.327 143.685 103.236C143.403 104.402 143.535 103.873 142.972 104.802C141.844 104.201 141.96 104.201 140.832 104.802C141.894 106.405 141.081 105.203 142.972 105.203C144.779 105.203 141.977 105.586 144.613 106.916C144.414 108.537 144.182 110.122 143.933 111.688C143.784 111.597 143.585 111.524 143.32 111.506C142.955 113.018 141.761 113.309 143.32 114.257L143.519 114.093C142.69 118.574 141.612 122.782 140.235 126.808C139.406 129.212 138.477 131.508 137.449 133.73L137.399 133.621C137.399 133.621 137.35 133.475 137.333 133.439C137.333 133.42 137.283 133.348 137.267 133.275C137.267 133.202 137.234 133.165 137.267 133.184L136.139 134.696C136.421 135.151 136.487 135.351 136.57 135.479C133.668 141.29 130.086 146.482 126.023 151.2L125.857 151.072L125.376 150.817C125.807 151.364 124.646 151.4 125.724 151.528C122.59 155.135 119.174 158.468 115.559 161.583C115.492 161.419 115.293 161.292 114.978 161.037L115.177 161.911C108.759 167.431 101.744 172.294 94.6795 176.867L94.5635 176.776V176.958L93.9001 177.395C93.7342 177.122 93.386 176.903 93.5021 177.577V177.65L91.794 178.761C91.8437 178.561 91.9266 178.306 92.0759 177.978C90.8321 178.47 91.9598 177.741 91.0145 178.78C90.5999 179.235 90.5667 179.144 90.3843 179.672L89.9366 179.964L89.9863 180ZM42.7059 125.314C42.9049 125.314 43.5019 124.749 43.8005 124.513L43.0708 122.946C40.8319 124.239 41.6445 125.296 42.7059 125.296V125.314ZM132.607 14.3758L132.706 14.4851C132.706 14.4851 132.557 14.4123 132.607 14.3758ZM57.0343 152.457C58.6761 151.801 57.8469 152.93 58.8254 152.457C59.2234 151.2 58.6595 152.839 58.4605 150.89C57.6976 151.291 58.1288 151.182 57.0343 151.273V152.457ZM89.9863 178.033C89.9863 175.956 90.8155 174.699 88.9083 175.865L89.6215 176.065C89.124 178.087 88.2118 177.523 89.9863 178.033ZM38.7755 80.866C38.4273 79.4087 38.4107 80.3559 38.0624 78.8986H37.3493C37.3991 80.6473 37.2332 80.7202 38.7755 80.866ZM39.555 46.9468L38.4107 45.8539C38.3112 46.71 37.084 46.5461 37.9463 47.4934C38.3609 47.9488 38.9579 47.3476 39.5715 46.9468H39.555ZM38.1619 46.9104C38.1619 46.9104 38.0956 47.0744 38.0624 47.0197L38.1619 46.9104ZM104.248 2.89937L104.398 3.51878C104.099 4.79393 104.447 3.50056 103.95 4.5389C105.476 4.13814 105.111 4.28388 105.741 2.95407C103.85 2.95407 105.21 2.95402 104.663 2.55325L104.248 2.88125V2.89937ZM136.554 124.531C137.797 125.259 137.565 124.531 137.267 126.097H137.98C137.98 125.933 137.797 124.786 137.797 124.786C137.797 124.094 138.51 124.44 137.632 123.748L137.068 124.221C137.068 124.221 136.968 124.094 136.869 124.075L136.57 124.531H136.554ZM139.771 71.4116C140.335 72.5775 139.423 71.9399 140.849 72.9782C141.214 72.1403 141.114 72.6321 141.214 71.4116H139.771ZM49.5218 38.7676C51.0143 38.6219 50.1852 39.3324 50.5998 37.201C49.6877 37.62 50.4505 37.6382 49.5218 37.201V38.7676ZM51.9929 37.8386C51.1802 37.9114 51.7275 36.5999 50.9481 37.5836C51.9928 38.1119 50.351 38.1665 52.341 38.7494L52.739 37.1828C52.739 37.1828 52.6064 37.3832 52.5566 37.4196L51.9929 37.8204V37.8386ZM50.5832 144.205C50.749 144.551 50.9978 146.299 51.7773 145.443C52.5733 144.569 51.1968 144.35 50.5832 144.205ZM36.9844 103.673C38.6594 103.473 37.5815 104.128 38.3941 102.944L36.9844 102.507V103.691V103.673ZM54.8784 36.3995C56.0725 37.0553 56.0061 36.6182 56.3046 35.2155C55.094 35.9077 55.6413 35.2519 54.8784 36.3995ZM127.947 146.172C128.013 146.026 128.51 146.664 128.66 144.587L127.996 145.134C127.996 145.134 127.35 145.006 127.234 144.988L127.947 146.172ZM100.368 168.596C101.131 169.835 101.33 170.546 101.794 168.596H100.368ZM59.5385 150.89C61.6114 150.89 59.9365 150.872 60.4009 151.2C60.832 151.509 59.2897 151.054 60.9646 151.673V150.489H59.5385V150.89ZM138.411 116.424C139.439 116.279 138.262 116.57 138.743 115.823L139.771 116.661C139.323 115.295 138.61 115.058 138.212 115.987C137.781 116.989 138.394 116.443 138.411 116.443V116.424ZM43.7839 41.5183C43.618 40.7714 43.7009 40.8626 43.419 40.3343C42.5566 40.899 42.938 40.4436 42.7059 41.5183H43.7839ZM134.033 13.5924V11.6251H133.668C133.668 13.6289 132.739 13.1188 134.033 13.5924ZM46.6528 40.735C45.9397 40.9718 46.1554 40.7715 45.5749 41.1358C46.1388 41.9738 45.608 41.6459 46.6528 41.9191V40.735ZM40.5666 50.1711C40.0027 49.3332 40.5334 49.6611 39.4886 49.3879V50.572C39.8534 50.408 39.953 50.5719 40.5666 50.1711ZM89.638 173.715C89.0742 172.877 89.6049 173.205 88.5601 172.932V174.116C88.925 173.952 89.0244 174.116 89.638 173.734V173.715ZM38.7755 106.041C38.2117 105.203 38.7424 105.531 37.6976 105.258V106.442C38.0625 106.278 38.1453 106.442 38.7755 106.041ZM37.3327 61.5929V62.3762H38.4107V61.5929H37.3327ZM55.6081 147.356H54.895V148.54H55.6081V147.356ZM91.0145 172.932L91.4125 174.499C92.4241 173.697 92.3744 173.897 91.0145 172.932ZM109.688 2.17078C109.074 2.35294 108.295 2.40756 108.892 3.04514C109.489 3.70093 109.539 2.82657 109.688 2.17078ZM141.927 56.0733H142.64V54.8893C141.778 55.454 142.159 54.9985 141.927 56.0733ZM38.0458 52.1386C38.0458 52.1386 38.4107 52.5211 38.7589 50.9544H38.0458V52.1386ZM52.739 39.9517C53.8833 39.8242 53.1868 40.0792 53.817 38.7676C52.6396 39.223 53.5517 38.2576 52.739 39.9517ZM131.91 134.058C132.557 133.475 132.059 133.985 131.894 133.584C131.23 132.856 131.28 133.967 131.181 134.368C132.109 133.912 131.031 134.841 131.91 134.058ZM86.769 172.13C87.0344 172.386 86.9183 172.367 87.366 172.64C88.1952 173.132 87.5153 172.732 88.1952 172.914C87.3826 171.711 88.4274 172.276 86.769 172.13ZM35.5416 48.6046C36.3543 50.2987 35.4422 49.315 36.6196 49.7887C35.807 48.0945 36.7191 49.0782 35.5416 48.6046ZM35.5252 86.7316C35.5583 86.6223 35.5416 86.1852 35.5416 85.9666C34.5964 87.1142 34.7788 85.42 35.1769 87.5332C35.3924 87.1506 35.3261 87.4238 35.5086 86.7134L35.5252 86.7316ZM95.5253 3.40949C96.0892 4.28388 96.3711 3.37301 96.4374 2.57149L95.5253 3.40949ZM133.32 135.151C133.121 135.206 132.126 135.406 132.192 135.606L132.607 135.934C133.237 135.552 133.071 135.971 133.32 135.151ZM92.4905 171.748C92.6895 171.238 94.0659 171.821 92.4905 170.564V171.748ZM36.9844 51.3553V50.1711C36.3211 50.9545 35.5085 50.1712 36.9844 51.3553ZM141.562 35.6162V34.4321C140.899 35.2154 140.086 34.4321 141.562 35.6162ZM120.069 156.009C119.804 156.3 120.202 156.683 120.633 156.519C121.296 156.246 120.351 155.717 120.069 156.009ZM52.026 146.172C51.7606 146.463 52.1587 146.846 52.5898 146.664C53.2532 146.391 52.2913 145.862 52.026 146.172ZM117.897 153.003C117.267 152.894 117.416 153.714 117.93 153.641C118.112 153.622 118.709 153.149 117.897 153.003ZM39.1072 57.4031C38.477 57.2938 38.6263 58.1135 39.1404 58.0407C39.3228 58.0225 39.9198 57.5489 39.1072 57.4031ZM41.9596 42.0648C41.3294 41.9555 41.4787 42.7753 41.9928 42.7024C42.1752 42.6842 42.7722 42.2105 41.9596 42.0648ZM37.3161 49.151C36.6859 49.0417 36.8352 49.8615 37.3493 49.7887C37.5318 49.7705 38.1287 49.2968 37.3161 49.151ZM139.389 41.2815C138.759 41.1722 138.909 41.992 139.423 41.9191C139.605 41.9009 140.202 41.4272 139.389 41.2815ZM75.9896 161.273C75.3594 161.164 75.5087 161.984 76.0228 161.911C76.2052 161.893 76.8188 161.419 75.9896 161.273ZM73.8337 161.273C73.2035 161.164 73.3528 161.984 73.8669 161.911C74.0493 161.893 74.6463 161.419 73.8337 161.273ZM134.016 41.6641C133.386 41.5548 133.535 42.3745 134.049 42.3016C134.232 42.2834 134.829 41.8098 134.016 41.6641ZM103.602 167.813C103.602 167.813 104.348 168.232 103.966 166.247L103.602 167.813ZM87.1173 168.997C87.1173 168.997 86.9846 169.034 86.968 169.052L86.4042 169.781C87.8968 169.38 87.6149 169.416 87.1173 168.997ZM85.3263 173.315C87.1836 173.096 85.9731 173.77 86.4042 172.531C86.2052 172.659 85.9398 172.805 85.7077 172.95L85.3263 173.315ZM91.9598 172.331C91.9598 172.331 92.0758 172.477 92.1256 172.531C91.9597 170.509 92.4739 171.784 91.4125 171.347L91.9598 172.331ZM37.6976 17.9098C37.2664 16.6711 38.477 17.345 36.6196 17.1264C36.686 17.1811 36.7855 17.1994 36.802 17.3087L37.6976 17.9098ZM138.693 16.7257C138.776 17.1811 139.472 17.5819 139.174 16.7986C139.041 16.4707 138.527 15.7056 138.693 16.7257ZM115.409 6.10549C115.492 6.5609 116.205 6.96173 115.89 6.17843C115.758 5.85053 115.243 5.08537 115.409 6.10549ZM125.078 7.69031C125.161 8.14573 125.874 8.54656 125.559 7.76325C125.426 7.43535 124.912 6.67019 125.078 7.69031ZM97.8636 170.163C98.8918 169.653 98.1456 170.618 98.9416 169.38C97.93 169.671 98.4109 169.307 97.8636 170.163ZM127.234 147.739C127.333 148.34 126.968 148.085 127.681 147.884C127.947 147.811 127.051 146.7 127.234 147.739ZM143.718 97.7708C143.817 98.372 143.452 98.117 144.166 97.9166C144.431 97.8437 143.535 96.7325 143.718 97.7708ZM79.6048 2.17078C79.4224 3.22734 80.318 2.09788 80.0692 2.02502C79.3561 1.82464 79.7209 1.56964 79.6048 2.17078ZM124.729 144.205C124.729 145.006 124.663 144.369 125.111 144.314C126.189 144.205 125.061 145.097 125.277 144.205C125.492 143.312 124.729 143.731 124.729 144.205ZM41.628 112.727C41.628 113.528 41.5616 112.891 42.026 112.836C43.1039 112.727 41.9762 113.601 42.1918 112.727C42.4074 111.834 41.6445 112.271 41.6445 112.727H41.628ZM40.5666 112.727C40.5666 113.528 40.5002 112.891 40.9646 112.836C42.0425 112.727 40.9148 113.601 41.1304 112.727C41.346 111.834 40.5666 112.271 40.5666 112.727ZM111.114 160.326C111.114 161.128 111.048 160.49 111.496 160.436C112.573 160.326 111.446 161.201 111.661 160.326C111.877 159.434 111.114 159.871 111.114 160.326ZM106.819 162.694C106.819 163.496 106.753 162.858 107.217 162.804C108.295 162.694 107.167 163.569 107.383 162.694C107.598 161.802 106.836 162.239 106.836 162.694H106.819ZM40.9149 104.074C40.9149 104.875 40.8485 104.238 41.3129 104.183L41.4787 104.074C41.6943 103.181 40.9314 103.618 40.9314 104.074H40.9149ZM35.1935 81.6493C35.1935 82.4508 35.1271 81.8132 35.5748 81.7586C36.6528 81.6493 35.5251 82.5237 35.7406 81.6493C35.9562 80.7567 35.1769 81.1939 35.1769 81.6493H35.1935ZM94.6463 173.315C94.6463 174.116 94.58 173.479 95.0277 173.424L95.1936 173.315C95.4092 172.422 94.6463 172.859 94.6463 173.315ZM36.6196 81.2485C36.7523 82.0682 36.3046 81.3578 36.9679 81.3942C37.4654 81.4306 36.4372 80.1372 36.6196 81.2485ZM37.3327 85.584C37.4654 86.4037 37.0177 85.6933 37.681 85.7297C38.1785 85.7662 37.1503 84.491 37.3327 85.584ZM115.409 4.5389C115.409 4.66641 115.807 4.62994 115.84 4.61172C115.923 4.57529 116.471 5.52255 115.99 4.50243C115.99 4.48421 115.326 3.77381 115.409 4.5389ZM35.9728 106.752C35.9728 106.752 35.5582 106.697 35.5416 106.824C35.4587 107.517 35.5417 107.079 36.0723 106.916L36.1221 106.843C36.5865 105.822 36.0558 106.77 35.9728 106.733V106.752ZM125.807 145.389C125.061 144.988 125.492 145.097 124.381 144.988L125.807 145.389ZM97.4988 0.60419C97.0511 1.09603 97.9134 1.13247 97.6646 0.60419C97.6646 0.60419 97.6149 0.60419 97.5983 0.60419C97.5983 0.60419 97.5154 0.585973 97.4988 0.60419ZM101.131 163.132L101.247 163.059C101.313 163.277 101.214 163.204 101.131 163.132ZM81.7607 27.8014H81.91L81.7773 27.8377V27.8014H81.7607ZM67.5982 6.57914C64.7292 7.28958 61.9431 8.12755 59.2897 9.09302C59.2897 9.05659 59.2731 9.03832 59.2068 9.03832C59.2068 9.03832 59.2068 9.00192 59.1902 8.96549C59.1902 8.92906 59.1902 8.89263 59.1902 8.8562C59.2068 8.83798 59.2897 8.8562 59.2897 8.8562C59.2897 8.8562 59.3395 8.85621 59.3561 8.87443L59.3229 9.00196L59.24 9.11125C57.1172 9.87634 55.0774 10.7325 53.1039 11.6615V11.2243H52.026C52.142 11.7162 52.1586 11.953 52.225 12.0805C47.9961 14.1572 44.1984 16.6164 41.0309 19.4035L40.9812 22.7554C40.8817 22.7372 40.749 22.7007 40.55 22.6461C40.8817 23.1744 40.8485 23.2472 40.9646 23.2654C40.8983 28.621 40.8816 34.3957 40.8319 39.387C42.2747 38.7859 43.6843 38.2029 45.0773 37.6382L45.1105 37.6747C45.5915 38.203 45.5417 37.9843 45.7075 37.4014C57.8635 32.5558 68.8751 29.3861 81.3793 27.856V27.9835L78.5103 29.0583V28.949C77.6646 29.2223 77.8801 28.949 77.6479 29.3862C73.9 30.8253 70.3843 32.2461 67.0841 33.6488C67.0675 33.5577 66.9514 33.4666 66.6695 33.412C66.2051 33.3391 66.1554 33.7582 66.371 33.9586C62.7225 35.5252 59.3394 37.0917 56.1553 38.6401C55.8734 38.4215 55.7573 38.6038 55.691 38.8588C50.1023 41.5913 45.1769 44.2872 40.6661 46.9468L40.55 53.2862C39.9032 53.2133 39.8037 53.104 39.1072 52.9219L39.4057 54.1606L39.8203 54.4884C39.8203 54.4884 39.9861 54.3428 40.0193 54.3063L40.55 53.7051L40.4173 61.3014C40.2515 61.3378 40.2017 61.3379 39.8369 61.5747C40.2681 62.2123 40.0524 62.1758 40.4007 62.2487C39.9529 89.0451 40.2681 112.271 49.157 131.016C51.346 135.606 54.0824 139.924 57.4987 144.095L57.3826 144.587C57.5318 144.514 57.6645 144.46 57.7806 144.423C58.2283 144.97 58.6926 145.516 59.1736 146.044C59.0077 146.099 58.8254 146.318 58.8254 146.555C58.8254 147.356 58.759 146.719 59.2234 146.664L59.3892 146.555C59.3892 146.555 59.4224 146.391 59.4224 146.336C60.2681 147.283 61.1471 148.23 62.0592 149.16V150.107C62.1587 149.87 62.5069 149.87 62.6893 149.797C68.6097 155.736 76.0725 161.51 85.3926 167.54L85.3429 167.813L85.6248 167.686C87.0344 168.596 88.4938 169.526 90.0029 170.455C91.5784 169.471 93.1041 168.524 94.5801 167.558C94.6132 167.795 94.6298 168.014 94.6463 168.196H95.3594C95.2599 167.704 95.1936 167.394 95.1272 167.194C97.2168 165.828 99.2069 164.48 101.114 163.15L101.379 163.496C101.91 164.206 101.446 163.66 101.811 163.478C101.927 163.113 102.673 163.587 101.462 162.895C106.172 159.561 110.335 156.264 113.983 152.948C114.58 153.131 114.331 153.094 115.061 153.623C114.829 152.511 114.763 152.584 114.862 152.129L115.393 151.637C115.492 151.783 115.741 151.856 115.99 151.764C116.421 151.601 116.156 151.291 115.857 151.2C121.031 146.245 125.111 141.181 128.295 135.77L128.328 135.916C129.091 135.297 129.472 135.06 128.809 134.878C129.522 133.603 130.202 132.309 130.816 130.998C133.038 126.316 134.729 121.343 136.006 116.097L136.57 116.625C136.371 115.787 136.454 115.696 136.122 115.641C139.638 100.886 139.904 84.0538 139.638 65.4183C139.953 65.3819 139.671 65.2726 140.152 64.2889C139.92 64.3618 139.754 64.3982 139.622 64.4347C139.539 58.7511 139.406 52.9036 139.307 46.8922C136.371 45.1616 133.253 43.4128 129.904 41.6459C130.484 41.6276 131.23 41.4637 131.562 41.4637V41.0629C130.6 41.0629 130.567 41.2451 129.771 41.4637C130.152 40.6076 129.87 41.318 130.136 40.2796C129.555 40.735 129.273 41.0629 129.207 41.2633C120.716 36.8367 110.666 32.319 98.1124 27.7102C104.414 28.4571 110.318 29.6048 116.172 31.1896V31.6086C116.172 31.6086 116.388 31.809 116.62 31.2989C118.394 31.7725 120.169 32.3008 121.927 32.8655C122.142 33.4302 122.258 34.3228 122.258 35.1426H122.607V33.0659C125.758 34.0678 128.925 35.1973 132.159 36.4542L132.275 36.7091L132.358 36.527C134.597 37.3832 136.852 38.3123 139.174 39.296C139.108 33.0659 139.091 25.6335 138.975 19.2942C137.184 17.7276 135.21 16.2703 133.054 14.9223C133.884 14.4123 133.535 15.0498 135.144 14.6855C134.862 14.4669 135.028 14.4305 134.464 14.2301C133.85 13.9933 134.182 14.1207 133.718 14.0661C132.275 13.8839 134.099 14.3575 133.054 14.0661C131.811 13.72 132.706 13.9204 132.275 13.5196L131.86 13.8475C131.86 13.975 132.059 14.0115 132.059 14.139L132.093 14.3576C131.413 13.9568 130.733 13.556 130.036 13.1735C130.219 13.1371 130.285 12.791 130.484 11.953C129.671 12.0259 129.207 11.9166 129.058 12.6635C124.912 10.4957 120.302 8.71051 115.409 7.30784C115.459 7.03459 115.758 7.34424 115.161 6.81596C114.53 6.26946 115.21 6.59738 114.729 6.83419C114.646 7.07101 114.315 6.94345 114.414 7.01631C113.884 6.87058 113.37 6.7431 112.839 6.59737L112.938 6.43337L111.86 4.46607C111.263 5.23117 110.915 5.74116 110.716 6.10549C104.431 4.6846 97.9631 3.91951 91.4623 3.82843C91.4623 3.6827 91.4457 3.51879 91.4457 3.30019H91.0809V3.82843C83.1538 3.73735 75.2267 4.63001 67.6148 6.50631L67.5982 6.57914Z" fill="#BC2A26"/>
<path d="M100.147 48.5783C100.064 48.305 100.147 48.1229 100.346 48.0501C100.744 47.9043 101.573 48.1411 101.905 49.0519C101.589 48.6876 100.794 48.2685 100.495 48.7422C100.926 48.8515 100.777 48.2868 101.092 49.3433C99.3507 49.1794 100.495 48.979 98.9527 49.3433C99.019 49.2705 99.301 48.9426 99.3839 48.7969L99.6658 48.1593C99.8648 48.3415 100.014 48.469 100.147 48.5601M90.4783 47.8314C91.2909 47.2666 92.1202 47.1939 92.4353 47.2485C93.1152 47.3578 93.3971 48.0136 94.2761 47.9043C94.1434 48.3961 93.1649 50.1267 91.8548 48.6876C91.5065 48.305 90.9924 47.9043 90.4783 47.9043L90.5115 48.4325C90.5115 48.4325 90.5115 48.6147 90.5115 48.6876L91.4402 50.5275C90.4949 51.0375 91.0587 50.8917 89.6491 50.9282C89.1848 48.7786 89.9974 48.1957 90.014 48.1775C87.4435 47.5763 90.4286 48.214 87.8581 48.9609C87.1285 45.4815 88.422 49.1248 87.8581 46.2102C89.417 46.9206 87.742 46.3194 89.0521 46.0462C89.7652 45.9004 89.7985 46.1737 91.0754 46.2102C90.5613 47.0481 90.4617 47.1756 90.4783 47.8314ZM89.9974 38.5775L92.1036 41.3282V45.4997C91.3739 45.5908 90.7437 45.7183 89.9974 45.7183V38.5775ZM102.999 55.5005C101.722 54.7901 102.319 52.932 99.9643 53.4785C98.8532 53.7336 97.6591 54.4076 97.344 54.9905C98.9029 54.3712 100.395 54.3346 101.225 56.1563C102.12 58.1055 103.895 57.6865 104.823 56.6846C103.629 55.7556 104.409 56.4114 105.022 55.6645V56.4296C105.387 55.9195 105.536 55.3001 105.271 54.7901C105.271 54.7901 103.961 56.0653 102.983 55.5188L102.999 55.5005ZM89.9974 47.795L90.0969 47.9043C90.0969 47.9043 89.9477 47.8314 89.9974 47.795ZM88.3722 48.3415C88.3722 48.3415 88.2727 48.5054 88.2063 48.5783C88.6541 46.7566 88.7702 48.2322 88.9194 46.2102C89.6989 46.6291 89.0521 46.3376 89.9974 46.6109C89.4667 48.7786 90.0306 47.0299 89.0521 47.6492C88.7536 47.8496 88.4054 48.4325 88.3556 48.3415H88.3722ZM89.9974 50.1449L90.5613 50.0903C91.0257 51.1286 90.4949 50.1814 90.412 50.2178C90.3788 50.2178 89.9974 50.2724 89.9808 50.1449H89.9974ZM123.563 70.3288L123.663 70.2012C123.663 70.2012 123.563 70.3105 123.563 70.3288ZM123.911 72.6969L124.027 72.5876C124.027 72.5876 123.928 72.6969 123.911 72.6969ZM117.941 76.0488C118.339 76.0305 117.377 77.2692 117.576 76.1216C117.709 75.3018 117.211 76.1034 117.941 76.0488ZM110.777 58.7977C110.561 55.9924 110.097 56.8667 111.49 56.047C110.876 59.1984 112.485 55.2456 111.672 57.6137L111.308 58.1237C110.843 58.8341 112.054 57.7776 110.777 58.7977ZM112.701 56.8303C112.352 56.7756 112.916 55.8284 112.916 56.8303C112.916 57.9233 112.701 56.8303 112.701 56.8303ZM122.585 92.2431C123.347 91.897 123.397 92.1885 124.741 91.8424C124.508 92.4436 124.326 94.0466 124.741 94.9938C123.613 94.5202 124.226 95.8501 124.027 93.8098L121.772 95.595C119.998 96.1415 119.848 94.4473 119.732 94.1923C120.677 93.7005 120.114 93.828 121.523 93.8098C120.462 91.6056 120.313 90.8405 122.236 90.6583C122.004 90.0389 121.988 89.6746 122.004 88.8549C122.037 87.2883 122.452 87.3065 122.601 87.1243C122.137 89.5653 123.115 87.9987 122.634 90.3669C122.386 91.642 123.248 90.5309 122.601 92.225L122.585 92.2431ZM113.381 133.813C113.646 133.886 112.75 134.997 112.933 133.959C113.032 133.358 112.667 133.613 113.381 133.813ZM91.4236 8.04663L91.5231 8.15593C91.5231 8.15593 91.3738 8.08307 91.4236 8.04663ZM91.0754 9.23075L91.1749 9.34004C91.1749 9.34004 91.0257 9.26718 91.0754 9.23075ZM84.2594 9.63146L84.3755 9.74075C84.3755 9.74075 84.2262 9.66789 84.2594 9.63146ZM103.961 76.5042C103.961 75.7026 103.895 76.3402 104.342 76.3949C105.42 76.5042 104.293 75.6116 104.508 76.5042C104.724 77.3968 103.961 76.9596 103.961 76.5042ZM76.946 35.9725C76.6806 35.4442 77.543 35.4989 77.1118 35.9725H76.946ZM88.3556 87.9623C88.9692 88.8913 87.8913 88.0351 87.8415 87.9076C87.5265 86.9603 88.2396 87.7983 88.3556 87.9623ZM86.7802 113.884C86.7802 113.884 86.8797 113.994 86.8963 113.994L86.7802 113.884ZM117.576 59.5992C116.631 58.6884 117.527 59.9635 117.576 57.6318C115.868 58.0872 117.012 57.9051 116.498 57.6318C117.145 57.2857 116.946 57.3222 117.941 57.2493C117.825 55.6281 117.112 56.1017 118.289 55.6828C118.422 57.5044 117.908 56.375 119.002 57.2493C118.92 56.1928 118.837 56.1745 118.654 55.2819L119.201 56.2475C119.716 57.1947 119.152 56.8304 120.08 57.2493C120.014 57.3222 119.881 57.304 119.865 57.4315C119.832 57.559 119.699 57.5773 119.666 57.6137C118.522 58.9253 119.964 56.5935 119.434 57.7411C119.4 57.7958 119.367 57.8687 119.334 57.9598C118.969 58.7249 119.069 57.978 119.384 58.8342L118.372 59.6903C118.256 59.6903 118.09 59.1074 117.593 59.6175L117.576 59.5992ZM118.588 57.8323C117.908 58.1055 118.306 57.5954 118.687 57.5225C118.803 57.5043 118.92 57.5226 119.002 57.6137C119.599 58.2695 118.604 57.8323 118.588 57.8323ZM110.777 72.1869C109.964 72.1869 110.362 72.0593 109.351 71.7861C109.798 70.8752 109.964 70.766 110.064 69.4179C111.059 69.509 112.319 70.4927 112.933 71.3853C110.711 71.44 111.49 72.1686 110.777 72.1686V72.1869ZM94.7902 83.3535C94.7902 83.3535 94.8564 82.1877 96.7967 83.2078L96.4485 85.1751C95.4867 85.4302 95.7686 85.5759 95.0058 85.5759C94.2429 85.5759 94.2926 84.1732 94.7902 83.3717V83.3535ZM87.029 56.5571L87.1451 56.4478C87.1451 56.4478 87.0455 56.5571 87.029 56.5571ZM65.5861 125.925C65.5861 125.925 65.47 125.998 65.4368 126.017L63.8447 127.656C63.5296 126.035 63.7619 127.51 63.795 126.618C63.8282 125.67 64.0769 126.946 63.5628 126.017C63.4633 125.834 62.4186 126.545 63.5628 125.452C63.795 125.233 64.5579 124.905 64.9227 124.905C66.2992 124.905 65.0554 124.778 66.0007 125.306L65.5861 125.944V125.925ZM64.5744 126.071C63.9774 126.727 64.392 125.634 64.3754 125.616C64.0603 124.65 64.9393 125.67 64.5744 126.071ZM80.6773 61.1477C81.606 59.6357 80.9924 59.9089 82.1201 59.581C83.7785 62.8235 80.3788 61.5484 80.329 61.5484C80.412 61.4573 80.6276 61.2023 80.6773 61.1477ZM85.3374 94.2105C85.9841 94.5749 85.7851 94.5203 86.7636 94.6114C85.7022 96.3419 86.1334 94.7935 86.4651 96.5423C86.6806 97.6717 86.8797 97.617 85.3374 97.7628C85.6027 96.4876 85.7022 95.1942 85.3374 94.2288V94.2105ZM103.613 36.3732C102.916 36.2821 103.497 37.7395 102.186 35.5899L103.613 36.3732ZM104.326 107.199C102.9 107.071 103.165 107.035 102.535 106.015C104.525 104.812 104.359 106.835 105.404 105.614C104.641 108.784 104.409 104.448 104.326 107.181V107.199ZM104.21 106.124C104.21 106.124 104.359 106.051 104.309 106.015L104.21 106.124ZM116.498 72.9702C115.653 72.3508 115.404 72.3508 115.686 71.3306C116.001 70.1284 116.283 70.0919 117.228 69.8186C116.896 70.5655 116.598 71.9136 116.515 72.9702H116.498ZM101.822 146.929C101.109 143.595 102.634 144.943 103.613 146.528C102.8 146.747 102.784 146.838 101.822 146.929ZM84.0273 59.8543C84.0439 59.9818 84.1267 60.0547 84.1599 60.1093C84.674 61.002 84.3755 60.8926 85.3374 61.1658L84.276 61.9674C84.276 61.9674 83.9941 62.2589 83.9112 62.3499C83.6624 61.3298 84.0439 61.9128 83.1981 61.5666V60.3825C84.1268 60.1093 83.5961 60.5283 83.9112 59.5992C83.9609 59.6721 84.0107 59.7268 84.0439 59.8543H84.0273ZM102.087 131.135C102.087 131.135 101.706 131.409 101.457 131.591C101.374 130.534 101.291 130.516 101.092 129.623C102.502 129.587 101.938 129.733 102.883 129.223C102.468 131.172 101.905 130.589 103.596 130.789C102.734 132.101 103.331 131.263 102.618 131.154C102.17 131.081 102.585 130.935 102.07 131.117L102.087 131.135ZM101.954 130.407C101.606 130.297 102.17 129.423 102.17 130.407C102.17 131.518 101.954 130.407 101.954 130.407ZM89.2843 107.581C88.339 107.308 88.9858 107.618 88.2063 107.181C88.2063 104.594 88.0737 106.324 88.5712 105.213C90.2462 105.705 89.4502 105.487 89.3175 106.397V107.454C89.3175 107.454 89.3175 107.545 89.2843 107.581ZM98.0737 82.5521C97.2943 82.3699 97.7752 81.3132 97.8747 80.0563C98.1069 80.3478 98.1899 80.0928 98.3391 80.6939C98.5215 81.368 98.4884 80.9308 98.223 81.623C99.4668 81.3315 99.2844 80.8761 99.6492 82.4063C99.5829 82.3334 99.5 82.0966 99.4834 82.1877C99.3507 82.6249 99.616 81.6047 98.8697 82.0055C97.8581 82.5155 99.6492 82.8982 98.0571 82.5521H98.0737ZM62.0538 129.623C62.6176 129.314 61.3903 129.223 63.1316 129.623L62.0538 128.84C62.5181 127.802 62.3854 128.421 62.4185 126.873L63.1316 128.84C64.7071 128.075 63.0985 130.935 62.0538 129.623ZM67.4269 114.668H69.218C69.135 115.742 69.2179 116.088 68.4219 116.143C67.5595 116.198 67.5927 115.068 67.4269 114.668ZM120.794 99.7119C119.699 98.8376 120.213 99.967 120.08 98.1454C120.578 97.8539 120.76 98.3092 120.794 96.5604C121.672 97.2709 121.523 97.5259 121.125 98.5461C120.91 99.0743 120.976 97.8539 120.794 99.7119ZM119.948 105.468L119.367 104.448C119.367 104.448 119.5 104.339 119.517 104.394L120.81 102.882L120.445 106.033C119.052 105.523 120.197 106.124 119.948 105.487V105.468ZM78.5381 63.9165H80.329C80.2793 66.4851 80.4617 64.791 79.3837 65.2282L78.8863 65.5014C78.7867 64.2808 78.8863 64.7545 78.5381 63.9165ZM91.0754 38.3406H90.3623C90.0638 36.9562 90.0306 37.3752 90.3623 35.9725L91.5066 37.0655C91.1583 37.6848 91.2412 37.5937 91.0754 38.3224V38.3406ZM78.1732 87.5251C79.6823 87.9623 78.8034 87.7801 79.2511 89.8932C78.1069 89.62 78.6873 89.4925 77.825 89.8932C78.0074 89.3103 78.7039 88.8367 78.1898 87.5251H78.1732ZM112.568 81.2222L112.203 83.1896C111.722 82.8981 111.805 82.9709 111.125 82.7888V81.6048C112.236 81.4955 111.805 81.6047 112.551 81.2039L112.568 81.2222ZM109.699 77.6882C110.047 77.8339 109.964 78.2347 110.777 77.2875C110.362 79.4917 110.893 77.9433 110.86 78.6537C110.86 78.8723 111.54 79.2366 109.964 79.4005C109.5 79.4552 109.815 79.6555 109.566 79.2548C108.654 77.7975 110.313 80.5299 109.699 77.6699V77.6882ZM122.236 86.7418C123.414 84.7927 122.485 86.8876 122.236 84.3737C123.265 85.5578 122.253 84.2644 124.376 84.7744C123.712 85.2116 123.281 84.9748 123.265 85.3391L123.182 85.9585C122.585 87.4523 123.265 86.2135 122.236 86.7236V86.7418ZM105.454 127.201L103.978 127.711C103.978 127.583 104.16 126.836 104.16 126.745C104.127 125.998 104.21 126.545 103.961 126.071L104.259 125.616L105.454 127.201ZM77.4601 62.7325C75.5861 62.7325 75.7022 63.1697 75.3042 61.5484L77.8084 62.7325C76.747 64.3538 77.4766 63.0058 77.4435 62.7325H77.4601ZM80.329 152.831C80.3954 151.993 80.3291 151.702 80.4617 151.574C80.5778 151.465 80.8266 151.428 81.407 151.265C81.2412 153.359 81.6557 152.175 80.329 152.849V152.831ZM116.498 80.8397C117.095 81.2951 117.211 80.8943 117.211 82.0237C117.211 83.1531 117.062 82.7524 116.498 83.2078C116.598 81.8962 116.88 81.8416 116.498 80.8397ZM95.0058 90.6765L96.4319 91.1137C95.1218 93.0447 95.4369 91.5691 95.0058 90.6765ZM108.936 48.5601L108.621 47.7768C109.301 48.05 109.318 48.0318 109.566 48.469C109.666 48.6512 109.815 48.9244 110.064 49.3433C108.19 49.1612 109.467 49.7441 108.936 48.5418V48.5601ZM86.0671 91.4598C86.9958 91.9335 86.7636 91.7331 87.8581 91.4598C87.1616 92.4982 86.4982 93.1904 86.0671 91.4598ZM103.961 115.068H105.387V115.852C103.729 115.706 104.757 116.271 103.961 115.068ZM59.9144 106.416V107.6H59.2013V106.416H59.9144ZM63.7784 79.4735C64.8895 79.7649 64.2594 79.7467 64.5579 80.0382C62.9825 80.4025 63.9277 80.8579 63.1316 79.6374C63.6955 79.3823 63.2477 79.3277 63.7784 79.4552V79.4735ZM120.794 56.4478L120.379 56.1199L121.473 55.2091L121.523 56.8303C120.794 55.9559 121.059 56.3385 120.81 56.4296L120.794 56.4478ZM111.606 66.1572C111.606 66.1572 110.794 66.1208 110.412 65.1006C111.042 65.4285 111.573 65.556 112.203 65.8839L111.905 66.3394C111.789 66.3394 111.639 66.0661 111.606 66.1572ZM107.079 133.03C107.327 132.502 107.294 132.666 107.543 132.374V133.941H106.83C106.996 133.194 106.614 133.941 107.079 133.03ZM89.6491 51.7297L89.2511 53.2963C88.8697 52.9684 88.4717 53.1688 88.7204 52.4584C88.936 51.8573 88.936 52.5494 89.6491 51.7297ZM90.3623 54.4804C90.6442 53.2963 90.3623 53.6242 91.4402 53.2963C90.81 54.6079 91.5066 54.3529 90.3623 54.4804ZM101.457 78.8723C101.938 78.1436 101.556 78.344 102.319 78.2711L103.248 78.4897C102.303 78.9816 102.867 78.8541 101.457 78.8723ZM122.236 63.5341C121.357 63.1333 121.523 64.3173 121.523 61.9674H121.888C121.888 62.9693 121.971 62.9147 122.253 63.5341H122.236ZM79.6657 58.3423L78.223 59.6539C78.422 58.8342 78.2395 59.2532 78.5546 58.8342C78.6541 58.6884 78.9195 58.488 79.2345 58.0144L79.6491 58.3423H79.6657ZM97.2445 78.7812L96.0836 78.8723V77.6882L97.2445 78.7812ZM115.785 55.2637L117.576 54.0797V54.863C116.614 54.9541 116.598 55.0451 115.785 55.2637ZM101.822 108.765C101.341 108.237 101.208 108.401 102.535 107.982C102.435 108.383 102.485 109.512 101.822 108.765ZM111.308 128.239C111.473 128.057 111.822 127.674 111.838 127.656V128.84H110.76C110.76 128.84 111.225 128.33 111.291 128.257L111.308 128.239ZM93.9444 57.2311C94.1765 56.1563 93.7951 56.6117 94.6575 56.047V57.2311H93.9444ZM108.273 79.6556C108.505 78.5808 108.124 79.0362 108.986 78.4715V79.6556H108.273ZM124.741 86.7418V85.5577H125.454C125.105 87.1243 124.757 86.6872 124.741 86.7418ZM73.878 78.089V76.9049H74.5911C74.2428 78.4897 73.8946 78.0526 73.878 78.089ZM113.629 84.7744C114.16 83.9547 114.143 84.3372 114.707 83.9911C114.939 84.1004 115.818 84.574 113.629 84.7744ZM77.1118 60.3825H78.1898V61.1658C77.145 60.8926 77.6756 61.2205 77.1118 60.3825ZM72.8 80.4389H72.0869V79.2548C72.883 79.8559 72.5347 79.3277 72.8 80.4389ZM68.5048 134.341H67.4269C67.9907 133.449 67.4932 133.886 68.5048 133.558V134.341ZM111.49 73.3526C111.689 73.3526 112.07 73.3527 112.187 73.3709C112.833 73.5713 112.568 73.4802 112.933 73.7352C111.357 74.0996 112.303 74.5549 111.507 73.3344L111.49 73.3526ZM96.4485 86.7418C96.6475 86.7418 97.0289 86.7418 97.145 86.7601C97.7918 86.9604 97.5265 86.8693 97.8747 87.1243C96.2993 87.4886 97.2446 87.9441 96.4485 86.7236V86.7418ZM94.2927 92.6985L93.5796 92.2431C94.4585 91.8424 93.8615 91.9699 95.0058 92.2431L94.7238 92.6439C94.1267 92.9172 94.7736 92.8261 94.2927 92.6985ZM109.699 67.4688H110.412V68.6529C109.036 67.5963 110.263 68.6528 109.699 67.4688ZM101.457 83.2078C100.628 84.4465 101.706 83.7907 100.031 83.9911C100.296 83.7361 100.13 83.736 100.628 83.481C101.357 83.1167 100.794 83.3718 101.457 83.2078ZM114.359 128.84C115.221 129.66 114.027 129.951 113.281 128.84C115.006 129.295 113.845 129.113 114.359 128.84ZM60.7436 59.4717C61.0752 60.2732 60.8431 59.6539 60.9924 60.3825C59.8149 59.4353 60.4949 60.674 60.2793 58.8159C60.5114 59.1074 60.5114 58.9252 60.7436 59.4717ZM109.517 84.1732L109.152 83.7725C109.152 83.7725 109.019 83.645 108.969 83.5722L110.097 83.4992L109.732 84.4101C109.616 84.4101 109.517 84.0821 109.5 84.155L109.517 84.1732ZM98.9195 87.4886C98.7537 87.6526 98.3391 87.7619 98.223 87.9076C98.6542 86.6142 97.7586 87.6162 99.3009 86.7236C99.019 87.5615 99.4004 86.9968 98.9195 87.4704V87.4886ZM87.9576 85.7763C88.6376 85.7399 88.14 85.831 88.5546 85.5577L87.8415 86.7418C87.8084 86.6325 88.0571 86.3774 87.1285 85.5577C87.1948 85.5577 87.8747 85.7763 87.9576 85.7763ZM121.872 82.807H122.949C122.153 84.0275 122.684 84.0275 121.872 82.807ZM61.7055 58.7977V57.6137C61.9874 57.8323 62.1698 57.9962 62.2858 58.1237C62.8331 58.7066 61.8713 58.3787 61.7055 58.7977ZM65.6358 57.2311V56.047C65.9177 56.2838 66.1167 56.4478 66.2328 56.5753C66.7469 57.1218 65.8016 56.8121 65.6358 57.2311ZM80.6773 58.4152V57.2311C82.2528 58.488 80.8763 57.9052 80.6773 58.4152ZM79.2511 142.994C79.417 140.936 78.9029 142.284 79.9642 141.81C79.6823 142.43 79.7321 142.757 79.2511 142.994ZM59.334 56.5936C59.1681 56.8304 58.9526 57.1036 58.8365 57.2311L58.4219 56.9032L59.5164 55.9924C59.0023 57.7048 60.1134 55.4095 59.3506 56.5936H59.334ZM120.445 125.689C120.727 125.379 121.672 125.925 121.009 126.18C120.578 126.363 120.163 125.98 120.445 125.689ZM117.211 86.7418C117.328 86.6143 117.56 86.6325 117.742 86.7236C117.991 86.8329 118.173 87.0879 117.775 87.2518C117.344 87.4158 116.946 87.0515 117.211 86.7601V86.7418ZM66.0007 112.7C66.0836 112.609 66.2328 112.591 66.3655 112.627C66.6972 112.7 67.0288 113.01 66.5645 113.21C66.1333 113.374 65.7354 113.01 66.0007 112.719V112.7ZM103.961 128.039C104.243 127.729 105.188 128.275 104.525 128.53C104.094 128.694 103.696 128.33 103.961 128.039ZM63.4965 109.549C63.596 109.439 63.7784 109.44 63.9442 109.494C64.2427 109.585 64.4915 109.877 64.0603 110.041C63.6291 110.223 63.2312 109.84 63.4965 109.549ZM68.8697 65.8839C69.1516 65.5743 70.0968 66.1208 69.4335 66.3758C69.2676 66.4487 69.1019 66.4305 68.9858 66.3758C68.7868 66.2847 68.7038 66.0661 68.8697 65.8839ZM94.6575 47.3942C94.9394 47.0845 95.8847 47.631 95.2214 47.8861C94.7902 48.05 94.3921 47.6856 94.6575 47.3942ZM88.9194 21.035C89.0355 20.3063 89.3672 20.4156 89.9974 20.2517C89.4336 21.0897 89.9642 20.7617 88.9194 21.035ZM118.621 82.1695C119.434 82.3152 118.837 82.7888 118.654 82.807C118.14 82.8799 117.991 82.0602 118.621 82.1695ZM120.412 79.8014C121.225 79.9471 120.628 80.4207 120.445 80.4389C119.931 80.5117 119.782 79.6921 120.412 79.8014ZM75.6359 106.944C76.4485 107.09 75.8514 107.545 75.669 107.581C75.1549 107.654 75.0057 106.835 75.6359 106.944ZM69.2014 102.226C70.014 102.372 69.4169 102.845 69.2345 102.863C69.052 102.882 68.9194 102.791 68.8365 102.681C68.7204 102.463 68.8034 102.153 69.2014 102.226ZM111.109 47.5399C111.921 47.6857 111.324 48.1593 111.142 48.1775C110.893 48.2139 110.727 48.0317 110.694 47.8496C110.661 47.6674 110.777 47.4671 111.109 47.5217V47.5399ZM86.747 106.561C87.5596 106.707 86.9626 107.181 86.7802 107.199C86.2661 107.272 86.1168 106.452 86.747 106.561ZM68.8697 122.938L69.3506 123.193C69.9642 123.648 69.6326 123.412 69.9477 123.721C67.7254 123.521 69.3838 123.557 68.8697 122.938ZM104.326 139.059L104.807 139.333C105.42 139.788 105.089 139.551 105.404 139.861C103.182 139.661 104.84 139.697 104.326 139.078V139.059ZM77.825 111.134C78.0737 109.986 77.7752 110.569 78.5381 109.95C78.1898 111.516 77.8415 111.079 77.825 111.134ZM114.359 134.742C114.425 134.396 114.459 134.214 114.475 134.105C114.525 133.85 114.541 133.995 115.072 133.576C114.724 135.143 114.376 134.724 114.359 134.76V134.742ZM67.7917 120.57C68.0404 119.422 67.7419 120.005 68.5048 119.386C68.1565 120.952 67.8083 120.533 67.7917 120.57ZM104.674 105.231C104.923 104.084 104.624 104.667 105.387 104.047C105.039 105.614 104.691 105.195 104.674 105.231ZM95.3706 93.4272C95.6193 92.2796 95.3208 92.8625 96.0836 92.2431C95.7354 93.8097 95.3871 93.3726 95.3706 93.4272ZM93.2147 92.2431C92.5016 92.0245 93.0654 92.7532 92.485 91.9335C91.4402 90.4762 93.2644 93.0447 92.5016 91.4598C92.8664 91.3141 92.3026 90.3668 93.2147 92.2431ZM93.9444 90.6765C93.9444 90.6765 94.4087 90.1665 94.4751 90.0936C94.6243 89.9296 94.9892 89.5289 95.0058 89.5107C94.7238 90.6947 95.0057 90.3669 93.9278 90.6948L93.9444 90.6765ZM92.5016 35.9906C93.1649 36.1728 93.1981 36.0818 93.281 36.2457C93.3307 36.3186 93.3806 36.4826 93.5796 36.774C92.5348 36.5008 93.0654 36.8286 92.5016 35.9906ZM102.883 104.448C103.911 104.721 103.43 104.394 103.961 105.231C102.916 104.958 103.447 105.286 102.883 104.448ZM87.4932 95.3946C87.8415 95.4857 88.0073 95.504 88.1068 95.5222C88.3058 95.5586 88.2064 95.6132 88.5712 96.1779C87.5265 95.9047 88.0571 96.2326 87.4932 95.3946ZM123.845 82.6066C123.845 82.6066 123.712 82.4609 123.663 82.4063L123.298 82.0055L124.26 82.3516C124.26 82.3516 124.359 83.0803 124.376 83.1896C124.376 83.1896 123.911 82.6795 123.828 82.6066H123.845ZM101.822 46.9935C101.822 46.9935 101.672 47.0663 101.639 47.1756L100.76 47.7768C101.125 46.7202 100.313 47.0299 101.175 47.0299C101.324 47.0299 101.54 47.0299 101.838 46.9935H101.822ZM93.2147 88.3084L92.1367 87.5251C93.9775 87.6891 92.8167 87.1426 93.2147 88.3084ZM60.2627 104.047C61.0587 104.649 60.7104 104.12 60.9758 105.231C59.5993 104.175 60.8265 105.232 60.2627 104.047ZM65.2875 60.3825L66.0007 59.1985C65.9841 59.5082 65.9675 59.7449 65.9675 59.9089C65.9675 60.8926 66.183 59.9818 65.2875 60.3825ZM99.3175 47.795L100.395 47.0117C100.296 47.3214 100.279 47.5217 100.313 47.631C100.379 47.9771 100.711 47.6311 99.3341 47.8132L99.3175 47.795ZM102.883 138.276L103.961 137.493C103.53 138.75 104.74 138.058 102.883 138.276ZM66.0007 118.602L64.9227 119.386C65.3539 118.147 64.1433 118.821 66.0007 118.602ZM88.5712 39.9255C88.621 39.2515 88.4219 39.5793 88.737 39.0875C88.7536 39.0692 88.82 38.9782 88.8531 38.9418L89.3009 38.7413L88.5878 39.9255H88.5712ZM115.785 124.104C115.619 123.047 116.498 124.177 116.233 124.249C115.52 124.468 115.885 124.705 115.785 124.104ZM94.6575 81.2222C94.5414 80.5846 94.8399 80.7485 95.0224 80.9854C95.1384 81.1493 95.2214 81.3315 95.1219 81.3679C94.4088 81.5683 94.7736 81.8233 94.6741 81.2222H94.6575ZM105.404 126.071C105.404 125.616 106.167 125.179 105.951 126.071L105.785 126.18C105.337 126.235 105.404 126.873 105.404 126.071ZM82.4684 54.4804C82.4684 54.025 83.2478 53.5878 83.0156 54.4804C82.8 55.373 83.9278 54.4804 82.8498 54.5897C82.402 54.6261 82.4684 55.2819 82.4684 54.4804ZM105.752 110.733C105.752 110.277 106.515 109.84 106.316 110.733C106.1 111.625 107.228 110.733 106.15 110.842C105.702 110.879 105.769 111.534 105.769 110.733H105.752ZM96.7967 84.3737C96.7967 83.9183 97.5596 83.4811 97.3606 84.3737L97.1948 84.483C96.7471 84.5194 96.8133 85.157 96.8133 84.3737H96.7967ZM90.3623 15.1329C90.3623 14.3313 90.2959 14.9689 90.7437 15.0236L90.9095 15.1329C91.1251 16.0255 90.3623 15.5883 90.3623 15.1329ZM89.2843 14.7503C89.2843 13.9488 89.218 14.5863 89.6823 14.6228L89.8482 14.7503C90.0638 15.6247 89.2843 15.2057 89.2843 14.7503ZM93.2147 91.0591C93.0323 90.0026 93.9278 91.132 93.6625 91.2049C93.6625 91.2049 93.5796 91.2049 93.563 91.2049C92.8996 91.1502 93.3473 91.8606 93.2147 91.0409V91.0591ZM66.3655 109.166C66.1831 108.073 67.2279 109.348 66.7138 109.312C66.0504 109.276 66.4982 109.968 66.3655 109.166ZM59.2013 130.006C59.1018 129.387 59.3838 129.551 59.5662 129.769C59.6989 129.951 59.7652 130.17 59.5662 130.152C58.9028 130.097 59.3506 130.807 59.2179 130.006H59.2013ZM93.5796 49.3616C93.4303 48.5236 94.0936 49.0883 94.0605 49.4344L94.0273 49.5073C94.0273 49.5073 93.9444 49.5073 93.9278 49.5073L93.5796 49.3433V49.3616ZM120.147 114.595C120.23 114.631 120.76 113.684 120.296 114.704C120.296 114.722 119.633 115.433 119.716 114.668C119.716 114.54 120.114 114.577 120.147 114.595ZM115.139 79.1819C115.221 79.2184 115.752 78.2711 115.288 79.2912C115.288 79.3095 114.624 80.0199 114.707 79.2548C114.707 79.1273 115.105 79.1637 115.139 79.1819ZM111.556 125.616C111.639 125.652 112.17 124.705 111.706 125.725C111.706 125.743 111.042 126.454 111.125 125.689C111.125 125.561 111.523 125.598 111.556 125.616ZM102.966 135.052C103.049 135.088 103.596 134.141 103.115 135.161C103.115 135.179 102.452 135.89 102.535 135.125C102.535 134.997 102.933 135.034 102.966 135.052ZM87.5596 97.6717C87.6426 97.7081 88.1732 96.7609 87.7088 97.781C87.7088 97.7992 87.0455 98.5096 87.1285 97.7445C87.1285 97.617 87.5265 97.6535 87.5596 97.6717ZM94.359 95.7043C94.4419 95.7407 94.9891 94.7935 94.5248 95.8136L94.3424 95.9047C94.0604 95.9047 93.8615 96.5969 93.9444 95.7771C93.9444 95.6496 94.3424 95.6861 94.3756 95.7043H94.359ZM106.896 102.39C106.979 102.426 107.527 101.479 107.046 102.499L106.863 102.59C106.581 102.59 106.382 103.282 106.465 102.463C106.465 102.335 106.863 102.371 106.896 102.39ZM107.543 123.721L106.399 124.577L106.813 124.122C107.278 123.794 106.498 124.158 107.527 123.739L107.543 123.721ZM84.7072 8.44734L81.3075 8.93922V10.2872L81.3904 10.4148C81.3904 10.4148 81.3241 10.5058 81.3075 10.524V14.3677L83.9941 13.0562V12.2546C83.4634 12.0543 83.2976 11.5806 83.8946 10.4148C83.8448 10.3783 83.7619 10.3784 83.7453 10.3602C83.7287 10.3602 83.6127 10.3054 83.5961 10.2872L83.1815 9.63146C84.757 9.2307 84.2926 9.48568 84.6906 8.44734H84.7072ZM92.1533 7.99193H92.0538L92.1533 8.04663V7.99193ZM92.5182 11.198L95.9841 11.4713V13.0379L98.6707 14.3496V8.92099L94.2595 8.28346C94.3092 8.5567 94.4917 8.57488 94.2927 9.61322C93.5298 8.99386 93.8283 9.57686 93.5796 8.42922H92.8664C92.8166 9.04858 92.9327 8.62954 92.7835 9.04852L92.3026 9.55863C92.3026 9.55863 92.203 9.57679 92.1533 9.61322C92.7835 12.2364 92.6011 10.2144 92.5348 11.198H92.5182ZM99.8814 78.5079C100.064 77.6153 100.13 76.6498 100.097 75.739L99.1019 77.0871C98.4883 77.8158 99.0024 77.0871 98.5878 77.7064C99.6989 77.8339 99.699 77.5971 99.8648 78.5079H99.8814ZM110.561 60.0911C110.561 60.3826 110.528 60.674 110.512 60.9655C110.677 60.8926 110.893 60.838 111.125 60.7651C110.876 60.3826 110.694 60.1822 110.561 60.0911ZM125.072 74.1178C124.79 73.3345 124.525 72.5512 124.293 71.7861L124.26 71.6768L124.027 70.9481C123.944 70.857 123.828 70.7477 123.663 70.6019C123.48 73.043 123.314 71.1485 124.011 72.7334C124.044 72.8062 124.127 73.043 124.16 73.1158L125.072 74.1178ZM124.989 74.7918L125.454 75.1743L125.255 74.6461C125.122 74.7189 125.039 74.7554 124.989 74.7918ZM122.203 72.0046L122.85 72.7151C123.48 72.3872 122.949 71.9136 122.203 72.0046ZM123.182 126.49L123.148 125.689C122.983 125.506 122.85 125.47 122.949 126.089C122.983 126.253 123.082 126.399 123.182 126.49ZM116.183 134.396L116.482 134.159L116.15 134.341L116.183 134.396ZM99.2843 154.088L99.5994 153.578C99.4336 153.578 99.2346 153.578 98.9527 153.633C99.0854 153.833 99.2014 153.979 99.2843 154.106V154.088ZM98.4386 153.924L98.3556 155.673L98.8863 154.78H98.6044C98.5547 154.234 98.505 153.997 98.4386 153.924ZM114.591 92.6985C114.359 93.245 114.127 93.7734 113.878 94.2652L114.359 94.2105C114.376 93.8644 114.492 93.2997 114.591 92.6985ZM88.2063 116.763L89.9974 118.019L94.5912 114.759L95.0887 102.025L98.1401 93.4819L111.175 88.4542C111.142 87.4523 111.473 86.6324 111.49 86.3228C112.966 86.1953 113.198 86.0313 113.596 85.3027C113.596 85.2844 113.629 85.1934 113.646 85.1388C114.16 86.4868 113.231 85.8856 113.978 86.341C114.492 86.6689 113.762 87.0332 114.707 85.5212C114.658 86.1952 114.641 86.6872 114.658 87.0879L115.006 86.9604L115.719 87.4341L116.167 84.8109C116.532 83.0803 115.536 84.0458 116.863 83.5539C116.78 84.738 116.415 85.8674 116.233 86.7964C116.167 87.1425 116.117 87.4158 116.084 87.6526L120.18 90.3669L115.785 89.9661C115.735 90.2029 115.669 90.4761 115.57 90.7858C114.392 95.0303 111.905 108.474 110.943 113.739C110.777 114.649 110.943 113.739 110.694 114.832L108.024 130.716C107.56 132.793 108.306 131.409 107.162 131.919C108.24 126.854 107.825 128.713 107.925 125.488C107.941 124.814 108.439 124.577 108.886 122.045C109.168 120.497 109.55 119.094 109.666 117.746L108.903 117.254C108.903 117.254 108.903 117.127 108.886 117.109L108.92 116.781C109.119 115.815 109.218 116.161 109.417 115.961C109.417 115.961 110.163 116.289 110.246 113.975L110.362 112.864C110.362 112.864 110.429 112.773 110.429 112.737C111.075 111.206 112.949 99.3476 113.248 98.4915C113.58 97.4713 113.347 98.1271 113.596 97.6899C113.165 96.4512 114.376 97.1251 112.518 96.9065L112.551 96.4148C109.235 101.351 104.691 102.882 100.86 104.139L99.5829 129.878C99.7156 129.897 99.8482 129.915 99.9809 129.951C99.4502 131.372 100.362 130.425 99.4834 131.955L98.4717 152.303C98.8697 152.995 98.82 153.359 99.9809 152.777L99.9477 152.904L100.346 152.266C99.8482 152.066 100.429 152.959 99.5165 151.683L99.5497 150.736C99.8482 150.536 99.5828 152.066 100.76 150.955C101.158 150.572 101.656 149.661 102.087 149.625C102.601 148.878 103.132 148.15 103.662 147.439L103.563 147.275L103.861 147.202C107.41 142.466 111.075 138.695 115.039 135.307V134.706C116.299 134.341 115.852 134.56 116.465 133.522C116.134 133.34 116.598 132.629 115.752 133.922L115.338 133.595C115.537 133.03 115.255 133.012 115.039 132.356C114.027 132.738 114.641 132.374 114.342 132.939C113.828 133.904 113.994 133.048 113.961 134.706C110.561 134.797 114.624 135.27 111.954 135.343C110.08 135.398 111.158 134.888 110.379 133.139C111.125 132.866 110.744 133.048 111.092 132.356C111.855 132.884 110.196 132.538 112.153 132.775C112.568 132.829 113.497 132.757 113.961 132.757C114.359 131.135 114.226 131.372 115.387 131.973C115.387 129.933 115.072 130.443 116.1 129.605C115.719 131.409 116.134 130.935 115.736 132.757C117.643 132.192 116.133 132.119 116.813 130.789L117.162 132.684C117.012 133.248 116.996 133.54 116.996 133.686C119.036 132.028 121.158 130.443 123.364 128.858C123.298 128.257 123.231 127.674 123.198 127.073C122.651 128.658 123.845 127.037 122.12 128.713C121.407 129.423 120.91 129.97 120.412 130.789L121.125 127.638C121.49 128.166 121.49 126.818 121.49 128.822H121.855C121.855 127.583 122.187 126.217 123.115 125.415C122.833 116.945 125.105 108.875 125.769 101.861C124.309 104.721 122.419 108.583 121.042 111.425C121.241 111.316 121.44 111.389 121.324 111.899L121.158 112.008C120.727 112.044 120.76 112.627 120.777 112.008C119.848 113.939 119.218 115.269 119.218 115.269C121.109 103.118 125.537 92.9172 129.749 82.8617C127.029 80.7304 124.823 78.6173 122.949 76.2856C122.734 76.2492 122.468 76.2855 122.087 76.4495C120.412 77.1963 122.568 76.577 120.777 77.2875C120.959 76.741 121.009 76.7774 121.142 76.5042C121.175 76.4313 121.225 76.322 121.274 76.2491C121.324 76.158 121.49 75.8666 121.556 75.7755C122.12 75.0468 121.822 74.9739 121.954 74.9739C121.523 74.391 121.125 73.7899 120.727 73.1705C120.379 74.136 120.495 75.4476 119.351 74.1178C119.45 75.5569 119.633 75.1926 119.201 76.2674L118.704 77.4696C117.842 79.2912 117.726 78.763 116.83 78.8358L117.925 73.3891C117.925 73.3891 117.974 73.2433 117.974 73.2251L118.206 72.8609C118.289 72.7151 118.505 73.4984 118.422 72.4236C118.356 71.6038 118.289 71.8772 117.891 71.3671L118.754 71.4035C119.351 71.8225 118.787 71.0574 119.318 71.7861C119.848 72.4965 119.135 72.0228 119.699 73.3344C119.964 73.1158 120.197 72.8973 120.379 72.6423C118.787 70.0556 117.427 67.1409 116.117 63.6433C117.162 65.3557 118.422 67.2684 119.799 69.0901C119.848 69.0354 119.931 68.9989 120.014 68.9443C120.793 68.5253 120.445 69.0718 121.473 68.6164C121.44 68.7075 121.357 68.7257 121.341 68.8532L121.142 69.2904C120.959 70.602 121.706 69.3815 122.187 71.3489L123.381 68.7439C122.502 65.3739 121.954 62.0766 121.706 58.7612L121.109 59.1621C121.49 58.0509 120.578 58.4699 121.672 58.4152L121.623 57.6318C119.964 58.0508 121.059 58.233 120.379 56.7939C120.578 56.9032 121.009 57.0672 121.142 57.1401C121.507 57.3404 121.573 57.3768 121.606 57.4132C121.556 56.4113 121.54 55.3912 121.54 54.3711L117.825 51.8937C117.726 52.5131 118.455 52.3856 117.162 52.4766C116.167 52.5495 116.465 52.2398 116.084 51.6751C116.432 51.5294 116.714 51.42 116.929 51.2925L114.359 49.5802C114.243 49.6348 114.094 49.6713 113.944 49.7259C113.862 49.5073 113.795 49.3434 113.762 49.1795L112.07 48.0501L112.021 48.1775C112.021 48.1775 111.357 48.9062 111.44 48.1411C111.44 48.0136 111.838 48.05 111.871 48.0682C111.888 48.0682 111.938 48.0318 111.971 47.9771L106.747 44.4978C107.825 46.6291 108.638 48.724 109.251 50.7461C110.263 51.5476 109.384 50.8371 109.434 51.3836L109.517 51.6751L109.583 51.8208C110.512 53.8974 109.633 50.3999 110.379 52.8591C110.08 52.768 109.898 52.7134 109.765 52.6405C109.964 53.4967 110.13 54.3529 110.246 55.1726C110.976 55.1726 110.379 55.3366 110.611 54.7537C110.628 54.7173 110.628 54.5898 110.644 54.5351L110.727 53.2417C110.727 53.2417 110.86 53.3692 110.876 53.4968L111.357 54.8994C111.374 55.1544 110.827 55.6098 111.805 55.6098C113.165 55.6098 111.772 56.0106 113.099 54.6444C114.293 53.4057 113.762 53.6243 114.674 54.0432C114.923 54.8448 114.425 55.6281 113.961 56.0106L113.994 55.7373C114.044 55.0451 114.575 56.3749 114.027 55.2637C113.629 54.4804 113.397 54.9723 112.883 55.2273C114.259 58.0873 114.757 56.7028 116.1 57.9779C114.16 58.4334 114.74 57.9051 113.231 56.7939L112.468 57.9233C113.513 58.2148 114.409 58.5062 115.387 58.7612C115.371 58.7977 114.691 59.9818 114.674 60.0001C114.508 60.2187 115.089 60.5283 113.944 60.3462L111.44 59.9271C111.888 61.1112 111.888 60.1458 111.225 61.2205L110.313 62.2952C110.246 62.8417 110.147 63.3701 110.031 63.8802C110.677 64.2445 110.097 63.9165 109.997 64.2444L109.931 64.2809C109.069 67.8695 107.311 70.766 104.939 72.7151C105.105 72.8062 105.354 72.8426 105.835 72.7697C106.382 72.6604 106.084 72.7334 106.415 72.5148V74.1542C104.939 75.6661 106.449 72.8973 105.072 74.6278C103.779 76.2491 104.923 74.8829 105.072 75.8302C105.271 77.1235 105.238 76.8138 104.276 77.2328C104.707 77.5971 103.878 77.4879 105.354 77.6336C105.437 78.6901 105.52 78.7083 105.719 79.6009L105.155 79.0362C104.74 78.8358 105.122 78.8358 104.293 78.7994C104.143 76.7773 104.027 78.2711 103.58 76.4495L103.016 77.6882C102.634 76.4677 102.435 76.7956 103.099 75.9395C103.712 75.1744 103.745 75.3748 104.293 74.4639L103.58 74.2635C103.646 73.9902 103.745 73.7899 103.779 73.8628L104.11 73.3526C103.298 73.8991 102.419 74.3546 101.49 74.6825C101.308 76.9414 100.661 79.0181 99.0522 80.7304C99.3341 80.2203 99.5663 79.5827 99.7487 78.8541L99.6658 78.7448C99.5331 78.5262 99.3838 78.1437 99.2843 77.9797L98.2064 78.763C98.621 76.6135 97.9245 75.5204 98.9195 73.2616C99.4502 73.6806 99.6824 74.0632 99.9643 74.555C99.9145 74.2818 99.8648 74.0267 99.7985 73.7717C99.6161 73.1341 99.3341 72.5147 99.0024 71.9318C99.019 72.0229 98.9692 72.114 98.7868 72.1869C98.3556 72.369 97.9577 71.9865 98.223 71.695C98.3889 71.5128 98.7703 71.6221 98.9361 71.8043C97.5431 69.4362 95.1384 67.5052 93.1484 66.3029V64.3719C92.5679 64.3719 92.9826 65.0095 92.8499 64.2262C92.7504 63.6615 92.966 63.7161 93.1484 63.9165V57.9416L92.8996 57.8869C92.6674 57.9415 92.3855 58.0508 92.1036 58.1965V62.8782L92.2197 63.0422C92.6177 63.5887 92.3192 63.0786 92.5016 63.8437L92.1036 63.6069V67.1773L92.1533 67.3777L92.1036 67.3412V88.8549C92.3026 89.0371 92.2363 89.0188 92.1036 89.0735V113.903L90.014 115.287V115.36C89.1682 115.36 88.5712 115.925 88.2229 116.671L88.2063 116.763ZM58.4053 54.4076C58.4053 55.5188 58.3721 56.63 58.3224 57.723C58.4219 57.7412 58.5877 57.7229 58.8531 57.6318C58.6043 58.1965 58.6043 58.5063 58.2726 58.7431C57.8746 64.1534 56.7137 69.4543 54.5578 75.1743C58.0073 72.4418 61.4733 67.5598 63.8613 63.6615C61.7054 69.3997 59.4169 73.6078 56.1996 77.3057C56.4318 77.4332 56.5479 77.6517 56.1996 77.7975C56.0338 77.8521 55.8845 77.8521 55.7684 77.7975L55.1382 78.4715C55.3704 78.599 55.4865 78.8176 55.1382 78.9634C54.9724 79.0362 54.8066 79.018 54.6739 78.9634C53.3638 80.2932 51.9045 81.5866 50.2461 82.8799C51.6391 86.1953 53.0488 89.5289 54.392 92.9354L54.5578 92.6439L54.9226 94.2105L54.8729 94.1741C56.8796 99.4204 58.7038 104.867 59.9476 110.751C60.0139 110.842 60.8431 111.899 60.2959 110.751C60.6607 110.569 60.1963 110.022 60.727 110.733C61.125 111.279 60.8265 110.769 61.009 111.534C60.2959 111.316 60.8597 112.044 60.2793 111.207L59.9476 110.751C60.2627 112.245 60.5446 113.739 60.7934 115.287C60.7934 115.287 56.8464 106.999 54.2261 101.88C54.7071 106.907 56.0172 112.5 56.6142 118.366C56.9625 118.457 56.863 118.511 57.0786 119.386H56.7137C56.9791 122.483 57.0288 125.652 56.6308 128.858C66.266 135.781 74.0935 142.648 81.6889 155.655L81.407 150.153H81.3738C81.3738 150.153 81.3573 150.026 81.407 149.989L79.1184 104.175C77.0786 103.519 74.8398 102.772 72.7005 101.461L72.7834 102.535L73.198 102.444C73.0322 102.791 72.9161 103.009 72.8332 103.228L73.2644 108.747L72.3356 116.034L73.3473 128.093L70.4618 116.435L70.6275 112.664L69.616 108.383L70.014 103.72V103.628H69.9974L69.3506 100.003L69.2677 100.094V99.5662L69.0853 98.5461C67.8083 97.1798 66.6475 95.4493 65.6856 93.2269V93.8098H64.9725C65.0057 92.1521 64.7735 92.4435 65.2544 92.1521C64.9891 91.4781 64.7569 90.7494 64.5247 89.9843L59.8647 90.4034L65.0388 86.9786L68.9692 88.4905L69.1185 85.5759L69.417 82.7706L69.0521 77.925L70.3788 72.533C70.3788 72.533 70.4783 78.3804 70.5447 79.4188C70.6276 80.4571 71.805 84.7379 71.805 84.7379C71.805 84.7379 71.2909 86.4321 71.3572 87.1425L71.5728 89.5107L80.4783 92.9536C80.6939 92.8989 81.0256 93.0265 81.1085 93.1904L81.8713 93.4819L82.2196 94.4656C82.203 94.1559 82.1699 93.8098 82.1201 93.409C83.1151 94.6659 82.6508 94.9028 83.1981 96.1597C83.0488 96.1597 82.9327 96.1597 82.8166 96.1597L83.0322 96.7609L83.9112 95.7954C84.0604 95.8318 84.7404 96.2326 83.7122 96.7426C83.1981 96.9977 83.4469 96.9248 83.0986 96.943L84.0936 99.7119C85.7354 99.7119 84.475 99.7119 84.9891 99.3294L85.155 99.8212C85.3208 100.113 84.8897 99.8577 85.7023 100.495C84.9726 101.625 85.8018 100.604 84.4585 100.787L84.9062 102.044L85.4037 114.777L86.8797 115.833L86.8465 115.779C86.4319 114.941 86.266 114.704 86.7636 113.502C87.941 114.358 87.3937 114.285 88.9194 113.884C88.5546 114.868 88.538 115.068 89.9974 115.068V97.5988C89.6492 97.7627 89.1185 97.4895 88.5712 97.3619C89.2512 95.9593 88.5049 96.2326 89.9974 95.7954V94.4474L89.5828 93.9009C89.7652 93.9009 89.8979 93.9009 89.9974 93.9009V88.3449L88.7204 88.9824C88.0239 89.0917 88.5546 88.5088 88.2063 89.5289C86.664 89.3832 87.5596 89.5835 86.4154 88.7456C86.1666 89.7839 86.4485 89.0735 86.0671 89.9297L85.6525 89.6018C85.6525 89.2011 85.951 89.8385 86.0671 88.363C87.543 88.7456 87.145 89.2375 88.2063 88.7638C87.0621 87.0515 87.5596 88.8914 86.4154 87.1972C88.1401 87.6344 88.1732 87.27 89.9974 86.7964V86.3046L89.6491 86.4139V85.6305L89.9974 85.5942V82.4791C89.4833 82.552 89.334 81.7323 89.9642 81.8416H89.9974V59.5628C88.8531 60.2186 87.6922 60.7833 86.8465 60.4918V61.7488L88.0737 63.8437L86.8465 62.7689C84.1101 60.419 83.9941 58.0691 85.0555 56.9032H84.9891C85.5363 54.6262 85.3042 57.2129 86.6475 55.2091C86.6806 55.1545 86.7304 55.0269 86.7802 54.9358C87.0123 55.6463 86.9792 55.4459 87.0953 55.7191L87.4435 56.2838C88.2064 56.7939 88.0239 55.0269 88.2063 57.3039C86.9128 56.9943 87.7586 56.885 87.1285 57.6865C85.8681 56.6846 86.6475 56.63 86.0505 56.7575C85.8349 57.2311 85.7519 57.6683 85.8183 58.0872C85.9841 58.0508 86.1998 57.9416 86.4154 57.7048V58.8888L85.951 58.5245C86.4816 59.8725 87.6259 59.745 88.8697 59.1803C88.6707 59.0163 88.5712 58.6337 88.5712 58.1055C89.218 58.4698 89.019 58.4152 90.014 58.5063L89.9145 58.6338C91.0422 57.978 92.1699 57.2128 92.9162 57.0671C97.1616 57.9779 95.9012 61.931 95.9012 61.931C97.7255 61.1113 100.694 59.4352 99.5829 57.395C98.2562 57.3768 97.5265 56.5753 96.8797 55.7009C96.8797 55.7373 96.8299 55.8648 96.6972 56.1563L96.5148 56.2475C96.2329 56.2475 96.0339 56.9397 96.1168 56.1199C96.1168 55.9924 96.5149 56.0288 96.548 56.047C96.5978 56.0652 96.83 55.701 96.8797 55.6828C95.951 54.4805 95.1219 53.1506 92.8499 53.5878C93.165 53.2235 93.48 52.8774 93.8117 52.5859C93.7453 52.3856 93.679 52.1123 93.6127 51.7844C93.9941 51.9484 94.1433 52.0759 94.2263 52.2216C95.5032 51.2015 96.8631 50.8007 98.3722 51.5841C98.4551 51.4383 98.5547 51.3108 98.6542 51.2197L98.4883 51.1286C97.8747 50.6732 98.2064 50.91 97.8913 50.6003C99.5165 50.746 98.8034 50.3452 98.8863 51.0375C99.4336 50.7278 100.114 50.8553 100.578 51.3108C101.656 50.8918 101.009 51.9301 101.589 50.9099C101.987 50.1813 100.876 50.6549 102.551 49.4344C102.419 51.1285 102.585 50.072 102.12 51.0375C102.767 50.5274 102.784 50.072 102.949 48.7969L102.087 46.0644C100.113 47.212 97.7918 46.538 96.0007 46.8659C95.4535 46.3559 94.5249 45.6454 93.165 45.5725V44.0606C93.165 44.0606 93.1318 43.8784 93.165 43.8056V40.8545L91.7885 39.0146L93.1981 38.7778C93.1483 38.6139 93.0488 38.3771 92.8664 38.0128C93.8946 38.4135 93.3142 37.7213 93.7122 38.6868L101.241 37.3933C101.407 38.0674 101.971 38.5592 102.634 38.5592C103.43 38.5592 104.077 37.8488 104.077 36.9744C104.077 36.5372 103.928 36.1547 103.679 35.8632C103.845 36.2093 103.961 36.6647 103.978 37.2295C101.954 37.0473 102.651 36.0271 101.822 36.8286L101.407 36.5008C101.473 36.2093 101.556 35.9907 101.672 35.7903C101.473 35.9907 101.324 36.2458 101.241 36.5372L97.8747 35.6082V35.6446C96.9294 36.1547 97.5099 36.0089 96.1002 36.0453C96.4651 35.6992 96.7637 35.4806 96.9958 35.3713L93.165 34.3148L92.0041 32.4385V20.1606C91.888 20.3246 91.7055 20.4885 91.4402 20.6889C90.5944 18.4482 91.5397 22.4559 91.4402 17.5375H92.0041V13.0379L91.6558 12.9651C91.606 12.8558 91.5065 12.8558 91.4402 12.8011L92.0041 12.5643V11.9632C90.3457 11.8175 92.7006 12.1088 91.0754 10.8337L90.7105 13.2019L89.7652 11.5078C89.7486 11.3621 89.6824 11.3256 89.6326 11.2345C90.9593 10.852 90.0969 10.8338 91.4236 10.4512C90.2793 8.73887 91.1749 10.3602 89.6326 9.66793C89.9311 9.04857 90.1632 8.30167 90.6939 7.82804L89.9808 7.71875L87.8747 8.0284C88.0074 8.08305 88.1732 8.10122 88.5546 8.10122V8.50205C87.5928 8.50205 87.4269 8.52022 87.3108 8.11946L86.4154 8.24699C86.2495 8.4838 86.2495 8.4656 86.0671 9.28534C86.1002 9.28534 86.1666 9.28534 86.1832 9.28534H86.6475C88.9692 9.86827 88.3059 9.12138 89.3009 10.0686C88.024 10.0686 86.9958 10.3237 86.0837 9.66793C84.276 10.5605 86.9626 9.50392 84.6575 9.26711C85.0555 10.1051 85.4534 10.4877 85.6359 11.3803L88.0405 11.198V16.754H88.9692V17.5375C88.0737 17.246 88.3722 17.5374 88.0405 17.0091V32.4385L86.8797 34.3148L78.8034 36.5372C78.6375 35.8814 78.1069 35.4078 77.4767 35.3713L77.8581 36.4279C77.1615 36.7012 77.5596 36.519 77.1782 36.8651C77.0455 36.9744 76.8631 37.2658 76.4319 37.6119C76.1334 36.0271 76.3821 36.3186 76.5977 35.6446C76.2162 35.9361 75.9675 36.4097 75.9675 36.9562C75.9675 37.8306 76.6143 38.541 77.4104 38.541C78.0737 38.541 78.6375 38.0491 78.8034 37.3751L88.2561 39.0146L86.8963 40.8545V43.1862L87.8912 43.1133V44.2975L86.8963 43.3502V46.0826C86.9792 46.2648 87.0621 46.5744 87.1782 47.0663C87.0952 47.0299 86.5314 46.702 86.5149 46.6838L86.4485 46.5745C86.0339 46.6292 85.6359 46.6656 85.2711 46.6838C85.4037 46.9388 85.9675 46.2284 86.4651 48.2504C86.4153 48.1775 86.3324 47.9407 86.2993 48.0136C86.2163 48.2504 86.3822 47.6674 85.5862 47.2849C84.0107 46.538 85.9179 48.0682 84.558 47.1028C84.1102 46.7931 83.9443 46.5016 83.8946 46.283C82.1201 45.7001 80.412 44.8803 78.7868 43.7509V44.0606C79.5828 44.6253 79.1682 43.842 79.3008 45.4997H79.0023C79.5164 47.4671 80.8764 49.1248 82.3523 49.7077C80.7437 49.7441 79.3175 50.4364 77.7918 51.5476C78.5215 51.6751 79.2843 51.9302 79.931 52.2581C77.0455 53.8611 75.8846 54.2254 74.3755 57.9962C74.6408 57.8504 74.9394 57.7411 75.2213 57.6318C75.1881 57.4679 75.1218 57.2311 74.9891 56.9215C75.1881 57.0308 75.6193 57.1947 75.752 57.2676C76.4153 57.6319 76.0836 57.4497 76.4319 57.7048C76.1997 57.7594 76.0172 57.814 75.868 57.8504C75.6026 58.8888 75.3374 59.7814 75.1218 60.6376C75.7022 60.8015 75.1715 61.2205 75.0057 61.2388H74.9891C74.8564 61.8763 74.7403 62.5321 74.7237 63.2425L75.0223 63.2061C75.0223 63.2061 74.873 63.279 74.8398 63.3883L74.7237 63.4611C74.7237 64.1898 74.7735 64.9731 74.9393 65.8839C75.2212 65.3374 75.5861 64.791 75.9675 64.3173C75.868 66.9587 76.2163 69.1264 77.2445 71.6585L78.0405 69.9826C79.1682 72.8244 81.3573 74.5914 82.2196 76.9049C82.5347 77.7428 82.6177 78.6172 82.5845 79.7466C81.8548 77.6882 81.009 76.3401 79.5828 75.1561C70.4286 72.7879 65.6193 59.8361 73.2478 44.5889L58.455 54.4622L58.4053 54.4076Z" fill="#BC2A26"/>
</svg>
