<svg width="39" height="32" viewBox="0 0 39 32" fill="none" xmlns="http://www.w3.org/2000/svg">
<path d="M24.0259 5.22394L24.2139 4.89779V4.79229H24.2492V2.62438L24.0259 2.11599L22.1574 1.61719C22.1574 1.61719 22.1368 1.63316 22.1163 1.66194L22.175 1.78344L22.3102 1.75468C22.2837 1.83781 22.3102 1.76746 22.3102 1.82501C22.3102 1.87937 22.3366 1.81223 22.3102 1.89537L22.2426 1.88897L22.2191 1.87618L22.3161 2.08081V2.53486C22.3484 2.53486 22.366 2.52526 22.3777 2.52526C22.5246 2.50927 22.6098 2.8578 22.4159 3.04645C22.3836 3.07843 22.3513 3.1008 22.3161 3.11999V4.36702L22.0898 4.71235L24.0288 5.23034L24.0259 5.22394ZM22.3719 2.58601L22.3895 2.6052C22.3895 2.6052 22.3631 2.59241 22.3719 2.58601ZM22.5628 4.24231C22.9154 4.11441 22.4306 4.28709 22.7538 4.03448C22.7538 4.04088 22.7538 4.05365 22.7538 4.05685C22.7362 4.43735 22.9359 3.90657 22.8155 4.51729L22.5628 4.45015V4.24231ZM22.2455 4.72513L22.6245 4.51729C22.3043 4.84663 22.5863 4.80507 22.2455 4.72513ZM23.9025 2.64997L23.832 2.37499C24.0611 2.44214 24.0024 2.38138 24.023 2.64997H23.9025ZM23.8966 3.27348V3.06564C24.0318 3.17435 23.9789 3.07204 24.023 3.27348H23.8966ZM22.9066 3.05285V2.91855C22.9066 2.91855 22.8801 2.93773 22.8801 2.99848C22.8801 3.11999 22.8948 3.09122 22.9066 3.05285ZM22.9066 3.22871V3.13279C22.8742 3.12 22.8361 3.11679 22.8184 3.13917C22.7714 3.19033 22.8361 3.25109 22.9066 3.22871ZM23.5823 2.45173L23.6528 2.6116V4.53647L23.5911 4.66118L22.8361 4.45974L22.9066 4.34463V3.57723C22.8919 3.52287 22.8831 3.43336 22.8801 3.27348C22.7303 3.3822 22.8155 3.35661 22.6245 3.41097L22.9066 2.81304V2.40056L22.8419 2.25348L23.5852 2.45173H23.5823Z" fill="#BC2A26"/>
<path d="M15.1405 3.55595L15.1582 3.57513C15.1582 3.57513 15.1317 3.56234 15.1405 3.55595ZM14.4443 3.48559C14.4795 3.33211 14.5089 3.32573 14.5089 3.14028H14.5735V3.48559H14.4472H14.4443ZM15.3286 2.65745L15.59 2.17783L16.0983 1.60547L15.2904 1.8229L15.2052 1.97639V2.51676C15.2551 2.57752 15.2052 2.48159 15.3051 2.61588L15.3286 2.65425V2.65745ZM15.1846 4.46722L15.2199 4.51519L15.1729 4.81255L16.2657 4.52157H16.2217V4.4832L15.7164 4.07714L15.214 3.39607C15.1993 3.55595 15.2581 3.46642 15.2052 3.69664L15.164 3.95243C15.1347 4.29776 15.1112 4.23701 15.2081 4.45124L15.1876 4.46402L15.1846 4.46722ZM14.8056 4.91168L14.5794 4.54076V4.31055C14.3209 4.27857 14.2974 4.20822 14.5089 4.04195C14.5677 4.21781 14.5412 4.11551 14.5735 4.17946L14.5824 4.19224V3.59111L15.0818 4.31695C15.0818 3.56554 15.1376 3.5975 15.1435 3.30333L15.1259 3.28095C14.8027 3.25217 15.0642 3.37049 14.9525 3.07632C15.0289 3.04755 14.9643 3.07632 15.0172 3.07632C15.0671 3.07632 15.0054 3.1051 15.0818 3.07632C15.1347 2.82372 15.1758 2.39205 15.1964 2.00515L14.5824 3.11149V2.45281L14.8144 1.9604L13.7656 2.24176L13.9918 2.61588V4.70703L13.7656 5.19944L14.8115 4.92126L14.8056 4.91168Z" fill="#BC2A26"/>
<path fill-rule="evenodd" clip-rule="evenodd" d="M12.0641 3.5657L12.2521 4.04532L12.4078 3.98777C12.4255 3.99417 12.4431 3.99097 12.449 3.97179L12.7046 3.87907L12.4196 4.29474L12.778 4.64005L12.3021 4.57932L12.2051 5.09091L12.0171 4.61128L11.5617 4.77436L11.8467 4.35869L11.4883 4.01336L11.9642 4.07411L12.0612 3.5625L12.0641 3.5657Z" fill="#BC2A26"/>
<path fill-rule="evenodd" clip-rule="evenodd" d="M25.8272 3.5625L25.6392 4.04212L25.222 3.89185V3.93022L25.2925 4.03574V4.02934L25.5422 4.10608V4.24357C25.4952 4.24037 25.46 4.23716 25.4306 4.23716L25.4717 4.29474L25.1133 4.64005L25.5892 4.5793L25.6862 5.09091L25.8037 4.79672H25.6715C25.6774 4.60487 25.7185 4.63047 25.8624 4.5889V4.64645L25.8771 4.61128L26.3296 4.77436L26.0446 4.35867L26.403 4.01336L25.9271 4.07411L25.8301 3.5625H25.8272Z" fill="#BC2A26"/>
<path d="M11.583 1.52253L11.6829 1.48097V1.48735C11.6417 1.64402 11.8415 1.48735 11.6535 1.50653C11.583 1.51293 11.583 1.60567 11.583 1.51933M18.9423 31.5949C18.675 31.4254 18.4047 31.2559 18.1374 31.0833C18.2402 31.0545 18.1285 31.112 18.1667 30.9458C18.2079 30.7731 18.2108 30.7827 18.2461 30.626C18.011 30.5333 18.4605 30.6164 18.1843 30.6324L17.9934 30.5557C17.9993 30.8594 18.0345 30.7795 18.1285 30.8339L18.0756 31.0385L17.8641 30.9042C17.8436 30.8786 17.8024 30.8339 17.7642 30.8051C17.5733 30.658 17.9435 30.8722 17.6673 30.7731L17.6732 30.7795L17.3059 30.5365C17.3324 30.5301 17.3647 30.5237 17.4235 30.4853C17.3236 30.3382 17.4176 30.3958 17.2325 30.3478V30.4885C15.2201 29.1424 13.2899 27.6236 11.8356 25.6603C11.8797 25.6252 11.8239 25.5804 11.771 25.5708L11.7034 25.4749C11.6741 25.3342 11.7152 25.4045 11.5889 25.3086C11.0718 24.5572 10.6223 23.745 10.261 22.8529L10.2551 22.821H10.2492C10.1758 22.6387 10.1052 22.4501 10.0406 22.2614C8.98592 19.211 8.94185 15.5595 9.02999 10.1046L9.04468 9.10056C9.04761 9.12933 9.08286 9.15173 9.11224 9.21568C9.37959 9.1869 9.11225 9.24445 9.26796 9.10696L9.30321 8.9375C8.99473 9.09418 9.58524 8.84477 9.20919 8.95668C9.13575 8.97907 9.22976 8.84477 9.10344 8.99505C9.06818 9.03662 9.05055 9.06219 9.04762 9.08137L9.14751 2.85588H9.17982C9.15338 2.81751 9.15337 2.8111 9.15043 2.80471V2.6896C9.47654 2.51055 9.80264 2.33789 10.1287 2.17801C10.1405 2.20999 10.2051 2.25475 10.3843 2.3091C10.3726 2.19399 10.355 2.12046 10.3373 2.07889C10.734 1.88704 11.1335 1.70799 11.5331 1.54172C11.5801 1.58648 11.6476 1.60887 11.7828 1.62166C11.7828 1.58648 11.7828 1.50333 11.7798 1.48735L11.7681 1.44578C12.2469 1.25393 12.7258 1.08128 13.2047 0.924607C13.237 0.959779 13.2869 0.969366 13.2811 0.899021C13.757 0.74874 14.2359 0.614448 14.7118 0.502536C15.129 0.403414 15.5462 0.320267 15.9663 0.249923C15.981 0.38102 15.9663 0.521722 15.9663 0.723164C16.2982 0.755138 16.0809 0.656014 16.1572 0.860653C16.2865 0.758334 16.2483 0.783902 16.2659 0.668792C16.2865 0.531301 16.2836 0.454559 16.2836 0.307475L16.4481 0.249923C16.4481 0.249923 16.4657 0.243535 16.4716 0.23714C16.4393 0.163598 16.4451 0.224346 16.451 0.173186C17.5762 0.0165095 18.7044 -0.0346408 19.8296 0.0229139C19.8266 0.0357038 19.8296 0.0612806 19.8325 0.0996504C19.8443 0.179587 19.9706 0.249925 19.9177 0.112433C19.9089 0.0868534 19.8854 0.0452963 19.8619 0.0229139C20.1322 0.0357038 20.4054 0.058087 20.6757 0.0836669C20.7021 0.122037 20.752 0.138014 20.7579 0.0932492C21.5658 0.176384 22.3737 0.310687 23.1787 0.502536C24.4332 0.799902 25.6877 1.22836 26.9362 1.79111C26.9333 2.12685 26.9069 2.10127 27.186 2.17161C27.2095 2.0629 27.2271 1.98616 27.2418 1.9318C27.7412 2.16522 28.2407 2.41782 28.7372 2.6928L28.8194 7.82156C28.8194 7.82156 28.793 7.82797 28.7724 7.83436C28.793 7.86634 28.8077 7.88872 28.8223 7.9079L28.8429 9.22526C28.7959 9.23166 28.7841 9.24125 28.7107 9.28281C28.8282 9.45548 28.7254 9.42032 28.8488 9.41712L28.8605 10.1014C28.8693 10.7345 28.8782 11.342 28.884 11.9303C28.7342 11.9687 28.7783 11.9527 28.84 12.1158L28.884 12.0422C28.8899 12.6753 28.8899 13.2861 28.884 13.868C28.746 13.8584 28.8135 13.8872 28.7753 13.9096L28.7841 14.1142C28.7783 14.2133 28.7753 14.2901 28.7753 14.3924L28.8811 14.2933C28.8752 14.8273 28.8635 15.342 28.8429 15.8409C28.8253 15.8409 28.8018 15.8441 28.7724 15.8441C28.2935 15.8441 28.0115 15.5179 28.0115 16.1894C28.2847 16.2533 28.0849 16.2182 28.3934 16.1894L28.4581 15.9144C28.4845 16.2469 28.4845 16.0327 28.5844 16.2469L28.649 16.4676C28.7107 16.2981 28.5462 16.3301 28.8253 16.3301C28.79 17.0655 28.7372 17.7625 28.6637 18.4244C28.6343 18.4148 28.5902 18.4084 28.5197 18.3988C28.5197 18.2997 28.5197 18.3061 28.5021 18.2102C28.5021 18.1974 28.4845 18.1878 28.4816 18.1622C28.4816 18.1367 28.4639 18.1367 28.4551 18.1207C28.4052 18.3253 28.4287 18.2326 28.3288 18.3956C28.129 18.2901 28.1496 18.2901 27.9498 18.3956C28.1378 18.677 27.9939 18.466 28.3288 18.466C28.649 18.466 28.1525 18.5331 28.6196 18.7666C28.5844 19.0511 28.5433 19.3293 28.4992 19.6043C28.4727 19.5883 28.4375 19.5755 28.3905 19.5723C28.3259 19.8377 28.1143 19.8889 28.3905 20.0551L28.4257 20.0264C28.2788 20.813 28.0879 21.5516 27.844 22.2582C27.6971 22.6803 27.5326 23.0832 27.3505 23.4732L27.3417 23.4541C27.3417 23.4541 27.3328 23.4285 27.3299 23.4221C27.3299 23.4189 27.3211 23.4061 27.3182 23.3933C27.3182 23.3805 27.3123 23.3741 27.3182 23.3773L27.1184 23.6427C27.1683 23.7227 27.1801 23.7578 27.1948 23.7802C26.6807 24.8002 26.0461 25.7115 25.3263 26.5396L25.2969 26.5173L25.2117 26.4725C25.2881 26.5684 25.0824 26.5748 25.2734 26.5972C24.7181 27.2303 24.1129 27.8154 23.4725 28.3622C23.4607 28.3334 23.4255 28.311 23.3697 28.2663L23.4049 28.4198C22.268 29.3886 21.0253 30.2423 19.7737 31.0449L19.7532 31.0289V31.0609L19.6357 31.1376C19.6063 31.0897 19.5446 31.0513 19.5651 31.1696V31.1824L19.2626 31.3774C19.2714 31.3423 19.2861 31.2975 19.3125 31.2399C19.0922 31.3263 19.2919 31.1984 19.1245 31.3806C19.051 31.4606 19.0451 31.4446 19.0128 31.5373L18.9335 31.5885L18.9423 31.5949ZM10.5665 21.996C10.6017 21.996 10.7075 21.8969 10.7604 21.8553L10.6311 21.5803C10.2345 21.8074 10.3785 21.9928 10.5665 21.9928V21.996ZM26.4926 2.52335L26.5102 2.54253C26.5102 2.54253 26.4838 2.52974 26.4926 2.52335ZM13.1048 26.7603C13.3956 26.6452 13.2488 26.8434 13.4221 26.7603C13.4926 26.5396 13.3927 26.8274 13.3574 26.4853C13.2223 26.5556 13.2987 26.5364 13.1048 26.5524V26.7603ZM18.9423 31.2495C18.9423 30.885 19.0892 30.6644 18.7514 30.869L18.8777 30.9042C18.7896 31.2591 18.628 31.16 18.9423 31.2495ZM9.87021 14.1942C9.80852 13.9384 9.80558 14.1046 9.74389 13.8488H9.61756C9.62637 14.1558 9.59699 14.1686 9.87021 14.1942ZM10.0083 8.24043L9.80559 8.04859C9.78796 8.19887 9.57055 8.1701 9.72332 8.33637C9.79677 8.41631 9.90252 8.31078 10.0112 8.24043H10.0083ZM9.76151 8.23405C9.76151 8.23405 9.74976 8.26283 9.74389 8.25323L9.76151 8.23405ZM21.4689 0.508918L21.4953 0.617641C21.4424 0.841465 21.5041 0.614443 21.416 0.796699C21.6863 0.726355 21.6216 0.751936 21.7333 0.51852C21.3984 0.51852 21.6393 0.51851 21.5423 0.448165L21.4689 0.505737V0.508918ZM27.1918 21.8585C27.4122 21.9864 27.371 21.8585 27.3182 22.1335H27.4445C27.4445 22.1047 27.4122 21.9033 27.4122 21.9033C27.4122 21.7818 27.5385 21.8425 27.3828 21.721L27.2829 21.8042C27.2829 21.8042 27.2653 21.7818 27.2477 21.7786L27.1948 21.8585H27.1918ZM27.7618 12.5347C27.8617 12.7393 27.7001 12.6274 27.9527 12.8096C28.0174 12.6626 27.9997 12.7489 28.0174 12.5347H27.7618ZM11.7739 6.80476C12.0383 6.77918 11.8915 6.90389 11.9649 6.52979C11.8033 6.60333 11.9385 6.60653 11.7739 6.52979V6.80476ZM12.2117 6.64169C12.0677 6.65448 12.1647 6.42428 12.0266 6.59694C12.2117 6.68967 11.9208 6.69924 12.2734 6.80156L12.3439 6.52659C12.3439 6.52659 12.3204 6.56176 12.3116 6.56815L12.2117 6.63851V6.64169ZM11.962 25.3118C11.9913 25.3726 12.0354 25.6795 12.1735 25.5292C12.3145 25.3757 12.0707 25.3374 11.962 25.3118ZM9.55292 18.1974C9.84964 18.1622 9.65869 18.2773 9.80265 18.0695L9.55292 17.9928V18.2006V18.1974ZM12.7229 6.3891C12.9344 6.50421 12.9227 6.42748 12.9755 6.18127C12.7611 6.30278 12.858 6.18765 12.7229 6.3891ZM25.6671 25.6571C25.6788 25.6316 25.767 25.7435 25.7934 25.379L25.6759 25.4749C25.6759 25.4749 25.5613 25.4525 25.5408 25.4493L25.6671 25.6571ZM20.7814 29.5932C20.9166 29.8107 20.9518 29.9354 21.0341 29.5932H20.7814ZM13.5484 26.4853C13.9156 26.4853 13.6189 26.4821 13.7012 26.5396C13.7776 26.594 13.5043 26.5141 13.8011 26.6228V26.4149H13.5484V26.4853ZM27.5209 20.4356C27.703 20.4101 27.4944 20.4612 27.5796 20.3301L27.7618 20.4772C27.6825 20.2374 27.5561 20.1958 27.4856 20.3589C27.4092 20.5348 27.5179 20.4388 27.5209 20.4388V20.4356ZM10.7575 7.28759C10.7281 7.15649 10.7428 7.17249 10.6928 7.07976C10.54 7.17889 10.6076 7.09894 10.5665 7.28759H10.7575ZM26.7453 2.38584V2.04053H26.6807C26.6807 2.39225 26.5161 2.30271 26.7453 2.38584ZM11.2657 7.1501C11.1394 7.19167 11.1776 7.1565 11.0747 7.22045C11.1746 7.36754 11.0806 7.30998 11.2657 7.35794V7.1501ZM10.1875 8.80639C10.0876 8.65931 10.1816 8.71687 9.99654 8.6689V8.87675C10.0612 8.84797 10.0788 8.87674 10.1875 8.80639ZM18.8806 30.4917C18.7807 30.3446 18.8748 30.4022 18.6897 30.3542V30.5621C18.7543 30.5333 18.7719 30.5621 18.8806 30.4949V30.4917ZM9.87021 18.6131C9.77033 18.466 9.86435 18.5235 9.67926 18.4756V18.6834C9.7439 18.6546 9.75857 18.6834 9.87021 18.6131ZM9.61462 10.8112V10.9487H9.80559V10.8112H9.61462ZM12.8521 25.865H12.7258V26.0728H12.8521V25.865ZM19.1245 30.3542L19.195 30.6292C19.3742 30.4885 19.3654 30.5237 19.1245 30.3542ZM22.4325 0.381031C22.3238 0.413005 22.1857 0.422592 22.2915 0.534503C22.3973 0.649613 22.4061 0.49614 22.4325 0.381031ZM28.1437 9.84237H28.27V9.63455C28.1173 9.73367 28.1848 9.65372 28.1437 9.84237ZM9.74095 9.15173C9.74095 9.15173 9.80558 9.21887 9.86727 8.94388H9.74095V9.15173ZM12.3439 7.01261C12.5466 6.99023 12.4232 7.03498 12.5349 6.80476C12.3263 6.8847 12.4878 6.71524 12.3439 7.01261ZM26.3692 23.5308C26.4838 23.4285 26.3957 23.518 26.3663 23.4477C26.2488 23.3198 26.2576 23.5148 26.24 23.5852C26.4045 23.5052 26.2135 23.6683 26.3692 23.5308ZM18.3724 30.2135C18.4194 30.2583 18.3988 30.2551 18.4781 30.3031C18.625 30.3894 18.5046 30.3191 18.625 30.351C18.4811 30.14 18.6662 30.2391 18.3724 30.2135ZM9.29733 8.53141C9.44128 8.82878 9.27971 8.65612 9.48829 8.73926C9.34434 8.44189 9.50591 8.61455 9.29733 8.53141ZM9.2944 15.2237C9.30028 15.2046 9.29733 15.1278 9.29733 15.0895C9.12987 15.2909 9.16219 14.9935 9.2327 15.3644C9.27089 15.2973 9.25915 15.3452 9.29146 15.2205L9.2944 15.2237ZM19.9236 0.598457C20.0235 0.751936 20.0734 0.592055 20.0852 0.451366L19.9236 0.598457ZM26.6189 23.7227C26.5837 23.7323 26.4074 23.7674 26.4192 23.8026L26.4926 23.8602C26.6043 23.793 26.5749 23.8665 26.6189 23.7227ZM19.3859 30.1464C19.4212 30.0569 19.665 30.1592 19.3859 29.9386V30.1464ZM9.55292 9.01424V8.80639C9.4354 8.94388 9.29145 8.8064 9.55292 9.01424ZM28.0791 6.25161V6.04376C27.9615 6.18125 27.8176 6.04377 28.0791 6.25161ZM24.2716 27.3838C24.2246 27.4349 24.2951 27.5021 24.3715 27.4733C24.489 27.4253 24.3215 27.3326 24.2716 27.3838ZM12.2176 25.6571C12.1706 25.7083 12.2411 25.7754 12.3175 25.7435C12.435 25.6955 12.2646 25.6028 12.2176 25.6571ZM23.8867 26.8562C23.7751 26.837 23.8015 26.9809 23.8926 26.9681C23.9249 26.9649 24.0307 26.8818 23.8867 26.8562ZM9.92897 10.0758C9.81734 10.0566 9.84378 10.2005 9.93486 10.1877C9.96717 10.1845 10.0729 10.1014 9.92897 10.0758ZM10.4343 7.38351C10.3226 7.36432 10.3491 7.50822 10.4402 7.49543C10.4725 7.49223 10.5782 7.40909 10.4343 7.38351ZM9.61168 8.62733C9.50004 8.60815 9.52649 8.75205 9.61756 8.73926C9.64988 8.73606 9.75563 8.65291 9.61168 8.62733ZM27.6942 7.24602C27.5826 7.22683 27.609 7.37073 27.7001 7.35794C27.7324 7.35475 27.8382 7.2716 27.6942 7.24602ZM16.4628 28.3078C16.3511 28.2887 16.3776 28.4326 16.4686 28.4198C16.501 28.4166 16.6097 28.3334 16.4628 28.3078ZM16.0809 28.3078C15.9692 28.2887 15.9957 28.4326 16.0867 28.4198C16.119 28.4166 16.2248 28.3334 16.0809 28.3078ZM26.7423 7.31317C26.6307 7.29399 26.6571 7.43787 26.7482 7.42508C26.7805 7.42188 26.8863 7.33875 26.7423 7.31317ZM21.3543 29.4557C21.3543 29.4557 21.4865 29.5293 21.4189 29.1808L21.3543 29.4557ZM18.4341 29.6636C18.4341 29.6636 18.4106 29.67 18.4076 29.6732L18.3078 29.8011C18.5722 29.7307 18.5222 29.7371 18.4341 29.6636ZM18.1168 30.4214C18.4458 30.383 18.2314 30.5013 18.3078 30.2839C18.2725 30.3063 18.2255 30.3319 18.1843 30.3574L18.1168 30.4214ZM19.2919 30.2487C19.2919 30.2487 19.3125 30.2743 19.3213 30.2839C19.2919 29.929 19.383 30.1528 19.195 30.0761L19.2919 30.2487ZM9.67926 3.14366C9.60288 2.92623 9.81734 3.04452 9.48829 3.00615C9.50005 3.01574 9.51767 3.01895 9.52061 3.03814L9.67926 3.14366ZM27.5708 2.93582C27.5855 3.01575 27.7089 3.08609 27.656 2.9486C27.6325 2.89104 27.5414 2.75676 27.5708 2.93582ZM23.4461 1.07168C23.4608 1.15162 23.5871 1.22197 23.5313 1.08448C23.5078 1.02693 23.4167 0.892619 23.4461 1.07168ZM25.1588 1.34986C25.1735 1.4298 25.2999 1.50015 25.244 1.36266C25.2205 1.30511 25.1295 1.1708 25.1588 1.34986ZM20.3378 29.8682C20.52 29.7787 20.3878 29.9482 20.5288 29.7307C20.3496 29.7819 20.4348 29.7179 20.3378 29.8682ZM25.5408 25.9321C25.5584 26.0376 25.4937 25.9929 25.6201 25.9577C25.6671 25.9449 25.5084 25.7499 25.5408 25.9321ZM28.461 17.1614C28.4786 17.2669 28.414 17.2222 28.5403 17.187C28.5873 17.1742 28.4287 16.9792 28.461 17.1614ZM17.1032 0.381031C17.0709 0.566485 17.2296 0.368235 17.1855 0.355445C17.0592 0.320273 17.1238 0.275514 17.1032 0.381031ZM25.0971 25.3118C25.0971 25.4525 25.0854 25.3406 25.1647 25.331C25.3557 25.3118 25.1559 25.4685 25.1941 25.3118C25.2323 25.1551 25.0971 25.2287 25.0971 25.3118ZM10.3755 19.7866C10.3755 19.9272 10.3638 19.8153 10.446 19.8057C10.637 19.7866 10.4372 19.94 10.4754 19.7866C10.5136 19.6299 10.3785 19.7066 10.3785 19.7866H10.3755ZM10.1875 19.7866C10.1875 19.9272 10.1758 19.8153 10.258 19.8057C10.449 19.7866 10.2492 19.94 10.2874 19.7866C10.3256 19.6299 10.1875 19.7066 10.1875 19.7866ZM22.6852 28.1416C22.6852 28.2823 22.6734 28.1704 22.7527 28.1608C22.9437 28.1416 22.7439 28.2951 22.7821 28.1416C22.8203 27.9849 22.6852 28.0616 22.6852 28.1416ZM21.9243 28.5573C21.9243 28.6979 21.9125 28.586 21.9948 28.5764C22.1857 28.5573 21.9859 28.7107 22.0241 28.5573C22.0623 28.4006 21.9272 28.4773 21.9272 28.5573H21.9243ZM10.2492 18.2678C10.2492 18.4084 10.2375 18.2965 10.3197 18.2869L10.3491 18.2678C10.3873 18.1111 10.2521 18.1878 10.2521 18.2678H10.2492ZM9.23564 14.3317C9.23564 14.4723 9.22389 14.3604 9.30321 14.3508C9.49417 14.3317 9.29439 14.4851 9.33258 14.3317C9.37077 14.175 9.2327 14.2517 9.2327 14.3317H9.23564ZM19.7679 30.4214C19.7679 30.5621 19.7561 30.4502 19.8354 30.4406L19.8648 30.4214C19.903 30.2647 19.7679 30.3415 19.7679 30.4214ZM9.48829 14.2613C9.5118 14.4052 9.43248 14.2805 9.55 14.2869C9.63813 14.2933 9.45598 14.0663 9.48829 14.2613ZM9.61462 15.0223C9.63812 15.1662 9.55881 15.0415 9.67632 15.0479C9.76446 15.0543 9.5823 14.8305 9.61462 15.0223ZM23.4461 0.796699C23.4461 0.819082 23.5166 0.81268 23.5225 0.809482C23.5371 0.803087 23.6341 0.969357 23.5489 0.790298C23.5489 0.787101 23.4314 0.662405 23.4461 0.796699ZM9.37371 18.7378C9.37371 18.7378 9.30026 18.7282 9.29733 18.7506C9.28264 18.8721 9.29733 18.7953 9.39134 18.7666L9.40016 18.7538C9.48242 18.5747 9.3884 18.741 9.37371 18.7346V18.7378ZM25.2881 25.5196C25.1559 25.4493 25.2323 25.4685 25.0354 25.4493L25.2881 25.5196ZM20.2732 0.106052C20.1939 0.192384 20.3466 0.198779 20.3026 0.106052C20.3026 0.106052 20.2937 0.106052 20.2908 0.106052C20.2908 0.106052 20.2761 0.102854 20.2732 0.106052ZM20.9166 28.634L20.9371 28.6212C20.9489 28.6596 20.9313 28.6468 20.9166 28.634ZM17.4851 4.87989H17.5116L17.4881 4.88627V4.87989H17.4851ZM14.9762 1.15482C14.468 1.27952 13.9744 1.4266 13.5043 1.59607C13.5043 1.58968 13.5014 1.58647 13.4897 1.58647C13.4897 1.58647 13.4897 1.58008 13.4867 1.57369C13.4867 1.56729 13.4867 1.5609 13.4867 1.5545C13.4897 1.5513 13.5043 1.5545 13.5043 1.5545C13.5043 1.5545 13.5132 1.5545 13.5161 1.5577L13.5102 1.58009L13.4955 1.59927C13.1195 1.73357 12.7581 1.88384 12.4085 2.04691V1.97017H12.2176C12.2381 2.0565 12.2411 2.09808 12.2528 2.12046C11.5037 2.48498 10.8309 2.91662 10.2698 3.40584L10.261 3.99418C10.2433 3.99099 10.2198 3.98459 10.1846 3.975C10.2433 4.06773 10.2374 4.08051 10.258 4.0837C10.2463 5.02376 10.2433 6.03738 10.2345 6.91349C10.4901 6.80797 10.7398 6.70564 10.9866 6.60652L10.9925 6.61292C11.0777 6.70565 11.0689 6.66727 11.0982 6.56495C13.2517 5.71442 15.2024 5.15806 17.4176 4.88947V4.91186L16.9093 5.10052V5.08134C16.7595 5.1293 16.7977 5.08133 16.7566 5.15807C16.0926 5.41067 15.4698 5.66007 14.8851 5.90627C14.8822 5.89029 14.8616 5.8743 14.8117 5.8647C14.7294 5.85191 14.7206 5.92547 14.7588 5.96064C14.1125 6.23563 13.5132 6.51059 12.9491 6.78238C12.8991 6.74401 12.8786 6.776 12.8668 6.82077C11.8768 7.30039 11.0042 7.7736 10.2051 8.24043L10.1846 9.35317C10.07 9.34038 10.0524 9.32119 9.92897 9.28922L9.98185 9.50664L10.0553 9.56419C10.0553 9.56419 10.0847 9.53862 10.0906 9.53223L10.1846 9.42671L10.1611 10.7601C10.1317 10.7664 10.1229 10.7665 10.0582 10.808C10.1346 10.9199 10.0964 10.9135 10.1581 10.9263C10.0788 15.6298 10.1346 19.7066 11.7093 22.9968C12.0971 23.8026 12.5819 24.5604 13.1871 25.2926L13.1665 25.379C13.1929 25.3662 13.2164 25.3566 13.237 25.3502C13.3163 25.4461 13.3986 25.542 13.4838 25.6348C13.4544 25.6443 13.4221 25.6827 13.4221 25.7243C13.4221 25.865 13.4103 25.7531 13.4926 25.7435L13.522 25.7243C13.522 25.7243 13.5279 25.6955 13.5279 25.6859C13.6777 25.8522 13.8334 26.0185 13.995 26.1815V26.3478C14.0126 26.3062 14.0743 26.3062 14.1066 26.2934C15.1554 27.3358 16.4775 28.3494 18.1285 29.4078L18.1197 29.4557L18.1697 29.4334C18.4194 29.5932 18.6779 29.7563 18.9453 29.9194C19.2244 29.7467 19.4946 29.5804 19.7561 29.411C19.762 29.4525 19.7649 29.4909 19.7679 29.5229H19.8942C19.8766 29.4366 19.8648 29.3822 19.8531 29.347C20.2232 29.1072 20.5758 28.8706 20.9136 28.6372L20.9606 28.6979C21.0546 28.8226 20.9724 28.7267 21.037 28.6947C21.0576 28.6308 21.1898 28.7139 20.9753 28.5924C21.8097 28.0073 22.5471 27.4285 23.1934 26.8466C23.2992 26.8786 23.2551 26.8722 23.3844 26.9649C23.3432 26.7699 23.3315 26.7827 23.3491 26.7027L23.4431 26.6164C23.4608 26.642 23.5048 26.6548 23.5489 26.6388C23.6253 26.61 23.5783 26.5556 23.5254 26.5396C24.442 25.6699 25.1647 24.781 25.7288 23.8314L25.7347 23.857C25.8698 23.7482 25.9374 23.7067 25.8199 23.6747C25.9462 23.4509 26.0666 23.2238 26.1753 22.9936C26.569 22.1719 26.8687 21.299 27.0949 20.3781L27.1948 20.4708C27.1595 20.3237 27.1742 20.3077 27.1154 20.2981C27.7383 17.7082 27.7853 14.7537 27.7383 11.4827C27.7941 11.4763 27.7441 11.4571 27.8293 11.2844C27.7882 11.2972 27.7588 11.3036 27.7353 11.31C27.7206 10.3124 27.6971 9.28602 27.6795 8.23085C27.1595 7.92709 26.6072 7.62013 26.0138 7.30997C26.1166 7.30677 26.2488 7.27801 26.3075 7.27801V7.20765C26.1371 7.20765 26.1313 7.23964 25.9902 7.27801C26.0578 7.12772 26.0079 7.25242 26.0549 7.07016C25.9521 7.1501 25.9021 7.20765 25.8904 7.24282C24.3862 6.46583 22.6058 5.67285 20.3819 4.86389C21.4983 4.99499 22.5441 5.19644 23.5812 5.47462V5.54816C23.5812 5.54816 23.6194 5.58333 23.6605 5.4938C23.9749 5.57694 24.2892 5.66966 24.6006 5.76878C24.6388 5.8679 24.6594 6.02458 24.6594 6.16847H24.7211V5.80395C25.2793 5.97981 25.8404 6.17807 26.4133 6.3987L26.4339 6.44345L26.4485 6.41148C26.8452 6.56176 27.2447 6.72484 27.656 6.8975C27.6443 5.80396 27.6413 4.49938 27.6208 3.38665C27.3035 3.11167 26.9539 2.85588 26.572 2.61927C26.7188 2.52974 26.6571 2.64165 26.9421 2.5777C26.8922 2.53933 26.9215 2.53294 26.8217 2.49776C26.713 2.4562 26.7717 2.47857 26.6895 2.46898C26.4339 2.437 26.757 2.52014 26.572 2.46898C26.3516 2.40823 26.5102 2.4434 26.4339 2.37306L26.3604 2.43061C26.3604 2.45299 26.3957 2.4594 26.3957 2.48178L26.4015 2.52015C26.2811 2.4498 26.1606 2.37945 26.0373 2.3123C26.0696 2.30591 26.0813 2.24516 26.1166 2.09808C25.9726 2.11087 25.8904 2.09169 25.8639 2.22278C25.1295 1.84228 24.3127 1.52893 23.4461 1.28272C23.4549 1.23476 23.5078 1.28911 23.402 1.19638C23.2904 1.10046 23.4108 1.15802 23.3256 1.19959C23.3109 1.24115 23.2522 1.21876 23.2698 1.23155C23.1758 1.20597 23.0847 1.1836 22.9907 1.15802L23.0083 1.12923L22.8174 0.783917C22.7116 0.918211 22.6499 1.00773 22.6146 1.07168C21.5012 0.822275 20.3554 0.68798 19.2038 0.671993C19.2038 0.646413 19.2009 0.617643 19.2009 0.579273H19.1362V0.671993C17.7319 0.656005 16.3276 0.812692 14.9792 1.14203L14.9762 1.15482Z" fill="#BC2A26"/>
<path d="M20.7423 8.52742C20.7277 8.47946 20.7423 8.44749 20.7776 8.4347C20.8481 8.40912 20.995 8.45069 21.0538 8.61056C20.9979 8.54661 20.8569 8.47305 20.8041 8.55619C20.8804 8.57537 20.854 8.47626 20.9098 8.66171C20.6013 8.63293 20.8041 8.59776 20.5308 8.66171C20.5426 8.64892 20.5925 8.59137 20.6072 8.56579L20.6572 8.45389C20.6924 8.48586 20.7188 8.50823 20.7423 8.52422M19.0296 8.39631C19.1735 8.29719 19.3204 8.28442 19.3763 8.29401C19.4967 8.3132 19.5466 8.4283 19.7024 8.40912C19.6789 8.49545 19.5055 8.79921 19.2734 8.54661C19.2117 8.47946 19.1206 8.40912 19.0296 8.40912L19.0355 8.50184C19.0355 8.50184 19.0355 8.53382 19.0355 8.54661L19.2 8.86956C19.0325 8.95909 19.1324 8.9335 18.8827 8.93989C18.8004 8.56259 18.9444 8.46027 18.9473 8.45707C18.492 8.35155 19.0208 8.46348 18.5654 8.59458C18.4361 7.98386 18.6653 8.62335 18.5654 8.11175C18.8416 8.23646 18.5448 8.13093 18.7769 8.08297C18.9032 8.05739 18.9091 8.10536 19.1353 8.11175C19.0443 8.25884 19.0266 8.28121 19.0296 8.39631ZM18.9444 6.77201L19.3175 7.25483V7.98705C19.1882 8.00303 19.0766 8.02542 18.9444 8.02542V6.77201ZM21.2477 9.74246C21.0215 9.61776 21.1272 9.29162 20.71 9.38755C20.5132 9.43231 20.3017 9.55062 20.2459 9.65294C20.522 9.54423 20.7864 9.53782 20.9333 9.85757C21.092 10.1997 21.4063 10.1262 21.5708 9.95031C21.3593 9.78723 21.4974 9.90235 21.6061 9.77125V9.90554C21.6707 9.81601 21.6972 9.70729 21.6502 9.61776C21.6502 9.61776 21.4181 9.84159 21.2447 9.74566L21.2477 9.74246ZM18.9444 8.38993L18.962 8.40912C18.962 8.40912 18.9356 8.39633 18.9444 8.38993ZM18.6565 8.48585C18.6565 8.48585 18.6388 8.51463 18.6271 8.52742C18.7064 8.20767 18.727 8.46667 18.7534 8.11175C18.8915 8.1853 18.7769 8.13413 18.9444 8.18209C18.8504 8.56259 18.9503 8.25563 18.7769 8.36435C18.724 8.39952 18.6623 8.50184 18.6535 8.48585H18.6565ZM18.9444 8.8024L19.0443 8.79282C19.1265 8.97508 19.0325 8.80881 19.0178 8.8152C19.012 8.8152 18.9444 8.82478 18.9414 8.8024H18.9444ZM24.8906 12.3452L24.9082 12.3228C24.9082 12.3228 24.8906 12.342 24.8906 12.3452ZM24.9523 12.7609L24.9729 12.7417C24.9729 12.7417 24.9552 12.7609 24.9523 12.7609ZM23.8947 13.3492C23.9652 13.346 23.7948 13.5635 23.83 13.362C23.8535 13.2181 23.7654 13.3588 23.8947 13.3492ZM22.6255 10.3212C22.5873 9.82879 22.5051 9.98227 22.7519 9.83838C22.6432 10.3915 22.9281 9.69771 22.7842 10.1134L22.7195 10.2029C22.6373 10.3276 22.8517 10.1421 22.6255 10.3212ZM22.9663 9.97587C22.9046 9.96628 23.0045 9.80001 23.0045 9.97587C23.0045 10.1677 22.9663 9.97587 22.9663 9.97587ZM24.7173 16.1918C24.8524 16.131 24.8612 16.1822 25.0992 16.1214C25.0581 16.227 25.0258 16.5083 25.0992 16.6746C24.8994 16.5915 25.0081 16.8249 24.9729 16.4668L24.5733 16.7801C24.259 16.8761 24.2325 16.5787 24.212 16.5339C24.3794 16.4476 24.2795 16.47 24.5293 16.4668C24.3412 16.0799 24.3148 15.9456 24.6556 15.9136C24.6144 15.8049 24.6115 15.7409 24.6144 15.5971C24.6203 15.3221 24.6938 15.3253 24.7202 15.2933C24.638 15.7218 24.8113 15.4468 24.7261 15.8625C24.682 16.0863 24.8348 15.8912 24.7202 16.1886L24.7173 16.1918ZM23.0868 23.4884C23.1338 23.5012 22.9751 23.6963 23.0074 23.514C23.0251 23.4085 22.9604 23.4533 23.0868 23.4884ZM19.197 1.41302L19.2147 1.43221C19.2147 1.43221 19.1882 1.41942 19.197 1.41302ZM19.1353 1.62087L19.153 1.64005C19.153 1.64005 19.1265 1.62726 19.1353 1.62087ZM17.9279 1.6912L17.9484 1.71038C17.9484 1.71038 17.922 1.6976 17.9279 1.6912ZM21.4181 13.4292C21.4181 13.2885 21.4063 13.4004 21.4856 13.41C21.6766 13.4292 21.4768 13.2725 21.515 13.4292C21.5532 13.5858 21.4181 13.5091 21.4181 13.4292ZM16.6323 6.31477C16.5853 6.22204 16.738 6.23163 16.6617 6.31477H16.6323ZM18.6535 15.4404C18.7622 15.6035 18.5713 15.4532 18.5625 15.4308C18.5066 15.2645 18.633 15.4116 18.6535 15.4404ZM18.3744 19.9904C18.3744 19.9904 18.3921 20.0096 18.395 20.0096L18.3744 19.9904ZM23.83 10.4619C23.6626 10.302 23.8212 10.5258 23.83 10.1166C23.5274 10.1965 23.7301 10.1645 23.6391 10.1166C23.7536 10.0558 23.7184 10.0622 23.8947 10.0494C23.8741 9.76485 23.7478 9.84799 23.9564 9.77445C23.9799 10.0942 23.8888 9.89595 24.0827 10.0494C24.068 9.86397 24.0533 9.86077 24.021 9.70409L24.1179 9.87357C24.209 10.0398 24.1091 9.97589 24.2737 10.0494C24.2619 10.0622 24.2384 10.059 24.2355 10.0814C24.2296 10.1038 24.2061 10.107 24.2002 10.1134C23.9975 10.3436 24.2531 9.93431 24.1591 10.1357C24.1532 10.1453 24.1473 10.1581 24.1415 10.1741C24.0768 10.3084 24.0945 10.1773 24.1503 10.3276L23.9711 10.4779C23.9505 10.4779 23.9211 10.3756 23.833 10.4651L23.83 10.4619ZM24.0092 10.1517C23.8888 10.1997 23.9593 10.1102 24.0269 10.0974C24.0474 10.0942 24.068 10.0974 24.0827 10.1134C24.1885 10.2285 24.0122 10.1517 24.0092 10.1517ZM22.6255 12.6714C22.4816 12.6714 22.5521 12.649 22.3729 12.601C22.4522 12.4411 22.4816 12.422 22.4992 12.1853C22.6755 12.2013 22.8987 12.374 23.0074 12.5307C22.6138 12.5403 22.7519 12.6682 22.6255 12.6682V12.6714ZM19.7934 14.6314C19.7934 14.6314 19.8052 14.4268 20.1489 14.6058L20.0872 14.9512C19.9168 14.9959 19.9668 15.0215 19.8316 15.0215C19.6965 15.0215 19.7053 14.7753 19.7934 14.6346V14.6314ZM18.4185 9.92792L18.4391 9.90874C18.4391 9.90874 18.4214 9.92792 18.4185 9.92792ZM14.6199 22.1039C14.6199 22.1039 14.5993 22.1167 14.5934 22.1199L14.3114 22.4077C14.2556 22.1231 14.2967 22.3821 14.3026 22.2254C14.3084 22.0592 14.3525 22.283 14.2614 22.1199C14.2438 22.088 14.0587 22.2127 14.2614 22.0208C14.3026 21.9824 14.4377 21.9249 14.5023 21.9249C14.7462 21.9249 14.5259 21.9025 14.6933 21.9952L14.6199 22.1071V22.1039ZM14.4406 22.1295C14.3349 22.2446 14.4083 22.0528 14.4054 22.0496C14.3496 21.8801 14.5053 22.0592 14.4406 22.1295ZM17.2933 10.7337C17.4578 10.4683 17.3491 10.5163 17.5489 10.4587C17.8427 11.0278 17.2404 10.804 17.2316 10.804C17.2463 10.788 17.2845 10.7433 17.2933 10.7337ZM18.1188 16.5371C18.2334 16.6011 18.1982 16.5915 18.3715 16.6075C18.1835 16.9112 18.2599 16.6394 18.3186 16.9464C18.3568 17.1446 18.3921 17.135 18.1188 17.1606C18.1658 16.9368 18.1835 16.7098 18.1188 16.5403V16.5371ZM21.3564 6.3851C21.233 6.36912 21.3358 6.62492 21.1037 6.24761L21.3564 6.3851ZM21.4827 18.8169C21.23 18.7945 21.277 18.7881 21.1654 18.6091C21.5179 18.398 21.4886 18.753 21.6736 18.5387C21.5385 19.0951 21.4974 18.3341 21.4827 18.8137V18.8169ZM21.4621 18.6283C21.4621 18.6283 21.4886 18.6155 21.4798 18.6091L21.4621 18.6283ZM23.6391 12.8089C23.4892 12.7001 23.4452 12.7001 23.4951 12.5211C23.5509 12.31 23.6009 12.3036 23.7683 12.2557C23.7096 12.3868 23.6567 12.6234 23.642 12.8089H23.6391ZM21.0391 25.7906C20.9127 25.2055 21.183 25.4421 21.3564 25.7203C21.2124 25.7587 21.2095 25.7746 21.0391 25.7906ZM17.8868 10.5067C17.8897 10.529 17.9044 10.5418 17.9102 10.5514C18.0013 10.7081 17.9484 10.6889 18.1188 10.7369L17.9308 10.8776C17.9308 10.8776 17.8809 10.9287 17.8662 10.9447C17.8221 10.7657 17.8897 10.868 17.7399 10.8072V10.5994C17.9044 10.5514 17.8104 10.625 17.8662 10.4619C17.875 10.4747 17.8838 10.4843 17.8897 10.5067H17.8868ZM21.0861 23.0184C21.0861 23.0184 21.0185 23.0664 20.9745 23.0984C20.9598 22.9129 20.9451 22.9097 20.9098 22.753C21.1595 22.7466 21.0596 22.7722 21.2271 22.6827C21.1537 23.0248 21.0538 22.9225 21.3534 22.9577C21.2007 23.1879 21.3064 23.0408 21.1801 23.0216C21.1008 23.0088 21.1742 22.9832 21.0832 23.0152L21.0861 23.0184ZM21.0626 22.8905C21.0009 22.8713 21.1008 22.7178 21.1008 22.8905C21.1008 23.0856 21.0626 22.8905 21.0626 22.8905ZM18.8181 18.8841C18.6506 18.8361 18.7652 18.8905 18.6271 18.8137C18.6271 18.3597 18.6036 18.6634 18.6917 18.4684C18.9885 18.5547 18.8474 18.5164 18.8239 18.6762V18.8617C18.8239 18.8617 18.8239 18.8777 18.8181 18.8841ZM20.3751 14.4907C20.237 14.4588 20.3222 14.2733 20.3399 14.0527C20.381 14.1038 20.3957 14.0591 20.4221 14.1646C20.4544 14.2829 20.4486 14.2062 20.4016 14.3277C20.6219 14.2765 20.5896 14.1966 20.6542 14.4652C20.6425 14.4524 20.6278 14.4108 20.6248 14.4268C20.6013 14.5035 20.6483 14.3245 20.5161 14.3948C20.3369 14.4843 20.6542 14.5515 20.3722 14.4907H20.3751ZM13.9941 22.753C14.094 22.6987 13.8766 22.6827 14.185 22.753L13.9941 22.6155C14.0764 22.4333 14.0528 22.542 14.0587 22.2702L14.185 22.6155C14.4641 22.4812 14.1792 22.9832 13.9941 22.753ZM14.946 20.1279H15.2633C15.2486 20.3165 15.2632 20.3773 15.1222 20.3869C14.9695 20.3965 14.9753 20.1982 14.946 20.1279ZM24.4 17.5028C24.2061 17.3493 24.2972 17.5475 24.2737 17.2278C24.3618 17.1766 24.3941 17.2565 24.4 16.9496C24.5557 17.0743 24.5293 17.1191 24.4587 17.2981C24.4206 17.3908 24.4323 17.1766 24.4 17.5028ZM24.2502 18.5132L24.1473 18.3341C24.1473 18.3341 24.1708 18.3149 24.1738 18.3245L24.4029 18.0591L24.3383 18.6123C24.0915 18.5227 24.2942 18.6283 24.2502 18.5164V18.5132ZM16.9143 11.2197H17.2316C17.2228 11.6705 17.2551 11.3732 17.0641 11.4499L16.976 11.4979C16.9584 11.2836 16.976 11.3668 16.9143 11.2197ZM19.1353 6.73044H19.009C18.9561 6.48743 18.9503 6.56098 19.009 6.31477L19.2117 6.50661C19.15 6.61532 19.1647 6.59934 19.1353 6.72724V6.73044ZM16.8497 15.3636C17.117 15.4404 16.9613 15.4084 17.0407 15.7793C16.8379 15.7314 16.9408 15.709 16.788 15.7793C16.8203 15.677 16.9437 15.5939 16.8526 15.3636H16.8497ZM22.9428 14.2573L22.8782 14.6026C22.793 14.5515 22.8077 14.5643 22.6872 14.5323V14.3245C22.884 14.3053 22.8077 14.3245 22.9399 14.2541L22.9428 14.2573ZM22.4346 13.637C22.4963 13.6626 22.4816 13.7329 22.6255 13.5667C22.5521 13.9536 22.6461 13.6818 22.6402 13.8065C22.6402 13.8448 22.7607 13.9088 22.4816 13.9376C22.3993 13.9472 22.4551 13.9823 22.411 13.912C22.2495 13.6562 22.5433 14.1358 22.4346 13.6338V13.637ZM24.6556 15.2262C24.8642 14.884 24.6996 15.2517 24.6556 14.8105C24.8377 15.0183 24.6585 14.7913 25.0346 14.8808C24.917 14.9576 24.8407 14.916 24.8377 14.9799L24.823 15.0887C24.7173 15.3509 24.8377 15.1334 24.6556 15.223V15.2262ZM21.6825 22.3278L21.421 22.4173C21.421 22.3949 21.4533 22.2638 21.4533 22.2478C21.4474 22.1167 21.4621 22.2126 21.4181 22.1295L21.4709 22.0496L21.6825 22.3278ZM16.7234 11.0119C16.3914 11.0119 16.412 11.0886 16.3414 10.804L16.7851 11.0119C16.597 11.2964 16.7263 11.0598 16.7204 11.0119H16.7234ZM17.2316 26.8266C17.2434 26.6795 17.2316 26.6284 17.2551 26.606C17.2757 26.5868 17.3197 26.5804 17.4226 26.5516C17.3932 26.9193 17.4666 26.7115 17.2316 26.8298V26.8266ZM23.6391 14.1902C23.7448 14.2701 23.7654 14.1998 23.7654 14.398C23.7654 14.5962 23.739 14.5259 23.6391 14.6058C23.6567 14.3756 23.7066 14.366 23.6391 14.1902ZM19.8316 15.9168L20.0843 15.9935C19.8522 16.3325 19.908 16.0735 19.8316 15.9168ZM22.2994 8.52422L22.2436 8.38673C22.364 8.43469 22.367 8.4315 22.411 8.50824C22.4287 8.54021 22.4551 8.58817 22.4992 8.66171C22.1672 8.62974 22.3934 8.73206 22.2994 8.52102V8.52422ZM18.2481 16.0543C18.4126 16.1374 18.3715 16.1023 18.5654 16.0543C18.442 16.2365 18.3245 16.3581 18.2481 16.0543ZM21.4181 20.1982H21.6707V20.3357C21.3769 20.3101 21.5591 20.4093 21.4181 20.1982ZM13.6151 18.6794V18.8873H13.4888V18.6794H13.6151ZM14.2996 13.9504C14.4965 14.0015 14.3848 13.9983 14.4377 14.0495C14.1586 14.1134 14.3261 14.1934 14.185 13.9791C14.2849 13.9344 14.2056 13.9248 14.2996 13.9472V13.9504ZM24.4 9.90874L24.3265 9.85119L24.5204 9.69131L24.5293 9.97587C24.4 9.82239 24.447 9.88955 24.4029 9.90554L24.4 9.90874ZM22.7724 11.613C22.7724 11.613 22.6285 11.6066 22.5609 11.4275C22.6725 11.4851 22.7665 11.5075 22.8782 11.565L22.8253 11.645C22.8047 11.645 22.7783 11.597 22.7724 11.613ZM21.9704 23.351C22.0144 23.2582 22.0086 23.287 22.0526 23.2358V23.5108H21.9263C21.9557 23.3797 21.8881 23.5108 21.9704 23.351ZM18.8827 9.08058L18.8122 9.35556C18.7446 9.29801 18.6741 9.33319 18.7182 9.20849C18.7564 9.10297 18.7564 9.22447 18.8827 9.08058ZM19.009 9.5634C19.059 9.35557 19.009 9.41311 19.2 9.35556C19.0883 9.58578 19.2117 9.54102 19.009 9.5634ZM20.9745 13.8448C21.0596 13.7169 20.9921 13.7521 21.1272 13.7393L21.2917 13.7777C21.1243 13.864 21.2242 13.8416 20.9745 13.8448ZM24.6556 11.1526C24.4999 11.0822 24.5293 11.29 24.5293 10.8776H24.5939C24.5939 11.0534 24.6086 11.0438 24.6585 11.1526H24.6556ZM17.1141 10.2413L16.8585 10.4715C16.8938 10.3276 16.8614 10.4011 16.9173 10.3276C16.9349 10.302 16.9819 10.2669 17.0377 10.1837L17.1112 10.2413H17.1141ZM20.2282 13.8289L20.0226 13.8448V13.637L20.2282 13.8289ZM23.5127 9.70089L23.83 9.49307V9.63056C23.6596 9.64655 23.6567 9.66252 23.5127 9.70089ZM21.0391 19.0919C20.9539 18.9992 20.9304 19.028 21.1654 18.9544C21.1478 19.0248 21.1566 19.223 21.0391 19.0919ZM22.7195 22.51C22.7489 22.478 22.8106 22.4109 22.8135 22.4077V22.6155H22.6226C22.6226 22.6155 22.7048 22.526 22.7166 22.5132L22.7195 22.51ZM19.6436 10.0462C19.6847 9.85758 19.6171 9.9375 19.7699 9.83838V10.0462H19.6436ZM22.1819 13.9823C22.223 13.7937 22.1555 13.8736 22.3082 13.7745V13.9823H22.1819ZM25.0992 15.2262V15.0183H25.2255C25.1638 15.2933 25.1021 15.2166 25.0992 15.2262ZM16.0888 13.7073V13.4995H16.2151C16.1534 13.7777 16.0917 13.701 16.0888 13.7073ZM23.1308 14.8808C23.2248 14.7369 23.2219 14.8041 23.3218 14.7433C23.3629 14.7625 23.5186 14.8456 23.1308 14.8808ZM16.6617 10.5994H16.8526V10.7369C16.6675 10.6889 16.7615 10.7465 16.6617 10.5994ZM15.8978 14.1198H15.7715V13.912C15.9125 14.0175 15.8508 13.9248 15.8978 14.1198ZM15.1369 23.5812H14.946C15.0458 23.4245 14.9577 23.5012 15.1369 23.4437V23.5812ZM22.7519 12.876C22.7871 12.876 22.8547 12.876 22.8752 12.8792C22.9898 12.9144 22.9428 12.8984 23.0074 12.9431C22.7283 13.0071 22.8958 13.087 22.7548 12.8728L22.7519 12.876ZM20.0872 15.2262C20.1225 15.2262 20.19 15.2262 20.2106 15.2294C20.3252 15.2645 20.2782 15.2485 20.3399 15.2933C20.0608 15.3572 20.2282 15.4372 20.0872 15.223V15.2262ZM19.7053 16.2717L19.579 16.1918C19.7347 16.1214 19.6289 16.1438 19.8316 16.1918L19.7817 16.2621C19.6759 16.3101 19.7905 16.2941 19.7053 16.2717ZM22.4346 11.8432H22.5609V12.0511C22.317 11.8656 22.5344 12.051 22.4346 11.8432ZM20.9745 14.6058C20.8276 14.8233 21.0185 14.7082 20.7218 14.7433C20.7688 14.6986 20.7394 14.6986 20.8276 14.6538C20.9568 14.5898 20.8569 14.6346 20.9745 14.6058ZM23.2601 22.6155C23.4129 22.7594 23.2013 22.8106 23.0691 22.6155C23.3747 22.6955 23.169 22.6635 23.2601 22.6155ZM13.762 10.4395C13.8208 10.5802 13.7796 10.4715 13.8061 10.5994C13.5975 10.4331 13.7179 10.6506 13.6797 10.3244C13.7209 10.3756 13.7209 10.3436 13.762 10.4395ZM22.4022 14.7753L22.3376 14.705C22.3376 14.705 22.3141 14.6826 22.3053 14.6698L22.5051 14.657L22.4404 14.8169C22.4199 14.8169 22.4022 14.7593 22.3993 14.7721L22.4022 14.7753ZM20.525 15.3572C20.4956 15.386 20.4221 15.4052 20.4016 15.4308C20.4779 15.2038 20.3193 15.3796 20.5925 15.223C20.5426 15.37 20.6101 15.2709 20.525 15.354V15.3572ZM18.583 15.0567C18.7035 15.0503 18.6153 15.0663 18.6888 15.0183L18.5625 15.2262C18.5566 15.207 18.6007 15.1622 18.4361 15.0183C18.4479 15.0183 18.5683 15.0567 18.583 15.0567ZM24.591 14.5355H24.7819C24.6409 14.7497 24.7349 14.7497 24.591 14.5355ZM13.9324 10.3212V10.1134C13.9823 10.1518 14.0146 10.1805 14.0352 10.2029C14.1322 10.3052 13.9618 10.2477 13.9324 10.3212ZM14.6287 10.0462V9.83838C14.6786 9.87995 14.7139 9.90874 14.7344 9.93112C14.8255 10.027 14.658 9.97269 14.6287 10.0462ZM17.2933 10.2541V10.0462C17.5724 10.2669 17.3286 10.1645 17.2933 10.2541ZM17.0407 25.1C17.07 24.7387 16.979 24.9753 17.167 24.8921C17.117 25.0009 17.1259 25.0584 17.0407 25.1ZM13.5123 9.93432C13.4829 9.97589 13.4447 10.0238 13.4242 10.0462L13.3507 9.98867L13.5446 9.8288C13.4535 10.1294 13.6504 9.72649 13.5152 9.93432H13.5123ZM24.3383 22.0624C24.3882 22.008 24.5557 22.1039 24.4382 22.1487C24.3618 22.1807 24.2883 22.1135 24.3383 22.0624ZM23.7654 15.2262C23.786 15.2038 23.8271 15.207 23.8594 15.223C23.9035 15.2421 23.9358 15.2869 23.8653 15.3157C23.7889 15.3445 23.7184 15.2805 23.7654 15.2294V15.2262ZM14.6933 19.7826C14.708 19.7666 14.7344 19.7634 14.7579 19.7698C14.8167 19.7826 14.8754 19.8369 14.7932 19.8721C14.7168 19.9009 14.6463 19.8369 14.6933 19.7858V19.7826ZM21.4181 22.4748C21.468 22.4205 21.6355 22.5164 21.5179 22.5612C21.4416 22.59 21.371 22.526 21.4181 22.4748ZM14.2497 19.2294C14.2673 19.2102 14.2996 19.2102 14.329 19.2198C14.3819 19.2358 14.426 19.287 14.3496 19.3157C14.2732 19.3477 14.2027 19.2806 14.2497 19.2294ZM15.2016 11.565C15.2515 11.5107 15.4189 11.6066 15.3014 11.6514C15.2721 11.6642 15.2427 11.661 15.2221 11.6514C15.1869 11.6354 15.1722 11.597 15.2016 11.565ZM19.7699 8.31958C19.8199 8.26522 19.9873 8.36115 19.8698 8.40592C19.7934 8.43469 19.7229 8.37074 19.7699 8.31958ZM18.7534 3.69283C18.774 3.56493 18.8327 3.58412 18.9444 3.55534C18.8445 3.70242 18.9385 3.64487 18.7534 3.69283ZM24.0151 14.4236C24.1591 14.4492 24.0533 14.5323 24.021 14.5355C23.9299 14.5483 23.9035 14.4044 24.0151 14.4236ZM24.3324 14.0079C24.4764 14.0335 24.3706 14.1166 24.3383 14.1198C24.2472 14.1326 24.2208 13.9887 24.3324 14.0079ZM16.4002 18.7722C16.5442 18.7977 16.4384 18.8777 16.4061 18.8841C16.315 18.8969 16.2886 18.753 16.4002 18.7722ZM15.2603 17.944C15.4043 17.9696 15.2985 18.0527 15.2662 18.0559C15.2339 18.0591 15.2104 18.0431 15.1957 18.024C15.1751 17.9856 15.1898 17.9312 15.2603 17.944ZM22.6843 8.34516C22.8282 8.37074 22.7225 8.45387 22.6902 8.45707C22.6461 8.46346 22.6167 8.43149 22.6108 8.39952C22.6049 8.36754 22.6255 8.33237 22.6843 8.34196V8.34516ZM18.3686 18.705C18.5125 18.7306 18.4068 18.8137 18.3744 18.8169C18.2834 18.8297 18.2569 18.6858 18.3686 18.705ZM15.2016 21.5796L15.2867 21.6243C15.3954 21.7043 15.3367 21.6627 15.3925 21.717C14.9988 21.6819 15.2926 21.6883 15.2016 21.5796ZM21.4827 24.4093L21.5679 24.4573C21.6766 24.5372 21.6178 24.4957 21.6736 24.55C21.28 24.5148 21.5738 24.5212 21.4827 24.4125V24.4093ZM16.788 19.5076C16.8321 19.3061 16.7792 19.4085 16.9143 19.2997C16.8526 19.5747 16.7909 19.498 16.788 19.5076ZM23.2601 23.6515C23.2718 23.5908 23.2777 23.5588 23.2807 23.5396C23.2895 23.4948 23.2924 23.5204 23.3864 23.4469C23.3247 23.7219 23.263 23.6483 23.2601 23.6547V23.6515ZM15.0106 21.1639C15.0547 20.9624 15.0018 21.0648 15.1369 20.956C15.0752 21.231 15.0135 21.1575 15.0106 21.1639ZM21.5444 18.4716C21.5884 18.2701 21.5356 18.3725 21.6707 18.2638C21.609 18.5387 21.5473 18.4652 21.5444 18.4716ZM19.8962 16.3996C19.9403 16.1982 19.8874 16.3005 20.0226 16.1918C19.9609 16.4668 19.8992 16.39 19.8962 16.3996ZM19.5143 16.1918C19.388 16.1534 19.4879 16.2813 19.3851 16.1374C19.2 15.8816 19.5231 16.3325 19.388 16.0543C19.4526 16.0287 19.3527 15.8624 19.5143 16.1918ZM19.6436 15.9168C19.6436 15.9168 19.7259 15.8273 19.7376 15.8145C19.764 15.7857 19.8287 15.7154 19.8316 15.7122C19.7817 15.92 19.8316 15.8624 19.6407 15.92L19.6436 15.9168ZM19.388 6.31795C19.5055 6.34993 19.5114 6.33394 19.5261 6.36272C19.5349 6.37551 19.5437 6.4043 19.579 6.45546C19.3939 6.4075 19.4879 6.46503 19.388 6.31795ZM21.2271 18.3341C21.4092 18.3821 21.324 18.3245 21.4181 18.4716C21.233 18.4236 21.327 18.4812 21.2271 18.3341ZM18.5008 16.745C18.5625 16.7609 18.5918 16.7641 18.6095 16.7673C18.6447 16.7737 18.6271 16.7833 18.6917 16.8824C18.5066 16.8345 18.6006 16.892 18.5008 16.745ZM24.9406 14.5003C24.9406 14.5003 24.917 14.4747 24.9082 14.4652L24.8436 14.3948L25.014 14.4556C25.014 14.4556 25.0316 14.5835 25.0346 14.6026C25.0346 14.6026 24.9523 14.5131 24.9376 14.5003H24.9406ZM21.0391 8.24924C21.0391 8.24924 21.0126 8.26202 21.0068 8.28121L20.851 8.38673C20.9157 8.20128 20.7717 8.25564 20.9245 8.25564C20.9509 8.25564 20.9891 8.25564 21.042 8.24924H21.0391ZM19.5143 15.5011L19.3234 15.3636C19.6495 15.3924 19.4438 15.2965 19.5143 15.5011ZM13.6768 18.2638C13.8178 18.3693 13.7561 18.2765 13.8031 18.4716C13.5593 18.2861 13.7767 18.4716 13.6768 18.2638ZM14.567 10.5994L14.6933 10.3916C14.6904 10.4459 14.6874 10.4875 14.6874 10.5162C14.6874 10.6889 14.7256 10.529 14.567 10.5994ZM20.5955 8.38993L20.7864 8.25244C20.7688 8.3068 20.7659 8.34196 20.7717 8.36115C20.7835 8.4219 20.8422 8.36116 20.5984 8.39313L20.5955 8.38993ZM21.2271 24.2718L21.4181 24.1343C21.3417 24.355 21.5561 24.2335 21.2271 24.2718ZM14.6933 20.8186L14.5023 20.956C14.5787 20.7386 14.3643 20.8569 14.6933 20.8186ZM18.6917 7.00862C18.7005 6.89031 18.6653 6.94786 18.7211 6.86153C18.724 6.85833 18.7358 6.84236 18.7417 6.83596L18.821 6.80077L18.6947 7.00862H18.6917ZM23.5127 21.7842C23.4834 21.5987 23.6391 21.797 23.5921 21.8098C23.4657 21.8481 23.5304 21.8897 23.5127 21.7842ZM19.7699 14.2573C19.7494 14.1454 19.8022 14.1742 19.8346 14.2157C19.8551 14.2445 19.8698 14.2765 19.8522 14.2829C19.7259 14.3181 19.7905 14.3628 19.7729 14.2573H19.7699ZM21.6736 22.1295C21.6736 22.0496 21.8088 21.9728 21.7706 22.1295L21.7412 22.1487C21.6619 22.1583 21.6736 22.2702 21.6736 22.1295ZM17.6106 9.5634C17.6106 9.48347 17.7487 9.40673 17.7075 9.5634C17.6693 9.72008 17.8691 9.5634 17.6782 9.58259C17.5988 9.58898 17.6106 9.70409 17.6106 9.5634ZM21.7353 19.4372C21.7353 19.3573 21.8705 19.2806 21.8352 19.4372C21.797 19.5939 21.9968 19.4372 21.8059 19.4564C21.7265 19.4628 21.7383 19.5779 21.7383 19.4372H21.7353ZM20.1489 14.8105C20.1489 14.7305 20.284 14.6538 20.2488 14.8105L20.2194 14.8297C20.1401 14.8361 20.1518 14.948 20.1518 14.8105H20.1489ZM19.009 2.65685C19.009 2.51616 18.9973 2.62807 19.0766 2.63766L19.106 2.65685C19.1442 2.81352 19.009 2.73678 19.009 2.65685ZM18.8181 2.58969C18.8181 2.449 18.8063 2.56091 18.8886 2.56731L18.918 2.58969C18.9561 2.74317 18.8181 2.66963 18.8181 2.58969ZM19.5143 15.984C19.482 15.7985 19.6407 15.9968 19.5937 16.0095C19.5937 16.0095 19.579 16.0095 19.576 16.0095C19.4585 15.9999 19.5378 16.1246 19.5143 15.9808V15.984ZM14.7579 19.1623C14.7256 18.9704 14.9107 19.1942 14.8196 19.1878C14.7021 19.1814 14.7814 19.3029 14.7579 19.1623ZM13.4888 22.8202C13.4711 22.7115 13.5211 22.7402 13.5534 22.7786C13.5769 22.8106 13.5887 22.8489 13.5534 22.8457C13.4359 22.8362 13.5152 22.9609 13.4917 22.8202H13.4888ZM19.579 8.66491C19.5525 8.51783 19.67 8.61694 19.6642 8.67769L19.6583 8.6905C19.6583 8.6905 19.6436 8.6905 19.6407 8.6905L19.579 8.66171V8.66491ZM24.2854 20.1151C24.3001 20.1215 24.3941 19.9552 24.3119 20.1343C24.3119 20.1375 24.1943 20.2622 24.209 20.1279C24.209 20.1055 24.2795 20.1119 24.2854 20.1151ZM23.3982 13.8992C23.4129 13.9056 23.5069 13.7393 23.4246 13.9184C23.4246 13.9216 23.3071 14.0463 23.3218 13.912C23.3218 13.8896 23.3923 13.896 23.3982 13.8992ZM22.7636 22.0496C22.7783 22.056 22.8723 21.8897 22.79 22.0688C22.79 22.072 22.6725 22.1967 22.6872 22.0624C22.6872 22.04 22.7577 22.0464 22.7636 22.0496ZM21.2418 23.7059C21.2565 23.7123 21.3534 23.546 21.2682 23.7251C21.2682 23.7282 21.1507 23.853 21.1654 23.7187C21.1654 23.6963 21.2359 23.7027 21.2418 23.7059ZM18.5125 17.1446C18.5272 17.151 18.6212 16.9848 18.539 17.1638C18.539 17.167 18.4214 17.2917 18.4361 17.1574C18.4361 17.135 18.5066 17.1414 18.5125 17.1446ZM19.717 16.7993C19.7317 16.8057 19.8287 16.6394 19.7464 16.8185L19.7141 16.8345C19.6642 16.8345 19.6289 16.956 19.6436 16.8121C19.6436 16.7897 19.7141 16.7961 19.72 16.7993H19.717ZM21.9381 17.9728C21.9527 17.9792 22.0497 17.8129 21.9645 17.992L21.9322 18.008C21.8822 18.008 21.847 18.1295 21.8617 17.9856C21.8617 17.9632 21.9322 17.9696 21.9381 17.9728ZM22.0526 21.717L21.8499 21.8673L21.9234 21.7874C22.0056 21.7298 21.8676 21.7938 22.0497 21.7202L22.0526 21.717ZM18.0072 1.48336L17.4049 1.56969V1.80631L17.4196 1.82869C17.4196 1.82869 17.4079 1.84468 17.4049 1.84787V2.52254L17.8809 2.29233V2.15164C17.7869 2.11647 17.7575 2.03333 17.8633 1.82869C17.8544 1.8223 17.8397 1.82231 17.8368 1.81911C17.8339 1.81911 17.8133 1.8095 17.8104 1.80631L17.7369 1.6912C18.016 1.62086 17.9338 1.66561 18.0043 1.48336H18.0072ZM19.3263 1.40342H19.3087L19.3263 1.41302V1.40342ZM19.3909 1.96618L20.0049 2.01415V2.28913L20.4809 2.51936V1.56649L19.6994 1.45459C19.7082 1.50255 19.7405 1.50574 19.7053 1.688C19.5702 1.57929 19.623 1.68162 19.579 1.48018H19.4526C19.4438 1.58889 19.4644 1.51534 19.4379 1.58888L19.3527 1.67842C19.3527 1.67842 19.3351 1.68161 19.3263 1.688C19.4379 2.14844 19.4056 1.79352 19.3939 1.96618H19.3909ZM20.6954 13.7809C20.7277 13.6242 20.7394 13.4547 20.7335 13.2949L20.5573 13.5315C20.4486 13.6594 20.5396 13.5315 20.4662 13.6402C20.663 13.6626 20.663 13.621 20.6924 13.7809H20.6954ZM22.5873 10.5482C22.5873 10.5994 22.5814 10.6505 22.5785 10.7017C22.6079 10.6889 22.6461 10.6793 22.6872 10.6665C22.6431 10.5994 22.6108 10.5642 22.5873 10.5482ZM25.158 13.0103C25.108 12.8728 25.061 12.7353 25.0199 12.601L25.014 12.5818L24.9729 12.4539C24.9582 12.4379 24.9376 12.4187 24.9082 12.3932C24.8759 12.8216 24.8465 12.4891 24.9699 12.7673C24.9758 12.7801 24.9905 12.8216 24.9964 12.8344L25.158 13.0103ZM25.1433 13.1286L25.2255 13.1957L25.1903 13.103C25.1668 13.1158 25.1521 13.1222 25.1433 13.1286ZM24.6497 12.6394L24.7643 12.7641C24.8759 12.7065 24.7819 12.6234 24.6497 12.6394ZM24.823 22.2031L24.8172 22.0624C24.7878 22.0304 24.7643 22.024 24.7819 22.1327C24.7878 22.1615 24.8054 22.1871 24.823 22.2031ZM23.5833 23.5908L23.6361 23.5492L23.5774 23.5812L23.5833 23.5908ZM20.5896 27.0472L20.6454 26.9577C20.616 26.9577 20.5808 26.9577 20.5308 26.9673C20.5543 27.0025 20.5749 27.0281 20.5896 27.0504V27.0472ZM20.4398 27.0185L20.4251 27.3254L20.5191 27.1687H20.4691C20.4603 27.0728 20.4515 27.0313 20.4398 27.0185ZM23.3012 16.2717C23.2601 16.3676 23.219 16.4604 23.1749 16.5467L23.2601 16.5371C23.263 16.4764 23.2836 16.3772 23.3012 16.2717ZM18.6271 20.4956L18.9444 20.7162L19.7582 20.1439L19.8463 17.9088L20.3869 16.4092L22.696 15.5267C22.6902 15.3509 22.7489 15.207 22.7519 15.1526C23.0133 15.1302 23.0544 15.1014 23.1249 14.9735C23.1249 14.9703 23.1308 14.9544 23.1338 14.9448C23.2248 15.1814 23.0603 15.0759 23.1925 15.1558C23.2836 15.2134 23.1543 15.2773 23.3218 15.0119C23.313 15.1302 23.31 15.2166 23.313 15.2869L23.3747 15.2645L23.501 15.3477L23.5803 14.8872C23.645 14.5835 23.4687 14.7529 23.7037 14.6666C23.689 14.8744 23.6244 15.0727 23.5921 15.2357C23.5803 15.2965 23.5715 15.3445 23.5656 15.386L24.2913 15.8625L23.5127 15.7921C23.5039 15.8337 23.4922 15.8816 23.4746 15.936C23.266 16.681 22.8253 19.0408 22.6549 19.9648C22.6255 20.1247 22.6549 19.9648 22.6108 20.1567L22.1378 22.9449C22.0556 23.3094 22.1878 23.0664 21.9851 23.1559C22.176 22.267 22.1026 22.5931 22.1202 22.0272C22.1231 21.9089 22.2113 21.8673 22.2906 21.4229C22.3405 21.1511 22.4081 20.9049 22.4287 20.6683L22.2935 20.5819C22.2935 20.5819 22.2935 20.5596 22.2906 20.5564L22.2965 20.4988C22.3317 20.3293 22.3494 20.3901 22.3846 20.3549C22.3846 20.3549 22.5168 20.4125 22.5315 20.0064L22.5521 19.8113C22.5521 19.8113 22.5638 19.7953 22.5638 19.789C22.6784 19.5204 23.0104 17.4388 23.0633 17.2885C23.122 17.1095 23.0809 17.2246 23.1249 17.1478C23.0486 16.9304 23.263 17.0487 22.934 17.0103L22.9399 16.924C22.3523 17.7905 21.5473 18.0591 20.8687 18.2797L20.6425 22.7978C20.666 22.801 20.6895 22.8042 20.713 22.8106C20.619 23.06 20.7806 22.8937 20.6248 23.1623L20.4456 26.7339C20.5161 26.8554 20.5073 26.9194 20.713 26.817L20.7071 26.8394L20.7776 26.7275C20.6895 26.6923 20.7923 26.849 20.6307 26.6252L20.6366 26.4589C20.6895 26.4237 20.6425 26.6923 20.851 26.4973C20.9216 26.4301 21.0097 26.2703 21.0861 26.2639C21.1771 26.1328 21.2712 26.0049 21.3652 25.8802L21.3475 25.8514L21.4004 25.8386C22.0291 25.0073 22.6784 24.3454 23.3805 23.7506V23.6451C23.6038 23.5812 23.5245 23.6195 23.6332 23.4373C23.5745 23.4053 23.6567 23.2806 23.5069 23.5076L23.4334 23.4501C23.4687 23.351 23.4187 23.3478 23.3805 23.2326C23.2013 23.2998 23.31 23.2358 23.2572 23.335C23.1661 23.5044 23.1955 23.3541 23.1896 23.6451C22.5873 23.6611 23.3071 23.7442 22.8341 23.757C22.5021 23.7666 22.6931 23.6771 22.555 23.3701C22.6872 23.3222 22.6197 23.3542 22.6813 23.2326C22.8165 23.3254 22.5227 23.2646 22.8694 23.3062C22.9428 23.3158 23.1073 23.303 23.1896 23.303C23.2601 23.0184 23.2366 23.06 23.4422 23.1655C23.4422 22.8074 23.3864 22.8969 23.5686 22.7498C23.501 23.0664 23.5745 22.9833 23.5039 23.303C23.8418 23.2039 23.5744 23.1911 23.6949 22.9577L23.7566 23.2902C23.7302 23.3893 23.7272 23.4405 23.7272 23.4661C24.0886 23.1751 24.4646 22.8969 24.8554 22.6187C24.8436 22.5132 24.8319 22.4109 24.826 22.3054C24.729 22.5835 24.9405 22.299 24.635 22.5932C24.5087 22.7179 24.4206 22.8138 24.3324 22.9577L24.4587 22.4045C24.5234 22.4972 24.5234 22.2606 24.5234 22.6123H24.588C24.588 22.3949 24.6468 22.1551 24.8113 22.0144C24.7613 20.5276 25.1638 19.1111 25.2813 17.8801C25.0228 18.3821 24.6879 19.0599 24.4441 19.5587C24.4793 19.5396 24.5146 19.5523 24.494 19.6419L24.4646 19.6611C24.3882 19.6675 24.3941 19.7698 24.397 19.6611C24.2325 20 24.1209 20.2334 24.1209 20.2334C24.4558 18.1007 25.2402 16.3101 25.9864 14.5451C25.5046 14.171 25.1139 13.8001 24.7819 13.3908C24.7437 13.3844 24.6967 13.3908 24.6291 13.4196C24.3324 13.5507 24.7143 13.442 24.397 13.5667C24.4294 13.4707 24.4382 13.4771 24.4617 13.4292C24.4676 13.4164 24.4764 13.3972 24.4852 13.3844C24.494 13.3684 24.5234 13.3173 24.5351 13.3013C24.635 13.1734 24.5821 13.1606 24.6056 13.1606C24.5293 13.0583 24.4587 12.9527 24.3882 12.844C24.3265 13.0135 24.3471 13.2437 24.1444 13.0103C24.162 13.2629 24.1943 13.199 24.1179 13.3876L24.0298 13.5986C23.877 13.9184 23.8565 13.8256 23.6978 13.8384L23.8917 12.8824C23.8917 12.8824 23.9005 12.8568 23.9005 12.8536L23.9417 12.7897C23.9564 12.7641 23.9946 12.9016 23.9799 12.7129C23.9681 12.569 23.9564 12.617 23.8859 12.5275L24.0386 12.5339C24.1444 12.6074 24.0445 12.4731 24.1385 12.601C24.2325 12.7257 24.1062 12.6426 24.2061 12.8728C24.2531 12.8344 24.2942 12.7961 24.3265 12.7513C24.0445 12.2973 23.8036 11.7857 23.5715 11.1717C23.7566 11.4723 23.9799 11.808 24.2237 12.1278C24.2325 12.1182 24.2472 12.1118 24.2619 12.1022C24.4 12.0287 24.3383 12.1246 24.5204 12.0447C24.5146 12.0606 24.4999 12.0638 24.4969 12.0862L24.4617 12.163C24.4294 12.3932 24.5616 12.1789 24.6468 12.5243L24.8583 12.067C24.7026 11.4755 24.6056 10.8967 24.5616 10.3148L24.4558 10.3852C24.5234 10.1901 24.3618 10.2637 24.5557 10.2541L24.5469 10.1166C24.2531 10.1901 24.447 10.2221 24.3265 9.96949C24.3618 9.98868 24.4382 10.0175 24.4617 10.0302C24.5263 10.0654 24.5381 10.0718 24.5439 10.0782C24.5351 9.90233 24.5322 9.72328 24.5322 9.54422L23.8741 9.10937C23.8565 9.21808 23.9857 9.1957 23.7566 9.21169C23.5803 9.22448 23.6332 9.17012 23.5656 9.071C23.6273 9.04542 23.6773 9.02623 23.7155 9.00384L23.2601 8.70328C23.2395 8.71287 23.2131 8.71927 23.1866 8.72887C23.172 8.6905 23.1602 8.66172 23.1543 8.63294L22.8547 8.4347L22.8459 8.45707C22.8459 8.45707 22.7283 8.58498 22.743 8.45069C22.743 8.4283 22.8135 8.43469 22.8194 8.43788C22.8224 8.43788 22.8312 8.43149 22.837 8.4219L21.9116 7.81119C22.1026 8.18529 22.2465 8.553 22.3552 8.90792C22.5344 9.04861 22.3787 8.9239 22.3876 9.01983L22.4022 9.071L22.414 9.09656C22.5785 9.46108 22.4228 8.84716 22.555 9.27882C22.5021 9.26284 22.4698 9.25324 22.4463 9.24046C22.4816 9.39074 22.5109 9.54102 22.5315 9.68491C22.6608 9.68491 22.555 9.71369 22.5961 9.61137C22.5991 9.60498 22.5991 9.5826 22.602 9.57301L22.6167 9.34598C22.6167 9.34598 22.6402 9.36836 22.6432 9.39075L22.7283 9.63694C22.7313 9.6817 22.6343 9.76165 22.8077 9.76165C23.0486 9.76165 22.8018 9.832 23.0368 9.59219C23.2483 9.37476 23.1543 9.41313 23.3159 9.48667C23.36 9.62736 23.2718 9.76485 23.1896 9.832L23.1955 9.78403C23.2043 9.66253 23.2983 9.89594 23.2013 9.70089C23.1308 9.5634 23.0897 9.64975 22.9986 9.69451C23.2425 10.1965 23.3306 9.95349 23.5686 10.1773C23.2248 10.2573 23.3277 10.1645 23.0603 9.96949L22.9252 10.1677C23.1103 10.2189 23.2689 10.27 23.4422 10.3148C23.4393 10.3212 23.3189 10.5291 23.3159 10.5323C23.2865 10.5706 23.3894 10.625 23.1866 10.593L22.743 10.5194C22.8224 10.7273 22.8224 10.5578 22.7048 10.7465L22.5433 10.9351C22.5315 11.031 22.5139 11.1238 22.4933 11.2133C22.6079 11.2773 22.5051 11.2197 22.4874 11.2773L22.4757 11.2837C22.3229 11.9136 22.0115 12.422 21.5914 12.7641C21.6208 12.7801 21.6648 12.7865 21.75 12.7737C21.847 12.7545 21.7941 12.7673 21.8529 12.7289V13.0167C21.5914 13.2821 21.8587 12.7961 21.6149 13.0998C21.3857 13.3844 21.5885 13.1446 21.6149 13.3109C21.6502 13.5379 21.6443 13.4835 21.4739 13.5571C21.5503 13.621 21.4034 13.6018 21.6648 13.6274C21.6795 13.8129 21.6942 13.8161 21.7295 13.9727L21.6296 13.8736C21.5561 13.8384 21.6237 13.8384 21.4768 13.832C21.4504 13.4771 21.4298 13.7393 21.3505 13.4196L21.2506 13.637C21.183 13.4228 21.1478 13.4803 21.2653 13.33C21.374 13.1958 21.3799 13.2309 21.4768 13.0711L21.3505 13.0359C21.3622 12.9879 21.3799 12.9527 21.3857 12.9655L21.4445 12.876C21.3005 12.9719 21.1448 13.0519 20.9803 13.1094C20.948 13.5059 20.8334 13.8704 20.5485 14.171C20.5984 14.0815 20.6395 13.9695 20.6718 13.8416L20.6572 13.8225C20.6337 13.7841 20.6072 13.7169 20.5896 13.6882L20.3986 13.8257C20.4721 13.4484 20.3487 13.2565 20.525 12.86C20.619 12.9336 20.6601 13.0007 20.71 13.087C20.7012 13.0391 20.6924 12.9943 20.6807 12.9495C20.6483 12.8376 20.5984 12.7289 20.5396 12.6266C20.5426 12.6426 20.5338 12.6586 20.5014 12.6714C20.4251 12.7033 20.3546 12.6362 20.4016 12.585C20.4309 12.5531 20.4985 12.5722 20.5279 12.6042C20.2811 12.1885 19.8551 11.8496 19.5026 11.6386V11.2996C19.3998 11.2996 19.4732 11.4115 19.4497 11.274C19.4321 11.1749 19.4703 11.1845 19.5026 11.2197V10.1709L19.4585 10.1613C19.4174 10.1709 19.3674 10.1901 19.3175 10.2157V11.0374L19.3381 11.0662C19.4086 11.1621 19.3557 11.0726 19.388 11.2069L19.3175 11.1653V11.7921L19.3263 11.8272L19.3175 11.8208V15.5971C19.3527 15.629 19.341 15.6258 19.3175 15.6354V19.9936L18.9473 20.2366V20.2494C18.7975 20.2494 18.6917 20.3485 18.63 20.4796L18.6271 20.4956ZM13.3478 9.55062C13.3478 9.74567 13.3419 9.94072 13.3331 10.1326C13.3507 10.1358 13.3801 10.1325 13.4271 10.1166C13.383 10.2157 13.383 10.2701 13.3243 10.3116C13.2537 11.2613 13.0481 12.1917 12.6662 13.1957C13.2773 12.7161 13.8913 11.8592 14.3143 11.1749C13.9324 12.1821 13.527 12.9208 12.957 13.5699C12.9982 13.5922 13.0187 13.6306 12.957 13.6562C12.9276 13.6658 12.9012 13.6658 12.8806 13.6562L12.769 13.7745C12.8101 13.7969 12.8307 13.8352 12.769 13.8608C12.7396 13.8736 12.7102 13.8704 12.6867 13.8608C12.4547 14.0942 12.1961 14.3213 11.9023 14.5483C12.1491 15.1302 12.3988 15.7154 12.6368 16.3133L12.6662 16.2621L12.7308 16.5371L12.722 16.5307C13.0775 17.4516 13.4006 18.4076 13.621 19.4404C13.6327 19.4564 13.7796 19.6419 13.6827 19.4404C13.7473 19.4085 13.665 19.3125 13.7591 19.4372C13.8296 19.5332 13.7767 19.4436 13.809 19.5779C13.6827 19.5396 13.7826 19.6675 13.6797 19.5204L13.621 19.4404C13.6768 19.7026 13.7267 19.9648 13.7708 20.2366C13.7708 20.2366 13.0716 18.7818 12.6074 17.8833C12.6926 18.7658 12.9247 19.7474 13.0305 20.777C13.0922 20.793 13.0745 20.8026 13.1127 20.956H13.0481C13.0951 21.4996 13.1039 22.056 13.0334 22.6187C14.7403 23.8338 16.127 25.0392 17.4725 27.3222L17.4226 26.3566H17.4167C17.4167 26.3566 17.4138 26.3342 17.4226 26.3278L17.0171 18.2861C16.6558 18.171 16.2592 18.0399 15.8802 17.8097L15.8949 17.9984L15.9683 17.9824C15.939 18.0431 15.9184 18.0815 15.9037 18.1199L15.9801 19.0887L15.8156 20.3677L15.9948 22.4844L15.4836 20.438L15.513 19.7762L15.3338 19.0248L15.4043 18.2062V18.1902H15.4013L15.2867 17.5539L15.2721 17.5699V17.4772L15.2397 17.2981C15.0135 17.0583 14.8079 16.7546 14.6375 16.3645V16.4668H14.5112C14.517 16.1758 14.4759 16.227 14.5611 16.1758C14.5141 16.0575 14.473 15.9296 14.4318 15.7953L13.6063 15.8689L14.5229 15.2677L15.2192 15.5331L15.2456 15.0215L15.2985 14.5291L15.2339 13.6786L15.4689 12.7321C15.4689 12.7321 15.4865 13.7585 15.4983 13.9408C15.513 14.123 15.7216 14.8744 15.7216 14.8744C15.7216 14.8744 15.6305 15.1718 15.6422 15.2965L15.6804 15.7122L17.2581 16.3165C17.2962 16.3069 17.355 16.3293 17.3697 16.3581L17.5048 16.4092L17.5665 16.5819C17.5636 16.5275 17.5577 16.4668 17.5489 16.3964C17.7252 16.6171 17.6429 16.6586 17.7399 16.8792C17.7134 16.8792 17.6928 16.8792 17.6723 16.8792L17.7105 16.9848L17.8662 16.8153C17.8926 16.8217 18.0131 16.892 17.8309 16.9816C17.7399 17.0263 17.7839 17.0135 17.7222 17.0167L17.8985 17.5028C18.1894 17.5028 17.9661 17.5028 18.0571 17.4356L18.0865 17.5219C18.1159 17.5731 18.0395 17.5283 18.1835 17.6403C18.0542 17.8385 18.2011 17.6594 17.9631 17.6914L18.0425 17.912L18.1306 20.1471L18.3921 20.3325L18.3862 20.3229C18.3127 20.1759 18.2834 20.1343 18.3715 19.9233C18.5801 20.0735 18.4831 20.0607 18.7534 19.9904C18.6888 20.1631 18.6858 20.1982 18.9444 20.1982V17.1318C18.8827 17.1606 18.7887 17.1127 18.6917 17.0903C18.8122 16.8441 18.68 16.892 18.9444 16.8153V16.5787L18.8709 16.4828C18.9033 16.4828 18.9268 16.4828 18.9444 16.4828V15.5075L18.7182 15.6194C18.5948 15.6386 18.6888 15.5363 18.6271 15.7154C18.3539 15.6898 18.5125 15.725 18.3098 15.5779C18.2657 15.7601 18.3157 15.6354 18.2481 15.7857L18.1747 15.7282C18.1747 15.6578 18.2275 15.7697 18.2481 15.5107C18.5096 15.5779 18.4391 15.6642 18.6271 15.5811C18.4244 15.2805 18.5125 15.6035 18.3098 15.3061C18.6153 15.3828 18.6212 15.3189 18.9444 15.2357V15.1494L18.8827 15.1686V15.0311L18.9444 15.0247V14.4779C18.8533 14.4907 18.8269 14.3468 18.9385 14.366H18.9444V10.4555C18.7417 10.5706 18.536 10.6697 18.3862 10.6186V10.8392L18.6036 11.2069L18.3862 11.0183C17.9014 10.6058 17.8809 10.1933 18.0689 9.98867H18.0571C18.1541 9.58899 18.113 10.043 18.3509 9.69131C18.3568 9.68172 18.3656 9.65933 18.3744 9.64334C18.4156 9.76804 18.4097 9.73287 18.4303 9.78083L18.492 9.87995C18.6271 9.96948 18.5948 9.65932 18.6271 10.059C18.3979 10.0047 18.5478 9.98547 18.4361 10.1262C18.2129 9.9503 18.3509 9.94071 18.2452 9.96309C18.207 10.0462 18.1923 10.123 18.204 10.1965C18.2334 10.1901 18.2716 10.1709 18.3098 10.1294V10.3372L18.2275 10.2733C18.3216 10.5099 18.5243 10.4875 18.7446 10.3884C18.7094 10.3596 18.6917 10.2924 18.6917 10.1997C18.8063 10.2636 18.7711 10.2541 18.9473 10.2701L18.9297 10.2924C19.1295 10.1773 19.3292 10.043 19.4614 10.0174C20.2135 10.1773 19.9903 10.8712 19.9903 10.8712C20.3134 10.7273 20.8393 10.4331 20.6425 10.075C20.4074 10.0718 20.2782 9.93111 20.1636 9.77763C20.1636 9.78402 20.1548 9.80641 20.1313 9.85757L20.099 9.87357C20.049 9.87357 20.0138 9.99507 20.0285 9.85119C20.0285 9.8288 20.099 9.83519 20.1048 9.83838C20.1137 9.84158 20.1548 9.77765 20.1636 9.77445C19.9991 9.56341 19.8522 9.32999 19.4497 9.40673C19.5055 9.34278 19.5613 9.28203 19.6201 9.23087C19.6083 9.1957 19.5966 9.14774 19.5848 9.09018C19.6524 9.11896 19.6788 9.14134 19.6935 9.16692C19.9197 8.98786 20.1607 8.91752 20.428 9.05502C20.4427 9.02944 20.4603 9.00705 20.478 8.99106L20.4486 8.97508C20.3399 8.89514 20.3986 8.9367 20.3428 8.88234C20.6307 8.90792 20.5044 8.83757 20.5191 8.95907C20.616 8.90472 20.7365 8.92711 20.8187 9.00704C21.0097 8.9335 20.8951 9.11575 20.9979 8.93669C21.0684 8.80879 20.8716 8.89193 21.1683 8.67769C21.1448 8.97506 21.1742 8.78961 21.092 8.95907C21.2065 8.86955 21.2095 8.78961 21.2388 8.56579L21.0861 8.08617C20.7365 8.28761 20.3252 8.1693 20.0079 8.22686C19.9109 8.13733 19.7464 8.01262 19.5055 7.99983V7.73445C19.5055 7.73445 19.4996 7.70247 19.5055 7.68968V7.17169L19.2617 6.84874L19.5114 6.80717C19.5026 6.7784 19.4849 6.73684 19.4526 6.67289C19.6348 6.74323 19.5319 6.62172 19.6025 6.79119L20.9363 6.56416C20.9656 6.68247 21.0655 6.76881 21.183 6.76881C21.324 6.76881 21.4386 6.64411 21.4386 6.49063C21.4386 6.41389 21.4122 6.34674 21.3681 6.29558C21.3975 6.35634 21.4181 6.43627 21.421 6.5354C21.0626 6.50342 21.186 6.32435 21.0391 6.46504L20.9656 6.40749C20.9774 6.35633 20.9921 6.31795 21.0126 6.28278C20.9774 6.31795 20.9509 6.36273 20.9363 6.41389L20.3399 6.25082V6.25722C20.1724 6.34675 20.2752 6.32116 20.0255 6.32755C20.0901 6.2668 20.143 6.22843 20.1842 6.20925L19.5055 6.02379L19.2999 5.69446V3.53936C19.2793 3.56813 19.247 3.5969 19.2 3.63208C19.0501 3.23879 19.2176 3.94224 19.2 3.07892H19.2999V2.28913L19.2382 2.27635C19.2294 2.25716 19.2117 2.25715 19.2 2.24756L19.2999 2.20599V2.10049C19.0061 2.07491 19.4233 2.12605 19.1353 1.90223L19.0707 2.31791L18.9032 2.02055C18.9003 1.99497 18.8886 1.98857 18.8798 1.97258C19.1148 1.90543 18.962 1.90224 19.197 1.83509C18.9943 1.53453 19.153 1.81911 18.8798 1.6976C18.9326 1.58889 18.9738 1.45779 19.0678 1.37465L18.9414 1.35547L18.5683 1.40982C18.5918 1.41941 18.6212 1.4226 18.6888 1.4226V1.49296C18.5184 1.49296 18.489 1.49615 18.4684 1.4258L18.3098 1.44819C18.2804 1.48976 18.2804 1.48656 18.2481 1.63045C18.254 1.63045 18.2657 1.63045 18.2687 1.63045H18.3509C18.7622 1.73277 18.6447 1.60167 18.821 1.76794C18.5948 1.76794 18.4126 1.81271 18.2511 1.6976C17.9308 1.85428 18.4068 1.66881 17.9984 1.62725C18.0689 1.77433 18.1394 1.84149 18.1717 1.99817L18.5977 1.96618V2.94141H18.7622V3.07892C18.6036 3.02776 18.6565 3.0789 18.5977 2.98618V5.69446L18.3921 6.02379L16.9613 6.41389C16.9319 6.29878 16.8379 6.21564 16.7263 6.20925L16.7939 6.39471C16.6705 6.44267 16.741 6.41069 16.6734 6.47144C16.6499 6.49063 16.6176 6.54178 16.5412 6.60253C16.4883 6.32435 16.5324 6.37552 16.5706 6.25722C16.503 6.30838 16.4589 6.3915 16.4589 6.48743C16.4589 6.64091 16.5735 6.76561 16.7146 6.76561C16.8321 6.76561 16.9319 6.67927 16.9613 6.56096L18.6359 6.84874L18.395 7.17169V7.58096L18.5713 7.56818V7.77602L18.395 7.60975V8.08937C18.4097 8.12134 18.4244 8.17569 18.4449 8.26203C18.4303 8.25563 18.3304 8.19809 18.3274 8.19489L18.3157 8.17571C18.2422 8.1853 18.1717 8.19169 18.1071 8.19489C18.1306 8.23966 18.2305 8.11495 18.3186 8.46987C18.3098 8.45708 18.2951 8.41551 18.2892 8.4283C18.2746 8.46987 18.3039 8.36754 18.1629 8.30039C17.8838 8.1693 18.2217 8.43789 17.9808 8.26843C17.9015 8.21407 17.8721 8.16291 17.8633 8.12454C17.5489 8.02222 17.2463 7.87833 16.9584 7.68008V7.73445C17.0994 7.83357 17.026 7.69608 17.0495 7.98705H16.9966C17.0877 8.33238 17.3286 8.62335 17.59 8.72566C17.3051 8.73206 17.0524 8.85357 16.7821 9.04861C16.9114 9.071 17.0465 9.11577 17.1611 9.17332C16.6499 9.4547 16.4443 9.51864 16.1769 10.1805C16.2239 10.1549 16.2768 10.1357 16.3268 10.1166C16.3209 10.0878 16.3091 10.0462 16.2856 9.99188C16.3209 10.0111 16.3973 10.0398 16.4208 10.0526C16.5383 10.1166 16.4795 10.0846 16.5412 10.1294C16.5001 10.139 16.4678 10.1485 16.4413 10.1549C16.3943 10.3372 16.3473 10.4939 16.3091 10.6442C16.412 10.6729 16.3179 10.7465 16.2886 10.7497H16.2856C16.2621 10.8616 16.2415 10.9767 16.2386 11.1014L16.2915 11.095C16.2915 11.095 16.2651 11.1078 16.2592 11.127L16.2386 11.1398C16.2386 11.2677 16.2474 11.4052 16.2768 11.565C16.3267 11.4691 16.3914 11.3732 16.4589 11.2901C16.4413 11.7537 16.503 12.1342 16.6852 12.5786L16.8262 12.2845C17.026 12.7833 17.4138 13.0934 17.5665 13.4995C17.6223 13.6466 17.637 13.8001 17.6312 13.9983C17.5019 13.637 17.3521 13.4004 17.0994 13.1925C15.4777 12.7769 14.6257 10.5035 15.9772 7.82717L13.3566 9.5602L13.3478 9.55062Z" fill="#BC2A26"/>
</svg>
