<?xml version="1.0" encoding="UTF-8"?>
<svg xmlns="http://www.w3.org/2000/svg" id="Smith_Excavation_Logo_wNumber" data-name="Smith Excavation Logo_wNumber" width="209.109" height="97.972" viewBox="0 0 209.109 97.972">
  <path id="Path_368" data-name="Path 368" d="M103.579,7.573v8.233h-3.071a5.817,5.817,0,0,0-2.287-3.993,6.9,6.9,0,0,0-4.292-1.485c-2.508,0-3.754.964-3.754,2.884a1.627,1.627,0,0,0,.8,1.391,6.374,6.374,0,0,0,2.082.862c.853.213,1.8.41,2.833.6a23.29,23.29,0,0,1,3.08.785,14.091,14.091,0,0,1,2.816,1.254,5.7,5.7,0,0,1,2.082,2.159,6.724,6.724,0,0,1,.8,3.353,6.869,6.869,0,0,1-.785,3.362A5.841,5.841,0,0,1,101.77,29.2a10.518,10.518,0,0,1-2.909,1.177,14.983,14.983,0,0,1-3.43.375,12.051,12.051,0,0,1-7.295-2.065l-.879,1.783H84.442V21.71h3.131A6.5,6.5,0,0,0,89.919,26a7.49,7.49,0,0,0,4.949,1.655,4.806,4.806,0,0,0,2.662-.768,2.384,2.384,0,0,0,1.186-2.116,1.878,1.878,0,0,0-.8-1.578,5.458,5.458,0,0,0-2.082-.921c-.853-.2-1.792-.41-2.816-.6a27.41,27.41,0,0,1-3.08-.751,13.935,13.935,0,0,1-2.833-1.2,5.563,5.563,0,0,1-2.082-2.133,6.635,6.635,0,0,1-.8-3.336,6.654,6.654,0,0,1,.828-3.4,5.668,5.668,0,0,1,2.269-2.193,10.962,10.962,0,0,1,3.037-1.092,17.075,17.075,0,0,1,3.472-.333,11.671,11.671,0,0,1,6.356,1.937l.6-1.6h2.79Z" transform="translate(-12.39 -1.063)" fill="#ed1c24"></path>
  <path id="Path_369" data-name="Path 369" d="M95.373,31.053a12.721,12.721,0,0,1-7.141-1.877l-.785,1.6H84V21.225h3.865l.043.341a6.068,6.068,0,0,0,2.21,4.036,7.156,7.156,0,0,0,4.7,1.57,4.42,4.42,0,0,0,2.449-.708,2,2,0,0,0,1.007-1.783,1.524,1.524,0,0,0-.648-1.271,5.151,5.151,0,0,0-1.937-.853c-.853-.2-1.792-.41-2.8-.589a28.161,28.161,0,0,1-3.123-.759A14.291,14.291,0,0,1,86.85,19.97,5.993,5.993,0,0,1,84.623,17.7a7,7,0,0,1-.853-3.524,7.158,7.158,0,0,1,.879-3.592,6.082,6.082,0,0,1,2.423-2.338,11.83,11.83,0,0,1,3.14-1.135,17.793,17.793,0,0,1,3.549-.333,11.939,11.939,0,0,1,6.152,1.749l.52-1.408h3.447v9.01h-3.8l-.043-.333a5.4,5.4,0,0,0-2.133-3.737,6.572,6.572,0,0,0-4.053-1.408c-3.02,0-3.37,1.425-3.37,2.491a1.254,1.254,0,0,0,.631,1.075,5.937,5.937,0,0,0,1.954.8c.836.2,1.783.4,2.807.589a24.4,24.4,0,0,1,3.131.793,14.643,14.643,0,0,1,2.892,1.288,6.09,6.09,0,0,1,2.227,2.3,7.085,7.085,0,0,1,.853,3.541,7.321,7.321,0,0,1-.828,3.549,6.277,6.277,0,0,1-2.252,2.372,10.686,10.686,0,0,1-3.02,1.22,15.253,15.253,0,0,1-3.515.384Zm-7.431-3.046.375.273a11.7,11.7,0,0,0,7.064,1.988,14.173,14.173,0,0,0,3.336-.367,9.972,9.972,0,0,0,2.8-1.126,5.488,5.488,0,0,0,1.971-2.073,6.534,6.534,0,0,0,.734-3.174,6.353,6.353,0,0,0-.751-3.157,5.367,5.367,0,0,0-1.937-2.014,14.033,14.033,0,0,0-2.739-1.22,23.174,23.174,0,0,0-3.029-.768c-1.041-.188-2.005-.392-2.858-.6a6.786,6.786,0,0,1-2.21-.921,2.014,2.014,0,0,1-.964-1.715c0-1.493.717-3.268,4.147-3.268a7.283,7.283,0,0,1,4.522,1.57,6.2,6.2,0,0,1,2.38,3.908h2.346V7.889H101l-.665,1.792-.41-.256a11.308,11.308,0,0,0-6.143-1.877,16.872,16.872,0,0,0-3.4.324A10.991,10.991,0,0,0,87.456,8.93a5.308,5.308,0,0,0-2.116,2.048,6.324,6.324,0,0,0-.776,3.2,6.111,6.111,0,0,0,.751,3.14A5.291,5.291,0,0,0,87.251,19.3a12.752,12.752,0,0,0,2.756,1.169,29.12,29.12,0,0,0,3.037.742c1.015.188,1.971.392,2.841.6a6.033,6.033,0,0,1,2.227.99,2.283,2.283,0,0,1,.947,1.894,2.779,2.779,0,0,1-1.365,2.44,5.241,5.241,0,0,1-2.875.828,7.905,7.905,0,0,1-5.2-1.749,6.8,6.8,0,0,1-2.432-4.2H84.785V30h2.184l.973-1.988Z" transform="translate(-12.324 -0.995)" fill="#ed1c24"></path>
  <path id="Path_370" data-name="Path 370" d="M110.03,7.989h12.115l3.848,13.617h.094l3.942-13.617h11.928v2.944h-1.843A1.177,1.177,0,0,0,138.8,12.28V25.9a1.177,1.177,0,0,0,1.314,1.348h1.843v2.944H129.781V27.245h1.408A1.177,1.177,0,0,0,132.5,25.9V11.777h-.06l-5.256,18.4h-4.88l-5.23-18.753h-.06V25.888c0,.9.427,1.348,1.28,1.348h1.408V30.18H110.03V27.237h2.005a1.177,1.177,0,0,0,1.314-1.348V12.272a1.177,1.177,0,0,0-1.314-1.348H110.03V7.98Z" transform="translate(-16.179 -1.171)" fill="#ed1c24"></path>
  <path id="Path_371" data-name="Path 371" d="M142.283,30.508h-12.96v-3.72h1.8c.657,0,.93-.273.93-.956V14.272l-4.641,16.236h-5.469L117.336,13.99V25.832c0,.691.247.956.9.956h1.8v3.72H109.58v-3.72h2.389c.657,0,.93-.273.93-.956V12.215c0-.683-.264-.956-.93-.956H109.58V7.54h12.8L125.987,20.3,129.681,7.54h12.61v3.72h-2.235c-.657,0-.93.273-.93.956V25.832c0,.683.264.956.93.956h2.235v3.72Zm-12.175-.776h11.4V27.564h-1.459a1.55,1.55,0,0,1-1.706-1.732V12.215a1.55,1.55,0,0,1,1.706-1.732h1.459V8.316H130.261L126.32,21.933h-.683L121.789,8.316H110.356v2.167h1.613a1.55,1.55,0,0,1,1.706,1.732V25.832a1.55,1.55,0,0,1-1.706,1.732h-1.613v2.167h8.9V27.564h-1.024a1.537,1.537,0,0,1-1.672-1.732V10.978h.683l.145.282,5.153,18.463h4.292l5.256-18.4h.683l.06.392v14.12a1.55,1.55,0,0,1-1.706,1.732h-1.015v2.167Z" transform="translate(-16.113 -1.107)" fill="#ed1c24"></path>
  <path id="Path_372" data-name="Path 372" d="M162.672,7.99v2.944h-2.065a1.622,1.622,0,0,0-1.015.247,1.451,1.451,0,0,0-.3,1.092V25.89a1.177,1.177,0,0,0,1.314,1.348h2.031v2.944H149.644V27.238h2.031a1.177,1.177,0,0,0,1.314-1.348V11.812c0-.58-.435-.879-1.314-.879H149.61V7.99h13.054Z" transform="translate(-21.989 -1.173)" fill="#ed1c24"></path>
  <path id="Path_373" data-name="Path 373" d="M162.965,30.508H149.194v-3.72h2.423c.657,0,.921-.273.921-.956V11.746c0-.162,0-.486-.921-.486H149.16V7.54h13.83v3.72h-2.457a1.206,1.206,0,0,0-.768.162c-.017.017-.162.154-.162.793V25.832c0,.683.264.956.921.956h2.423v3.72Zm-12.986-.776h12.209V27.564h-1.647a1.55,1.55,0,0,1-1.706-1.732V12.215a1.716,1.716,0,0,1,.435-1.391,1.935,1.935,0,0,1,1.271-.341h1.681V8.316H149.945v2.167h1.681c1.485,0,1.706.793,1.706,1.263V25.832a1.55,1.55,0,0,1-1.706,1.732h-1.647v2.167Z" transform="translate(-21.923 -1.107)" fill="#ed1c24"></path>
  <path id="Path_374" data-name="Path 374" d="M170.227,16.5h-3.1V7.99h22.226V16.5h-3.1a6.843,6.843,0,0,0-1.066-4.181q-1.062-1.395-3.788-1.391V25.9c0,.9.427,1.348,1.28,1.348h2.031V30.19H171.72V27.247h2.065A1.177,1.177,0,0,0,175.1,25.9V10.934c-1.817,0-3.08.461-3.805,1.391A6.781,6.781,0,0,0,170.21,16.5Z" transform="translate(-24.561 -1.173)" fill="#ed1c24"></path>
  <path id="Path_375" data-name="Path 375" d="M185.038,30.508H171.267v-3.72h2.457c.657,0,.921-.273.921-.956V11.268a3.936,3.936,0,0,0-3.106,1.237,6.414,6.414,0,0,0-1,3.942v.392H166.66V7.54h23v9.291H185.78v-.392A6.538,6.538,0,0,0,184.8,12.5a3.893,3.893,0,0,0-3.089-1.229V25.832c0,.691.247.956.9.956h2.423v3.72Zm-12.994-.776h12.209V27.564h-1.647a1.537,1.537,0,0,1-1.672-1.732V10.475h.392c1.937,0,3.31.52,4.1,1.544a6.849,6.849,0,0,1,1.135,4.027h2.329V8.308H167.436v7.738h2.329a6.827,6.827,0,0,1,1.152-4.027c.793-1.024,2.176-1.544,4.112-1.544h.392V25.832a1.55,1.55,0,0,1-1.706,1.732h-1.681v2.167Z" transform="translate(-24.493 -1.107)" fill="#ed1c24"></path>
  <path id="Path_376" data-name="Path 376" d="M204.642,17.2h7.389V11.942c0-.665-.435-1-1.314-1h-1.408V8h12.4v2.944h-2.1c-.853,0-1.28.452-1.28,1.348V26a1.12,1.12,0,0,0,1.28,1.254h2.065V30.2H209.335V27.257h1.374a1.688,1.688,0,0,0,1-.23,1.025,1.025,0,0,0,.316-.862V20.158h-7.389v5.913c0,.793.435,1.186,1.314,1.186h1.374V30.2H194.984V27.257h2.031a1.177,1.177,0,0,0,1.314-1.348V11.848c0-.606-.435-.9-1.314-.9H194.95V8h12.4v2.944h-1.408a1.38,1.38,0,0,0-.99.316,1.5,1.5,0,0,0-.333,1.126v4.821Z" transform="translate(-28.646 -1.174)" fill="#ed1c24"></path>
  <path id="Path_377" data-name="Path 377" d="M222,30.506H208.885v-3.72h1.766a1.3,1.3,0,0,0,.768-.154.706.706,0,0,0,.154-.546V20.464H204.96v5.529c0,.478.154.8.921.8h1.766v3.72H194.534V26.8h2.423c.657,0,.921-.273.921-.956V11.779c0-.171,0-.52-.921-.52H194.5V7.539h13.173v3.72h-1.8a1.028,1.028,0,0,0-.717.2c-.077.077-.2.282-.2.845v4.428h6.612V11.864c0-.213,0-.614-.921-.614h-1.8V7.53h13.173v3.72h-2.483c-.631,0-.9.273-.9.956V25.916c0,.623.247.862.9.862h2.457V30.5Zm-12.337-.776h11.552V27.563h-1.681a1.505,1.505,0,0,1-1.672-1.638V12.214a1.537,1.537,0,0,1,1.672-1.732h1.706V8.315h-11.62v2.167h1.024c1.485,0,1.706.87,1.706,1.391v5.648h-8.165V12.308a1.849,1.849,0,0,1,.452-1.408,1.741,1.741,0,0,1,1.254-.418h1.024V8.315h-11.62v2.167h1.681c1.485,0,1.706.811,1.706,1.3V25.831a1.55,1.55,0,0,1-1.706,1.732h-1.647V29.73H206.88V27.563h-.99a1.5,1.5,0,0,1-1.706-1.578V19.679h8.165v6.4a1.353,1.353,0,0,1-.469,1.169,2,2,0,0,1-1.237.316h-.99V29.73Z" transform="translate(-28.58 -1.105)" fill="#ed1c24"></path>
  <path id="Path_378" data-name="Path 378" d="M101.759,5.743v8.233H98.687A5.817,5.817,0,0,0,96.4,9.983,6.9,6.9,0,0,0,92.109,8.5c-2.508,0-3.754.964-3.754,2.884a1.627,1.627,0,0,0,.8,1.391,6.374,6.374,0,0,0,2.082.862c.853.213,1.8.41,2.833.6a23.289,23.289,0,0,1,3.08.785,14.091,14.091,0,0,1,2.816,1.254,5.7,5.7,0,0,1,2.082,2.159,6.724,6.724,0,0,1,.8,3.353,6.869,6.869,0,0,1-.785,3.362,5.841,5.841,0,0,1-2.116,2.227,10.518,10.518,0,0,1-2.909,1.177,14.983,14.983,0,0,1-3.43.375,12.051,12.051,0,0,1-7.295-2.065l-.879,1.783H82.622V19.88h3.131A6.5,6.5,0,0,0,88.1,24.172a7.49,7.49,0,0,0,4.949,1.655,4.806,4.806,0,0,0,2.662-.768A2.384,2.384,0,0,0,96.9,22.943a1.878,1.878,0,0,0-.8-1.578,5.458,5.458,0,0,0-2.082-.921c-.853-.2-1.792-.41-2.816-.6a27.409,27.409,0,0,1-3.08-.751,13.936,13.936,0,0,1-2.833-1.2A5.563,5.563,0,0,1,83.2,15.759a6.635,6.635,0,0,1-.8-3.336,6.654,6.654,0,0,1,.828-3.4A5.668,5.668,0,0,1,85.5,6.835a10.962,10.962,0,0,1,3.037-1.092,17.075,17.075,0,0,1,3.472-.333,11.671,11.671,0,0,1,6.356,1.937l.6-1.6h2.79Z" transform="translate(-12.123 -0.794)" fill="#fff"></path>
  <path id="Path_379" data-name="Path 379" d="M93.553,29.233a12.721,12.721,0,0,1-7.141-1.877l-.785,1.6H82.18V19.4h3.865l.043.341a6.068,6.068,0,0,0,2.21,4.036,7.156,7.156,0,0,0,4.7,1.57,4.42,4.42,0,0,0,2.449-.708,2,2,0,0,0,1.007-1.783,1.524,1.524,0,0,0-.648-1.271,5.151,5.151,0,0,0-1.937-.853c-.853-.2-1.792-.41-2.8-.589a28.162,28.162,0,0,1-3.123-.759A14.291,14.291,0,0,1,85.03,18.15,5.993,5.993,0,0,1,82.8,15.881a7,7,0,0,1-.853-3.524,7.158,7.158,0,0,1,.879-3.592,6.082,6.082,0,0,1,2.423-2.338,11.83,11.83,0,0,1,3.14-1.135,17.793,17.793,0,0,1,3.549-.333,11.939,11.939,0,0,1,6.152,1.749l.52-1.408h3.447v9.01h-3.8l-.043-.333a5.4,5.4,0,0,0-2.133-3.737,6.572,6.572,0,0,0-4.053-1.408c-3.02,0-3.37,1.425-3.37,2.491A1.254,1.254,0,0,0,89.3,12.4a5.937,5.937,0,0,0,1.954.8c.836.2,1.783.4,2.807.589a24.4,24.4,0,0,1,3.131.793,14.643,14.643,0,0,1,2.892,1.288,6.09,6.09,0,0,1,2.227,2.3,7.085,7.085,0,0,1,.853,3.541,7.321,7.321,0,0,1-.828,3.549,6.277,6.277,0,0,1-2.252,2.372,10.686,10.686,0,0,1-3.02,1.22,15.253,15.253,0,0,1-3.515.384Zm-7.44-3.046.375.273a11.7,11.7,0,0,0,7.064,1.988,14.173,14.173,0,0,0,3.336-.367,9.972,9.972,0,0,0,2.8-1.126,5.488,5.488,0,0,0,1.971-2.073,6.533,6.533,0,0,0,.734-3.174,6.353,6.353,0,0,0-.751-3.157A5.367,5.367,0,0,0,99.7,16.538a14.034,14.034,0,0,0-2.739-1.22,23.173,23.173,0,0,0-3.029-.768c-1.041-.188-2.005-.392-2.858-.6a6.786,6.786,0,0,1-2.21-.921,2.014,2.014,0,0,1-.964-1.715c0-1.493.717-3.268,4.147-3.268a7.283,7.283,0,0,1,4.522,1.57,6.2,6.2,0,0,1,2.38,3.908H101.3V6.069H99.176L98.51,7.861,98.1,7.6a11.308,11.308,0,0,0-6.143-1.877,16.872,16.872,0,0,0-3.4.324A10.991,10.991,0,0,0,85.627,7.11a5.308,5.308,0,0,0-2.116,2.048,6.324,6.324,0,0,0-.776,3.2,6.111,6.111,0,0,0,.751,3.14,5.291,5.291,0,0,0,1.937,1.988,12.752,12.752,0,0,0,2.756,1.169,29.12,29.12,0,0,0,3.037.742c1.015.188,1.971.392,2.841.6a6.033,6.033,0,0,1,2.227.99,2.283,2.283,0,0,1,.947,1.894,2.779,2.779,0,0,1-1.365,2.44,5.241,5.241,0,0,1-2.875.828,7.905,7.905,0,0,1-5.2-1.749,6.8,6.8,0,0,1-2.432-4.2H82.957v7.986h2.184l.973-1.988Z" transform="translate(-12.056 -0.728)" fill="#ed1c24"></path>
  <path id="Path_380" data-name="Path 380" d="M108.21,6.169h12.115l3.848,13.617h.094l3.942-13.617h11.928V9.112h-1.843a1.177,1.177,0,0,0-1.314,1.348V24.077a1.177,1.177,0,0,0,1.314,1.348h1.843v2.944H127.961V25.425h1.408a1.177,1.177,0,0,0,1.314-1.348V9.957h-.06l-5.256,18.4h-4.88l-5.23-18.753h-.06V24.068c0,.9.427,1.348,1.28,1.348h1.408V28.36H108.21V25.417h2.005a1.177,1.177,0,0,0,1.314-1.348V10.452A1.177,1.177,0,0,0,110.215,9.1H108.21V6.16Z" transform="translate(-15.912 -0.904)" fill="#fff"></path>
  <path id="Path_381" data-name="Path 381" d="M140.463,28.688H127.5v-3.72h1.8c.657,0,.93-.273.93-.956V12.452l-4.641,16.236h-5.469L115.516,12.17V24.012c0,.691.247.956.9.956h1.8v3.72H107.76v-3.72h2.389c.657,0,.93-.273.93-.956V10.4c0-.683-.264-.956-.93-.956H107.76V5.72h12.8l3.609,12.755L127.861,5.72h12.61V9.44h-2.235c-.657,0-.93.273-.93.956V24.012c0,.683.264.956.93.956h2.235v3.72ZM128.288,27.9h11.4V25.736h-1.459A1.55,1.55,0,0,1,136.521,24V10.387a1.55,1.55,0,0,1,1.706-1.732h1.459V6.488H128.441L124.5,20.1h-.683L119.969,6.488H108.536V8.655h1.613a1.55,1.55,0,0,1,1.706,1.732V24a1.55,1.55,0,0,1-1.706,1.732h-1.613V27.9h8.9V25.736h-1.024A1.537,1.537,0,0,1,114.739,24V9.158h.683l.145.282L120.72,27.9h4.292l5.256-18.4h.683l.06.392v14.12a1.55,1.55,0,0,1-1.706,1.732h-1.015v2.167Z" transform="translate(-15.846 -0.839)" fill="#ed1c24"></path>
  <path id="Path_382" data-name="Path 382" d="M160.852,6.169V9.112h-2.065a1.622,1.622,0,0,0-1.015.247,1.451,1.451,0,0,0-.3,1.092V24.068a1.177,1.177,0,0,0,1.314,1.348h2.031V28.36H147.824V25.417h2.031a1.177,1.177,0,0,0,1.314-1.348V9.982c0-.58-.435-.879-1.314-.879H147.79V6.16h13.054Z" transform="translate(-21.722 -0.904)" fill="#fff"></path>
  <path id="Path_383" data-name="Path 383" d="M161.145,28.686H147.374v-3.72H149.8c.657,0,.921-.273.921-.956V9.916c0-.162,0-.486-.921-.486H147.34V5.71h13.83V9.43h-2.457a1.206,1.206,0,0,0-.768.162c-.017.017-.162.154-.162.793V24c0,.683.264.956.921.956h2.423v3.72ZM148.151,27.9H160.36V25.734h-1.647A1.55,1.55,0,0,1,157.007,24V10.385a1.716,1.716,0,0,1,.435-1.391,1.935,1.935,0,0,1,1.271-.341h1.681V6.486H148.116V8.654H149.8c1.485,0,1.706.793,1.706,1.263V24a1.55,1.55,0,0,1-1.706,1.732h-1.647V27.9Z" transform="translate(-21.656 -0.838)" fill="#ed1c24"></path>
  <path id="Path_384" data-name="Path 384" d="M168.4,14.685h-3.1V6.17h22.226v8.515h-3.1a6.843,6.843,0,0,0-1.066-4.181q-1.062-1.395-3.788-1.391V24.078c0,.9.427,1.348,1.28,1.348h2.031V28.37H169.89V25.427h2.065a1.177,1.177,0,0,0,1.314-1.348V9.114c-1.817,0-3.08.461-3.805,1.391a6.781,6.781,0,0,0-1.084,4.181Z" transform="translate(-24.293 -0.905)" fill="#fff"></path>
  <path id="Path_385" data-name="Path 385" d="M183.208,28.686H169.437v-3.72h2.457c.657,0,.921-.273.921-.956V9.438a3.936,3.936,0,0,0-3.106,1.237,6.414,6.414,0,0,0-1,3.942v.392H164.83V5.71h23V15H183.95v-.392a6.538,6.538,0,0,0-.981-3.942,3.893,3.893,0,0,0-3.089-1.229V24c0,.691.247.956.9.956H183.2v3.72ZM170.222,27.9h12.209V25.734h-1.647A1.537,1.537,0,0,1,179.112,24V8.654h.392c1.937,0,3.31.52,4.1,1.544a6.849,6.849,0,0,1,1.135,4.027h2.329V6.486H165.615v7.738h2.329A6.827,6.827,0,0,1,169.1,10.2c.793-1.024,2.176-1.544,4.112-1.544h.392V24.011a1.55,1.55,0,0,1-1.706,1.732h-1.681V27.91Z" transform="translate(-24.224 -0.838)" fill="#ed1c24"></path>
  <path id="Path_386" data-name="Path 386" d="M202.812,15.367H210.2V10.112c0-.665-.435-1-1.314-1h-1.408V6.17h12.4V9.114h-2.1c-.853,0-1.28.452-1.28,1.348V24.172a1.12,1.12,0,0,0,1.28,1.254h2.065V28.37H207.5V25.427h1.374a1.687,1.687,0,0,0,1-.23,1.025,1.025,0,0,0,.316-.862V18.328H202.8v5.913c0,.793.435,1.186,1.314,1.186h1.374V28.37H193.154V25.427h2.031a1.177,1.177,0,0,0,1.314-1.348V10.018c0-.606-.435-.9-1.314-.9H193.12V6.17h12.4V9.114h-1.408a1.38,1.38,0,0,0-.99.316,1.5,1.5,0,0,0-.333,1.126v4.821Z" transform="translate(-28.377 -0.905)" fill="#fff"></path>
  <path id="Path_387" data-name="Path 387" d="M220.168,28.685H207.055v-3.72h1.766a1.3,1.3,0,0,0,.768-.154.706.706,0,0,0,.154-.546V18.643H203.13v5.529c0,.478.154.8.921.8h1.766v3.72H192.7v-3.72h2.423c.657,0,.921-.273.921-.956V9.949c0-.171,0-.52-.921-.52H192.67V5.709h13.173v3.72h-1.8a1.028,1.028,0,0,0-.717.2c-.077.077-.2.282-.2.845v4.428h6.612V10.034c0-.213,0-.614-.921-.614h-1.8V5.7h13.173V9.42H217.7c-.631,0-.9.273-.9.956V24.086c0,.623.247.862.9.862h2.457v3.72ZM207.831,27.9h11.552V25.733H217.7a1.505,1.505,0,0,1-1.672-1.638V10.384A1.537,1.537,0,0,1,217.7,8.652h1.706V6.485h-11.62V8.652h1.024c1.485,0,1.706.87,1.706,1.391v5.648h-8.165V10.478a1.849,1.849,0,0,1,.452-1.408,1.741,1.741,0,0,1,1.254-.418h1.024V6.485h-11.62V8.652h1.681c1.485,0,1.706.811,1.706,1.3V24a1.55,1.55,0,0,1-1.706,1.732H193.5V27.9H205.05V25.733h-.99a1.5,1.5,0,0,1-1.706-1.578V17.849h8.165v6.4a1.353,1.353,0,0,1-.469,1.169,2,2,0,0,1-1.237.316h-.99V27.9Z" transform="translate(-28.311 -0.836)" fill="#ed1c24"></path>
  <path id="Path_388" data-name="Path 388" d="M27.2,36.48H68.6l-5.691,6.877H36.389v8.651H212.172l-2.833,3.114H36.389v10.6H63.572L58.444,72.6H27.2l.691-.964V37.726Z" transform="translate(-4.019 -5.355)" fill="#ed1c24"></path>
  <path id="Path_389" data-name="Path 389" d="M27.056,36.407v.427H67.549l-4.991,6.024H35.818v9.5H211.064l-2.056,2.261H35.818v11.45H62.583l-4.5,6.032h-30.2l.2-.29.085-.111V37.541l-.751-1.34-.367.2v0l-.375.2.64,1.152V71.43l-1.1,1.527H58.513l5.768-7.738H36.672V55.475H209.383l3.6-3.967H36.672v-7.8H62.958l6.4-7.73H26.322l.358.631Z" transform="translate(-3.875 -5.282)" fill="#fff"></path>
  <path id="Path_390" data-name="Path 390" d="M71.109,55.079,66.433,43.45h5.5L74.1,50.711h.06l2.124-7.261H81.8L76.97,55.079l5.239,12.03H76.527l-2.517-7.79-2.577,7.79h-5.5Z" transform="translate(-9.705 -6.378)" fill="#ed1c24"></path>
  <path id="Path_391" data-name="Path 391" d="M71,55.006l.4-.154L66.953,43.8h4.556l2.159,7.261h.7L76.5,43.8h4.548L76.4,55.014l5.051,11.595H76.731l-2.824-8.737-2.892,8.737H66.467l4.991-11.595-.06-.162-.4.154-.392-.171L65.17,67.462h6.459L73.9,60.62l2.21,6.843h6.646L77.328,55.006l5-12.056H75.86l-2.218,7.568.41.119v-.427h-.06v.427l.41-.128L72.149,42.95H65.69L70.6,55.168,71,55.006l-.392-.171Z" transform="translate(-9.593 -6.305)" fill="#fff"></path>
  <path id="Path_392" data-name="Path 392" d="M95.7,51.587c0-3.447-.358-4.966-2.014-4.966-1.988,0-2.159,2.116-2.159,8.319,0,7.022.2,8.848,2.278,8.848,1.834,0,2.039-2.355,2.073-6.032h4.795v.828c0,5.1-1.271,8.907-7.431,8.907S86.37,62.158,86.37,55.034c0-6.058.3-12.124,7.346-12.124,4.385,0,6.783,2.116,6.783,7.687v.99H95.7Z" transform="translate(-12.705 -6.299)" fill="#ed1c24"></path>
  <path id="Path_393" data-name="Path 393" d="M95.623,51.512h.427a12.285,12.285,0,0,0-.41-3.925,2.289,2.289,0,0,0-.759-1.1,2.073,2.073,0,0,0-1.271-.375,2.006,2.006,0,0,0-1.476.555,4.6,4.6,0,0,0-.947,2.79c-.137,1.314-.162,3.071-.162,5.4a36.887,36.887,0,0,0,.375,7.15,2.959,2.959,0,0,0,.819,1.613,2.2,2.2,0,0,0,1.519.5,1.945,1.945,0,0,0,1.4-.546,4.036,4.036,0,0,0,.913-2.321,27.132,27.132,0,0,0,.188-3.583h-.427V58.1h4.368v.4c0,2.517-.324,4.667-1.331,6.126a4.758,4.758,0,0,1-2.09,1.715,8.748,8.748,0,0,1-3.583.64A5.45,5.45,0,0,1,87.22,61.93a35.336,35.336,0,0,1-.486-6.979c0-3.02.085-6.015,1-8.174a5.444,5.444,0,0,1,2.031-2.551,6.989,6.989,0,0,1,3.891-.973c2.133,0,3.686.512,4.718,1.621s1.63,2.909,1.63,5.64v.563H95.632V51.5h0v.427h5.222V50.514c0-2.841-.606-4.88-1.86-6.22A6.98,6.98,0,0,0,93.653,42.4,7.82,7.82,0,0,0,89.3,43.509a7.308,7.308,0,0,0-2.944,4.846,32.145,32.145,0,0,0-.478,6.587c0,3.575.119,6.723,1.084,9.061A5.916,5.916,0,0,0,89.19,66.81a7.173,7.173,0,0,0,3.993,1.015,9.768,9.768,0,0,0,3.933-.708,5.84,5.84,0,0,0,3.165-3.413,14.611,14.611,0,0,0,.759-5.213V57.237H95.393v.427a19.078,19.078,0,0,1-.35,4.283,2.237,2.237,0,0,1-.512,1.024,1.035,1.035,0,0,1-.793.3,1.323,1.323,0,0,1-.947-.282,1.638,1.638,0,0,1-.435-.751,10.876,10.876,0,0,1-.384-2.636c-.068-1.212-.085-2.773-.085-4.744a35.533,35.533,0,0,1,.324-6.39,2.358,2.358,0,0,1,.538-1.194,1.144,1.144,0,0,1,.87-.307,1.24,1.24,0,0,1,.759.2,2.061,2.061,0,0,1,.631,1.331,16.552,16.552,0,0,1,.188,3v.427h.427V51.5Z" transform="translate(-12.633 -6.224)" fill="#fff"></path>
  <path id="Path_394" data-name="Path 394" d="M109.214,43.45h6.22l5.273,23.65h-5.153l-.768-4.5h-5.059l-.742,4.5H103.83l5.392-23.65Zm3.02,4.309h-.06L110.425,58.3h3.609l-1.809-10.537Z" transform="translate(-15.269 -6.378)" fill="#ed1c24"></path>
  <path id="Path_395" data-name="Path 395" d="M109.121,43.377V43.8H115l5.076,22.8h-4.257l-.768-4.5h-5.785l-.742,4.5h-4.257l5.273-23.13-.418-.094v0l-.418-.094-5.5,24.171h6.049l.742-4.5h4.343l.768,4.5h6.041l-5.46-24.5h-6.9l-.077.333.418.094Zm3.02,4.309v-.427h-.418l-1.886,11.39h4.624l-1.954-11.39h-.358v.427l-.418.068,1.723,10.034h-2.6l1.664-10.034-.418-.068v.427h.06v-.427l-.418.068.418-.068Z" transform="translate(-15.176 -6.305)" fill="#fff"></path>
  <path id="Path_396" data-name="Path 396" d="M122.7,43.45h5.324l2.517,18.292h.06l2.551-18.292h5.324l-4.795,23.659H127.35Z" transform="translate(-18.039 -6.378)" fill="#ed1c24"></path>
  <path id="Path_397" data-name="Path 397" d="M122.61,43.377V43.8h4.957L130.084,62.1h.8L133.429,43.8h4.437l-4.624,22.806H127.61L123.029,43.3l-.418.077v0l-.418.085,4.718,24h7.03l4.974-24.512h-6.228l-2.594,18.659.418.06v-.427h-.06v.427l.427-.06L128.31,42.95h-6.22l.1.512Z" transform="translate(-17.949 -6.305)" fill="#fff"></path>
  <path id="Path_398" data-name="Path 398" d="M145.434,43.45h6.22l5.273,23.65h-5.153L151,62.6h-5.059l-.742,4.5H140.05l5.392-23.65Zm3.02,4.309h-.06L146.645,58.3h3.609l-1.809-10.537Z" transform="translate(-20.586 -6.378)" fill="#ed1c24"></path>
  <path id="Path_399" data-name="Path 399" d="M145.341,43.377V43.8h5.878L156.3,66.6h-4.257l-.768-4.5h-5.785l-.742,4.5h-4.257l5.273-23.13-.418-.094v0l-.418-.094-5.5,24.171h6.049l.742-4.5h4.343l.768,4.5h6.041l-5.46-24.5H145l-.077.333.418.094Zm3.02,4.309v-.427h-.418l-1.886,11.39h4.624l-1.954-11.39h-.358v.427l-.418.068,1.723,10.034h-2.6l1.664-10.034-.418-.068v.427h.06v-.427l-.418.068.418-.068Z" transform="translate(-20.493 -6.305)" fill="#fff"></path>
  <path id="Path_400" data-name="Path 400" d="M162.637,47.955H158.2v-4.5h13.856v4.5h-4.445V67.109h-4.974Z" transform="translate(-23.251 -6.378)" fill="#ed1c24"></path>
  <path id="Path_401" data-name="Path 401" d="M162.563,47.881v-.427h-4.01V43.8h13v3.652h-4.445V66.609H162.99V47.455h-.427v.427h-.427V67.462h5.827V48.308h4.445V42.95H157.7v5.358h4.863v-.427h0Z" transform="translate(-23.177 -6.305)" fill="#fff"></path>
  <rect id="Rectangle_1527" data-name="Rectangle 1527" width="4.974" height="23.65" transform="translate(150.614 37.072)" fill="#ed1c24"></rect>
  <path id="Path_402" data-name="Path 402" d="M176.487,43.377V43.8h4.539V66.609H176.9V43.377h-.418v0h-.427V67.462h5.819V42.95H176.06v.427Z" transform="translate(-25.872 -6.305)" fill="#fff"></path>
  <path id="Path_403" data-name="Path 403" d="M192.971,67.492c-6.544,0-7.431-4.769-7.431-12.286s.887-12.286,7.431-12.286c7.047,0,7.431,5.733,7.431,12.286S200.019,67.492,192.971,67.492Zm-.026-3.711c2.014,0,2.312-2.09,2.312-8.583s-.3-8.583-2.312-8.583-2.252,2.09-2.252,8.583S190.992,63.781,192.946,63.781Z" transform="translate(-27.264 -6.301)" fill="#ed1c24"></path>
  <path id="Path_404" data-name="Path 404" d="M192.9,67.414v-.427a7.436,7.436,0,0,1-3.711-.811,5.884,5.884,0,0,1-2.679-3.967,29.739,29.739,0,0,1-.614-7.09c0-3.746.23-6.774,1.22-8.779a5.039,5.039,0,0,1,2.073-2.278,7.436,7.436,0,0,1,3.711-.811,7.315,7.315,0,0,1,3.908.93,6.264,6.264,0,0,1,2.611,4.249,32.088,32.088,0,0,1,.486,6.68c0,3.268-.111,6.305-1.041,8.438a5.3,5.3,0,0,1-2.056,2.491,7.238,7.238,0,0,1-3.908.93v.853a8.021,8.021,0,0,0,4.36-1.066,7.122,7.122,0,0,0,2.995-4.786,32.689,32.689,0,0,0,.5-6.86c0-3.285-.085-6.4-1.109-8.771a6.172,6.172,0,0,0-2.389-2.884,8.1,8.1,0,0,0-4.36-1.066,8.243,8.243,0,0,0-4.129.921,6.743,6.743,0,0,0-3.089,4.5,30.25,30.25,0,0,0-.64,7.3c0,3.78.213,6.894,1.305,9.155a5.875,5.875,0,0,0,2.423,2.645,8.265,8.265,0,0,0,4.129.921v-.427Zm-.026-3.711v.427a2.1,2.1,0,0,0,1.5-.546,4.629,4.629,0,0,0,1.032-2.841,51.341,51.341,0,0,0,.2-5.623,33.27,33.27,0,0,0-.41-6.826,3.233,3.233,0,0,0-.819-1.638,2.109,2.109,0,0,0-1.5-.546,2.047,2.047,0,0,0-1.476.546,4.686,4.686,0,0,0-1,2.841,51.58,51.58,0,0,0-.2,5.614,34.073,34.073,0,0,0,.4,6.826,3.323,3.323,0,0,0,.793,1.63,2.012,2.012,0,0,0,1.476.546v-.853a1.127,1.127,0,0,1-.879-.307,4.028,4.028,0,0,1-.751-2.329,51.091,51.091,0,0,1-.2-5.52,33.286,33.286,0,0,1,.384-6.629,2.488,2.488,0,0,1,.563-1.22,1.179,1.179,0,0,1,.879-.307,1.217,1.217,0,0,1,.913.307,3.881,3.881,0,0,1,.768,2.329,51.092,51.092,0,0,1,.2,5.52,33.132,33.132,0,0,1-.384,6.621,2.518,2.518,0,0,1-.58,1.22,1.217,1.217,0,0,1-.913.307v.427Z" transform="translate(-27.191 -6.223)" fill="#fff"></path>
  <path id="Path_405" data-name="Path 405" d="M206.01,43.45h5.716l4.087,15.375h.06V43.45h4.616V67.109h-5.623l-4.351-16.3h-.06v16.3H206.01Z" transform="translate(-30.269 -6.378)" fill="#ed1c24"></path>
  <path id="Path_406" data-name="Path 406" d="M205.937,43.377V43.8h5.392l4.087,15.375h.811V43.8h3.763V66.609h-4.872l-4.351-16.3h-.811v16.3h-3.592V43.377h-.427v0h-.427V67.462h5.3V50.731h-.427v.427h.06v-.427l-.41.111,4.437,16.62h6.373V42.95h-5.469v15.8h.427v-.427h-.06v.427l.41-.111-4.164-15.69H205.51v.427Z" transform="translate(-30.196 -6.305)" fill="#fff"></path>
  <path id="Path_407" data-name="Path 407" d="M188.98,106.474,209.3,96.389,10.91,90.98Z" transform="translate(-1.627 -13.356)" fill="#ed1c24"></path>
  <path id="Path_408" data-name="Path 408" d="M178.9,104.568l13.839,8.592L71.26,103.45Z" transform="translate(-10.487 -15.187)" fill="#fff"></path>
  <path id="Path_409" data-name="Path 409" d="M38.807.512a1.347,1.347,0,0,0,.239-.068A6,6,0,0,1,41.332,0c1.621.009,3.251.017,4.872,0a5.73,5.73,0,0,1,5.452,4.087,5.558,5.558,0,0,1,.23,1.493,2.652,2.652,0,0,1-.077.512c-.128.648-.29,1.3-.4,1.954-.119.708-.188,1.425-.273,2.133-.094.768-.2,1.527-.29,2.3-.043.316-.077.631-.119.947-.017.145-.043.29-.068.444-.213.034-.4.077-.6.094-1.084.111-2.167.23-3.259.307a55.212,55.212,0,0,1-5.7.162c-1.032-.034-2.073-.1-3.106-.239-.273-.034-.546-.111-.828-.128a.566.566,0,0,1-.427-.256,5.811,5.811,0,0,1-.939-1.792,5.4,5.4,0,0,1-.256-1.613V5.614a2.521,2.521,0,0,1,.017-.358.8.8,0,0,0-.2-.691M49.8,7.755a1.14,1.14,0,0,0,.043-.119c0-.529.009-1.066,0-1.6a3.054,3.054,0,0,0-.094-.674A4.3,4.3,0,0,0,45.547,2C44.336,2,43.124,2,41.913,2a4.619,4.619,0,0,0-.836.077,4.251,4.251,0,0,0-3.455,3.746c-.051.6-.026,1.194-.034,1.792a.875.875,0,0,0,.034.119c.051,0,.1.026.154.026H49.787ZM37.6,8.72a9.793,9.793,0,0,0-.017,1.109,4.267,4.267,0,0,0,.93,2.577,3.381,3.381,0,0,0,.657.648c.128-.051.247-.1.367-.154q2.47-1.113,4.931-2.235c1.314-.6,2.636-1.194,3.95-1.792.077-.034.171-.051.188-.162H37.587Z" transform="translate(-5.217 0)" fill="#fff"></path>
  <path id="Path_410" data-name="Path 410" d="M52.273,16.5c.068-.538.128-1.024.2-1.51.119-.939.239-1.868.35-2.807a8.836,8.836,0,0,0,.068-.956c.009-.785,0-1.57,0-2.355,0-.128.009-.256.017-.41.111-.009.2-.026.29-.026h5.35A12.487,12.487,0,0,1,61,8.67a4.439,4.439,0,0,1,.99.307,1.578,1.578,0,0,1,.9.819h4.445c.017.094.043.171.051.247v8.6a1.624,1.624,0,0,1-.239.06c-.119.009-.239,0-.358,0H40.132c-.623,0-.461.077-.819-.452-.239-.35-.478-.708-.708-1.058-.051-.077-.085-.162-.145-.273.3.026.563.051.819.077.461.043.921.111,1.391.128,1.092.043,2.176.111,3.268.068.9-.034,1.809-.068,2.713-.119.853-.051,1.7-.111,2.543-.188.606-.051,1.212-.137,1.826-.2l.87-.1c.119-.017.23-.043.375-.068Z" transform="translate(-5.672 -1.239)" fill="#fff"></path>
  <path id="Path_411" data-name="Path 411" d="M51.763,21.9h16.2a3.963,3.963,0,0,1,1.34.171,3.563,3.563,0,0,1,2.466,2.961A3.653,3.653,0,0,1,68.2,29.161H35.595a4.249,4.249,0,0,1-1.527-.247,3.635,3.635,0,0,1,.734-6.988c.094-.017.188-.017.282-.026h16.68Zm.017,1.894h-13.8c-.264,0-.529.009-.8.009A4.244,4.244,0,0,0,36,23.99,3.069,3.069,0,0,0,34.8,24.6a1.121,1.121,0,0,0-.017,1.826,2.537,2.537,0,0,0,.853.5,5.193,5.193,0,0,0,1.868.324H66a5.721,5.721,0,0,0,1.075-.094,3.967,3.967,0,0,0,1.34-.495,1.822,1.822,0,0,0,.606-.563.973.973,0,0,0,0-1.16,1.718,1.718,0,0,0-.375-.41,3.144,3.144,0,0,0-.538-.333,4.186,4.186,0,0,0-1.57-.4c-.316-.017-.64-.017-.956-.017H51.78Z" transform="translate(-4.684 -3.215)" fill="#fff"></path>
  <path id="Path_412" data-name="Path 412" d="M8.58,41.487l10.477-5.315c.034-.017.077-.026.137-.051.026.077.043.137.06.2a9.482,9.482,0,0,1-.119,4.4,6.032,6.032,0,0,1-1.4,2.585,5.084,5.084,0,0,1-2.517,1.493,4.3,4.3,0,0,1-2.278-.077A7.114,7.114,0,0,1,10.892,43.7a12,12,0,0,1-1.843-1.638c-.119-.128-.239-.264-.358-.4a1.88,1.88,0,0,1-.1-.162Z" transform="translate(-1.285 -5.302)" fill="#fff"></path>
  <path id="Path_413" data-name="Path 413" d="M8.042,40.458a6.154,6.154,0,0,1-.862-1.2,10.561,10.561,0,0,0,1.775-1.22,8.069,8.069,0,0,0,1.416-1.63.886.886,0,0,1,.367,0,5.98,5.98,0,0,0,2.628-.3A6.323,6.323,0,0,0,15.6,34.751c.085-.077.171-.145.247-.222a3.006,3.006,0,0,0,.734-1.1c.171-.461.384-.9.58-1.348.043-.085.085-.179.137-.29a3.231,3.231,0,0,1,.3.5c.29.538.572,1.084.853,1.63a4.379,4.379,0,0,1,.392,1.024c-.06.119-.171.154-.264.2-.461.239-.93.469-1.4.708s-.93.478-1.4.717-.93.478-1.4.717c-.495.256-.99.5-1.485.759-.478.239-.956.478-1.433.725s-.947.486-1.425.734S9.083,40,8.6,40.228a2.025,2.025,0,0,1-.572.256Z" transform="translate(-1.08 -4.667)" fill="#fff"></path>
  <path id="Path_414" data-name="Path 414" d="M5.55,13.152c.026.137.043.256.068.375Q6.9,19.811,8.187,26.095,8.724,28.744,9.27,31.4c.017.068.026.128.043.2a.34.34,0,0,1-.06.282,8,8,0,0,1-1.084,1.314,8.042,8.042,0,0,1-1.647,1.246c-.145.085-.3.154-.452.23-.06-.051-.128-.094-.179-.145-.23-.222-.461-.461-.691-.674a2.006,2.006,0,0,1-.648-1.843c.026-.179.043-.358.068-.589a5.25,5.25,0,0,0-.606-.657,1.053,1.053,0,0,1-.307-.64c-.392-2.517-.785-5.042-1.186-7.559-.384-2.457-.768-4.906-1.152-7.363a.216.216,0,0,0-.017-.1.563.563,0,0,1,.179-.64Q.777,12.525.03,10.618a1.211,1.211,0,0,1,.094-.154c.341-.427.691-.845,1.024-1.271a.511.511,0,0,1,.324-.2c1.237-.239,2.466-.486,3.7-.734h.111c.119.23.077.5.179.759.111-.017.23-.034.35-.06Q10.076,8.033,14.33,7.1l9.291-2.022a2.421,2.421,0,0,1,.264-.051.4.4,0,0,1,.461.469,1.662,1.662,0,0,1-.051.2c-.111.384-.222.768-.333,1.16-.026.085-.034.171-.06.273a1.927,1.927,0,0,0,.282.034,11.9,11.9,0,0,1,2.935.606c2.466.836,2.508,1.075,4.983,1.9a18.988,18.988,0,0,1,.1,4.6c-4.164-1.288-5.887-2.005-10.042-3.3a1.119,1.119,0,0,0-.555-.043q-7.884,1.113-15.776,2.21c-.077.009-.145.026-.247.043Z" transform="translate(-0.03 -0.738)" fill="#fff"></path>
  <text id="_412_-_577_-_6445" data-name="412 - 577 - 6445" transform="translate(86.906 74.746)" fill="#fff" font-size="12" font-family="Nimbus Sans" font-weight="700">
    <tspan x="0" y="0">412 - 577 - 6445</tspan>
  </text>
</svg>
