<svg width="604" height="389" viewBox="0 0 604 389" fill="none" xmlns="http://www.w3.org/2000/svg">
<mask id="path-1-inside-1_468_2597" fill="white">
<path fill-rule="evenodd" clip-rule="evenodd" d="M0 126.614V132.467C3.15724 136.164 3.84064 144.058 2.44777 148.954L1.12752 150.958C1.84537 152.693 2.76899 153.983 3.46449 155.935C4.19165 158.034 4.50076 159.674 5.48024 161.626C8.19337 167.044 1.49157 163.989 8.44197 171.881C10.0872 171.463 9.74173 171.734 10.6532 170.468C11.5899 172.121 11.7808 172.496 11.6458 174.698L9.98195 175.1C9.30879 184.249 9.06857 183.186 14.0619 188.001C16.9007 190.725 14.2099 191.718 13.4576 193.841C12.4679 196.589 19.6939 210.727 21.1296 213.123C22.5308 215.459 24.1602 215.653 23.6584 219.316C23.2934 221.905 22.5308 224.105 22.2217 226.911C26.8379 229.365 27.9655 231.976 34.5779 232.203C36.7892 234.805 37.9623 238.98 41.1754 240.531C43.4993 241.671 45.1092 240.601 46.0542 242.882C47.2618 245.791 46.2469 246.259 49.6118 246.979C57.6562 248.71 57.9634 261.35 58.807 267.544L87.2557 271.939C89.8412 276.784 90.5265 275.224 95.6083 277.789C97.2181 278.587 100.885 281.852 104.032 283.473C107.175 285.09 108.455 285.207 113.549 288.023C116.614 289.712 119.532 291.573 122.287 293.374L130.472 299.249C132.626 300.709 139.681 300.741 142.737 301.05C151.35 301.931 159.91 303.139 168.471 303.87L169.349 297.094L191.389 298.85C192.973 301.656 192.712 302.32 195.128 304.951C197.467 307.523 204.793 312.517 206.205 314.422C206.752 315.162 206.297 314.344 206.617 315.257L207.858 317.968C208.725 319.237 208.45 320.23 208.952 322.108C211.084 330.04 221.957 340.786 230.151 342.507C231.861 340.161 236.999 335.26 239.462 333.487C241.479 332.037 243.43 331.03 246.472 331.099C249.104 331.146 252.077 332.079 253.114 333.847C256.431 339.484 254.973 337.202 259.566 341.079C261.197 342.451 260.328 342.175 261.23 344.228C263.371 349.089 269.323 356.231 273.208 360.006C275.397 362.119 276.138 361.948 276.811 365.678C277.436 369.178 280.4 376.435 281.906 379.093C285.518 385.504 296.46 382.754 301.677 387.055C303.81 388.823 305.896 388.389 308.587 387.365C307.89 386.122 306.924 386.3 305.987 385.583C307.96 379.241 302.466 377.015 303.776 372.965C304.402 371.047 304.428 369.954 304.564 367.88L301.977 367.195L302.066 365.56L304.953 366.017C304.871 363.852 304.94 362.767 305.887 361.09L303.973 359.825C305.443 358.627 305.409 359.326 306.754 358.615C306.811 353.996 308.518 355.349 309.797 354.021C309.807 354.009 310.356 353.15 310.442 353.024C311.583 351.416 312.167 351.12 312.281 348.955C314.321 349.398 312.908 349.204 314.435 350.161C315.597 348.759 315.744 348.876 317.68 348.246L316.803 345.747C326.148 344.334 333.888 342.175 336.2 332.549L336.862 329.604C337.17 328.875 336.909 329.33 337.331 328.852C339.679 329.341 339.67 331.53 338.787 333.712L353.936 328.51C358.611 326.161 356.592 327.917 361.059 328.84C364.013 329.447 367.557 329.309 370.703 329.297C372.046 328.977 370.393 328.34 374.599 324.836L381.451 328.326C382.191 325.589 380.298 324.255 379.5 321.882C384.307 322.828 383.42 328.326 383.206 332.135C385.118 333.644 385.415 333.927 388.391 334.714C390.943 332.022 393.806 332.147 398.728 331.123C398.567 329.743 398.274 327.481 397.387 326.696C395.549 325.053 394.636 327.586 395.184 323.525C397.44 323.706 400.143 326.276 401.99 327.712C403.743 329.068 406.866 331.612 408.494 332.47C409.365 331.978 410.946 330.174 411.382 328.84C409.283 326.092 405.316 326.534 404.358 323.206C405.224 320.682 406.056 321.437 408.224 320.442C408.825 318.765 408.519 318.7 407.733 317.537L401.272 318.256L400.984 316.007L398.842 315.846L398.103 317.367L392.963 317.397C392.129 316.329 391.252 315.447 390.765 314.159C391.824 313.839 392.79 313.483 393.919 313.017C396.186 312.104 395.674 311.944 397.375 312.972C405.831 318.059 406.32 310.746 410.707 310.188C417.353 309.334 418.035 312.197 421.727 307.063C421.774 306.994 421.853 306.893 421.901 306.833C421.947 306.768 422.027 306.643 422.061 306.594C422.094 306.55 422.162 306.436 422.218 306.353C424.954 308.945 424.897 310.154 429.914 308.854C432.511 308.172 431.406 307.449 432.25 305.648L448.33 305.866C451.987 306.162 453.082 307.521 455.545 309.913C460.128 314.376 463.421 309.438 467.26 307.906L467.213 305.182L474.805 304.773L479.674 311.538C482.294 314.069 484.746 313.555 487.889 315.37C494.912 319.407 488.551 327.039 492.938 334.068C494.273 333.348 493.043 333.621 494.625 332.583C496.973 334.464 496.493 335.937 494.913 338.494L496.941 341.733C499.994 348.828 502.331 341.472 506.365 347.982C509.134 352.456 511.755 357.361 515.268 361.204C517.843 364.024 519.13 363.671 522.426 365.461C521.716 367.809 522.323 365.814 521.456 366.604C520.898 367.106 521.207 365.86 520.362 367.915C521.947 368.278 525.797 367.323 527.234 366.817C532.888 359.495 532.088 348.883 528.875 339.542C525.776 330.576 521.329 324.256 517.046 317.17C517.298 317.011 516.867 316.622 518.64 317C519.658 317.207 518.347 317.959 519.77 317.139C513.972 309.299 506.721 305.296 505.228 291.582C502.914 291.813 502.925 294.013 502.935 296.671C498.767 293.308 504.019 290.304 504.215 289.804C504.157 287.327 503.426 285.022 502.935 282.595C502.106 278.542 506.595 269.485 506.753 260.418C508.578 259.542 508.955 259.813 510.732 258.523C517.729 253.446 525.048 240.431 528.204 232.539C529.674 228.874 533.617 230.267 536.194 228.064C538.815 225.828 537.332 220.651 539.372 218.768C542.224 216.147 546.531 213.086 550.074 210.99C551.911 209.895 551.555 208.844 550.814 206.937C548.651 207.667 547.068 210.907 544.105 209.685C544.732 208.331 545.266 208.544 547.079 208.363L548.081 203.324L544.98 203.656C545.664 202.034 546.679 201.201 547.703 199.398C554.076 202.535 557.597 194.469 555.373 191.128C554.588 189.942 555.01 190.293 553.652 189.814L552.582 192.817C550.826 192.679 549.404 192.085 547.614 192.291C545.176 192.59 545.813 193.567 543.021 193.694L542.711 189.336C544.842 189.575 545.368 189.724 547.272 188.848C548.411 188.311 550.599 187.832 551.532 187.179C549.129 182.15 551.627 182.641 549.743 179.846C547.511 176.549 547.362 177.346 543.217 177.687C541.87 177.803 540.682 177.908 539.682 177.12C541.162 175.407 540.83 175.83 543.339 176.414C542.621 174.095 541.106 174.585 540.317 173.093C540.9 171.782 540.112 172.944 541.244 171.93C541.519 171.691 541.962 171.45 542.381 171.084C541.663 169.603 538.792 168.016 537.583 166.67C539.294 166.041 539.656 167.023 541.641 167.056C541.697 161.262 539.717 163.819 537.821 161.021C538.94 159.221 538.575 160.224 540.263 159.31C539.28 158.159 537.835 157.224 536.969 155.59C536.158 154.052 535.532 152.126 534.8 150.506C532.854 146.192 534.244 147.289 535.884 143.241C536.684 141.263 535.997 141.551 537.56 141.127C538.413 141.653 538.106 141.254 538.175 142.247C538.313 143.956 537.242 146.727 537.298 148.13C537.389 150.914 540.33 149.685 539.85 154.635C545.436 154.624 542.505 160.873 548.343 161.113C548.191 164.115 547.121 165.858 547.098 169.589C548.637 168.951 549.275 167.399 549.89 165.71C551.909 160.258 551.635 153.47 551.228 147.741C550.369 147.492 549.38 147.183 548.671 146.705C547.828 146.156 548.124 146.217 547.544 145.758L546.29 145.004C544.57 143.942 544.604 141.859 544.513 139.391C547.008 140.567 547.875 140.577 550.839 141.171C551.374 142.368 551.167 143.406 551.179 145.026C555.407 142.574 558.372 124.129 557.265 121.451C554.622 120.889 553.333 121.835 553.22 118.356C553.142 116.121 554.095 114.089 555.111 112.574C557.299 109.309 559.633 107.291 562.791 104.976C565.882 102.719 568.364 101.04 571.794 99.0881C580.014 94.4321 575.399 96.7592 578.669 90.747C579.706 91.4805 579.988 91.9142 581.508 92.4038L584.037 89.6328C588.492 85.1602 591.434 86.2548 592.63 81.3391C590.691 80.6075 589.197 79.0111 587.093 78.8278C587.409 81.2265 588.788 80.4511 589.38 84.234C587.673 85.2868 586.293 85.5939 583.694 85.903C581.871 82.3118 574.533 79.295 578.896 74.075C576.106 71.814 574.306 70.7082 576.175 65.6547C578.557 59.219 586.99 50.5251 588.005 45.2687C588.597 42.21 586.271 43.0459 588.218 40.7747C591.591 42.1309 587.717 42.8737 591.844 42.8737C591.913 42.7937 592.005 42.5423 592.027 42.5973L593.131 39.4818L595.81 39.1988C596.085 35.5332 599.546 34.1658 601.418 31.7625C602.136 30.8242 602.535 29.7761 603.104 28.8964V27.2666C600.299 26.1123 599.219 24.1865 597.016 22.2243C594.455 19.9438 594.718 18.7551 589.964 18.0384C589.37 13.038 586.328 5.87341 584.003 2.66113C583.214 1.58696 582.466 0.903738 581.017 0.413193C575.822 -1.3228 575.617 2.80914 571.707 5.43128L567.614 3.8107C564.38 14.531 564.023 27.5058 563.898 39.7564C559.865 40.9758 558.62 40.6704 558.771 45.4158C553.048 45.346 549.263 49.3392 544.889 50.8462C542.37 51.7091 540.148 52.5897 537.868 53.4842C532.146 55.7144 526.811 54.644 520.749 64.5005C518.595 68.0125 520.645 69.9179 518.834 71.4137C516.26 73.5463 516.328 72.7486 514.832 76.5016C516.531 77.9844 516.204 77.6447 519.03 77.6056L520.497 85.7671C519.304 86.7575 515.724 87.9443 513.797 89.3489C507.335 94.07 511.507 91.6648 507.483 92.6896C504.806 93.3738 502.251 94.3306 499.415 95.0511C497.146 95.6357 493.668 96.2938 491.765 97.435C492.688 99.9333 494.843 101.85 496.02 104.989C492.302 108.012 486.501 114.127 483.127 117.787C481.69 119.339 480.493 120.651 479.001 122.123C477.005 124.084 472.664 128.407 469.881 129.902C468.083 130.862 465.917 131.383 463.992 132.446C461.95 133.589 460.48 134.754 458.759 135.812C455.855 134.923 453.599 133.76 450.258 132.893C450.647 129.345 451.362 128.042 452.25 125.115C453.016 122.581 453.016 119.91 453.767 117.562C454.382 116.672 456.639 116.59 457.666 116.092C458.316 113.649 455.807 108.467 454.658 106.358C453.805 104.797 453.144 103.63 452.358 102.218C451.923 101.441 451.683 100.988 451.306 100.061L450.313 97.8361C443.137 98.9904 441.335 109.349 439.717 103.997C438.883 101.228 447.26 94.0384 443.272 87.9815C441.22 84.8688 441.029 86.817 441.916 82.1638C438.735 81.4303 434.246 79.9745 431.02 78.9209C430.018 78.5941 424.237 75.2171 422.917 81.5011C423.875 82.202 424.171 81.9814 424.888 82.8722C423.884 83.9231 423.304 84.2293 421.845 85.0522V91.0188C417.731 91.0188 420.544 89.8971 418.962 87.3895C416.18 88.6647 418.117 90.6269 414.162 91.4414C413.751 95.9428 412.533 101.99 412.464 106.302C412.428 108.677 413.843 110.022 414.732 112.122C415.529 113.981 416.181 116.082 416.66 118.247C419.019 129.036 416.936 137.914 408.496 140.913C405.283 139.454 402.928 136.011 402.879 130.851C402.821 126.265 403.168 127.656 401.512 124.157C400.659 122.343 400.132 120.256 399.998 117.986C399.402 108.277 403.789 99.9491 404.591 90.7786C401.442 92.2046 399.893 95.3071 398.448 98.2383C397.672 99.8104 397.957 100.279 396.44 100.529C394.73 97.4629 402.47 85.8713 402.81 80.3738C405.204 81.6537 404.726 81.1353 407.552 79.8815C407.47 80.5442 407.185 81.1269 407.156 81.5597C407.097 82.6004 406.903 82.0987 407.483 82.7456L412.807 78.0021C415.712 75.7542 415.657 75.07 417.776 72.891L425.503 75.0933C426.744 72.1491 427.51 72.6154 429.722 72.9477C433.437 73.4923 430.178 69.5586 427.397 67.5201C426.21 68.1456 424.889 68.8633 423.109 69.0467C420.593 69.3092 421.821 68.7739 419.861 67.6532C419.631 66.1406 419.931 65.1828 419.36 64.0156C418.185 63.6879 417.824 65.0544 415.725 65.6361C414.004 66.1025 412.477 66.1844 411.154 67.0984C409.412 68.2713 406.586 71.693 404.68 72.2878C401.253 73.3489 398.196 70.5062 396.099 69.217C392.406 66.9327 391.77 66.6842 387.242 68.0656C386.593 62.0077 390.002 61.9882 391.79 58.3924C387.437 59.6118 384.564 62.4313 381.542 65.2377C378.499 68.0563 376.222 70.7463 372.13 72.6853C367.401 74.9332 365.397 73.5295 365.397 76.7678L362.866 77.0685C362.82 77.1802 362.773 77.3273 362.741 77.4297C362.717 77.5218 362.661 77.6596 362.625 77.7834C361.897 80.8644 362.92 75.4591 362.478 78.5001C362.419 78.9004 362.457 79.5194 362.457 79.9755L360.426 79.9969C360.404 77.0685 360.14 76.1544 362.442 75.0924L362.272 71.3272C359.561 70.8459 356.003 74.3356 351.866 73.6561C350.874 73.483 351.342 73.6998 350.773 73.2084C351.229 71.4984 350.533 73.4355 352.131 72.0104C352.401 71.774 352.893 71.0991 353.201 70.6663C353.792 69.809 354.578 68.6445 355.205 67.8217C356.559 65.9991 358.374 63.5241 359.672 62.233C361.348 60.5557 362.875 58.7201 364.997 57.523C368.677 55.4361 368.004 57.227 370.979 53.5745C369.064 52.1624 364.553 52.262 361.849 52.3458C358.25 52.4463 356.447 53.4274 353.416 53.985C351.341 51.6579 349.234 50.9961 345.883 50.0736C345.199 50.8956 345.086 51.5695 344.172 51.8878C343.578 51.0566 343.692 50.4488 343.252 49.2759C343.136 48.9688 342.896 48.441 342.748 48.145L342.313 47.3259C342.292 47.1741 342.212 47.1425 342.155 47.0513C334.324 48.6942 330.143 46.8018 322.037 47.257C321.609 45.7872 320.934 43.9954 320.261 42.4762C319.668 41.1638 319.647 41.5175 318.975 40.5597C318.153 39.4073 318.793 39.7164 317.674 38.7678C317.105 39.7257 316.386 41.0828 315.851 42.1346C315.041 43.731 315.052 43.8325 313.218 44.323C310.518 45.0565 307.37 45.157 304.364 44.9979C296.898 44.5762 293.615 45.238 286.606 45.8542C267.732 47.5204 249.281 44.9737 230.544 44.1415C224.096 43.8567 218.294 44.2541 211.887 44.2541C200.549 44.2448 187.942 42.1914 177.251 39.9658C160.963 36.5804 143.402 35.106 127.035 31.445C124.539 30.8847 121.757 29.8701 119.353 29.4857C116.55 29.0379 113.61 28.8918 110.84 28.3203C108.378 27.8204 106.018 26.6541 103.079 26.0388C97.8493 24.9665 91.9799 24.543 86.8739 22.9689C84.3312 22.1833 82.5287 21.1352 79.8863 20.2882C76.3073 19.16 52.1443 10.9548 51.0289 11.2545C50.0717 12.9663 51.2691 12.5456 52.2141 14.6055C52.7048 15.7039 52.9441 17.2742 53.08 18.5773C53.4357 21.8063 53.3882 25.0698 53.6275 28.3985C49.4228 29.2325 50.1751 31.8332 50.298 35.4644C48.3846 36.775 45.7991 37.5271 43.4491 38.1656C42.9603 36.6605 42.5832 36.8764 42.6307 34.9012L46.6631 35.0976C47.1314 34.056 48.0904 33.1103 48.1333 32.2083C48.1901 31.2961 47.8502 31.0355 47.4499 30.6687C46.949 30.2015 47.3018 30.5561 46.6873 30.1549L46.1389 29.8235C46.6529 27.933 47.2897 27.2945 48.6472 26.1728L49.1044 25.7745C45.2954 24.1222 34.2883 17.115 31.767 16.1004C30.8434 16.6943 30.5827 17.0601 29.7159 17.7563C29.9337 21.2469 30.5035 25.3407 30.7996 29.2185C31.3787 36.9676 32.7027 35.7575 30.0911 38.7129L31.6664 42.2035C30.1041 43.7077 30.6953 42.5898 29.1228 43.5169C29.1097 45.1561 30.8992 47.6786 31.983 48.6504L28.1293 48.7286C27.8118 51.5229 26.8761 56.0067 26.1834 58.8355C25.7132 60.7837 24.9293 61.1979 23.8799 62.5877C21.0542 66.3529 21.2804 66.7187 20.5412 71.2695C20.2795 72.9226 15.9603 77.9174 13.7137 82.6116C1.79416 107.628 9.34789 103.87 5.87223 116.207C5.18882 118.59 5.85081 119.296 5.6767 121.59C4.31083 122.868 3.58274 123.084 2.57812 124.167C1.48039 125.329 1.41149 125.703 0 126.614Z"/>
</mask>
<path fill-rule="evenodd" clip-rule="evenodd" d="M0 126.614V132.467C3.15724 136.164 3.84064 144.058 2.44777 148.954L1.12752 150.958C1.84537 152.693 2.76899 153.983 3.46449 155.935C4.19165 158.034 4.50076 159.674 5.48024 161.626C8.19337 167.044 1.49157 163.989 8.44197 171.881C10.0872 171.463 9.74173 171.734 10.6532 170.468C11.5899 172.121 11.7808 172.496 11.6458 174.698L9.98195 175.1C9.30879 184.249 9.06857 183.186 14.0619 188.001C16.9007 190.725 14.2099 191.718 13.4576 193.841C12.4679 196.589 19.6939 210.727 21.1296 213.123C22.5308 215.459 24.1602 215.653 23.6584 219.316C23.2934 221.905 22.5308 224.105 22.2217 226.911C26.8379 229.365 27.9655 231.976 34.5779 232.203C36.7892 234.805 37.9623 238.98 41.1754 240.531C43.4993 241.671 45.1092 240.601 46.0542 242.882C47.2618 245.791 46.2469 246.259 49.6118 246.979C57.6562 248.71 57.9634 261.35 58.807 267.544L87.2557 271.939C89.8412 276.784 90.5265 275.224 95.6083 277.789C97.2181 278.587 100.885 281.852 104.032 283.473C107.175 285.09 108.455 285.207 113.549 288.023C116.614 289.712 119.532 291.573 122.287 293.374L130.472 299.249C132.626 300.709 139.681 300.741 142.737 301.05C151.35 301.931 159.91 303.139 168.471 303.87L169.349 297.094L191.389 298.85C192.973 301.656 192.712 302.32 195.128 304.951C197.467 307.523 204.793 312.517 206.205 314.422C206.752 315.162 206.297 314.344 206.617 315.257L207.858 317.968C208.725 319.237 208.45 320.23 208.952 322.108C211.084 330.04 221.957 340.786 230.151 342.507C231.861 340.161 236.999 335.26 239.462 333.487C241.479 332.037 243.43 331.03 246.472 331.099C249.104 331.146 252.077 332.079 253.114 333.847C256.431 339.484 254.973 337.202 259.566 341.079C261.197 342.451 260.328 342.175 261.23 344.228C263.371 349.089 269.323 356.231 273.208 360.006C275.397 362.119 276.138 361.948 276.811 365.678C277.436 369.178 280.4 376.435 281.906 379.093C285.518 385.504 296.46 382.754 301.677 387.055C303.81 388.823 305.896 388.389 308.587 387.365C307.89 386.122 306.924 386.3 305.987 385.583C307.96 379.241 302.466 377.015 303.776 372.965C304.402 371.047 304.428 369.954 304.564 367.88L301.977 367.195L302.066 365.56L304.953 366.017C304.871 363.852 304.94 362.767 305.887 361.09L303.973 359.825C305.443 358.627 305.409 359.326 306.754 358.615C306.811 353.996 308.518 355.349 309.797 354.021C309.807 354.009 310.356 353.15 310.442 353.024C311.583 351.416 312.167 351.12 312.281 348.955C314.321 349.398 312.908 349.204 314.435 350.161C315.597 348.759 315.744 348.876 317.68 348.246L316.803 345.747C326.148 344.334 333.888 342.175 336.2 332.549L336.862 329.604C337.17 328.875 336.909 329.33 337.331 328.852C339.679 329.341 339.67 331.53 338.787 333.712L353.936 328.51C358.611 326.161 356.592 327.917 361.059 328.84C364.013 329.447 367.557 329.309 370.703 329.297C372.046 328.977 370.393 328.34 374.599 324.836L381.451 328.326C382.191 325.589 380.298 324.255 379.5 321.882C384.307 322.828 383.42 328.326 383.206 332.135C385.118 333.644 385.415 333.927 388.391 334.714C390.943 332.022 393.806 332.147 398.728 331.123C398.567 329.743 398.274 327.481 397.387 326.696C395.549 325.053 394.636 327.586 395.184 323.525C397.44 323.706 400.143 326.276 401.99 327.712C403.743 329.068 406.866 331.612 408.494 332.47C409.365 331.978 410.946 330.174 411.382 328.84C409.283 326.092 405.316 326.534 404.358 323.206C405.224 320.682 406.056 321.437 408.224 320.442C408.825 318.765 408.519 318.7 407.733 317.537L401.272 318.256L400.984 316.007L398.842 315.846L398.103 317.367L392.963 317.397C392.129 316.329 391.252 315.447 390.765 314.159C391.824 313.839 392.79 313.483 393.919 313.017C396.186 312.104 395.674 311.944 397.375 312.972C405.831 318.059 406.32 310.746 410.707 310.188C417.353 309.334 418.035 312.197 421.727 307.063C421.774 306.994 421.853 306.893 421.901 306.833C421.947 306.768 422.027 306.643 422.061 306.594C422.094 306.55 422.162 306.436 422.218 306.353C424.954 308.945 424.897 310.154 429.914 308.854C432.511 308.172 431.406 307.449 432.25 305.648L448.33 305.866C451.987 306.162 453.082 307.521 455.545 309.913C460.128 314.376 463.421 309.438 467.26 307.906L467.213 305.182L474.805 304.773L479.674 311.538C482.294 314.069 484.746 313.555 487.889 315.37C494.912 319.407 488.551 327.039 492.938 334.068C494.273 333.348 493.043 333.621 494.625 332.583C496.973 334.464 496.493 335.937 494.913 338.494L496.941 341.733C499.994 348.828 502.331 341.472 506.365 347.982C509.134 352.456 511.755 357.361 515.268 361.204C517.843 364.024 519.13 363.671 522.426 365.461C521.716 367.809 522.323 365.814 521.456 366.604C520.898 367.106 521.207 365.86 520.362 367.915C521.947 368.278 525.797 367.323 527.234 366.817C532.888 359.495 532.088 348.883 528.875 339.542C525.776 330.576 521.329 324.256 517.046 317.17C517.298 317.011 516.867 316.622 518.64 317C519.658 317.207 518.347 317.959 519.77 317.139C513.972 309.299 506.721 305.296 505.228 291.582C502.914 291.813 502.925 294.013 502.935 296.671C498.767 293.308 504.019 290.304 504.215 289.804C504.157 287.327 503.426 285.022 502.935 282.595C502.106 278.542 506.595 269.485 506.753 260.418C508.578 259.542 508.955 259.813 510.732 258.523C517.729 253.446 525.048 240.431 528.204 232.539C529.674 228.874 533.617 230.267 536.194 228.064C538.815 225.828 537.332 220.651 539.372 218.768C542.224 216.147 546.531 213.086 550.074 210.99C551.911 209.895 551.555 208.844 550.814 206.937C548.651 207.667 547.068 210.907 544.105 209.685C544.732 208.331 545.266 208.544 547.079 208.363L548.081 203.324L544.98 203.656C545.664 202.034 546.679 201.201 547.703 199.398C554.076 202.535 557.597 194.469 555.373 191.128C554.588 189.942 555.01 190.293 553.652 189.814L552.582 192.817C550.826 192.679 549.404 192.085 547.614 192.291C545.176 192.59 545.813 193.567 543.021 193.694L542.711 189.336C544.842 189.575 545.368 189.724 547.272 188.848C548.411 188.311 550.599 187.832 551.532 187.179C549.129 182.15 551.627 182.641 549.743 179.846C547.511 176.549 547.362 177.346 543.217 177.687C541.87 177.803 540.682 177.908 539.682 177.12C541.162 175.407 540.83 175.83 543.339 176.414C542.621 174.095 541.106 174.585 540.317 173.093C540.9 171.782 540.112 172.944 541.244 171.93C541.519 171.691 541.962 171.45 542.381 171.084C541.663 169.603 538.792 168.016 537.583 166.67C539.294 166.041 539.656 167.023 541.641 167.056C541.697 161.262 539.717 163.819 537.821 161.021C538.94 159.221 538.575 160.224 540.263 159.31C539.28 158.159 537.835 157.224 536.969 155.59C536.158 154.052 535.532 152.126 534.8 150.506C532.854 146.192 534.244 147.289 535.884 143.241C536.684 141.263 535.997 141.551 537.56 141.127C538.413 141.653 538.106 141.254 538.175 142.247C538.313 143.956 537.242 146.727 537.298 148.13C537.389 150.914 540.33 149.685 539.85 154.635C545.436 154.624 542.505 160.873 548.343 161.113C548.191 164.115 547.121 165.858 547.098 169.589C548.637 168.951 549.275 167.399 549.89 165.71C551.909 160.258 551.635 153.47 551.228 147.741C550.369 147.492 549.38 147.183 548.671 146.705C547.828 146.156 548.124 146.217 547.544 145.758L546.29 145.004C544.57 143.942 544.604 141.859 544.513 139.391C547.008 140.567 547.875 140.577 550.839 141.171C551.374 142.368 551.167 143.406 551.179 145.026C555.407 142.574 558.372 124.129 557.265 121.451C554.622 120.889 553.333 121.835 553.22 118.356C553.142 116.121 554.095 114.089 555.111 112.574C557.299 109.309 559.633 107.291 562.791 104.976C565.882 102.719 568.364 101.04 571.794 99.0881C580.014 94.4321 575.399 96.7592 578.669 90.747C579.706 91.4805 579.988 91.9142 581.508 92.4038L584.037 89.6328C588.492 85.1602 591.434 86.2548 592.63 81.3391C590.691 80.6075 589.197 79.0111 587.093 78.8278C587.409 81.2265 588.788 80.4511 589.38 84.234C587.673 85.2868 586.293 85.5939 583.694 85.903C581.871 82.3118 574.533 79.295 578.896 74.075C576.106 71.814 574.306 70.7082 576.175 65.6547C578.557 59.219 586.99 50.5251 588.005 45.2687C588.597 42.21 586.271 43.0459 588.218 40.7747C591.591 42.1309 587.717 42.8737 591.844 42.8737C591.913 42.7937 592.005 42.5423 592.027 42.5973L593.131 39.4818L595.81 39.1988C596.085 35.5332 599.546 34.1658 601.418 31.7625C602.136 30.8242 602.535 29.7761 603.104 28.8964V27.2666C600.299 26.1123 599.219 24.1865 597.016 22.2243C594.455 19.9438 594.718 18.7551 589.964 18.0384C589.37 13.038 586.328 5.87341 584.003 2.66113C583.214 1.58696 582.466 0.903738 581.017 0.413193C575.822 -1.3228 575.617 2.80914 571.707 5.43128L567.614 3.8107C564.38 14.531 564.023 27.5058 563.898 39.7564C559.865 40.9758 558.62 40.6704 558.771 45.4158C553.048 45.346 549.263 49.3392 544.889 50.8462C542.37 51.7091 540.148 52.5897 537.868 53.4842C532.146 55.7144 526.811 54.644 520.749 64.5005C518.595 68.0125 520.645 69.9179 518.834 71.4137C516.26 73.5463 516.328 72.7486 514.832 76.5016C516.531 77.9844 516.204 77.6447 519.03 77.6056L520.497 85.7671C519.304 86.7575 515.724 87.9443 513.797 89.3489C507.335 94.07 511.507 91.6648 507.483 92.6896C504.806 93.3738 502.251 94.3306 499.415 95.0511C497.146 95.6357 493.668 96.2938 491.765 97.435C492.688 99.9333 494.843 101.85 496.02 104.989C492.302 108.012 486.501 114.127 483.127 117.787C481.69 119.339 480.493 120.651 479.001 122.123C477.005 124.084 472.664 128.407 469.881 129.902C468.083 130.862 465.917 131.383 463.992 132.446C461.95 133.589 460.48 134.754 458.759 135.812C455.855 134.923 453.599 133.76 450.258 132.893C450.647 129.345 451.362 128.042 452.25 125.115C453.016 122.581 453.016 119.91 453.767 117.562C454.382 116.672 456.639 116.59 457.666 116.092C458.316 113.649 455.807 108.467 454.658 106.358C453.805 104.797 453.144 103.63 452.358 102.218C451.923 101.441 451.683 100.988 451.306 100.061L450.313 97.8361C443.137 98.9904 441.335 109.349 439.717 103.997C438.883 101.228 447.26 94.0384 443.272 87.9815C441.22 84.8688 441.029 86.817 441.916 82.1638C438.735 81.4303 434.246 79.9745 431.02 78.9209C430.018 78.5941 424.237 75.2171 422.917 81.5011C423.875 82.202 424.171 81.9814 424.888 82.8722C423.884 83.9231 423.304 84.2293 421.845 85.0522V91.0188C417.731 91.0188 420.544 89.8971 418.962 87.3895C416.18 88.6647 418.117 90.6269 414.162 91.4414C413.751 95.9428 412.533 101.99 412.464 106.302C412.428 108.677 413.843 110.022 414.732 112.122C415.529 113.981 416.181 116.082 416.66 118.247C419.019 129.036 416.936 137.914 408.496 140.913C405.283 139.454 402.928 136.011 402.879 130.851C402.821 126.265 403.168 127.656 401.512 124.157C400.659 122.343 400.132 120.256 399.998 117.986C399.402 108.277 403.789 99.9491 404.591 90.7786C401.442 92.2046 399.893 95.3071 398.448 98.2383C397.672 99.8104 397.957 100.279 396.44 100.529C394.73 97.4629 402.47 85.8713 402.81 80.3738C405.204 81.6537 404.726 81.1353 407.552 79.8815C407.47 80.5442 407.185 81.1269 407.156 81.5597C407.097 82.6004 406.903 82.0987 407.483 82.7456L412.807 78.0021C415.712 75.7542 415.657 75.07 417.776 72.891L425.503 75.0933C426.744 72.1491 427.51 72.6154 429.722 72.9477C433.437 73.4923 430.178 69.5586 427.397 67.5201C426.21 68.1456 424.889 68.8633 423.109 69.0467C420.593 69.3092 421.821 68.7739 419.861 67.6532C419.631 66.1406 419.931 65.1828 419.36 64.0156C418.185 63.6879 417.824 65.0544 415.725 65.6361C414.004 66.1025 412.477 66.1844 411.154 67.0984C409.412 68.2713 406.586 71.693 404.68 72.2878C401.253 73.3489 398.196 70.5062 396.099 69.217C392.406 66.9327 391.77 66.6842 387.242 68.0656C386.593 62.0077 390.002 61.9882 391.79 58.3924C387.437 59.6118 384.564 62.4313 381.542 65.2377C378.499 68.0563 376.222 70.7463 372.13 72.6853C367.401 74.9332 365.397 73.5295 365.397 76.7678L362.866 77.0685C362.82 77.1802 362.773 77.3273 362.741 77.4297C362.717 77.5218 362.661 77.6596 362.625 77.7834C361.897 80.8644 362.92 75.4591 362.478 78.5001C362.419 78.9004 362.457 79.5194 362.457 79.9755L360.426 79.9969C360.404 77.0685 360.14 76.1544 362.442 75.0924L362.272 71.3272C359.561 70.8459 356.003 74.3356 351.866 73.6561C350.874 73.483 351.342 73.6998 350.773 73.2084C351.229 71.4984 350.533 73.4355 352.131 72.0104C352.401 71.774 352.893 71.0991 353.201 70.6663C353.792 69.809 354.578 68.6445 355.205 67.8217C356.559 65.9991 358.374 63.5241 359.672 62.233C361.348 60.5557 362.875 58.7201 364.997 57.523C368.677 55.4361 368.004 57.227 370.979 53.5745C369.064 52.1624 364.553 52.262 361.849 52.3458C358.25 52.4463 356.447 53.4274 353.416 53.985C351.341 51.6579 349.234 50.9961 345.883 50.0736C345.199 50.8956 345.086 51.5695 344.172 51.8878C343.578 51.0566 343.692 50.4488 343.252 49.2759C343.136 48.9688 342.896 48.441 342.748 48.145L342.313 47.3259C342.292 47.1741 342.212 47.1425 342.155 47.0513C334.324 48.6942 330.143 46.8018 322.037 47.257C321.609 45.7872 320.934 43.9954 320.261 42.4762C319.668 41.1638 319.647 41.5175 318.975 40.5597C318.153 39.4073 318.793 39.7164 317.674 38.7678C317.105 39.7257 316.386 41.0828 315.851 42.1346C315.041 43.731 315.052 43.8325 313.218 44.323C310.518 45.0565 307.37 45.157 304.364 44.9979C296.898 44.5762 293.615 45.238 286.606 45.8542C267.732 47.5204 249.281 44.9737 230.544 44.1415C224.096 43.8567 218.294 44.2541 211.887 44.2541C200.549 44.2448 187.942 42.1914 177.251 39.9658C160.963 36.5804 143.402 35.106 127.035 31.445C124.539 30.8847 121.757 29.8701 119.353 29.4857C116.55 29.0379 113.61 28.8918 110.84 28.3203C108.378 27.8204 106.018 26.6541 103.079 26.0388C97.8493 24.9665 91.9799 24.543 86.8739 22.9689C84.3312 22.1833 82.5287 21.1352 79.8863 20.2882C76.3073 19.16 52.1443 10.9548 51.0289 11.2545C50.0717 12.9663 51.2691 12.5456 52.2141 14.6055C52.7048 15.7039 52.9441 17.2742 53.08 18.5773C53.4357 21.8063 53.3882 25.0698 53.6275 28.3985C49.4228 29.2325 50.1751 31.8332 50.298 35.4644C48.3846 36.775 45.7991 37.5271 43.4491 38.1656C42.9603 36.6605 42.5832 36.8764 42.6307 34.9012L46.6631 35.0976C47.1314 34.056 48.0904 33.1103 48.1333 32.2083C48.1901 31.2961 47.8502 31.0355 47.4499 30.6687C46.949 30.2015 47.3018 30.5561 46.6873 30.1549L46.1389 29.8235C46.6529 27.933 47.2897 27.2945 48.6472 26.1728L49.1044 25.7745C45.2954 24.1222 34.2883 17.115 31.767 16.1004C30.8434 16.6943 30.5827 17.0601 29.7159 17.7563C29.9337 21.2469 30.5035 25.3407 30.7996 29.2185C31.3787 36.9676 32.7027 35.7575 30.0911 38.7129L31.6664 42.2035C30.1041 43.7077 30.6953 42.5898 29.1228 43.5169C29.1097 45.1561 30.8992 47.6786 31.983 48.6504L28.1293 48.7286C27.8118 51.5229 26.8761 56.0067 26.1834 58.8355C25.7132 60.7837 24.9293 61.1979 23.8799 62.5877C21.0542 66.3529 21.2804 66.7187 20.5412 71.2695C20.2795 72.9226 15.9603 77.9174 13.7137 82.6116C1.79416 107.628 9.34789 103.87 5.87223 116.207C5.18882 118.59 5.85081 119.296 5.6767 121.59C4.31083 122.868 3.58274 123.084 2.57812 124.167C1.48039 125.329 1.41149 125.703 0 126.614Z" fill="#FEFEFF" stroke="black" stroke-width="2" mask="url(#path-1-inside-1_468_2597)"/>
</svg>
