<svg width="541" height="352" viewBox="0 0 541 352" fill="none" xmlns="http://www.w3.org/2000/svg">
<mask id="path-1-inside-1_468_2692" fill="white">
<path d="M539.018 300.292L537.893 298.522L537.572 295.303L539.342 293.051L539.504 289.832L538.217 286.775L537.734 285.488L537.572 283.556L536.768 279.534L535.802 276.96L534.516 275.673L531.78 273.099L530.814 268.914L531.938 266.982L532.101 265.213L532.263 0H137.497L137.899 1.93193L138.22 3.38096L137.575 3.70183L136.528 3.94499L135.724 2.73922L134.275 2.57708L132.745 4.428L133.228 5.15076L134.353 6.83954L135.558 7.16041L136.203 7.32255V8.4506L134.592 10.9433L134.836 12.7132C134.836 12.7132 136.926 13.919 137.25 14.2432C137.571 14.5641 139.986 16.8979 139.986 16.8979L140.79 19.3906L140.628 21.6434L141.675 21.8832L142.398 22.7681L142.962 24.619L142.881 26.551V27.3548L144.168 27.8379L146.904 26.3888C146.904 26.3888 149.96 23.4132 150.284 23.4909C150.605 23.5719 153.02 24.136 153.02 24.136L153.26 25.1831C153.26 25.1831 153.662 26.5509 153.179 27.2737C152.696 27.9965 152.777 26.9529 152.696 27.9966C152.615 29.0436 152.615 29.0436 152.615 29.0436L153.338 30.4925C153.338 30.4925 156.074 33.6304 155.993 34.2755C155.911 34.9206 156.557 36.8492 156.557 36.8492L156.074 37.0889C156.074 37.0889 156.959 38.8588 157.198 39.021C157.442 39.1831 158.968 42.1587 158.968 42.1587L158.566 43.9285L157.117 45.4585L156.07 45.5396L155.023 44.6547L154.057 44.2527L153.574 44.3339L153.412 45.1376L154.699 46.8264C154.699 46.8264 155.584 49.2414 155.584 49.4812C155.584 49.7244 155.02 55.9999 155.02 55.9999L153.895 56.8849L152.608 56.4019C152.608 56.4019 151.642 55.679 151.723 55.115C151.804 54.5509 151.804 53.6661 151.804 53.6661L151.082 53.5039L149.957 53.9058L148.346 54.7907L147.701 53.2607L147.056 51.653L143.678 51.8928C143.678 51.8928 142.712 52.2948 142.631 52.619C142.55 52.9399 142.55 53.5849 142.55 53.5849C142.55 53.5849 143.033 54.7908 143.273 55.1927C143.516 55.5946 143.837 56.5606 143.594 56.6416C143.35 56.7227 142.064 57.2057 142.064 57.2057L140.858 56.4019L139.652 53.1831L138.605 50.687L139.73 49.0759L141.743 47.144L141.982 44.4082L140.777 41.1082L139.973 40.7063L139.169 41.2704C139.169 41.2704 138.044 42.7194 137.882 43.2834C137.72 43.8475 137.399 45.6173 137.399 46.3401C137.399 47.0629 137.72 55.5136 137.72 55.5136L138.284 56.8004L140.297 58.4081L142.55 60.0192L143.195 61.4682L142.31 65.3321L140.219 72.1716L138.368 74.6677L136.599 77.0016C136.599 77.0016 135.795 77.8054 135.954 78.6127C136.116 79.4165 137.24 81.1086 137.565 82.0712C137.885 83.0372 139.095 86.3371 139.095 86.3371L141.668 87.3842L144.002 87.4653L146.417 88.0293L146.9 95.2708L147.062 100.259C147.062 100.259 147.866 102.752 148.511 103.316C149.153 103.88 150.764 105.569 150.764 105.569C150.764 105.569 151.166 106.856 151.568 106.856C151.97 106.856 154.142 106.535 154.142 106.535L157.442 108.305C157.442 108.305 157.604 109.835 157.843 110.396C158.083 110.96 159.532 112.969 159.775 112.969C160.015 112.969 161.707 112.165 161.707 112.165C161.707 112.165 162.592 111.922 162.832 111.037C163.072 110.152 163.234 107.498 163.234 106.934C163.234 106.369 162.913 103.475 162.913 103.475L161.305 101.222L159.211 100.499L158.245 99.1314L157.198 96.1557L155.591 93.9839L154.868 94.6291L153.821 96.963V99.2968L153.74 100.182C153.74 100.182 152.051 99.7798 151.568 98.4119C151.085 97.044 151.004 97.8479 151.085 97.044C151.166 96.2401 151.004 94.065 151.004 94.065L150.761 90.7651L148.748 84.2464L147.542 82.3955L145.37 81.5916L142.232 81.1087L140.142 80.5446V79.8218C140.142 79.8218 140.946 78.9369 141.189 78.8558C141.432 78.7748 141.672 78.6938 142.074 78.3729C142.476 78.052 142.878 77.8898 143.279 77.167C143.681 76.4442 143.925 75.5559 143.925 75.3161C143.925 75.0729 144.972 73.9482 144.972 73.9482L146.339 73.5463L149.075 73.7895L152.132 74.4346C152.132 74.4346 153.017 73.7119 153.338 72.6648C153.659 71.6178 153.902 69.8479 153.902 69.8479L150.119 67.7538L148.994 65.3389L148.19 63.0861L147.545 62.3632C147.545 62.3632 147.302 59.9483 147.707 59.7085C148.109 59.4687 150.524 59.4687 150.524 59.4687V61.9613C150.524 61.9613 151.088 63.8933 151.409 64.1331C151.73 64.3763 154.226 66.3859 154.79 66.9499C155.354 67.514 159.779 70.4086 159.779 70.4086L161.63 71.6144L162.596 75.2351L162.839 77.4879L161.714 78.4539L158.816 77.8122H155.678L154.148 79.8252L152.216 82.8819L151.733 86.7458L153.182 88.7588L156.722 92.5417C156.722 92.5417 159.62 94.4737 159.941 94.7946C160.262 95.1155 161.873 97.2872 161.873 97.2872L162.839 98.9759C162.839 98.9759 164.69 101.631 164.69 102.033C164.69 102.435 165.011 103.965 165.011 103.965L166.058 104.448L166.379 103.32L165.977 99.5367L163.484 94.5479C163.484 94.5479 160.505 92.2141 160.346 91.8932C160.184 91.5724 158.414 88.9953 158.414 88.9953C158.414 88.9953 157.448 86.4215 157.448 86.1784C157.448 85.9352 157.448 84.4086 157.448 84.4086L158.414 82.8008L159.218 81.112L159.863 80.3082H161.633C161.633 80.3082 162.599 80.4703 162.68 80.7912C162.761 81.112 163.001 84.895 163.001 84.895L165.014 90.2855L166.382 94.6291C166.382 94.6291 169.037 98.1688 169.601 98.6518C170.165 99.1348 171.614 100.665 171.614 100.665C171.614 100.665 172.58 101.148 172.82 102.354C173.063 103.559 171.131 106.94 171.131 106.94L168.557 108.227L168.074 109.514L165.017 120.538C165.017 120.538 163.004 121.825 162.846 122.068C162.684 122.308 161.88 124.081 161.88 124.081L162.119 127.138L163.248 130.276C163.248 130.276 163.97 131.563 163.97 132.127C163.97 132.691 162.765 135.183 162.684 135.427C162.602 135.666 161.072 136.713 160.833 137.76C160.589 138.807 160.431 141.219 160.431 141.219L161.555 141.864L162.038 143.151L161.799 145.164L161.478 146.13L159.789 148.062L160.836 151.041L161.238 153.132L163.41 154.419L165.017 157.718C165.017 157.718 164.778 159.249 164.697 160.373C164.615 161.498 165.18 163.673 165.18 163.673L166.385 165.845L166.949 170.351L163.731 174.052C163.731 174.052 160.11 174.698 160.029 174.937C159.948 175.18 160.995 177.19 160.995 177.19C160.995 177.19 161.238 178.639 160.995 178.72C160.755 178.801 158.178 178.72 158.178 178.72L156.972 178.075L153.753 176.224L151.419 180.571C151.419 180.571 149.085 186.283 148.927 186.684C148.765 187.086 146.353 189.42 146.11 190.065C145.867 190.711 145.627 192.72 145.627 192.72L142.168 195.135L137.983 195.375L135.487 194.328L133.88 192.075L132.914 191.19L131.789 192.156L129.698 191.031L128.813 190.95L127.364 192.48V194.01L127.202 196.425L125.513 198.195L125.112 197.793L125.193 195.861L125.03 193.929C125.03 193.929 123.582 194.091 123.5 194.895C123.419 195.699 122.453 197.067 122.453 197.067L121.248 196.101L122.376 194.331C122.376 194.331 123.983 192.159 123.983 191.757C123.983 191.356 123.983 190.069 123.983 190.069C123.983 190.069 122.778 190.954 122.697 191.193C122.616 191.437 119.961 194.733 119.961 194.733L119.076 192.724L119.316 191.035L121.41 189.346L122.055 188.542L122.94 187.576L122.457 185.725L123.342 183.472L124.71 181.22L127.125 183.472C127.125 183.472 128.01 185.563 128.249 186.208C128.493 186.853 129.296 187.657 129.617 187.576C129.938 187.495 130.664 186.448 130.745 186.127C130.826 185.806 129.54 182.344 129.54 182.344L128.975 179.689C128.975 179.689 130.343 176.471 130.664 175.829C130.985 175.184 131.792 170.195 131.792 170.195C131.792 170.195 132.032 169.472 132.275 169.472C132.519 169.472 133.805 170.195 133.805 170.195L134.288 173.174L133.724 175.346L132.113 178.001C132.113 178.001 130.907 179.125 131.63 180.172C132.356 181.22 135.011 184.921 135.251 185.725C135.444 186.364 136.038 188.508 136.477 189.376L137.102 187.012L138.632 185.806L139.838 186.853L138.632 188.464C138.632 188.464 137.828 190.555 138.068 190.717C138.308 190.879 140.081 191.521 140.321 191.521C140.564 191.521 141.608 189.43 141.608 189.43L142.492 187.417L143.056 185.806L141.608 183.716L138.71 182.51L138.146 180.338L136.859 178.97C136.859 178.97 136.457 177.764 137.261 176.396C138.064 175.028 139.716 169.797 139.716 169.797L143.056 167.865L143.702 169.152C143.702 169.152 143.941 170.763 143.702 171.002C143.458 171.242 141.689 173.495 141.689 173.495L141.206 175.025C141.206 175.025 140.804 176.072 141.527 176.231C142.249 176.393 143.458 176.714 143.458 176.714L143.806 179.288C143.806 179.288 144.826 181.702 145.066 182.104C145.306 182.506 146.353 184.438 146.836 184.438C147.319 184.438 147.964 183.797 147.964 183.553C147.964 183.314 147.16 181.622 147.16 181.622L146.113 179.689C146.113 179.689 146.434 179.125 146.677 179.044C146.92 178.963 147.964 179.689 147.964 179.689H148.849C148.849 179.689 149.332 179.207 149.413 178.724C149.494 178.241 149.413 176.873 149.413 176.873V174.62V172.529C149.413 172.529 149.977 170.999 150.217 170.84C150.46 170.678 151.906 170.357 151.906 170.357L152.551 171.968H153.274L154.077 171.242L155.766 171.08L158.262 170.276L160.032 168.587L160.275 166.737L159.228 164.565L159.066 161.508L159.147 159.174L156.009 155.553L155.928 152.656L154.804 151.771L153.517 153.378C153.517 153.378 150.943 153.459 151.024 152.976C151.105 152.493 151.105 150.241 151.105 150.241L149.818 149.356L147.001 148.792L144.428 150.241C144.428 150.241 143.945 150.48 143.945 150.241C143.945 149.997 143.141 148.792 143.141 148.792L142.094 145.573L141.692 142.594L143.141 143.077L143.945 144.766L144.59 146.616L147.245 146.86L149.177 146.377H150.305L152.878 147.663C152.878 147.663 152.716 148.146 153.28 147.663C153.844 147.18 154.486 145.573 154.486 145.573L154.648 141.148L154.327 138.656L154.81 136.001L153.524 134.39L150.386 135.437L149.984 137.609L148.336 139.459H147.491L146.606 137.288L146.042 135.437L146.363 134.39H147.974L148.336 133.265L150.467 129.884H153.284L156.503 129.401L157.225 126.182L154.169 120.471L153.284 117.09L151.271 112.101L148.856 111.378L148.332 112.584C148.332 112.584 148.937 115.08 148.937 115.401C148.937 115.722 149.339 119.184 149.339 119.184L149.018 120.309L148.336 120.228L146.525 119.663L145.64 120.711L140.571 128.354C140.571 128.354 138.639 131.654 138.318 132.539C137.997 133.424 137.595 135.356 137.514 135.92C137.433 136.484 136.389 138.493 136.389 138.493L132.687 139.54L124.72 146.863C124.72 146.863 121.903 150.484 121.42 151.45C120.937 152.416 118.363 156.682 118.363 156.682L115.627 159.9C115.627 159.9 113.858 162.396 113.456 163.521C113.054 164.649 112.571 166.338 112.733 167.223C112.895 168.108 114.344 169.236 114.344 169.236L117.161 169.719C117.161 169.719 119.414 168.672 120.059 168.27C120.704 167.868 123.44 166.5 123.44 166.5C123.44 166.5 125.692 165.777 126.175 165.453C126.658 165.132 127.381 165.132 127.381 165.132V166.26L126.979 167.064C126.979 167.064 124.243 168.111 123.761 168.27C123.278 168.432 119.978 169.8 119.495 170.121C119.012 170.442 116.999 171.087 116.759 171.168C116.519 171.249 111.53 171.33 111.53 171.33C111.53 171.33 109.919 170.847 109.919 170.526C109.919 170.205 109.196 168.192 109.196 167.709C109.196 167.226 110.483 163.204 110.483 163.204C110.483 163.204 114.506 153.709 114.989 152.5C115.472 151.294 119.093 145.421 119.093 145.421C119.093 145.421 123.034 142.766 123.517 142.202C124 141.638 125.932 139.706 125.932 139.706L126.898 136.73L129.394 135.845C129.394 135.845 132.049 136.247 132.292 136.247C132.535 136.247 134.062 135.602 134.062 135.602L135.673 132.545L137.041 129.891L137.284 126.672L138.973 123.534L146.377 115.968L145.171 113.476L142.999 112.51C142.999 112.51 142.516 110.821 142.597 109.774C142.678 108.727 140.986 106.798 140.986 106.798C140.986 106.798 138.733 105.43 138.733 105.11C138.733 104.789 138.814 103.178 138.814 103.178H140.422C140.422 103.178 142.516 102.614 142.516 102.293C142.516 101.972 141.631 100.361 141.631 98.8341C141.631 97.3041 141.793 94.0076 141.793 94.0076L140.425 94.5716C140.425 94.5716 138.818 97.3074 138.737 97.5472C138.656 97.7904 137.126 100.202 137.126 100.202L135.677 98.4322L134.751 95.8584L135.595 93.3659C135.595 93.3659 136.16 92.3998 136.399 91.9169C136.639 91.4339 134.751 89.664 134.751 89.664L130.607 90.9509L127.952 93.2848C127.952 93.2848 127.067 94.5716 127.067 94.8148C127.067 95.058 127.952 96.5847 127.952 96.5847L129.641 98.1146C129.641 98.1146 130.769 98.5977 130.928 98.8375C131.09 99.0807 131.975 99.9622 131.894 100.607C131.813 101.252 131.171 103.1 131.171 103.1L129.56 104.63C129.56 104.63 128.594 104.873 128.594 104.228C128.594 103.583 128.354 103.505 128.354 102.539C128.354 101.573 128.192 100.526 128.192 100.526L125.777 99.3981C125.777 99.3981 125.534 98.6754 125.534 98.1924C125.534 97.7094 125.372 95.3755 125.372 95.3755L123.038 94.6527L122.555 94.7338L120.785 96.5036L120.383 98.1146L120.14 101.415L119.336 100.851L118.37 99.0807L117.242 96.588L116.921 93.0483L114.989 91.2785L112.334 89.6674L111.689 88.1374L110.804 86.9316L106.353 89.7215L105.816 91.1164L93.6935 92.0824L90.4747 91.7615L89.1878 90.1538L85.1111 90.2619L82.1085 88.975L80.0684 90.5828L76.8496 89.5087L74.0597 88.3299L71.2699 86.9349L62.9003 88.438L52.3859 87.6848L42.7295 84.466L39.8316 80.602L32.2152 78.3492L25.3486 76.4173L22.4506 73.3066L14.4053 68.5847L13.3583 67.0547L9.09239 66.4906L6.51872 62.6301L0.401941 63.5961L0 64.8424V65.9299L3.38096 68.9866L4.98867 70.1114L5.06974 71.8001L4.26586 73.7321L2.89795 74.6171L3.06009 77.113L2.97902 78.8018C2.97902 78.8018 2.57711 79.2038 2.33393 79.2848C2.09412 79.3659 1.85092 80.7337 1.85092 80.7337L2.49601 82.3415V83.4663L2.01305 84.8342L0.807231 86.2831L0.00340147 87.7321L0.648496 89.1L1.85427 90.7111L3.30324 94.8148C3.30324 94.8148 3.54305 96.5036 3.30324 96.7467C3.06006 96.9899 2.49941 98.2768 2.49941 98.2768L4.10712 103.667L3.5701 108.281L7.53869 112.679L8.18384 116.972L10.3286 117.829L12.2606 118.687L13.3617 120.94L14.9457 123.622L18.3807 125.017L19.2386 128.877L21.2786 131.343L22.6735 134.883V140.354L25.6762 146.684L27.6082 169.108L29.4321 170.503L31.2559 172.539L31.6849 175.113V176.292L36.0825 180.048L37.0485 196.462L37.6936 198.178L38.4434 213.09L39.2743 213.776H40.3618L40.8448 212.891L42.3749 213.252L43.1382 212.688L42.6957 211.601L41.8919 210.756C41.8919 210.756 41.1285 208.625 41.2096 208.223C41.2907 207.821 41.4899 206.051 41.4899 206.051L40.7672 204.846L41.2907 203.157L42.5775 202.593L46.1577 202.431L47.9276 203.961L48.9746 205.531L49.7379 207.622L50.3831 208.385L52.0313 209.03L55.2501 209.432L61.7688 210.56V211.165L58.9519 212.171L53.3181 214.262L48.37 216.637L48.0897 219.251C48.0897 219.251 49.0151 220.457 48.8125 220.659C48.6098 220.862 48.289 221.504 48.289 221.504L47.4446 221.183L45.7153 219.454L44.8709 217.765L44.3068 216.356L39.6796 215.15L39.558 215.796L40.2808 217.768L41.4055 218.856L43.8069 228.982L44.6108 233.058L46.9717 233.595L49.5994 233.97L50.6195 235.149H51.0484H51.6936L52.2306 233.754L53.4634 233.808L54.6962 234.291L55.6622 234.024C55.6622 234.024 56.466 233.166 56.466 233.004C56.466 232.842 58.1818 232.038 58.1818 232.038L60.1138 233.7L61.762 235.149L62.2045 235.74L61.762 236.277L59.3336 237.402L58.5061 237.618L55.5541 238.905L55.392 240.891L55.446 243.252L55.3379 244.647L54.2639 244.863L53.8349 244.971L53.943 245.775L54.5341 246.741C54.5341 246.741 55.6622 248.244 55.7669 248.511C55.875 248.777 56.1418 249.96 56.1418 249.96L57.3746 251.517L58.1244 252.429C58.1244 252.429 58.6615 253.178 58.7155 253.607C58.7695 254.036 58.4487 255.377 58.4487 255.377L56.5167 256.556L55.8716 256.823L55.3886 257.36C55.3886 257.36 55.3345 260.15 55.1758 260.258C55.0137 260.366 54.3179 260.687 54.3179 260.687C54.3179 260.687 53.6728 261.17 53.6222 260.579C53.5681 259.988 53.6222 258.542 53.6222 258.542L53.5681 257.684C53.5681 257.684 53.1932 257.255 52.977 257.255C52.7608 257.255 51.6362 257.846 51.6362 257.846L50.7242 258.812L50.5621 260.099L50.937 261.386L52.5987 263.156C52.5987 263.156 53.2439 263.96 53.2945 264.28C53.3486 264.601 53.4566 268.732 53.4566 268.732L52.9196 269.59L50.7749 269.161L49.8089 267.874L49.6468 266.317L49.5927 248.078L48.0897 246.417L47.8769 244.11L47.3399 241.641L46.4279 241.749L45.2492 242.877C45.2492 242.877 45.2492 246.954 45.2492 247.17C45.2492 247.386 46.1071 272.971 46.1071 272.971C46.1071 272.971 46.053 275.869 45.8943 276.028C45.7321 276.19 45.1444 278.926 45.1444 278.926C45.1444 278.926 45.6275 279.729 45.7896 279.729C45.9517 279.729 45.9517 279.729 45.9517 279.729L47.1304 278.926L47.7756 277.156L48.7956 276.136L50.1905 276.028L52.4434 277.635L53.7842 280.104L56.7869 282.894L58.9857 282.681L60.8096 281.769L62.5794 279.733L64.3493 278.5L65.9063 279.145L67.8383 279.037L69.5 276.946L70.6788 276.355L72.9857 277.105L74.1138 279.412L76.2045 280.753L80.1731 280.27C80.1731 280.27 84.412 279.466 84.5707 279.466C84.7328 279.466 88.8636 280.591 88.8636 280.591L91.5454 284.292L91.8662 286.116L92.9943 287.136L92.4573 287.782L91.3832 287.727L91.0084 288.585L93.4773 291.267L96.534 292.395L96.7502 291.217L99.6988 291.754L102.81 291.379L105.866 288.214C105.866 288.214 110.963 287.569 111.125 287.569C111.287 287.569 114.128 288.697 114.128 288.697V289.93L116.918 290.359L118.204 293.415L122.71 295.989L126.571 297.921L128.661 301.944C128.661 301.944 129.465 306.932 130.11 307.736C130.755 308.54 133.971 311.117 133.971 311.117V314.978V318.196V320.449V323.185V326.083L136.707 327.532L137.028 329.464L136.382 334.936L136.545 339.279L139.926 344.268L145.559 345.717L150.869 347.649C150.869 347.649 156.503 349.581 157.144 349.581C157.789 349.581 165.997 350.064 165.997 350.064L166.963 350.868L171.951 351.671L177.261 350.868L181.284 348.132L186.755 347.007L190.295 343.147L194.318 341.377V339.928L195.122 337.996L199.144 335.905L203.329 335.743L206.71 336.547L213.306 336.385L217.65 335.098L221.993 333.49L225.212 334.615L229.556 336.547L235.51 336.064L241.627 338.154L244.201 340.569V343.626L246.937 344.109L251.28 342.981L252.246 341.532L259.005 342.177L263.51 342.339L265.28 343.143L267.533 341.211C267.533 341.211 269.948 339.441 270.914 339.12C271.88 338.8 276.707 337.351 276.707 337.351L280.246 335.902L284.107 333.004H287.163L289.899 334.128L292.152 336.864L302.612 335.736L312.59 334.449L324.982 323.989L344.295 322.219L347.352 320.932L349.121 319.483L353.306 314.174L356.525 313.529L359.423 314.816L365.54 315.457L374.713 312.721L380.185 313.687L384.69 314.17L390.324 313.042L398.694 306.443H540.311V303.224L539.018 300.292Z"/>
</mask>
<path d="M539.018 300.292L537.893 298.522L537.572 295.303L539.342 293.051L539.504 289.832L538.217 286.775L537.734 285.488L537.572 283.556L536.768 279.534L535.802 276.96L534.516 275.673L531.78 273.099L530.814 268.914L531.938 266.982L532.101 265.213L532.263 0H137.497L137.899 1.93193L138.22 3.38096L137.575 3.70183L136.528 3.94499L135.724 2.73922L134.275 2.57708L132.745 4.428L133.228 5.15076L134.353 6.83954L135.558 7.16041L136.203 7.32255V8.4506L134.592 10.9433L134.836 12.7132C134.836 12.7132 136.926 13.919 137.25 14.2432C137.571 14.5641 139.986 16.8979 139.986 16.8979L140.79 19.3906L140.628 21.6434L141.675 21.8832L142.398 22.7681L142.962 24.619L142.881 26.551V27.3548L144.168 27.8379L146.904 26.3888C146.904 26.3888 149.96 23.4132 150.284 23.4909C150.605 23.5719 153.02 24.136 153.02 24.136L153.26 25.1831C153.26 25.1831 153.662 26.5509 153.179 27.2737C152.696 27.9965 152.777 26.9529 152.696 27.9966C152.615 29.0436 152.615 29.0436 152.615 29.0436L153.338 30.4925C153.338 30.4925 156.074 33.6304 155.993 34.2755C155.911 34.9206 156.557 36.8492 156.557 36.8492L156.074 37.0889C156.074 37.0889 156.959 38.8588 157.198 39.021C157.442 39.1831 158.968 42.1587 158.968 42.1587L158.566 43.9285L157.117 45.4585L156.07 45.5396L155.023 44.6547L154.057 44.2527L153.574 44.3339L153.412 45.1376L154.699 46.8264C154.699 46.8264 155.584 49.2414 155.584 49.4812C155.584 49.7244 155.02 55.9999 155.02 55.9999L153.895 56.8849L152.608 56.4019C152.608 56.4019 151.642 55.679 151.723 55.115C151.804 54.5509 151.804 53.6661 151.804 53.6661L151.082 53.5039L149.957 53.9058L148.346 54.7907L147.701 53.2607L147.056 51.653L143.678 51.8928C143.678 51.8928 142.712 52.2948 142.631 52.619C142.55 52.9399 142.55 53.5849 142.55 53.5849C142.55 53.5849 143.033 54.7908 143.273 55.1927C143.516 55.5946 143.837 56.5606 143.594 56.6416C143.35 56.7227 142.064 57.2057 142.064 57.2057L140.858 56.4019L139.652 53.1831L138.605 50.687L139.73 49.0759L141.743 47.144L141.982 44.4082L140.777 41.1082L139.973 40.7063L139.169 41.2704C139.169 41.2704 138.044 42.7194 137.882 43.2834C137.72 43.8475 137.399 45.6173 137.399 46.3401C137.399 47.0629 137.72 55.5136 137.72 55.5136L138.284 56.8004L140.297 58.4081L142.55 60.0192L143.195 61.4682L142.31 65.3321L140.219 72.1716L138.368 74.6677L136.599 77.0016C136.599 77.0016 135.795 77.8054 135.954 78.6127C136.116 79.4165 137.24 81.1086 137.565 82.0712C137.885 83.0372 139.095 86.3371 139.095 86.3371L141.668 87.3842L144.002 87.4653L146.417 88.0293L146.9 95.2708L147.062 100.259C147.062 100.259 147.866 102.752 148.511 103.316C149.153 103.88 150.764 105.569 150.764 105.569C150.764 105.569 151.166 106.856 151.568 106.856C151.97 106.856 154.142 106.535 154.142 106.535L157.442 108.305C157.442 108.305 157.604 109.835 157.843 110.396C158.083 110.96 159.532 112.969 159.775 112.969C160.015 112.969 161.707 112.165 161.707 112.165C161.707 112.165 162.592 111.922 162.832 111.037C163.072 110.152 163.234 107.498 163.234 106.934C163.234 106.369 162.913 103.475 162.913 103.475L161.305 101.222L159.211 100.499L158.245 99.1314L157.198 96.1557L155.591 93.9839L154.868 94.6291L153.821 96.963V99.2968L153.74 100.182C153.74 100.182 152.051 99.7798 151.568 98.4119C151.085 97.044 151.004 97.8479 151.085 97.044C151.166 96.2401 151.004 94.065 151.004 94.065L150.761 90.7651L148.748 84.2464L147.542 82.3955L145.37 81.5916L142.232 81.1087L140.142 80.5446V79.8218C140.142 79.8218 140.946 78.9369 141.189 78.8558C141.432 78.7748 141.672 78.6938 142.074 78.3729C142.476 78.052 142.878 77.8898 143.279 77.167C143.681 76.4442 143.925 75.5559 143.925 75.3161C143.925 75.0729 144.972 73.9482 144.972 73.9482L146.339 73.5463L149.075 73.7895L152.132 74.4346C152.132 74.4346 153.017 73.7119 153.338 72.6648C153.659 71.6178 153.902 69.8479 153.902 69.8479L150.119 67.7538L148.994 65.3389L148.19 63.0861L147.545 62.3632C147.545 62.3632 147.302 59.9483 147.707 59.7085C148.109 59.4687 150.524 59.4687 150.524 59.4687V61.9613C150.524 61.9613 151.088 63.8933 151.409 64.1331C151.73 64.3763 154.226 66.3859 154.79 66.9499C155.354 67.514 159.779 70.4086 159.779 70.4086L161.63 71.6144L162.596 75.2351L162.839 77.4879L161.714 78.4539L158.816 77.8122H155.678L154.148 79.8252L152.216 82.8819L151.733 86.7458L153.182 88.7588L156.722 92.5417C156.722 92.5417 159.62 94.4737 159.941 94.7946C160.262 95.1155 161.873 97.2872 161.873 97.2872L162.839 98.9759C162.839 98.9759 164.69 101.631 164.69 102.033C164.69 102.435 165.011 103.965 165.011 103.965L166.058 104.448L166.379 103.32L165.977 99.5367L163.484 94.5479C163.484 94.5479 160.505 92.2141 160.346 91.8932C160.184 91.5724 158.414 88.9953 158.414 88.9953C158.414 88.9953 157.448 86.4215 157.448 86.1784C157.448 85.9352 157.448 84.4086 157.448 84.4086L158.414 82.8008L159.218 81.112L159.863 80.3082H161.633C161.633 80.3082 162.599 80.4703 162.68 80.7912C162.761 81.112 163.001 84.895 163.001 84.895L165.014 90.2855L166.382 94.6291C166.382 94.6291 169.037 98.1688 169.601 98.6518C170.165 99.1348 171.614 100.665 171.614 100.665C171.614 100.665 172.58 101.148 172.82 102.354C173.063 103.559 171.131 106.94 171.131 106.94L168.557 108.227L168.074 109.514L165.017 120.538C165.017 120.538 163.004 121.825 162.846 122.068C162.684 122.308 161.88 124.081 161.88 124.081L162.119 127.138L163.248 130.276C163.248 130.276 163.97 131.563 163.97 132.127C163.97 132.691 162.765 135.183 162.684 135.427C162.602 135.666 161.072 136.713 160.833 137.76C160.589 138.807 160.431 141.219 160.431 141.219L161.555 141.864L162.038 143.151L161.799 145.164L161.478 146.13L159.789 148.062L160.836 151.041L161.238 153.132L163.41 154.419L165.017 157.718C165.017 157.718 164.778 159.249 164.697 160.373C164.615 161.498 165.18 163.673 165.18 163.673L166.385 165.845L166.949 170.351L163.731 174.052C163.731 174.052 160.11 174.698 160.029 174.937C159.948 175.18 160.995 177.19 160.995 177.19C160.995 177.19 161.238 178.639 160.995 178.72C160.755 178.801 158.178 178.72 158.178 178.72L156.972 178.075L153.753 176.224L151.419 180.571C151.419 180.571 149.085 186.283 148.927 186.684C148.765 187.086 146.353 189.42 146.11 190.065C145.867 190.711 145.627 192.72 145.627 192.72L142.168 195.135L137.983 195.375L135.487 194.328L133.88 192.075L132.914 191.19L131.789 192.156L129.698 191.031L128.813 190.95L127.364 192.48V194.01L127.202 196.425L125.513 198.195L125.112 197.793L125.193 195.861L125.03 193.929C125.03 193.929 123.582 194.091 123.5 194.895C123.419 195.699 122.453 197.067 122.453 197.067L121.248 196.101L122.376 194.331C122.376 194.331 123.983 192.159 123.983 191.757C123.983 191.356 123.983 190.069 123.983 190.069C123.983 190.069 122.778 190.954 122.697 191.193C122.616 191.437 119.961 194.733 119.961 194.733L119.076 192.724L119.316 191.035L121.41 189.346L122.055 188.542L122.94 187.576L122.457 185.725L123.342 183.472L124.71 181.22L127.125 183.472C127.125 183.472 128.01 185.563 128.249 186.208C128.493 186.853 129.296 187.657 129.617 187.576C129.938 187.495 130.664 186.448 130.745 186.127C130.826 185.806 129.54 182.344 129.54 182.344L128.975 179.689C128.975 179.689 130.343 176.471 130.664 175.829C130.985 175.184 131.792 170.195 131.792 170.195C131.792 170.195 132.032 169.472 132.275 169.472C132.519 169.472 133.805 170.195 133.805 170.195L134.288 173.174L133.724 175.346L132.113 178.001C132.113 178.001 130.907 179.125 131.63 180.172C132.356 181.22 135.011 184.921 135.251 185.725C135.444 186.364 136.038 188.508 136.477 189.376L137.102 187.012L138.632 185.806L139.838 186.853L138.632 188.464C138.632 188.464 137.828 190.555 138.068 190.717C138.308 190.879 140.081 191.521 140.321 191.521C140.564 191.521 141.608 189.43 141.608 189.43L142.492 187.417L143.056 185.806L141.608 183.716L138.71 182.51L138.146 180.338L136.859 178.97C136.859 178.97 136.457 177.764 137.261 176.396C138.064 175.028 139.716 169.797 139.716 169.797L143.056 167.865L143.702 169.152C143.702 169.152 143.941 170.763 143.702 171.002C143.458 171.242 141.689 173.495 141.689 173.495L141.206 175.025C141.206 175.025 140.804 176.072 141.527 176.231C142.249 176.393 143.458 176.714 143.458 176.714L143.806 179.288C143.806 179.288 144.826 181.702 145.066 182.104C145.306 182.506 146.353 184.438 146.836 184.438C147.319 184.438 147.964 183.797 147.964 183.553C147.964 183.314 147.16 181.622 147.16 181.622L146.113 179.689C146.113 179.689 146.434 179.125 146.677 179.044C146.92 178.963 147.964 179.689 147.964 179.689H148.849C148.849 179.689 149.332 179.207 149.413 178.724C149.494 178.241 149.413 176.873 149.413 176.873V174.62V172.529C149.413 172.529 149.977 170.999 150.217 170.84C150.46 170.678 151.906 170.357 151.906 170.357L152.551 171.968H153.274L154.077 171.242L155.766 171.08L158.262 170.276L160.032 168.587L160.275 166.737L159.228 164.565L159.066 161.508L159.147 159.174L156.009 155.553L155.928 152.656L154.804 151.771L153.517 153.378C153.517 153.378 150.943 153.459 151.024 152.976C151.105 152.493 151.105 150.241 151.105 150.241L149.818 149.356L147.001 148.792L144.428 150.241C144.428 150.241 143.945 150.48 143.945 150.241C143.945 149.997 143.141 148.792 143.141 148.792L142.094 145.573L141.692 142.594L143.141 143.077L143.945 144.766L144.59 146.616L147.245 146.86L149.177 146.377H150.305L152.878 147.663C152.878 147.663 152.716 148.146 153.28 147.663C153.844 147.18 154.486 145.573 154.486 145.573L154.648 141.148L154.327 138.656L154.81 136.001L153.524 134.39L150.386 135.437L149.984 137.609L148.336 139.459H147.491L146.606 137.288L146.042 135.437L146.363 134.39H147.974L148.336 133.265L150.467 129.884H153.284L156.503 129.401L157.225 126.182L154.169 120.471L153.284 117.09L151.271 112.101L148.856 111.378L148.332 112.584C148.332 112.584 148.937 115.08 148.937 115.401C148.937 115.722 149.339 119.184 149.339 119.184L149.018 120.309L148.336 120.228L146.525 119.663L145.64 120.711L140.571 128.354C140.571 128.354 138.639 131.654 138.318 132.539C137.997 133.424 137.595 135.356 137.514 135.92C137.433 136.484 136.389 138.493 136.389 138.493L132.687 139.54L124.72 146.863C124.72 146.863 121.903 150.484 121.42 151.45C120.937 152.416 118.363 156.682 118.363 156.682L115.627 159.9C115.627 159.9 113.858 162.396 113.456 163.521C113.054 164.649 112.571 166.338 112.733 167.223C112.895 168.108 114.344 169.236 114.344 169.236L117.161 169.719C117.161 169.719 119.414 168.672 120.059 168.27C120.704 167.868 123.44 166.5 123.44 166.5C123.44 166.5 125.692 165.777 126.175 165.453C126.658 165.132 127.381 165.132 127.381 165.132V166.26L126.979 167.064C126.979 167.064 124.243 168.111 123.761 168.27C123.278 168.432 119.978 169.8 119.495 170.121C119.012 170.442 116.999 171.087 116.759 171.168C116.519 171.249 111.53 171.33 111.53 171.33C111.53 171.33 109.919 170.847 109.919 170.526C109.919 170.205 109.196 168.192 109.196 167.709C109.196 167.226 110.483 163.204 110.483 163.204C110.483 163.204 114.506 153.709 114.989 152.5C115.472 151.294 119.093 145.421 119.093 145.421C119.093 145.421 123.034 142.766 123.517 142.202C124 141.638 125.932 139.706 125.932 139.706L126.898 136.73L129.394 135.845C129.394 135.845 132.049 136.247 132.292 136.247C132.535 136.247 134.062 135.602 134.062 135.602L135.673 132.545L137.041 129.891L137.284 126.672L138.973 123.534L146.377 115.968L145.171 113.476L142.999 112.51C142.999 112.51 142.516 110.821 142.597 109.774C142.678 108.727 140.986 106.798 140.986 106.798C140.986 106.798 138.733 105.43 138.733 105.11C138.733 104.789 138.814 103.178 138.814 103.178H140.422C140.422 103.178 142.516 102.614 142.516 102.293C142.516 101.972 141.631 100.361 141.631 98.8341C141.631 97.3041 141.793 94.0076 141.793 94.0076L140.425 94.5716C140.425 94.5716 138.818 97.3074 138.737 97.5472C138.656 97.7904 137.126 100.202 137.126 100.202L135.677 98.4322L134.751 95.8584L135.595 93.3659C135.595 93.3659 136.16 92.3998 136.399 91.9169C136.639 91.4339 134.751 89.664 134.751 89.664L130.607 90.9509L127.952 93.2848C127.952 93.2848 127.067 94.5716 127.067 94.8148C127.067 95.058 127.952 96.5847 127.952 96.5847L129.641 98.1146C129.641 98.1146 130.769 98.5977 130.928 98.8375C131.09 99.0807 131.975 99.9622 131.894 100.607C131.813 101.252 131.171 103.1 131.171 103.1L129.56 104.63C129.56 104.63 128.594 104.873 128.594 104.228C128.594 103.583 128.354 103.505 128.354 102.539C128.354 101.573 128.192 100.526 128.192 100.526L125.777 99.3981C125.777 99.3981 125.534 98.6754 125.534 98.1924C125.534 97.7094 125.372 95.3755 125.372 95.3755L123.038 94.6527L122.555 94.7338L120.785 96.5036L120.383 98.1146L120.14 101.415L119.336 100.851L118.37 99.0807L117.242 96.588L116.921 93.0483L114.989 91.2785L112.334 89.6674L111.689 88.1374L110.804 86.9316L106.353 89.7215L105.816 91.1164L93.6935 92.0824L90.4747 91.7615L89.1878 90.1538L85.1111 90.2619L82.1085 88.975L80.0684 90.5828L76.8496 89.5087L74.0597 88.3299L71.2699 86.9349L62.9003 88.438L52.3859 87.6848L42.7295 84.466L39.8316 80.602L32.2152 78.3492L25.3486 76.4173L22.4506 73.3066L14.4053 68.5847L13.3583 67.0547L9.09239 66.4906L6.51872 62.6301L0.401941 63.5961L0 64.8424V65.9299L3.38096 68.9866L4.98867 70.1114L5.06974 71.8001L4.26586 73.7321L2.89795 74.6171L3.06009 77.113L2.97902 78.8018C2.97902 78.8018 2.57711 79.2038 2.33393 79.2848C2.09412 79.3659 1.85092 80.7337 1.85092 80.7337L2.49601 82.3415V83.4663L2.01305 84.8342L0.807231 86.2831L0.00340147 87.7321L0.648496 89.1L1.85427 90.7111L3.30324 94.8148C3.30324 94.8148 3.54305 96.5036 3.30324 96.7467C3.06006 96.9899 2.49941 98.2768 2.49941 98.2768L4.10712 103.667L3.5701 108.281L7.53869 112.679L8.18384 116.972L10.3286 117.829L12.2606 118.687L13.3617 120.94L14.9457 123.622L18.3807 125.017L19.2386 128.877L21.2786 131.343L22.6735 134.883V140.354L25.6762 146.684L27.6082 169.108L29.4321 170.503L31.2559 172.539L31.6849 175.113V176.292L36.0825 180.048L37.0485 196.462L37.6936 198.178L38.4434 213.09L39.2743 213.776H40.3618L40.8448 212.891L42.3749 213.252L43.1382 212.688L42.6957 211.601L41.8919 210.756C41.8919 210.756 41.1285 208.625 41.2096 208.223C41.2907 207.821 41.4899 206.051 41.4899 206.051L40.7672 204.846L41.2907 203.157L42.5775 202.593L46.1577 202.431L47.9276 203.961L48.9746 205.531L49.7379 207.622L50.3831 208.385L52.0313 209.03L55.2501 209.432L61.7688 210.56V211.165L58.9519 212.171L53.3181 214.262L48.37 216.637L48.0897 219.251C48.0897 219.251 49.0151 220.457 48.8125 220.659C48.6098 220.862 48.289 221.504 48.289 221.504L47.4446 221.183L45.7153 219.454L44.8709 217.765L44.3068 216.356L39.6796 215.15L39.558 215.796L40.2808 217.768L41.4055 218.856L43.8069 228.982L44.6108 233.058L46.9717 233.595L49.5994 233.97L50.6195 235.149H51.0484H51.6936L52.2306 233.754L53.4634 233.808L54.6962 234.291L55.6622 234.024C55.6622 234.024 56.466 233.166 56.466 233.004C56.466 232.842 58.1818 232.038 58.1818 232.038L60.1138 233.7L61.762 235.149L62.2045 235.74L61.762 236.277L59.3336 237.402L58.5061 237.618L55.5541 238.905L55.392 240.891L55.446 243.252L55.3379 244.647L54.2639 244.863L53.8349 244.971L53.943 245.775L54.5341 246.741C54.5341 246.741 55.6622 248.244 55.7669 248.511C55.875 248.777 56.1418 249.96 56.1418 249.96L57.3746 251.517L58.1244 252.429C58.1244 252.429 58.6615 253.178 58.7155 253.607C58.7695 254.036 58.4487 255.377 58.4487 255.377L56.5167 256.556L55.8716 256.823L55.3886 257.36C55.3886 257.36 55.3345 260.15 55.1758 260.258C55.0137 260.366 54.3179 260.687 54.3179 260.687C54.3179 260.687 53.6728 261.17 53.6222 260.579C53.5681 259.988 53.6222 258.542 53.6222 258.542L53.5681 257.684C53.5681 257.684 53.1932 257.255 52.977 257.255C52.7608 257.255 51.6362 257.846 51.6362 257.846L50.7242 258.812L50.5621 260.099L50.937 261.386L52.5987 263.156C52.5987 263.156 53.2439 263.96 53.2945 264.28C53.3486 264.601 53.4566 268.732 53.4566 268.732L52.9196 269.59L50.7749 269.161L49.8089 267.874L49.6468 266.317L49.5927 248.078L48.0897 246.417L47.8769 244.11L47.3399 241.641L46.4279 241.749L45.2492 242.877C45.2492 242.877 45.2492 246.954 45.2492 247.17C45.2492 247.386 46.1071 272.971 46.1071 272.971C46.1071 272.971 46.053 275.869 45.8943 276.028C45.7321 276.19 45.1444 278.926 45.1444 278.926C45.1444 278.926 45.6275 279.729 45.7896 279.729C45.9517 279.729 45.9517 279.729 45.9517 279.729L47.1304 278.926L47.7756 277.156L48.7956 276.136L50.1905 276.028L52.4434 277.635L53.7842 280.104L56.7869 282.894L58.9857 282.681L60.8096 281.769L62.5794 279.733L64.3493 278.5L65.9063 279.145L67.8383 279.037L69.5 276.946L70.6788 276.355L72.9857 277.105L74.1138 279.412L76.2045 280.753L80.1731 280.27C80.1731 280.27 84.412 279.466 84.5707 279.466C84.7328 279.466 88.8636 280.591 88.8636 280.591L91.5454 284.292L91.8662 286.116L92.9943 287.136L92.4573 287.782L91.3832 287.727L91.0084 288.585L93.4773 291.267L96.534 292.395L96.7502 291.217L99.6988 291.754L102.81 291.379L105.866 288.214C105.866 288.214 110.963 287.569 111.125 287.569C111.287 287.569 114.128 288.697 114.128 288.697V289.93L116.918 290.359L118.204 293.415L122.71 295.989L126.571 297.921L128.661 301.944C128.661 301.944 129.465 306.932 130.11 307.736C130.755 308.54 133.971 311.117 133.971 311.117V314.978V318.196V320.449V323.185V326.083L136.707 327.532L137.028 329.464L136.382 334.936L136.545 339.279L139.926 344.268L145.559 345.717L150.869 347.649C150.869 347.649 156.503 349.581 157.144 349.581C157.789 349.581 165.997 350.064 165.997 350.064L166.963 350.868L171.951 351.671L177.261 350.868L181.284 348.132L186.755 347.007L190.295 343.147L194.318 341.377V339.928L195.122 337.996L199.144 335.905L203.329 335.743L206.71 336.547L213.306 336.385L217.65 335.098L221.993 333.49L225.212 334.615L229.556 336.547L235.51 336.064L241.627 338.154L244.201 340.569V343.626L246.937 344.109L251.28 342.981L252.246 341.532L259.005 342.177L263.51 342.339L265.28 343.143L267.533 341.211C267.533 341.211 269.948 339.441 270.914 339.12C271.88 338.8 276.707 337.351 276.707 337.351L280.246 335.902L284.107 333.004H287.163L289.899 334.128L292.152 336.864L302.612 335.736L312.59 334.449L324.982 323.989L344.295 322.219L347.352 320.932L349.121 319.483L353.306 314.174L356.525 313.529L359.423 314.816L365.54 315.457L374.713 312.721L380.185 313.687L384.69 314.17L390.324 313.042L398.694 306.443H540.311V303.224L539.018 300.292Z" fill="#FEFEFF" stroke="black" stroke-width="2" mask="url(#path-1-inside-1_468_2692)"/>
</svg>
