<svg width="985" height="985" viewBox="0 0 985 985" fill="none" xmlns="http://www.w3.org/2000/svg">
<rect width="985" height="985" rx="44" fill="black"/>
<path d="M640.148 210.368L645.62 201.647V198.826H646.646V140.862L640.148 127.269L585.775 113.932C585.775 113.932 585.176 114.359 584.578 115.128L586.288 118.377L590.221 117.608C589.451 119.831 590.221 117.95 590.221 119.488C590.221 120.942 590.99 119.147 590.221 121.37L588.254 121.198L587.57 120.857L590.392 126.328V138.468C591.332 138.468 591.845 138.211 592.187 138.211C596.461 137.784 598.941 147.103 593.298 152.147C592.358 153.002 591.418 153.6 590.392 154.113V187.456L583.809 196.689L640.234 210.539L640.148 210.368ZM592.016 139.836L592.529 140.349C592.529 140.349 591.76 140.007 592.016 139.836ZM597.573 184.121C607.832 180.701 593.726 185.318 603.13 178.564C603.13 178.735 603.13 179.077 603.13 179.162C602.617 189.336 608.43 175.144 604.925 191.474L597.573 189.678V184.121ZM588.339 197.031L599.368 191.474C590.05 200.279 598.257 199.168 588.339 197.031ZM636.558 141.546L634.506 134.193C641.174 135.989 639.465 134.364 640.063 141.546H636.558ZM636.387 158.217V152.66C640.319 155.567 638.781 152.831 640.063 158.217H636.387ZM607.575 152.318V148.727C607.575 148.727 606.806 149.24 606.806 150.864C606.806 154.113 607.233 153.344 607.575 152.318ZM607.575 157.02V154.455C606.635 154.113 605.524 154.028 605.011 154.626C603.643 155.994 605.524 157.618 607.575 157.02ZM627.239 136.245L629.291 140.52V191.986L627.495 195.321L605.524 189.935L607.575 186.857V166.338C607.148 164.885 606.892 162.492 606.806 158.217C602.446 161.124 604.925 160.44 599.368 161.893L607.575 145.906V134.877L605.695 130.945L627.324 136.245H627.239Z" fill="#ED1C24"/>
<path d="M381.528 165.671L382.041 166.184C382.041 166.184 381.272 165.842 381.528 165.671ZM361.266 163.79C362.292 159.686 363.148 159.515 363.148 154.557H365.028V163.79H361.352H361.266ZM387 141.647L394.609 128.823L409.399 113.52L385.889 119.333L383.409 123.437V137.885C384.863 139.51 383.409 136.945 386.316 140.536L387 141.562V141.647ZM382.811 190.036L383.837 191.319L382.469 199.269L414.272 191.489H412.99V190.463L398.285 179.606L383.666 161.396C383.238 165.671 384.948 163.277 383.409 169.432L382.212 176.272C381.357 185.505 380.674 183.881 383.495 189.609L382.897 189.95L382.811 190.036ZM371.783 201.92L365.199 192.002V185.847C357.676 184.992 356.992 183.111 363.148 178.665C364.857 183.367 364.088 180.632 365.028 182.342L365.285 182.684V166.611L379.819 186.018C379.819 165.927 381.443 166.782 381.614 158.916L381.101 158.318C371.697 157.548 379.306 160.712 376.057 152.847C378.28 152.077 376.399 152.847 377.938 152.847C379.391 152.847 377.596 153.616 379.819 152.847C381.358 146.093 382.554 134.551 383.153 124.206L365.285 153.787V136.175L372.039 123.01L341.518 130.533L348.101 140.536V196.448L341.518 209.614L371.953 202.176L371.783 201.92Z" fill="#ED1C24"/>
<path fill-rule="evenodd" clip-rule="evenodd" d="M291.925 165.916L297.397 178.74L301.927 177.201C302.44 177.372 302.953 177.286 303.124 176.773L310.562 174.294L302.27 185.408L312.7 194.641L298.85 193.017L296.028 206.696L290.557 193.872L277.305 198.232L285.598 187.118L275.168 177.885L289.018 179.509L291.839 165.83L291.925 165.916Z" fill="#ED1C24"/>
<path fill-rule="evenodd" clip-rule="evenodd" d="M692.644 165.92L687.172 178.744L675.032 174.726V175.752L677.084 178.573V178.402L684.351 180.454V184.13C682.983 184.045 681.957 183.959 681.103 183.959L682.3 185.498L671.869 194.731L685.719 193.107L688.54 206.786L691.96 198.92H688.113C688.284 193.791 689.481 194.475 693.67 193.363V194.902L694.097 193.962L707.263 198.322L698.97 187.208L709.401 177.975L695.551 179.599L692.73 165.92H692.644Z" fill="#ED1C24"/>
<path d="M278.166 111.209L281.073 110.098V110.268C279.876 114.457 285.69 110.268 280.218 110.781C278.166 110.952 278.166 113.432 278.166 111.123M492.327 915.272C484.547 910.741 476.682 906.21 468.902 901.593C471.894 900.824 468.645 902.363 469.756 897.917C470.953 893.3 471.039 893.557 472.065 889.368C465.225 886.888 478.306 889.111 470.269 889.539L464.713 887.487C464.884 895.609 465.909 893.472 468.645 894.925L467.106 900.397L460.951 896.806C460.352 896.122 459.155 894.925 458.044 894.155C452.487 890.223 463.259 895.951 455.223 893.301L455.394 893.472L444.707 886.974C445.476 886.803 446.417 886.632 448.127 885.606C445.22 881.673 447.956 883.212 442.57 881.93V885.692C384.007 849.699 327.838 809.09 285.519 756.597C286.801 755.657 285.177 754.46 283.638 754.203L281.671 751.638C280.816 747.877 282.014 749.757 278.337 747.193C263.291 727.102 250.21 705.386 239.694 681.534L239.523 680.679H239.353C237.215 675.806 235.163 670.762 233.282 665.718C202.59 584.157 201.308 486.524 203.873 340.672L204.3 313.827C204.386 314.597 205.411 315.196 206.266 316.906C214.046 316.136 206.267 317.675 210.798 313.999L211.824 309.468C202.847 313.657 220.031 306.988 209.088 309.981C206.95 310.579 209.686 306.988 206.01 311.007C204.984 312.118 204.471 312.802 204.386 313.315L207.293 146.86H208.233C207.464 145.834 207.463 145.662 207.378 145.491V142.414C216.867 137.626 226.357 133.01 235.847 128.735C236.189 129.59 238.07 130.787 243.285 132.24C242.943 129.162 242.43 127.196 241.917 126.085C253.459 120.955 265.086 116.168 276.713 111.722C278.081 112.919 280.047 113.517 283.98 113.859C283.98 112.919 283.98 110.696 283.894 110.268L283.552 109.157C297.488 104.027 311.423 99.411 325.359 95.2218C326.299 96.1622 327.752 96.4186 327.581 94.5377C341.431 90.5195 355.366 86.9289 369.216 83.9366C381.356 81.2864 393.497 79.0632 405.722 77.1823C406.15 80.6876 405.722 84.4496 405.722 89.8357C415.383 90.6906 409.056 88.0403 411.279 93.5118C415.041 90.7761 413.93 91.4597 414.443 88.3819C415.041 84.7057 414.955 82.6538 414.955 78.7212L419.743 77.1823C419.743 77.1823 420.256 77.0115 420.427 76.8406C419.487 74.8742 419.658 76.4985 419.829 75.1306C452.573 70.9414 485.402 69.5738 518.146 71.1127C518.06 71.4546 518.146 72.1385 518.231 73.1644C518.573 75.3017 522.249 77.1824 520.711 73.5062C520.454 72.8223 519.77 71.7111 519.086 71.1127C526.951 71.4546 534.903 72.0531 542.768 72.7371C543.537 73.763 544.99 74.1902 545.161 72.9933C568.672 75.2161 592.183 78.8071 615.608 83.9366C652.113 91.8875 688.619 103.343 724.954 118.39C724.868 127.367 724.099 126.683 732.221 128.564C732.905 125.657 733.418 123.605 733.845 122.152C748.379 128.393 762.913 135.147 777.361 142.499L779.755 279.63C779.755 279.63 778.986 279.802 778.387 279.972C778.986 280.827 779.413 281.426 779.84 281.939L780.439 317.162C779.071 317.333 778.729 317.589 776.592 318.701C780.011 323.317 777.019 322.377 780.61 322.292L780.952 340.587C781.208 357.515 781.465 373.759 781.636 389.489C777.276 390.515 778.558 390.088 780.353 394.448L781.636 392.481C781.807 409.409 781.807 425.738 781.636 441.298C777.618 441.042 779.584 441.811 778.473 442.41L778.729 447.881C778.558 450.532 778.473 452.583 778.473 455.319L781.55 452.669C781.379 466.946 781.037 480.71 780.439 494.047C779.926 494.047 779.242 494.133 778.387 494.133C764.452 494.133 756.244 485.413 756.244 503.366C764.195 505.076 758.381 504.136 767.358 503.366L769.239 496.013C770.009 504.905 770.009 499.177 772.915 504.905L774.796 510.804C776.591 506.273 771.804 507.128 779.926 507.128C778.9 526.791 777.361 545.429 775.224 563.126C774.369 562.869 773.086 562.698 771.034 562.442C771.034 559.792 771.034 559.963 770.521 557.398C770.521 557.056 770.009 556.799 769.923 556.115C769.923 555.431 769.41 555.431 769.154 555.004C767.7 560.476 768.384 557.996 765.478 562.356C759.664 559.535 760.263 559.535 754.449 562.356C759.921 569.88 755.731 564.237 765.478 564.237C774.796 564.237 760.348 566.033 773.941 572.274C772.915 579.883 771.719 587.321 770.436 594.673C769.667 594.245 768.641 593.903 767.273 593.818C765.392 600.914 759.237 602.282 767.273 606.727L768.299 605.958C764.024 626.989 758.467 646.738 751.371 665.632C747.096 676.917 742.309 687.689 737.008 698.12L736.752 697.607C736.752 697.607 736.495 696.923 736.41 696.752C736.41 696.666 736.153 696.324 736.068 695.982C736.068 695.64 735.897 695.469 736.068 695.555L730.254 702.651C731.708 704.788 732.05 705.729 732.477 706.327C717.516 733.599 699.049 757.965 678.103 780.108L677.249 779.509L674.769 778.312C676.992 780.877 671.007 781.048 676.564 781.647C660.406 798.574 642.795 814.22 624.157 828.839C623.815 828.07 622.789 827.471 621.165 826.274L622.191 830.378C589.105 856.282 552.942 879.109 516.521 900.567L515.923 900.14V900.995L512.503 903.047C511.648 901.765 509.853 900.738 510.451 903.902V904.244L501.646 909.459C501.902 908.519 502.329 907.322 503.099 905.783C496.687 908.091 502.5 904.671 497.627 909.545C495.49 911.682 495.319 911.254 494.378 913.734L492.07 915.101L492.327 915.272ZM248.585 658.622C249.611 658.622 252.689 655.971 254.228 654.86L250.467 647.508C238.925 653.578 243.114 658.536 248.585 658.536V658.622ZM712.044 137.968L712.557 138.481C712.557 138.481 711.788 138.139 712.044 137.968ZM322.452 786.007C330.916 782.929 326.641 788.23 331.685 786.007C333.737 780.108 330.83 787.802 329.804 778.654C325.871 780.535 328.094 780.022 322.452 780.45V786.007ZM492.327 906.039C492.327 896.293 496.601 890.394 486.769 895.865L490.446 896.806C487.881 906.295 483.179 903.645 492.327 906.039ZM228.324 450.019C226.528 443.179 226.443 447.625 224.647 440.785H220.971C221.228 448.993 220.373 449.335 228.324 450.019ZM232.342 290.83L226.443 285.7C225.93 289.719 219.603 288.949 224.049 293.395C226.186 295.532 229.264 292.711 232.427 290.83H232.342ZM225.16 290.659C225.16 290.659 224.818 291.429 224.647 291.172L225.16 290.659ZM565.851 84.1073L566.62 87.0143C565.081 92.9988 566.877 86.9288 564.312 91.8019C572.177 89.921 570.297 90.605 573.545 84.364C563.799 84.364 570.809 84.3637 567.988 82.4829L565.851 84.0222V84.1073ZM732.392 654.946C738.804 658.365 737.607 654.945 736.068 662.298H739.744C739.744 661.528 738.804 656.143 738.804 656.143C738.804 652.894 742.48 654.518 737.949 651.269L735.042 653.492C735.042 653.492 734.529 652.894 734.016 652.808L732.477 654.946H732.392ZM748.977 405.648C751.884 411.119 747.182 408.127 754.534 413C756.415 409.067 755.902 411.376 756.415 405.648H748.977ZM283.723 252.443C291.417 251.759 287.143 255.094 289.28 245.091C284.578 247.057 288.511 247.143 283.723 245.091V252.443ZM296.462 248.083C292.273 248.425 295.094 242.27 291.076 246.887C296.462 249.366 287.998 249.622 298.257 252.358L300.309 245.006C300.309 245.006 299.625 245.946 299.368 246.117L296.462 247.998V248.083ZM289.195 747.278C290.05 748.902 291.332 757.11 295.351 753.092C299.454 748.988 292.358 747.962 289.195 747.278ZM219.09 557.056C227.725 556.115 222.168 559.193 226.357 553.636L219.09 551.584V557.141V557.056ZM311.338 241.329C317.493 244.407 317.151 242.356 318.69 235.773C312.449 239.021 315.27 235.943 311.338 241.329ZM688.021 756.512C688.363 755.828 690.927 758.82 691.697 749.074L688.277 751.638C688.277 751.638 684.943 751.04 684.345 750.954L688.021 756.512ZM545.846 861.754C549.778 867.567 550.804 870.901 553.198 861.754H545.846ZM335.361 778.654C346.048 778.654 337.413 778.569 339.807 780.108C342.03 781.561 334.079 779.424 342.714 782.331V776.773H335.361V778.654ZM741.967 616.901C747.268 616.217 741.198 617.585 743.677 614.08L748.977 618.012C746.669 611.6 742.993 610.489 740.941 614.849C738.718 619.551 741.881 616.987 741.967 616.987V616.901ZM254.143 265.353C253.288 261.848 253.715 262.276 252.262 259.796C247.816 262.447 249.782 260.309 248.585 265.353H254.143ZM719.397 134.292V125.059H717.516C717.516 134.463 712.728 132.069 719.397 134.292ZM268.933 261.677C265.257 262.788 266.368 261.848 263.376 263.558C266.283 267.491 263.547 265.952 268.933 267.234V261.677ZM237.557 305.962C234.65 302.03 237.386 303.568 232 302.286V307.843C233.881 307.074 234.394 307.843 237.557 305.962ZM490.531 885.777C487.624 881.845 490.36 883.383 484.974 882.101V887.658C486.855 886.889 487.368 887.658 490.531 885.863V885.777ZM228.324 568.17C225.417 564.237 228.153 565.776 222.767 564.494V570.051C224.648 569.281 225.075 570.051 228.324 568.17ZM220.886 359.567V363.243H226.443V359.567H220.886ZM315.099 762.069H311.423V767.626H315.099V762.069ZM497.627 882.101L499.679 889.453C504.894 885.692 504.638 886.632 497.627 882.101ZM593.893 80.6879C590.729 81.5428 586.711 81.7991 589.789 84.7914C592.867 87.8691 593.123 83.7656 593.893 80.6879ZM760.091 333.662H763.768V328.105C759.322 330.756 761.288 328.618 760.091 333.662ZM224.562 315.196C224.562 315.196 226.443 316.991 228.238 309.638H224.562V315.196ZM300.309 258.001C306.208 257.402 302.617 258.599 305.866 252.443C299.796 254.581 304.498 250.05 300.309 258.001ZM708.454 699.658C711.788 696.923 709.223 699.317 708.368 697.436C704.948 694.016 705.205 699.231 704.692 701.112C709.48 698.975 703.923 703.335 708.454 699.658ZM475.741 878.339C477.109 879.536 476.51 879.45 478.819 880.733C483.093 883.041 479.588 881.161 483.093 882.015C478.904 876.373 484.29 879.023 475.741 878.339ZM211.652 298.61C215.842 306.561 211.14 301.944 217.21 304.167C213.02 296.216 217.722 300.833 211.652 298.61ZM211.567 477.547C211.738 477.034 211.652 474.983 211.652 473.957C206.779 479.343 207.72 471.392 209.772 481.309C210.883 479.514 210.541 480.796 211.482 477.462L211.567 477.547ZM520.882 86.5013C523.788 90.605 525.242 86.3302 525.584 82.5685L520.882 86.5013ZM715.72 704.788C714.695 705.045 709.565 705.985 709.907 706.926L712.044 708.464C715.293 706.669 714.438 708.635 715.72 704.788ZM505.236 876.544C506.262 874.15 513.358 876.886 505.236 870.987V876.544ZM219.09 311.52V305.962C215.671 309.638 211.481 305.962 219.09 311.52ZM758.21 237.653V232.096C754.791 235.772 750.601 232.096 758.21 237.653ZM647.412 802.678C646.044 804.046 648.095 805.841 650.318 805.072C653.738 803.789 648.865 801.31 647.412 802.678ZM296.633 756.512C295.265 757.879 297.317 759.675 299.54 758.82C302.959 757.538 298.001 755.058 296.633 756.512ZM636.212 788.571C632.963 788.059 633.732 791.906 636.383 791.564C637.323 791.478 640.401 789.255 636.212 788.571ZM230.034 339.903C226.785 339.39 227.554 343.237 230.205 342.895C231.145 342.81 234.223 340.587 230.034 339.903ZM244.738 267.918C241.489 267.405 242.259 271.252 244.909 270.91C245.85 270.825 248.927 268.602 244.738 267.918ZM220.8 301.175C217.551 300.662 218.321 304.509 220.971 304.167C221.912 304.082 224.989 301.859 220.8 301.175ZM747.011 264.242C743.762 263.729 744.532 267.576 747.182 267.234C748.122 267.149 751.2 264.925 747.011 264.242ZM420.17 827.385C416.922 826.872 417.691 830.72 420.342 830.378C421.282 830.292 424.445 828.069 420.17 827.385ZM409.056 827.385C405.808 826.872 406.577 830.72 409.228 830.378C410.168 830.292 413.246 828.069 409.056 827.385ZM719.311 266.037C716.062 265.524 716.832 269.371 719.482 269.029C720.423 268.944 723.5 266.721 719.311 266.037ZM562.517 858.077C562.517 858.077 566.364 860.044 564.397 850.725L562.517 858.077ZM477.537 863.634C477.537 863.634 476.852 863.805 476.767 863.891L473.86 867.311C481.555 865.43 480.101 865.601 477.537 863.634ZM468.303 883.897C477.878 882.871 471.638 886.033 473.86 880.22C472.834 880.818 471.466 881.503 470.269 882.187L468.303 883.897ZM502.5 879.28C502.5 879.28 503.099 879.963 503.355 880.22C502.5 870.73 505.151 876.715 499.679 874.663L502.5 879.28ZM222.767 154.554C220.544 148.741 226.785 151.903 217.21 150.877C217.552 151.134 218.064 151.22 218.15 151.733L222.767 154.554ZM743.42 148.997C743.848 151.134 747.439 153.015 745.9 149.339C745.216 147.8 742.565 144.209 743.42 148.997ZM623.388 99.1542C623.815 101.291 627.491 103.173 625.867 99.4965C625.183 97.9576 622.533 94.3665 623.388 99.1542ZM673.231 106.592C673.658 108.729 677.334 110.611 675.71 106.934C675.026 105.395 672.376 101.804 673.231 106.592ZM532.936 869.106C538.237 866.712 534.39 871.243 538.493 865.43C533.278 866.798 535.757 865.088 532.936 869.106ZM684.345 763.864C684.858 766.685 682.976 765.488 686.653 764.548C688.02 764.206 683.404 758.991 684.345 763.864ZM769.325 529.356C769.838 532.177 767.957 530.981 771.633 530.04C773.001 529.698 768.384 524.483 769.325 529.356ZM438.808 80.6879C437.867 85.6465 442.484 80.3457 441.202 80.0038C437.526 79.0633 439.406 77.8666 438.808 80.6879ZM671.435 747.278C671.435 751.04 671.093 748.048 673.401 747.791C678.958 747.278 673.145 751.467 674.256 747.278C675.368 743.089 671.435 745.055 671.435 747.278ZM243.029 599.546C243.029 603.308 242.687 600.316 245.08 600.059C250.638 599.546 244.824 603.65 245.935 599.546C247.047 595.357 243.114 597.409 243.114 599.546H243.029ZM237.557 599.546C237.557 603.308 237.215 600.316 239.609 600.059C245.166 599.546 239.352 603.65 240.464 599.546C241.575 595.357 237.557 597.409 237.557 599.546ZM601.245 822.94C601.245 826.702 600.903 823.709 603.212 823.453C608.769 822.94 602.955 827.044 604.066 822.94C605.178 818.751 601.245 820.803 601.245 822.94ZM579.103 834.054C579.103 837.816 578.76 834.823 581.154 834.567C586.711 834.054 580.898 838.158 582.009 834.054C583.12 829.865 579.188 831.917 579.188 834.054H579.103ZM239.353 558.937C239.353 562.699 239.011 559.706 241.404 559.45L242.259 558.937C243.37 554.748 239.438 556.8 239.438 558.937H239.353ZM209.857 453.695C209.857 457.456 209.515 454.464 211.824 454.208C217.381 453.695 211.567 457.798 212.678 453.695C213.79 449.506 209.772 451.557 209.772 453.695H209.857ZM516.35 883.897C516.35 887.658 516.008 884.666 518.316 884.41L519.172 883.897C520.283 879.707 516.35 881.759 516.35 883.897ZM217.21 451.814C217.894 455.661 215.585 452.327 219.005 452.498C221.57 452.669 216.269 446.599 217.21 451.814ZM220.886 472.161C221.57 476.008 219.262 472.674 222.681 472.845C225.246 473.016 219.945 467.031 220.886 472.161ZM623.388 91.8019C623.388 92.4003 625.44 92.2291 625.611 92.1437C626.038 91.9727 628.859 96.4183 626.38 91.6307C626.38 91.5452 622.96 88.2112 623.388 91.8019ZM213.875 571.504C213.875 571.504 211.738 571.248 211.652 571.846C211.225 575.095 211.652 573.043 214.388 572.274L214.645 571.931C217.039 567.144 214.303 571.59 213.875 571.419V571.504ZM676.992 752.835C673.145 750.955 675.368 751.467 669.64 750.954L676.992 752.835ZM531.055 73.3356C528.747 75.6439 533.192 75.8149 531.91 73.3356C531.91 73.3356 531.654 73.3356 531.568 73.3356C531.568 73.3356 531.141 73.2501 531.055 73.3356ZM549.778 836.106L550.376 835.764C550.718 836.79 550.206 836.448 549.778 836.106ZM449.922 200.977H450.692L450.007 201.147V200.977H449.922ZM376.911 101.377C362.121 104.711 347.758 108.644 334.079 113.175C334.079 113.004 333.993 112.918 333.651 112.918C333.651 112.918 333.651 112.748 333.566 112.577C333.566 112.406 333.566 112.235 333.566 112.064C333.651 111.978 334.079 112.064 334.079 112.064C334.079 112.064 334.336 112.064 334.421 112.149L334.25 112.748L333.822 113.261C322.879 116.851 312.364 120.869 302.19 125.229V123.178H296.633C297.231 125.486 297.317 126.598 297.659 127.196C275.858 136.942 256.28 148.484 239.951 161.564L239.694 177.295C239.181 177.21 238.497 177.039 237.471 176.782C239.181 179.261 239.01 179.603 239.609 179.689C239.267 204.824 239.181 231.925 238.925 255.35C246.363 252.529 253.63 249.793 260.811 247.143L260.982 247.314C263.461 249.793 263.205 248.767 264.06 246.031C326.726 223.29 383.494 208.414 447.956 201.233V201.832L433.166 206.876V206.363C428.805 207.645 429.917 206.363 428.72 208.415C409.398 215.169 391.274 221.837 374.261 228.42C374.175 227.992 373.577 227.565 372.123 227.308C369.729 226.966 369.473 228.933 370.584 229.874C351.776 237.226 334.335 244.578 317.92 251.845C316.467 250.819 315.869 251.674 315.527 252.871C286.716 265.695 261.324 278.348 238.07 290.83L237.471 320.582C234.137 320.24 233.624 319.727 230.034 318.872L231.572 324.685L233.71 326.224C233.71 326.224 234.565 325.54 234.736 325.369L237.471 322.548L236.787 358.198C235.932 358.369 235.676 358.37 233.795 359.481C236.018 362.473 234.906 362.302 236.702 362.644C234.393 488.405 236.018 597.409 281.842 685.381C293.128 706.925 307.234 727.187 324.846 746.765L324.247 749.074C325.017 748.732 325.701 748.475 326.299 748.304C328.607 750.869 331.001 753.434 333.48 755.913C332.625 756.169 331.685 757.196 331.685 758.307C331.685 762.069 331.343 759.076 333.737 758.82L334.592 758.307C334.592 758.307 334.763 757.538 334.763 757.281C339.123 761.727 343.654 766.172 348.356 770.533V774.978C348.869 773.866 350.664 773.867 351.605 773.525C382.126 801.395 420.598 828.497 468.645 856.795L468.389 858.077L469.842 857.479C477.109 861.754 484.632 866.114 492.412 870.474C500.534 865.857 508.4 861.412 516.008 856.88C516.179 857.992 516.265 859.018 516.35 859.873H520.026C519.513 857.565 519.171 856.111 518.829 855.17C529.602 848.759 539.861 842.432 549.693 836.191L551.06 837.816C553.796 841.15 551.403 838.585 553.283 837.73C553.882 836.02 557.729 838.243 551.488 834.994C575.768 819.349 597.227 803.875 616.036 788.315C619.113 789.17 617.831 788.999 621.592 791.478C620.395 786.263 620.054 786.605 620.567 784.468L623.302 782.159C623.815 782.843 625.098 783.185 626.38 782.758C628.603 781.989 627.235 780.535 625.696 780.108C652.37 756.854 673.401 733.086 689.816 707.695L689.987 708.379C693.92 705.472 695.886 704.361 692.467 703.506C696.143 697.521 699.648 691.451 702.811 685.296C714.267 663.324 722.987 639.984 729.57 615.362L732.477 617.841C731.451 613.909 731.879 613.481 730.169 613.225C748.293 543.975 749.661 464.98 748.293 377.52C749.918 377.349 748.464 376.836 750.944 372.219C749.747 372.561 748.892 372.733 748.208 372.904C747.78 346.23 747.096 318.786 746.583 290.574C731.451 282.452 715.379 274.244 698.109 265.951C701.101 265.866 704.948 265.097 706.658 265.097V263.216C701.7 263.216 701.528 264.071 697.425 265.097C699.391 261.079 697.938 264.413 699.306 259.539C696.314 261.677 694.86 263.216 694.518 264.156C650.746 243.381 598.937 222.179 534.219 200.549C566.706 204.054 597.141 209.441 627.32 216.878V218.845C627.32 218.845 628.432 219.785 629.629 217.391C638.777 219.614 647.924 222.093 656.987 224.744C658.098 227.394 658.697 231.583 658.697 235.43H660.492V225.684C676.735 230.386 693.065 235.687 709.736 241.586L710.334 242.783L710.762 241.928C722.303 245.946 733.931 250.306 745.9 254.923C745.558 225.684 745.472 190.803 744.873 161.051C735.64 153.699 725.467 146.86 714.353 140.533C718.627 138.139 716.832 141.132 725.125 139.422C723.671 138.396 724.526 138.225 721.62 137.284C718.456 136.173 720.166 136.771 717.772 136.515C710.334 135.66 719.739 137.883 714.353 136.515C707.941 134.89 712.557 135.831 710.334 133.95L708.197 135.489C708.197 136.087 709.223 136.259 709.223 136.857L709.394 137.883C705.889 136.002 702.384 134.121 698.793 132.326C699.733 132.155 700.075 130.53 701.101 126.598C696.912 126.94 694.518 126.427 693.749 129.932C672.375 119.758 648.608 111.38 623.388 104.797C623.644 103.515 625.183 104.968 622.105 102.489C618.857 99.9237 622.362 101.463 619.882 102.574C619.455 103.686 617.745 103.087 618.258 103.429C615.522 102.745 612.872 102.147 610.137 101.463L610.65 100.693L605.092 91.4601C602.015 95.0508 600.219 97.4443 599.193 99.1542C566.791 92.4857 533.449 88.895 499.936 88.4675C499.936 87.7836 499.85 87.0143 499.85 85.9884H497.97V88.4675C457.104 88.04 416.238 92.2295 376.996 101.035L376.911 101.377Z" fill="#ED1C24"/>
<path d="M544.655 298.603C544.228 297.321 544.655 296.466 545.681 296.124C547.733 295.44 552.007 296.551 553.717 300.826C552.093 299.116 547.989 297.149 546.451 299.372C548.673 299.885 547.904 297.235 549.528 302.194C540.551 301.424 546.451 300.484 538.5 302.194C538.842 301.852 540.295 300.313 540.723 299.629L542.176 296.637C543.202 297.492 543.971 298.09 544.655 298.517M494.812 295.097C499.001 292.447 503.277 292.106 504.901 292.362C508.406 292.875 509.859 295.953 514.391 295.44C513.707 297.748 508.662 305.87 501.908 299.116C500.113 297.321 497.463 295.44 494.812 295.44L494.983 297.919C494.983 297.919 494.983 298.774 494.983 299.116L499.771 307.751C494.898 310.145 497.805 309.46 490.538 309.631C488.144 299.543 492.333 296.807 492.419 296.722C479.167 293.901 494.556 296.893 481.305 300.399C477.543 284.069 484.212 301.168 481.305 287.489C489.341 290.823 480.706 288.002 487.46 286.719C491.136 286.035 491.307 287.318 497.89 287.489C495.24 291.422 494.727 292.02 494.812 295.097ZM492.333 251.667L503.191 264.577V284.155C499.429 284.582 496.18 285.18 492.333 285.18V251.667ZM559.36 331.09C552.777 327.756 555.855 319.036 543.715 321.601C537.987 322.798 531.831 325.961 530.207 328.697C538.243 325.79 545.938 325.619 550.212 334.168C554.829 343.316 563.977 341.35 568.764 336.648C562.609 332.287 566.627 335.365 569.79 331.86V335.451C571.671 333.057 572.441 330.15 571.073 327.756C571.073 327.756 564.319 333.741 559.275 331.176L559.36 331.09ZM492.333 294.927L492.846 295.44C492.846 295.44 492.077 295.098 492.333 294.927ZM483.955 297.492C483.955 297.492 483.442 298.261 483.1 298.603C485.408 290.054 486.006 296.979 486.776 287.489C490.794 289.455 487.46 288.087 492.333 289.37C489.597 299.543 492.504 291.336 487.46 294.243C485.921 295.183 484.126 297.919 483.869 297.492H483.955ZM492.333 305.955L495.24 305.699C497.634 310.572 494.898 306.127 494.471 306.298C494.3 306.298 492.333 306.554 492.248 305.955H492.333ZM665.371 400.682L665.884 400.083C665.884 400.083 665.371 400.596 665.371 400.682ZM667.167 411.796L667.765 411.283C667.765 411.283 667.252 411.796 667.167 411.796ZM636.389 427.527C638.441 427.441 633.483 433.255 634.508 427.869C635.192 424.021 632.627 427.783 636.389 427.527ZM599.456 346.565C598.345 333.399 595.951 337.502 603.133 333.655C599.969 348.445 608.262 329.894 604.073 341.008L602.192 343.401C599.798 346.736 606.039 341.777 599.456 346.565ZM609.373 337.331C607.578 337.075 610.485 332.629 610.485 337.331C610.485 342.461 609.373 337.331 609.373 337.331ZM660.328 503.53C664.26 501.906 664.517 503.274 671.442 501.649C670.245 504.471 669.304 511.994 671.442 516.439C665.628 514.217 668.791 520.458 667.765 510.883L656.138 519.261C646.991 521.826 646.221 513.875 645.622 512.678C650.496 510.369 647.589 510.968 654.856 510.883C649.384 500.538 648.615 496.947 658.532 496.092C657.335 493.185 657.249 491.476 657.335 487.628C657.506 480.276 659.644 480.361 660.413 479.506C658.019 490.962 663.063 483.61 660.584 494.724C659.301 500.709 663.747 495.494 660.413 503.445L660.328 503.53ZM612.878 698.625C614.246 698.967 609.63 704.183 610.57 699.31C611.083 696.488 609.202 697.685 612.878 698.625ZM499.685 108.381L500.198 108.894C500.198 108.894 499.429 108.552 499.685 108.381ZM497.89 113.938L498.403 114.451C498.403 114.451 497.634 114.109 497.89 113.938ZM462.752 115.818L463.351 116.331C463.351 116.331 462.581 115.989 462.752 115.818ZM564.318 429.664C564.318 425.903 563.977 428.895 566.285 429.151C571.842 429.664 566.028 425.475 567.14 429.664C568.251 433.853 564.318 431.802 564.318 429.664ZM425.05 239.442C423.682 236.963 428.128 237.219 425.905 239.442H425.05ZM483.869 483.439C487.033 487.799 481.476 483.781 481.219 483.183C479.595 478.737 483.271 482.67 483.869 483.439ZM475.748 605.096C475.748 605.096 476.261 605.609 476.346 605.609L475.748 605.096ZM634.508 350.326C629.635 346.052 634.252 352.036 634.508 341.093C625.703 343.23 631.601 342.375 628.951 341.093C632.285 339.468 631.259 339.64 636.389 339.298C635.791 331.689 632.115 333.912 638.185 331.946C638.869 340.495 636.218 335.194 641.861 339.298C641.433 334.339 641.006 334.254 640.066 330.064L642.887 334.596C645.537 339.041 642.63 337.331 647.418 339.298C647.076 339.64 646.392 339.554 646.307 340.153C646.136 340.751 645.452 340.837 645.281 341.008C639.382 347.163 646.819 336.22 644.084 341.606C643.913 341.862 643.742 342.205 643.571 342.632C641.69 346.223 642.203 342.718 643.827 346.736L638.612 350.754C638.013 350.754 637.159 348.018 634.594 350.412L634.508 350.326ZM639.723 342.034C636.218 343.316 638.27 340.922 640.236 340.58C640.835 340.494 641.433 340.58 641.861 341.008C644.938 344.086 639.809 342.034 639.723 342.034ZM599.456 409.402C595.267 409.402 597.319 408.804 592.104 407.521C594.412 403.247 595.267 402.734 595.78 396.407C600.909 396.835 607.407 401.451 610.57 405.641C599.114 405.897 603.133 409.317 599.456 409.317V409.402ZM517.041 461.809C517.041 461.809 517.383 456.338 527.385 461.126L525.59 470.359C520.632 471.555 522.085 472.24 518.152 472.24C514.22 472.24 514.476 465.656 517.041 461.895V461.809ZM477.03 336.049L477.629 335.536C477.629 335.536 477.116 336.049 477.03 336.049ZM366.487 661.607C366.487 661.607 365.889 661.949 365.718 662.035L357.51 669.729C355.886 662.12 357.083 669.045 357.254 664.856C357.425 660.41 358.707 666.395 356.057 662.035C355.544 661.18 350.158 664.514 356.057 659.384C357.254 658.358 361.187 656.82 363.068 656.82C370.163 656.82 363.752 656.221 368.625 658.7L366.487 661.692V661.607ZM361.272 662.291C358.194 665.369 360.332 660.239 360.246 660.154C358.622 655.622 363.153 660.41 361.272 662.291ZM444.286 357.594C449.074 350.498 445.91 351.78 451.724 350.241C460.273 365.458 442.747 359.474 442.491 359.474C442.918 359.047 444.03 357.85 444.286 357.594ZM468.31 512.763C471.644 514.473 470.618 514.217 475.662 514.644C470.19 522.766 472.413 515.499 474.123 523.707C475.235 529.007 476.261 528.751 468.31 529.435C469.678 523.45 470.19 517.38 468.31 512.849V512.763ZM562.523 241.322C558.933 240.895 561.924 247.734 555.171 237.646L562.523 241.322ZM566.199 573.72C558.847 573.122 560.215 572.95 556.966 568.163C567.225 562.52 566.37 572.01 571.756 566.282C567.824 581.158 566.627 560.81 566.199 573.634V573.72ZM565.601 568.676C565.601 568.676 566.37 568.334 566.114 568.163L565.601 568.676ZM628.951 413.079C624.591 410.172 623.309 410.172 624.762 405.384C626.386 399.741 627.84 399.57 632.713 398.288C631.003 401.793 629.464 408.12 629.037 413.079H628.951ZM553.29 760.181C549.614 744.535 557.479 750.862 562.523 758.3C558.334 759.326 558.249 759.753 553.29 760.181ZM461.556 351.523C461.641 352.122 462.068 352.464 462.239 352.72C464.89 356.909 463.351 356.396 468.31 357.679L462.838 361.44C462.838 361.44 461.385 362.808 460.957 363.236C459.675 358.448 461.641 361.184 457.281 359.56V354.002C462.069 352.72 459.333 354.686 460.957 350.326C461.214 350.668 461.47 350.925 461.641 351.523H461.556ZM554.658 686.058C554.658 686.058 552.692 687.341 551.409 688.196C550.982 683.237 550.554 683.151 549.528 678.962C556.795 678.791 553.888 679.475 558.762 677.082C556.624 686.229 553.717 683.493 562.438 684.434C557.992 690.589 561.07 686.657 557.393 686.144C555.085 685.802 557.223 685.118 554.573 685.973L554.658 686.058ZM553.974 682.638C552.179 682.125 555.085 678.022 555.085 682.638C555.085 687.853 553.974 682.638 553.974 682.638ZM488.657 575.516C483.784 574.233 487.118 575.686 483.1 573.634C483.1 561.494 482.416 569.616 484.981 564.401C493.616 566.709 489.512 565.684 488.828 569.958V574.917C488.828 574.917 488.828 575.345 488.657 575.516ZM533.968 458.048C529.95 457.193 532.43 452.234 532.942 446.335C534.139 447.703 534.567 446.506 535.337 449.328C536.277 452.491 536.106 450.439 534.738 453.688C541.15 452.32 540.209 450.182 542.09 457.364C541.748 457.022 541.321 455.911 541.236 456.338C540.552 458.39 541.919 453.602 538.072 455.483C532.857 457.877 542.09 459.672 533.883 458.048H533.968ZM348.277 678.962C351.184 677.509 344.857 677.081 353.834 678.962L348.277 675.286C350.671 670.413 349.987 673.32 350.158 666.053L353.834 675.286C361.956 671.695 353.663 685.118 348.277 678.962ZM375.977 608.772H385.21C384.783 613.816 385.21 615.441 381.106 615.697C376.661 615.953 376.832 610.653 375.977 608.772ZM651.094 538.582C645.452 534.479 648.102 539.779 647.418 531.23C649.983 529.862 650.923 531.999 651.094 523.792C655.625 527.126 654.856 528.323 652.804 533.111C651.693 535.59 652.035 529.862 651.094 538.582ZM646.734 565.598L643.742 560.81C643.742 560.81 644.426 560.298 644.511 560.554L651.18 553.458L649.299 568.248C642.117 565.855 648.016 568.676 646.734 565.684V565.598ZM433.258 370.588H442.491C442.234 382.643 443.174 374.692 437.617 376.744L435.053 378.026C434.54 372.298 435.053 374.521 433.258 370.588ZM497.89 250.556H494.214C492.675 244.058 492.504 246.025 494.214 239.442L500.113 244.571C498.318 247.478 498.745 247.051 497.89 250.47V250.556ZM431.377 481.387C439.156 483.439 434.625 482.584 436.934 492.502C431.035 491.219 434.027 490.621 429.581 492.502C430.522 489.766 434.112 487.543 431.462 481.387H431.377ZM608.689 451.807L606.809 461.04C604.329 459.672 604.757 460.014 601.251 459.159V453.602C606.98 453.089 604.757 453.602 608.604 451.721L608.689 451.807ZM593.899 435.221C595.695 435.905 595.267 437.786 599.456 433.34C597.319 443.685 600.055 436.418 599.884 439.752C599.884 440.778 603.389 442.488 595.267 443.257C592.873 443.514 594.497 444.454 593.215 442.573C588.513 435.734 597.062 448.558 593.899 435.135V435.221ZM658.532 477.711C664.602 468.564 659.814 478.395 658.532 466.597C663.833 472.154 658.617 466.084 669.56 468.478C666.141 470.53 663.918 469.418 663.833 471.128L663.405 474.035C660.327 481.046 663.833 475.232 658.532 477.626V477.711ZM572.013 667.591L564.404 669.985C564.404 669.387 565.344 665.882 565.344 665.454C565.173 661.949 565.601 664.514 564.318 662.291L565.857 660.154L572.013 667.591ZM427.7 365.031C418.04 365.031 418.638 367.083 416.586 359.474L429.496 365.031C424.024 372.64 427.786 366.314 427.615 365.031H427.7ZM442.491 787.88C442.832 783.948 442.491 782.58 443.175 781.981C443.773 781.468 445.056 781.298 448.048 780.528C447.193 790.36 449.33 784.803 442.491 787.966V787.88ZM628.951 450.012C632.029 452.149 632.628 450.268 632.628 455.568C632.628 460.869 631.858 458.988 628.951 461.126C629.464 454.97 630.918 454.714 628.951 450.012ZM518.152 496.178L525.505 498.229C518.751 507.292 520.375 500.367 518.152 496.178ZM589.966 298.517L588.342 294.841C591.847 296.124 591.933 296.038 593.215 298.09C593.728 298.945 594.497 300.227 595.78 302.194C586.119 301.339 592.702 304.074 589.966 298.432V298.517ZM472.071 499.854C476.859 502.077 475.662 501.136 481.305 499.854C477.714 504.727 474.294 507.976 472.071 499.854ZM564.318 610.653H571.671V614.329C563.122 613.645 568.422 616.296 564.318 610.653ZM337.248 570.044V575.601H333.572V570.044H337.248ZM357.168 443.6C362.897 444.968 359.648 444.882 361.187 446.25C353.065 447.96 357.938 450.097 353.834 444.369C356.741 443.172 354.433 442.916 357.168 443.514V443.6ZM651.094 335.536L648.957 333.997L654.599 329.723L654.856 337.331C651.094 333.227 652.462 335.023 651.18 335.451L651.094 335.536ZM603.731 381.104C603.731 381.104 599.542 380.933 597.575 376.145C600.824 377.684 603.56 378.283 606.809 379.822L605.27 381.959C604.671 381.959 603.902 380.677 603.731 381.104ZM580.391 694.949C581.673 692.47 581.503 693.24 582.785 691.872V699.224H579.109C579.964 695.719 577.997 699.224 580.391 694.949ZM490.538 313.393L488.486 320.745C486.52 319.207 484.468 320.147 485.75 316.813C486.861 313.992 486.861 317.24 490.538 313.393ZM494.214 326.303C495.668 320.746 494.214 322.284 499.771 320.745C496.522 326.901 500.113 325.704 494.214 326.303ZM551.409 440.778C553.889 437.358 551.922 438.299 555.855 437.957L560.642 438.983C555.769 441.291 558.676 440.693 551.409 440.778ZM658.532 368.793C654.001 366.912 654.856 372.469 654.856 361.44H656.736C656.736 366.142 657.164 365.886 658.618 368.793H658.532ZM439.071 344.427L431.633 350.583C432.659 346.736 431.718 348.702 433.343 346.736C433.856 346.052 435.224 345.111 436.848 342.888L438.986 344.427H439.071ZM529.694 440.351L523.709 440.778V435.221L529.694 440.351ZM625.275 329.979L634.508 324.422V328.098C629.55 328.526 629.464 328.953 625.275 329.979ZM553.29 581.072C550.811 578.593 550.127 579.363 556.966 577.396C556.453 579.277 556.71 584.578 553.29 581.072ZM602.192 672.465C603.047 671.61 604.842 669.814 604.928 669.729V675.286H599.371C599.371 675.286 601.765 672.892 602.107 672.55L602.192 672.465ZM512.681 339.212C513.878 334.168 511.911 336.305 516.357 333.655V339.212H512.681ZM586.547 444.454C587.744 439.41 585.777 441.547 590.223 438.897V444.454H586.547ZM671.442 477.711V472.154H675.118C673.322 479.506 671.527 477.455 671.442 477.711ZM409.234 437.102V431.545H412.91C411.115 438.983 409.32 436.931 409.234 437.102ZM614.161 468.478C616.897 464.631 616.812 466.426 619.718 464.802C620.915 465.315 625.446 467.538 614.161 468.478ZM425.905 354.002H431.462V357.679C426.076 356.396 428.812 357.935 425.905 354.002ZM403.677 448.131H400.001V442.573C404.104 445.395 402.309 442.915 403.677 448.131ZM381.534 701.105H375.977C378.884 696.916 376.319 698.968 381.534 697.429V701.105ZM603.133 414.874C604.159 414.874 606.125 414.874 606.723 414.959C610.057 415.9 608.69 415.472 610.57 416.669C602.449 418.379 607.322 420.516 603.218 414.788L603.133 414.874ZM525.59 477.711C526.616 477.711 528.582 477.711 529.181 477.797C532.515 478.737 531.147 478.309 532.942 479.506C524.821 481.216 529.694 483.354 525.59 477.626V477.711ZM514.476 505.667L510.8 503.53C515.331 501.649 512.253 502.248 518.152 503.53L516.699 505.411C513.621 506.693 516.955 506.266 514.476 505.667ZM593.899 387.259H597.575V392.817C590.479 387.858 596.806 392.816 593.899 387.259ZM551.409 461.126C547.135 466.939 552.691 463.861 544.056 464.802C545.424 463.605 544.57 463.605 547.135 462.408C550.896 460.698 547.99 461.895 551.409 461.126ZM617.923 675.286C622.368 679.133 616.213 680.501 612.365 675.286C621.257 677.423 615.272 676.568 617.923 675.286ZM341.523 349.728C343.233 353.489 342.036 350.583 342.806 354.002C336.736 349.557 340.241 355.37 339.13 346.65C340.326 348.018 340.326 347.163 341.523 349.728ZM592.959 465.657L591.078 463.776C591.078 463.776 590.394 463.178 590.137 462.836L595.951 462.493L594.07 466.768C593.472 466.768 592.959 465.229 592.873 465.571L592.959 465.657ZM538.329 481.216C537.474 481.986 535.336 482.499 534.738 483.183C536.961 477.113 532.344 481.815 540.295 477.626C538.841 481.558 540.808 478.908 538.329 481.131V481.216ZM481.818 473.18C485.323 473.009 482.758 473.436 484.895 472.154L481.219 477.711C481.048 477.198 482.331 476.001 477.543 472.154C477.885 472.154 481.39 473.18 481.818 473.18ZM656.651 459.245H662.208C658.104 464.973 660.841 464.973 656.651 459.245ZM346.482 346.565V341.008C347.935 342.034 348.875 342.803 349.474 343.401C352.295 346.137 347.337 344.598 346.482 346.565ZM366.744 339.212V333.655C368.197 334.766 369.223 335.536 369.821 336.135C372.472 338.699 367.599 337.246 366.744 339.212ZM444.286 344.77V339.212C452.408 345.111 445.312 342.376 444.286 344.77ZM436.934 741.714C437.789 732.054 435.138 738.38 440.61 736.157C439.157 739.064 439.413 740.603 436.934 741.714ZM334.256 336.22C333.401 337.332 332.29 338.614 331.692 339.212L329.554 337.673L335.197 333.399C332.546 341.435 338.275 330.663 334.342 336.22H334.256ZM649.299 660.496C650.752 659.042 655.625 661.607 652.206 662.804C649.983 663.659 647.845 661.864 649.299 660.496ZM632.628 477.711C633.226 477.113 634.423 477.198 635.363 477.626C636.646 478.139 637.586 479.335 635.534 480.105C633.311 480.874 631.26 479.165 632.628 477.797V477.711ZM368.625 599.539C369.052 599.112 369.821 599.026 370.505 599.197C372.215 599.539 373.925 600.992 371.531 601.933C369.308 602.702 367.257 600.993 368.625 599.625V599.539ZM564.318 671.524C565.772 670.071 570.645 672.636 567.225 673.833C565.003 674.602 562.95 672.892 564.318 671.524ZM355.715 584.748C356.228 584.236 357.168 584.236 358.023 584.492C359.562 584.92 360.845 586.288 358.622 587.057C356.399 587.912 354.347 586.116 355.715 584.748ZM383.415 379.822C384.868 378.368 389.741 380.933 386.321 382.13C385.466 382.472 384.612 382.386 384.013 382.13C382.988 381.703 382.56 380.676 383.415 379.822ZM516.357 293.046C517.81 291.592 522.684 294.157 519.264 295.354C517.041 296.124 514.989 294.414 516.357 293.046ZM486.776 169.337C487.374 165.918 489.084 166.431 492.333 165.661C489.426 169.594 492.162 168.055 486.776 169.337ZM639.895 456.252C644.084 456.936 641.006 459.159 640.066 459.245C637.415 459.586 636.646 455.74 639.895 456.252ZM649.128 445.138C653.317 445.822 650.239 448.045 649.299 448.131C646.648 448.472 645.879 444.626 649.128 445.138ZM418.296 572.523C422.485 573.207 419.407 575.345 418.467 575.516C415.817 575.858 415.048 572.01 418.296 572.523ZM385.125 550.381C389.314 551.065 386.236 553.287 385.296 553.373C384.355 553.458 383.671 553.031 383.244 552.518C382.645 551.492 383.073 550.039 385.125 550.381ZM601.166 293.73C605.355 294.414 602.277 296.636 601.337 296.722C600.055 296.893 599.2 296.038 599.029 295.183C598.858 294.328 599.456 293.388 601.166 293.644V293.73ZM475.576 570.728C479.766 571.412 476.688 573.635 475.748 573.72C473.097 574.062 472.328 570.215 475.576 570.728ZM383.415 647.586L385.894 648.783C389.057 650.921 387.348 649.809 388.972 651.262C377.516 650.322 386.065 650.493 383.415 647.586ZM566.199 723.248L568.679 724.53C571.842 726.668 570.132 725.556 571.756 727.009C560.3 726.069 568.85 726.24 566.199 723.333V723.248ZM429.581 592.186C430.864 586.8 429.325 589.536 433.258 586.63C431.462 593.982 429.667 591.93 429.581 592.186ZM617.923 702.986C618.265 701.361 618.436 700.507 618.521 699.994C618.778 698.797 618.863 699.48 621.599 697.514C619.804 704.866 618.008 702.9 617.923 703.071V702.986ZM377.858 636.472C379.14 631.086 377.601 633.822 381.534 630.915C379.738 638.267 377.943 636.301 377.858 636.472ZM567.994 564.487C569.277 559.101 567.738 561.837 571.671 558.93C569.876 566.282 568.08 564.316 567.994 564.487ZM520.033 509.087C521.315 503.701 519.776 506.437 523.709 503.53C521.914 510.882 520.118 508.831 520.033 509.087ZM508.919 503.53C505.243 502.504 508.149 505.924 505.157 502.077C499.771 495.237 509.175 507.292 505.243 499.854C507.124 499.17 504.217 494.724 508.919 503.53ZM512.681 496.178C512.681 496.178 515.075 493.784 515.416 493.442C516.186 492.672 518.067 490.791 518.152 490.706C516.699 496.263 518.152 494.724 512.595 496.263L512.681 496.178ZM505.243 239.527C508.662 240.382 508.833 239.954 509.261 240.724C509.517 241.066 509.774 241.836 510.8 243.204C505.414 241.921 508.15 243.46 505.243 239.527ZM558.762 560.81C564.062 562.093 561.583 560.554 564.318 564.487C558.932 563.204 561.668 564.743 558.762 560.81ZM479.424 518.321C481.219 518.748 482.074 518.834 482.587 518.919C483.613 519.09 483.1 519.346 484.981 521.997C479.595 520.714 482.33 522.253 479.424 518.321ZM666.825 458.304C666.825 458.304 666.141 457.62 665.884 457.364L664.004 455.483L668.962 457.107C668.962 457.107 669.475 460.527 669.56 461.04C669.56 461.04 667.167 458.646 666.74 458.304H666.825ZM553.29 291.165C553.29 291.165 552.521 291.507 552.35 292.02L547.818 294.841C549.699 289.883 545.51 291.336 549.956 291.336C550.725 291.336 551.837 291.336 553.375 291.165H553.29ZM508.919 485.064L503.362 481.387C512.851 482.157 506.867 479.592 508.919 485.064ZM339.044 558.93C343.148 561.751 341.352 559.272 342.72 564.487C335.624 559.528 341.951 564.487 339.044 558.93ZM364.948 354.002L368.625 348.446C368.539 349.899 368.454 351.01 368.454 351.78C368.454 356.396 369.565 352.122 364.948 354.002ZM540.38 294.927L545.938 291.251C545.425 292.704 545.339 293.644 545.51 294.157C545.852 295.782 547.562 294.157 540.466 295.012L540.38 294.927ZM558.762 719.571L564.318 715.895C562.096 721.794 568.337 718.546 558.762 719.571ZM368.625 627.239L363.068 630.915C365.29 625.101 359.05 628.265 368.625 627.239ZM484.981 257.994C485.237 254.83 484.211 256.369 485.836 254.061C485.921 253.975 486.263 253.548 486.434 253.377L488.743 252.436L485.066 257.994H484.981ZM625.275 653.058C624.42 648.099 628.951 653.4 627.584 653.742C623.907 654.767 625.788 655.879 625.275 653.058ZM516.357 451.807C515.758 448.814 517.297 449.584 518.238 450.695C518.836 451.465 519.264 452.32 518.751 452.491C515.075 453.431 516.955 454.628 516.442 451.807H516.357ZM571.756 662.291C571.756 660.154 575.689 658.102 574.578 662.291L573.723 662.804C571.415 663.06 571.756 666.053 571.756 662.291ZM453.519 326.303C453.519 324.165 457.537 322.114 456.34 326.303C455.229 330.492 461.043 326.303 455.486 326.816C453.177 326.987 453.519 330.064 453.519 326.303ZM573.552 590.306C573.552 588.168 577.485 586.117 576.459 590.306C575.347 594.495 581.161 590.306 575.604 590.819C573.295 590.99 573.637 594.067 573.637 590.306H573.552ZM527.385 466.597C527.385 464.46 531.318 462.408 530.292 466.597L529.437 467.11C527.129 467.281 527.471 470.274 527.471 466.597H527.385ZM494.214 141.638C494.214 137.876 493.872 140.868 496.181 141.125L497.035 141.638C498.147 145.827 494.214 143.775 494.214 141.638ZM488.657 139.842C488.657 136.08 488.315 139.073 490.709 139.244L491.564 139.842C492.675 143.946 488.657 141.979 488.657 139.842ZM508.919 497.973C507.978 493.015 512.595 498.315 511.227 498.657C511.227 498.657 510.8 498.657 510.714 498.657C507.295 498.401 509.603 501.735 508.919 497.888V497.973ZM370.505 582.953C369.565 577.824 374.951 583.808 372.301 583.637C368.881 583.466 371.189 586.715 370.505 582.953ZM333.572 680.758C333.059 677.851 334.513 678.62 335.453 679.646C336.137 680.501 336.479 681.527 335.453 681.441C332.034 681.185 334.342 684.519 333.658 680.758H333.572ZM510.8 302.279C510.031 298.346 513.45 300.997 513.279 302.621L513.108 302.963C513.108 302.963 512.681 302.963 512.595 302.963L510.8 302.194V302.279ZM647.76 608.43C648.187 608.601 650.923 604.156 648.529 608.943C648.529 609.029 645.109 612.363 645.537 608.772C645.537 608.174 647.589 608.345 647.76 608.43ZM621.941 442.231C622.369 442.402 625.104 437.957 622.71 442.744C622.71 442.83 619.291 446.164 619.718 442.573C619.718 441.975 621.77 442.146 621.941 442.231ZM603.474 660.154C603.902 660.325 606.638 655.879 604.244 660.666C604.244 660.752 600.824 664.087 601.251 660.496C601.251 659.897 603.303 660.068 603.474 660.154ZM559.189 704.439C559.616 704.61 562.438 700.164 559.959 704.952C559.959 705.037 556.539 708.372 556.966 704.781C556.966 704.183 559.018 704.353 559.189 704.439ZM479.766 529.007C480.193 529.178 482.929 524.733 480.535 529.52C480.535 529.606 477.116 532.94 477.543 529.349C477.543 528.751 479.595 528.922 479.766 529.007ZM514.818 519.774C515.245 519.945 518.066 515.499 515.673 520.287L514.732 520.714C513.279 520.714 512.253 523.963 512.681 520.116C512.681 519.517 514.733 519.688 514.904 519.774H514.818ZM579.451 551.15C579.878 551.321 582.7 546.875 580.22 551.663L579.28 552.091C577.826 552.091 576.8 555.339 577.228 551.492C577.228 550.894 579.28 551.064 579.451 551.15ZM582.785 651.262L576.886 655.28L579.023 653.143C581.417 651.604 577.399 653.314 582.7 651.348L582.785 651.262ZM465.061 110.261L447.535 112.57V118.896L447.962 119.495C447.962 119.495 447.62 119.922 447.535 120.008V138.047L461.385 131.891V128.13C458.649 127.189 457.794 124.966 460.872 119.495C460.615 119.324 460.188 119.324 460.102 119.238C460.017 119.238 459.418 118.982 459.333 118.896L457.196 115.818C465.317 113.938 462.923 115.134 464.975 110.261H465.061ZM503.447 108.124H502.934L503.447 108.381V108.124ZM505.328 123.171L523.196 124.453V131.806L537.046 137.961V112.484L514.305 109.492C514.562 110.774 515.502 110.86 514.476 115.733C510.543 112.826 512.082 115.562 510.8 110.176H507.123C506.867 113.083 507.465 111.116 506.696 113.083L504.217 115.477C504.217 115.477 503.704 115.562 503.447 115.733C506.696 128.044 505.756 118.554 505.414 123.171H505.328ZM543.287 439.068C544.228 434.879 544.57 430.348 544.399 426.073L539.269 432.4C536.106 435.82 538.756 432.4 536.619 435.307C542.347 435.905 542.347 434.794 543.202 439.068H543.287ZM598.345 352.635C598.345 354.003 598.174 355.37 598.088 356.738C598.943 356.396 600.055 356.14 601.251 355.798C599.969 354.003 599.029 353.062 598.345 352.635ZM673.152 418.465C671.698 414.788 670.33 411.112 669.133 407.521L668.962 407.008L667.765 403.588C667.338 403.161 666.739 402.648 665.884 401.964C664.944 413.42 664.089 404.529 667.68 411.967C667.851 412.309 668.278 413.42 668.449 413.762L673.152 418.465ZM672.724 421.628L675.118 423.423L674.092 420.944C673.408 421.286 672.98 421.457 672.724 421.628ZM658.361 408.547L661.695 411.881C664.944 410.343 662.208 408.12 658.361 408.547ZM663.405 664.258L663.234 660.496C662.379 659.641 661.695 659.47 662.208 662.376C662.379 663.146 662.892 663.83 663.405 664.258ZM627.327 701.361L628.866 700.25L627.156 701.105L627.327 701.361ZM540.209 793.779L541.834 791.386C540.979 791.386 539.953 791.386 538.5 791.642C539.184 792.583 539.782 793.267 540.209 793.865V793.779ZM535.849 793.01L535.422 801.217L538.157 797.028H536.704C536.448 794.463 536.191 793.352 535.849 793.01ZM619.12 505.667C617.923 508.232 616.726 510.712 615.444 513.02L617.923 512.763C618.008 511.139 618.607 508.489 619.12 505.667ZM483.1 618.604L492.333 624.503L516.015 609.2L518.58 549.44L534.311 509.344L601.508 485.748C601.337 481.046 603.047 477.198 603.133 475.745C610.741 475.146 611.938 474.377 613.99 470.957C613.99 470.872 614.161 470.444 614.247 470.188C616.897 476.514 612.109 473.693 615.957 475.83C618.607 477.369 614.845 479.079 619.718 471.983C619.462 475.146 619.376 477.455 619.462 479.336L621.257 478.737L624.933 480.96L627.242 468.649C629.123 460.527 623.993 465.058 630.832 462.75C630.405 468.307 628.524 473.607 627.584 477.968C627.242 479.592 626.985 480.875 626.814 481.986L647.931 494.724L625.275 492.843C625.019 493.955 624.677 495.237 624.164 496.691C618.094 516.611 605.27 579.705 600.311 604.412C599.456 608.687 600.311 604.412 599.029 609.542L585.264 684.092C582.87 693.838 586.717 687.341 580.818 689.734C586.376 665.967 584.238 674.687 584.751 659.555C584.837 656.392 587.402 655.281 589.71 643.397C591.163 636.13 593.13 629.547 593.728 623.22L589.796 620.912C589.796 620.912 589.796 620.314 589.71 620.228L589.881 618.69C590.907 614.158 591.42 615.783 592.446 614.842C592.446 614.842 596.293 616.381 596.721 605.524L597.319 600.308C597.319 600.308 597.661 599.881 597.661 599.71C600.995 592.528 610.656 536.873 612.195 532.855C613.905 528.067 612.707 531.145 613.99 529.093C611.767 523.279 618.008 526.442 608.433 525.416L608.604 523.108C591.505 546.277 568.08 553.458 548.331 559.357L541.749 680.159C542.432 680.245 543.116 680.33 543.8 680.501C541.064 687.169 545.767 682.724 541.236 689.906L536.02 785.401C538.072 788.65 537.816 790.36 543.8 787.624L543.629 788.223L545.681 785.23C543.116 784.29 546.108 788.479 541.406 782.494L541.577 778.049C543.116 777.109 541.748 784.29 547.818 779.075C549.87 777.28 552.435 773.005 554.658 772.834C557.308 769.328 560.044 765.909 562.78 762.575L562.267 761.805L563.805 761.463C582.101 739.235 600.995 721.538 621.428 705.636V702.815C627.925 701.105 625.617 702.131 628.781 697.258C627.071 696.403 629.465 693.068 625.104 699.138L622.967 697.6C623.993 694.949 622.539 694.864 621.428 691.786C616.213 693.581 619.376 691.872 617.837 694.522C615.187 699.053 616.042 695.035 615.871 702.815C598.345 703.242 619.291 705.465 605.526 705.807C595.865 706.064 601.422 703.67 597.404 695.462C601.251 694.18 599.285 695.035 601.081 691.786C605.014 694.265 596.464 692.641 606.552 693.752C608.689 694.009 613.477 693.667 615.871 693.667C617.923 686.058 617.239 687.169 623.223 689.991C623.223 680.415 621.599 682.809 626.899 678.877C624.933 687.34 627.071 685.118 625.019 693.667C634.851 691.017 627.07 690.675 630.576 684.434L632.371 693.325C631.602 695.975 631.516 697.343 631.516 698.027C642.032 690.247 652.975 682.81 664.345 675.372C664.004 672.55 663.662 669.814 663.491 666.993C660.669 674.431 666.825 666.822 657.933 674.687C654.257 678.022 651.693 680.587 649.128 684.434L652.804 669.644C654.685 672.123 654.685 665.796 654.685 675.2H656.566C656.566 669.387 658.276 662.975 663.063 659.213C661.61 619.459 673.322 581.585 676.742 548.671C669.219 562.093 659.473 580.218 652.377 593.555C653.403 593.042 654.428 593.384 653.83 595.777L652.975 596.29C650.752 596.461 650.923 599.197 651.009 596.29C646.221 605.353 642.972 611.593 642.972 611.593C652.718 554.57 675.545 506.694 697.261 459.501C683.24 449.499 671.869 439.581 662.208 428.638C661.097 428.467 659.729 428.638 657.762 429.407C649.128 432.913 660.242 430.006 651.009 433.34C651.949 430.776 652.206 430.947 652.89 429.664C653.061 429.322 653.317 428.809 653.573 428.467C653.83 428.04 654.685 426.672 655.027 426.244C657.934 422.825 656.395 422.483 657.079 422.483C654.856 419.747 652.804 416.926 650.752 414.019C648.957 418.55 649.555 424.706 643.656 418.465C644.169 425.219 645.109 423.509 642.887 428.553L640.322 434.195C635.876 442.744 635.278 440.265 630.661 440.607L636.304 415.045C636.304 415.045 636.56 414.361 636.56 414.275L637.757 412.566C638.185 411.882 639.296 415.557 638.869 410.513C638.527 406.666 638.185 407.949 636.133 405.555L640.579 405.726C643.656 407.692 640.749 404.102 643.485 407.521C646.221 410.855 642.545 408.632 645.452 414.788C646.82 413.762 648.016 412.737 648.957 411.54C640.749 399.4 633.739 385.721 626.985 369.306C632.371 377.342 638.869 386.319 645.965 394.868C646.221 394.612 646.648 394.441 647.076 394.184C651.094 392.218 649.299 394.783 654.599 392.646C654.428 393.073 654.001 393.159 653.916 393.757L652.89 395.809C651.949 401.964 655.797 396.236 658.276 405.469L664.431 393.244C659.9 377.428 657.079 361.953 655.796 346.393L652.719 348.275C654.685 343.059 649.982 345.026 655.625 344.77L655.369 341.093C646.819 343.059 652.462 343.914 648.957 337.161C649.983 337.673 652.206 338.443 652.89 338.785C654.771 339.725 655.112 339.896 655.283 340.067C655.027 335.365 654.941 330.577 654.941 325.79L635.791 314.163C635.278 317.07 639.04 316.471 632.371 316.899C627.242 317.241 628.78 315.787 626.814 313.137C628.609 312.453 630.063 311.94 631.174 311.341L617.923 303.305C617.324 303.561 616.555 303.733 615.785 303.989C615.358 302.963 615.016 302.194 614.845 301.424L606.125 296.124L605.868 296.722C605.868 296.722 602.448 300.142 602.876 296.551C602.876 295.953 604.928 296.123 605.099 296.209C605.184 296.209 605.441 296.038 605.612 295.782L578.681 279.453C584.238 289.455 588.427 299.287 591.591 308.777C596.806 312.538 592.275 309.204 592.532 311.769L592.959 313.137L593.301 313.821C598.088 323.567 593.557 307.152 597.404 318.694C595.865 318.266 594.925 318.01 594.241 317.668C595.267 321.686 596.122 325.704 596.721 329.551C600.482 329.551 597.404 330.321 598.601 327.585C598.687 327.414 598.687 326.816 598.772 326.559L599.2 320.489C599.2 320.489 599.884 321.088 599.969 321.686L602.448 328.269C602.534 329.466 599.713 331.603 604.757 331.603C611.767 331.603 604.586 333.484 611.425 327.072C617.581 321.259 614.845 322.285 619.547 324.251C620.83 328.013 618.265 331.689 615.871 333.484L616.042 332.202C616.299 328.953 619.034 335.194 616.213 329.979C614.161 326.303 612.964 328.611 610.314 329.808C617.41 343.231 619.974 336.733 626.899 342.717C616.897 344.855 619.889 342.376 612.109 337.161L608.176 342.461C613.562 343.829 618.179 345.196 623.223 346.393C623.138 346.564 619.633 352.122 619.547 352.207C618.692 353.233 621.684 354.687 615.785 353.832L602.876 351.865C605.184 357.422 605.184 352.891 601.764 357.935L597.062 362.979C596.72 365.544 596.208 368.024 595.609 370.417C598.943 372.127 595.951 370.588 595.438 372.127L595.096 372.298C590.651 389.14 581.588 402.734 569.363 411.881C570.218 412.309 571.5 412.48 573.979 412.138C576.8 411.625 575.262 411.967 576.972 410.941V418.635C569.363 425.731 577.143 412.736 570.047 420.858C563.378 428.467 569.277 422.055 570.047 426.501C571.073 432.571 570.901 431.117 565.943 433.084C568.166 434.793 563.891 434.281 571.5 434.965C571.927 439.923 572.355 440.008 573.381 444.198L570.474 441.547C568.337 440.607 570.303 440.607 566.028 440.436C565.259 430.946 564.66 437.957 562.352 429.407L559.445 435.221C557.479 429.493 556.453 431.032 559.873 427.014C563.036 423.423 563.207 424.364 566.028 420.089L562.352 419.148C562.694 417.866 563.207 416.926 563.378 417.268L565.088 414.874C560.899 417.438 556.368 419.576 551.58 421.115C550.64 431.716 547.306 441.462 539.013 449.499C540.466 447.105 541.663 444.112 542.603 440.693L542.176 440.18C541.492 439.154 540.722 437.359 540.209 436.589L534.652 440.265C536.79 430.177 533.199 425.047 538.329 414.446C541.064 416.413 542.261 418.208 543.715 420.516C543.458 419.234 543.202 418.037 542.86 416.84C541.92 413.848 540.466 410.941 538.756 408.205C538.841 408.633 538.585 409.06 537.644 409.402C535.422 410.257 533.37 408.462 534.738 407.094C535.593 406.239 537.559 406.752 538.414 407.607C531.233 396.493 518.836 387.43 508.577 381.788V372.725C505.585 372.725 507.722 375.718 507.038 372.041C506.525 369.391 507.637 369.648 508.577 370.588V342.547L507.295 342.29C506.098 342.546 504.644 343.059 503.191 343.743V365.715L503.79 366.485C505.841 369.049 504.302 366.656 505.243 370.246L503.191 369.135V385.892L503.447 386.832L503.191 386.661V487.628C504.217 488.483 503.875 488.398 503.191 488.654V605.181L492.419 611.679V612.021C488.059 612.021 484.981 614.671 483.185 618.177L483.1 618.604ZM329.469 325.961C329.469 331.176 329.298 336.391 329.041 341.521C329.554 341.606 330.409 341.52 331.777 341.093C330.495 343.743 330.495 345.197 328.785 346.308C326.733 371.7 320.748 396.578 309.634 423.423C327.417 410.599 345.285 387.687 357.596 369.391C346.482 396.321 334.684 416.071 318.098 433.426C319.295 434.024 319.893 435.05 318.098 435.734C317.243 435.99 316.474 435.99 315.875 435.734L312.626 438.897C313.823 439.496 314.422 440.522 312.626 441.206C311.771 441.548 310.917 441.462 310.233 441.206C303.479 447.447 295.956 453.517 287.406 459.587C294.588 475.147 301.855 490.791 308.78 506.779L309.634 505.411L311.515 512.763L311.259 512.592C321.603 537.214 331.008 562.777 337.42 590.391C337.762 590.819 342.036 595.777 339.215 590.391C341.096 589.536 338.702 586.972 341.437 590.306C343.489 592.871 341.951 590.477 342.891 594.067C339.215 593.042 342.122 596.461 339.13 592.529L337.42 590.391C339.044 597.402 340.497 604.412 341.78 611.679C341.78 611.679 321.432 572.78 307.924 548.756C310.404 572.352 317.158 598.599 320.235 626.127C322.031 626.555 321.518 626.811 322.629 630.915H320.748C322.116 645.449 322.373 660.325 320.321 675.372C369.992 707.859 410.345 740.09 449.501 801.132L448.048 775.313H447.877C447.877 775.313 447.791 774.714 448.048 774.543L436.25 559.528C425.734 556.451 414.192 552.945 403.164 546.789L403.591 551.834L405.729 551.406C404.874 553.031 404.275 554.057 403.848 555.083L406.071 580.987L401.283 615.184L406.498 671.781L391.622 617.065L392.477 599.368L387.262 579.277L389.314 557.391V556.963H389.228L385.894 539.95L385.467 540.377V537.898L384.526 533.111C377.943 526.699 371.959 518.577 367 508.147V510.883H363.324C363.495 503.103 362.298 504.47 364.777 503.103C363.41 499.939 362.213 496.52 361.016 492.929L336.992 494.896L363.666 478.823L383.928 485.918L384.698 472.24L386.236 459.074L384.355 436.332L391.195 411.027C391.195 411.027 391.708 438.47 392.05 443.343C392.477 448.216 398.547 468.307 398.547 468.307C398.547 468.307 395.897 476.258 396.239 479.592L397.35 490.706L443.26 506.864C444.372 506.608 446.082 507.206 446.509 507.976L450.441 509.344L452.237 513.96C452.151 512.507 451.98 510.882 451.724 509.002C456.854 514.901 454.46 516.012 457.281 521.911C456.512 521.911 455.913 521.911 455.315 521.911L456.426 524.733L460.957 520.201C461.727 520.372 465.232 522.253 459.931 524.647C457.281 525.844 458.564 525.502 456.768 525.587L461.898 538.582C470.361 538.582 463.864 538.582 466.514 536.787L467.369 539.095C468.224 540.463 466.002 539.266 470.191 542.259C466.429 547.559 470.704 542.771 463.779 543.626L466.087 549.525L468.651 609.285L476.26 614.244L476.089 613.988C473.952 610.055 473.097 608.943 475.662 603.301C481.732 607.319 478.911 606.977 486.776 605.096C484.895 609.713 484.81 610.653 492.333 610.653V528.665C490.538 529.434 487.802 528.152 484.981 527.554C488.486 520.971 484.639 522.253 492.333 520.201V513.875L490.196 511.31C491.136 511.31 491.82 511.31 492.333 511.31V485.235L485.75 488.227C482.159 488.74 484.895 486.004 483.1 490.792C475.149 490.108 479.766 491.048 473.867 487.115C472.585 491.989 474.038 488.654 472.071 492.673L469.934 491.134C469.934 489.253 471.473 492.245 472.071 485.32C479.68 487.115 477.628 489.424 483.1 487.201C477.201 479.165 479.766 487.8 473.867 479.849C482.758 481.901 482.929 480.19 492.333 477.968V475.66L490.538 476.173V472.496L492.333 472.325V457.706C489.683 458.048 488.913 454.201 492.162 454.714H492.333V350.155C486.434 353.233 480.449 355.883 476.089 354.515V360.414L482.416 370.246L476.089 365.202C461.983 354.173 461.385 343.145 466.856 337.673H466.514C469.335 326.987 468.138 339.127 475.063 329.723C475.234 329.466 475.491 328.867 475.748 328.44C476.944 331.774 476.773 330.834 477.372 332.116L479.167 334.766C483.1 337.16 482.159 328.867 483.1 339.554C476.431 338.101 480.792 337.588 477.543 341.35C471.046 336.647 475.064 336.391 471.986 336.989C470.874 339.212 470.447 341.264 470.789 343.23C471.644 343.059 472.755 342.547 473.867 341.435V346.992L471.473 345.282C474.209 351.609 480.108 351.01 486.52 348.36C485.494 347.591 484.981 345.795 484.981 343.316C488.315 345.026 487.289 344.769 492.419 345.197L491.906 345.795C497.719 342.718 503.533 339.127 507.38 338.443C529.266 342.717 522.769 361.27 522.769 361.27C532.173 357.422 547.477 349.557 541.749 339.981C534.909 339.896 531.147 336.134 527.813 332.031C527.813 332.202 527.556 332.8 526.872 334.168L525.932 334.596C524.479 334.596 523.453 337.844 523.88 333.997C523.88 333.399 525.932 333.569 526.103 333.655C526.36 333.74 527.557 332.031 527.813 331.946C523.025 326.303 518.751 320.062 507.038 322.114C508.663 320.404 510.287 318.779 511.997 317.412C511.655 316.471 511.313 315.189 510.971 313.65C512.937 314.419 513.706 315.018 514.134 315.702C520.717 310.914 527.727 309.033 535.507 312.71C535.935 312.026 536.448 311.427 536.961 311L536.106 310.572C532.942 308.435 534.652 309.546 533.028 308.093C541.406 308.777 537.73 306.896 538.157 310.144C540.979 308.691 544.484 309.29 546.878 311.427C552.435 309.461 549.101 314.333 552.093 309.546C554.145 306.126 548.417 308.349 557.052 302.621C556.368 310.572 557.223 305.613 554.829 310.144C558.163 307.751 558.248 305.613 559.103 299.629L554.658 286.805C544.484 292.191 532.515 289.028 523.282 290.567C520.46 288.173 515.673 284.838 508.663 284.496V277.401C508.663 277.401 508.492 276.546 508.663 276.204V262.354L501.567 253.719L508.833 252.608C508.577 251.838 508.064 250.727 507.123 249.017C512.424 250.898 509.432 247.649 511.484 252.18L550.298 246.11C551.153 249.273 554.059 251.582 557.479 251.582C561.583 251.582 564.917 248.248 564.917 244.144C564.917 242.092 564.147 240.297 562.865 238.929C563.72 240.553 564.318 242.691 564.404 245.341C553.974 244.486 557.565 239.698 553.29 243.46L551.153 241.921C551.495 240.553 551.922 239.527 552.52 238.587C551.494 239.527 550.725 240.724 550.298 242.092L532.942 237.732V237.903C528.069 240.297 531.062 239.613 523.795 239.784C525.675 238.159 527.215 237.133 528.412 236.62L508.663 231.662L502.678 222.856V165.234C502.08 166.003 501.139 166.772 499.771 167.713C495.411 157.197 500.284 176.006 499.771 152.923H502.678V131.806L500.883 131.464C500.626 130.951 500.113 130.951 499.771 130.694L502.678 129.583V126.762C494.129 126.078 506.269 127.445 497.89 121.461L496.009 132.575L491.136 124.625C491.051 123.941 490.709 123.769 490.453 123.342C497.292 121.547 492.846 121.461 499.685 119.666C493.786 111.629 498.403 119.238 490.453 115.99C491.991 113.083 493.188 109.578 495.924 107.355L492.248 106.842L481.39 108.295C482.074 108.552 482.929 108.637 484.895 108.637V110.518C479.937 110.518 479.082 110.603 478.483 108.722L473.867 109.321C473.012 110.432 473.012 110.347 472.071 114.194C472.242 114.194 472.584 114.194 472.67 114.194H475.063C487.032 116.93 483.613 113.425 488.743 117.87C482.16 117.87 476.859 119.067 472.157 115.99C462.838 120.179 476.688 115.22 464.805 114.109C466.856 118.041 468.908 119.837 469.848 124.026L482.245 123.171V149.246H487.033V152.923C482.416 151.555 483.955 152.922 482.245 150.443V222.856L476.26 231.662L434.625 242.092C433.77 239.014 431.035 236.791 427.786 236.62L429.752 241.579C426.161 242.862 428.213 242.007 426.247 243.631C425.563 244.144 424.623 245.512 422.4 247.136C420.861 239.698 422.143 241.066 423.255 237.903C421.288 239.271 420.006 241.493 420.006 244.058C420.006 248.162 423.34 251.496 427.444 251.496C430.864 251.496 433.77 249.188 434.625 246.024L483.357 253.719L476.346 262.354V273.297L481.475 272.955V278.512L476.346 274.066V286.89C476.773 287.745 477.201 289.199 477.799 291.507C477.372 291.336 474.465 289.797 474.38 289.712L474.038 289.199C471.9 289.455 469.849 289.626 467.968 289.712C468.652 290.909 471.558 287.574 474.123 297.064C473.867 296.722 473.439 295.611 473.268 295.953C472.841 297.064 473.696 294.328 469.592 292.533C461.47 289.028 471.302 296.209 464.292 291.678C461.983 290.225 461.128 288.857 460.872 287.831C451.724 285.095 442.918 281.248 434.54 275.947V277.401C438.643 280.051 436.506 276.375 437.19 284.155H435.651C438.301 293.388 445.312 301.168 452.921 303.904C444.628 304.075 437.276 307.323 429.41 312.538C433.172 313.137 437.105 314.334 440.439 315.873C425.563 323.396 419.579 325.106 411.799 342.803C413.167 342.119 414.706 341.606 416.159 341.093C415.988 340.323 415.646 339.212 414.962 337.759C415.988 338.272 418.211 339.041 418.895 339.383C422.315 341.093 420.604 340.238 422.4 341.435C421.203 341.692 420.262 341.948 419.493 342.119C418.125 346.992 416.757 351.181 415.646 355.199C418.638 355.969 415.902 357.935 415.048 358.021H414.962C414.278 361.013 413.679 364.091 413.594 367.425L415.133 367.254C415.133 367.254 414.363 367.596 414.192 368.109L413.594 368.451C413.594 371.871 413.85 375.547 414.705 379.822C416.159 377.257 418.039 374.692 420.006 372.469C419.493 384.866 421.288 395.039 426.589 406.923L430.692 399.057C436.506 412.394 447.791 420.687 452.237 431.545C453.861 435.477 454.289 439.581 454.118 444.882C450.356 435.221 445.996 428.894 438.644 423.337C391.451 412.223 366.658 351.438 405.985 279.88L329.725 326.217L329.469 325.961Z" fill="#ED1C24"/>
</svg>
